<svg width="18" height="18" viewBox="0 0 18 18" fill="none" xmlns="http://www.w3.org/2000/svg">
<path d="M11.8397 1.67969L11.4695 2.08501C10.6403 2.99657 9.95674 3.40415 9.38778 3.6708C8.81881 3.93688 8.34073 4.01637 7.87111 4.37547C7.37044 4.7588 6.64287 5.49391 6.33638 6.80629C5.67936 6.94948 5.19845 7.2009 4.81914 7.52843C4.44435 7.85201 4.16213 8.22013 3.81443 8.62095C3.8116 8.62546 3.81612 8.63391 3.81443 8.63842C3.31545 9.21118 2.87914 9.8279 2.03247 10.1537L1.67969 10.2947V16.3193H12.4397C13.0567 16.286 13.4845 15.8593 13.7447 15.4382C14.0044 15.0176 14.1483 14.5621 14.2211 14.1878C14.4085 13.234 14.75 10.488 14.75 10.488L14.7681 10.4356V10.3826C14.75 10.0015 14.5931 9.67795 14.3972 9.37804L15.0322 7.49348L16.0381 5.97816L16.3203 5.57284L15.9495 5.23854L12.2456 2.03202L11.8397 1.67969ZM11.8753 3.22996L14.8206 5.7848L14.0445 6.92918L13.992 6.98274L13.9739 7.07068L13.4625 8.58543C13.1955 8.4755 12.9206 8.39827 12.6158 8.40955H12.5803L9.0175 8.42702H8.45305V10.6115C8.37403 11.226 8.03197 11.4639 7.60638 11.6335C7.46527 11.6905 7.44777 11.6595 7.32416 11.686V8.41011C7.23159 6.32035 7.97666 5.71884 8.55917 5.27406C8.72003 5.1506 9.19135 5.00797 9.86417 4.69285C10.4264 4.42846 11.1251 3.95436 11.8753 3.22996ZM6.23082 8.07469C6.22857 8.20266 6.18849 8.29285 6.19526 8.42702V12.9369H6.75971C6.75971 12.9369 7.36367 12.9301 8.01222 12.6725C8.6602 12.4149 9.44309 11.8117 9.58195 10.7524V9.55449L12.6158 9.53702H12.6333C12.8811 9.52347 13.1242 9.60852 13.3093 9.77355C13.4945 9.93859 13.6066 10.1702 13.6211 10.4176C13.6189 10.4266 13.5929 10.6357 13.5861 10.682H11.2753V11.8094H13.445C13.3852 12.2452 13.3304 12.5186 13.2683 12.9369H11.2753V14.0644H13.0922C13.0255 14.3371 12.9184 14.5984 12.7745 14.8395C12.6204 15.0904 12.4877 15.1851 12.3692 15.1918H2.80858V10.9813C3.72355 10.4965 4.29251 9.79915 4.66053 9.37861C5.0421 8.94228 5.304 8.61193 5.56026 8.39207C5.7279 8.24888 5.99037 8.16714 6.23082 8.07469Z" fill="#455160"/>
</svg>
