<svg width="16" height="16" viewBox="0 0 16 16" fill="none" xmlns="http://www.w3.org/2000/svg">
<path fill-rule="evenodd" clip-rule="evenodd" d="M2.75804 0.71875H2.70226C2.44679 0.71875 2.22702 0.71875 2.03291 0.764485C1.73242 0.836284 1.45767 0.989866 1.2391 1.20822C1.02054 1.42656 0.866698 1.70116 0.794623 2.00156C0.75 2.19566 0.75 2.4143 0.75 2.67086V5.45959C0.75 5.71503 0.75 5.93478 0.795739 6.12888C0.867543 6.42935 1.02114 6.70408 1.2395 6.92263C1.45787 7.14117 1.73248 7.29501 2.03291 7.36707C2.22702 7.41169 2.44568 7.41169 2.70226 7.41169H5.4912C5.74667 7.41169 5.96644 7.41169 6.16055 7.36596C6.46105 7.29416 6.7358 7.14058 6.95436 6.92223C7.17292 6.70388 7.32677 6.42929 7.39884 6.12888C7.44346 5.93478 7.44346 5.71615 7.44346 5.45959V2.67086C7.44346 2.41541 7.44346 2.19566 7.39773 2.00156C7.32592 1.70109 7.17233 1.42636 6.95396 1.20782C6.73559 0.989269 6.46098 0.835439 6.16055 0.76337C5.96644 0.71875 5.74779 0.71875 5.4912 0.71875H5.43543H2.75804ZM2.29284 1.84986C2.34081 1.8387 2.41556 1.83424 2.75804 1.83424H5.43543C5.77902 1.83424 5.85265 1.83759 5.90062 1.84986C6.00083 1.87382 6.09245 1.92507 6.16531 1.99792C6.23817 2.07078 6.28942 2.16238 6.31339 2.26259C6.32454 2.30944 6.32789 2.38306 6.32789 2.72663V5.40381C6.32789 5.74738 6.32454 5.821 6.31227 5.86897C6.2883 5.96917 6.23705 6.06078 6.16419 6.13364C6.09133 6.20649 5.99972 6.25774 5.89951 6.2817C5.85377 6.29174 5.78014 6.2962 5.43543 6.2962H2.75804C2.41444 6.2962 2.34081 6.29286 2.29284 6.28059C2.19263 6.25662 2.10102 6.20537 2.02816 6.13252C1.9553 6.05967 1.90404 5.96806 1.88008 5.86786C1.87004 5.82212 1.86558 5.7485 1.86558 5.40381V2.72663C1.86558 2.38306 1.86892 2.30944 1.8812 2.26147C1.90516 2.16127 1.95641 2.06966 2.02927 1.99681C2.10213 1.92395 2.19375 1.8727 2.29396 1.84874M10.5671 0.71875H10.5113C10.2558 0.71875 10.0361 0.71875 9.84196 0.764485C9.54146 0.836284 9.26671 0.989866 9.04815 1.20822C8.82958 1.42656 8.67574 1.70116 8.60367 2.00156C8.55904 2.19566 8.55904 2.4143 8.55904 2.67086V5.45959C8.55904 5.71503 8.55904 5.93478 8.60478 6.12888C8.67659 6.42935 8.83018 6.70408 9.04855 6.92263C9.26691 7.14117 9.54152 7.29501 9.84196 7.36707C10.0361 7.41169 10.2547 7.41169 10.5113 7.41169H13.3002C13.5557 7.41169 13.7755 7.41169 13.9696 7.36596C14.2701 7.29416 14.5448 7.14058 14.7634 6.92223C14.982 6.70388 15.1358 6.42929 15.2079 6.12888C15.2525 5.93478 15.2525 5.71615 15.2525 5.45959V2.67086C15.2525 2.41541 15.2525 2.19566 15.2068 2.00156C15.135 1.70109 14.9814 1.42636 14.763 1.20782C14.5446 0.989269 14.27 0.835439 13.9696 0.76337C13.7755 0.71875 13.5568 0.71875 13.3002 0.71875H13.2445H10.5671ZM10.1019 1.84986C10.1499 1.8387 10.2246 1.83424 10.5671 1.83424H13.2445C13.5881 1.83424 13.6617 1.83759 13.7097 1.84986C13.8099 1.87382 13.9015 1.92507 13.9743 1.99792C14.0472 2.07078 14.0985 2.16238 14.1224 2.26259C14.1336 2.30944 14.1369 2.38306 14.1369 2.72663V5.40381C14.1369 5.74738 14.1325 5.821 14.1213 5.86897C14.0973 5.96917 14.0461 6.06078 13.9732 6.13364C13.9004 6.20649 13.8088 6.25774 13.7085 6.2817C13.6617 6.29286 13.5881 6.2962 13.2445 6.2962H10.5671C10.2235 6.2962 10.1499 6.29286 10.1019 6.28059C10.0017 6.25662 9.91006 6.20537 9.8372 6.13252C9.76434 6.05967 9.71309 5.96806 9.68912 5.86786C9.67908 5.82212 9.67462 5.7485 9.67462 5.40381V2.72663C9.67462 2.38306 9.67797 2.30944 9.69024 2.26147C9.7142 2.16127 9.76546 2.06966 9.83831 1.99681C9.91117 1.92395 10.0028 1.8727 10.103 1.84874M2.70226 8.52718H5.4912C5.74667 8.52718 5.96644 8.52718 6.16055 8.57292C6.46105 8.64472 6.7358 8.7983 6.95436 9.01665C7.17292 9.235 7.32677 9.50959 7.39884 9.81C7.44346 10.0041 7.44346 10.2227 7.44346 10.4793V13.268C7.44346 13.5235 7.44346 13.7432 7.39773 13.9373C7.32592 14.2378 7.17233 14.5125 6.95396 14.7311C6.73559 14.9496 6.46098 15.1034 6.16055 15.1755C5.96644 15.2201 5.74779 15.2201 5.4912 15.2201H2.70226C2.44679 15.2201 2.22702 15.2201 2.03291 15.1744C1.73242 15.1026 1.45767 14.949 1.2391 14.7307C1.02054 14.5123 0.866698 14.2377 0.794623 13.9373C0.75 13.7432 0.75 13.5246 0.75 13.268V10.4793C0.75 10.2238 0.75 10.0041 0.795739 9.81C0.867543 9.50953 1.02114 9.2348 1.2395 9.01625C1.45787 8.7977 1.73248 8.64387 2.03291 8.5718C2.22702 8.52718 2.44568 8.52718 2.70226 8.52718ZM2.75804 9.64268C2.41444 9.64268 2.34081 9.64602 2.29284 9.65829C2.19263 9.68225 2.10102 9.7335 2.02816 9.80636C1.9553 9.87921 1.90404 9.97082 1.88008 10.071C1.87004 10.1168 1.86558 10.1904 1.86558 10.5351V13.2122C1.86558 13.5558 1.86892 13.6294 1.8812 13.6774C1.90516 13.7776 1.95641 13.8692 2.02927 13.9421C2.10213 14.0149 2.19375 14.0662 2.29396 14.0901C2.34081 14.1013 2.41444 14.1046 2.75804 14.1046H5.43543C5.77902 14.1046 5.85265 14.1002 5.90062 14.089C6.00083 14.0651 6.09245 14.0138 6.16531 13.941C6.23817 13.8681 6.28942 13.7765 6.31339 13.6763C6.32454 13.6294 6.32789 13.5558 6.32789 13.2122V10.5351C6.32789 10.1915 6.32454 10.1179 6.31227 10.0699C6.2883 9.9697 6.23705 9.8781 6.16419 9.80524C6.09133 9.73239 5.99972 9.68114 5.89951 9.65718C5.85377 9.64714 5.78014 9.64268 5.43543 9.64268H2.75804ZM10.5671 8.52718H10.5113C10.2558 8.52718 10.0361 8.52718 9.84196 8.57292C9.54146 8.64472 9.26671 8.7983 9.04815 9.01665C8.82958 9.235 8.67574 9.50959 8.60367 9.81C8.55904 10.0041 8.55904 10.2227 8.55904 10.4793V13.268C8.55904 13.5235 8.55904 13.7432 8.60478 13.9373C8.67659 14.2378 8.83018 14.5125 9.04855 14.7311C9.26691 14.9496 9.54152 15.1034 9.84196 15.1755C10.0361 15.2212 10.2558 15.2212 10.5113 15.2212H13.3002C13.5557 15.2212 13.7755 15.2212 13.9696 15.1755C14.2699 15.1035 14.5444 14.9499 14.7628 14.7315C14.9811 14.5132 15.1348 14.2387 15.2068 13.9384C15.2525 13.7443 15.2525 13.5246 15.2525 13.2691V10.4793C15.2525 10.2238 15.2525 10.0041 15.2068 9.81C15.135 9.50953 14.9814 9.2348 14.763 9.01625C14.5446 8.7977 14.27 8.64387 13.9696 8.5718C13.7755 8.52718 13.5568 8.52718 13.3002 8.52718H13.2445H10.5671ZM10.1019 9.65829C10.1499 9.64714 10.2246 9.64268 10.5671 9.64268H13.2445C13.5881 9.64268 13.6617 9.64602 13.7097 9.65829C13.8099 9.68225 13.9015 9.7335 13.9743 9.80636C14.0472 9.87921 14.0985 9.97082 14.1224 10.071C14.1336 10.1179 14.1369 10.1915 14.1369 10.5351V13.2122C14.1369 13.5558 14.1325 13.6294 14.1213 13.6774C14.0973 13.7776 14.0461 13.8692 13.9732 13.9421C13.9004 14.0149 13.8088 14.0662 13.7085 14.0901C13.6617 14.1013 13.5881 14.1046 13.2445 14.1046H10.5671C10.2235 14.1046 10.1499 14.1002 10.1019 14.089C10.0017 14.0651 9.91006 14.0138 9.8372 13.941C9.76434 13.8681 9.71309 13.7765 9.68912 13.6763C9.67908 13.6306 9.67462 13.5569 9.67462 13.2122V10.5351C9.67462 10.1915 9.67797 10.1179 9.69024 10.0699C9.7142 9.9697 9.76546 9.8781 9.83831 9.80524C9.91117 9.73239 10.0028 9.68114 10.103 9.65718" fill="#455160"/>
</svg>
