<svg width="16" height="16" viewBox="0 0 16 16" fill="none" xmlns="http://www.w3.org/2000/svg">
<path d="M13.4903 15.8181C13.2382 15.8189 12.9884 15.772 12.7554 15.6803C12.5224 15.5886 12.3109 15.4539 12.1331 15.284L9.86939 13.1327C9.22702 13.2675 8.55791 13.2306 7.93624 13.0261C7.31457 12.8216 6.76463 12.4576 6.34736 11.9742C5.93009 11.4909 5.6618 10.9072 5.57224 10.2879C5.48267 9.66851 5.57532 9.03768 5.83991 8.46529L6.16236 7.76696L8.44142 9.93284C8.54581 10.0277 8.68468 10.0807 8.82912 10.0807C8.97356 10.0807 9.11243 10.0277 9.21682 9.93284C9.26779 9.88449 9.30823 9.82705 9.33582 9.76383C9.36341 9.70061 9.37761 9.63284 9.37761 9.56439C9.37761 9.49595 9.36341 9.42818 9.33582 9.36495C9.30823 9.30173 9.26779 9.2443 9.21682 9.19594L6.93777 7.02953L7.67259 6.7231C8.27494 6.4718 8.93873 6.38389 9.59042 6.46911C10.2421 6.55433 10.8563 6.80935 11.3648 7.20592C11.8733 7.60249 12.2564 8.12512 12.4716 8.71589C12.6868 9.30667 12.7256 9.94253 12.5839 10.553L14.8476 12.7043C15.116 12.9594 15.2988 13.2844 15.3729 13.6383C15.447 13.9921 15.409 14.3589 15.2637 14.6922C15.1184 15.0255 14.8724 15.3104 14.5567 15.5108C14.2411 15.7112 13.87 15.8182 13.4903 15.8181ZM10.1836 11.957L12.909 14.5471C13.0656 14.6892 13.2738 14.7684 13.4903 14.7684C13.7068 14.7684 13.915 14.6892 14.0716 14.5471C14.148 14.4745 14.2087 14.3884 14.25 14.2935C14.2914 14.1987 14.3127 14.0971 14.3127 13.9944C14.3127 13.8917 14.2914 13.7901 14.25 13.6953C14.2087 13.6004 14.148 13.5143 14.0716 13.4417L11.3467 10.8516L11.4498 10.5478C11.5703 10.196 11.6013 9.822 11.5405 9.45655C11.4796 9.09111 11.3285 8.74455 11.0996 8.44527C10.8707 8.14598 10.5705 7.90246 10.2235 7.73465C9.87651 7.56684 9.49264 7.47951 9.10331 7.4798C9.05725 7.4798 9.01155 7.48102 8.96622 7.48345L9.99278 8.45904C10.3012 8.75223 10.4745 9.14982 10.4745 9.56439C10.4745 9.97896 10.3012 10.3766 9.99278 10.6697C9.67938 10.9541 9.26272 11.1128 8.82939 11.1128C8.39607 11.1128 7.97941 10.9541 7.66601 10.6697L6.63945 9.69416C6.63689 9.73759 6.63561 9.78119 6.63561 9.82496C6.6353 10.195 6.72722 10.5599 6.90382 10.8897C7.08043 11.2195 7.33671 11.5049 7.65168 11.7225C7.96666 11.9401 8.33138 12.0837 8.71599 12.1416C9.10059 12.1994 9.49416 12.1699 9.86446 12.0555L10.1836 11.957Z" fill="#455160"/>
<path d="M11.5691 1.74703H9.92398V1.22589C9.92311 0.949707 9.80728 0.685075 9.60179 0.489786C9.3963 0.294496 9.11784 0.184419 8.82722 0.183594H4.44021C4.14959 0.184419 3.87113 0.294496 3.66564 0.489786C3.46015 0.685075 3.34432 0.949707 3.34345 1.22589V1.74703H1.69832C1.40771 1.74786 1.12925 1.85794 0.923753 2.05323C0.71826 2.24851 0.60243 2.51315 0.601562 2.78933V13.7334C0.60243 14.0096 0.71826 14.2742 0.923753 14.4695C1.12925 14.6648 1.40771 14.7749 1.69832 14.7757H5.53696V13.7334H1.69832V2.78933H3.34345V4.35277H9.92398V2.78933H11.5691V5.39506H12.6659V2.78933C12.665 2.51315 12.5492 2.24851 12.3437 2.05323C12.1382 1.85794 11.8597 1.74786 11.5691 1.74703ZM8.82722 3.31047H4.44021V1.22589H8.82722V3.31047Z" fill="#455160"/>
</svg>
