<svg width="18" height="19" viewBox="0 0 18 19" fill="none" xmlns="http://www.w3.org/2000/svg">
<g id="icon-importar">
<path id="Vector" d="M5 14.5117C3.89697 14.5117 2.95467 14.1485 2.17309 13.4221C1.39152 12.6957 1.00048 11.8078 1 10.7586C1 9.8592 1.28485 9.05784 1.85455 8.35449C2.42424 7.65113 3.1697 7.20145 4.09091 7.00543C4.29697 6.17524 4.81212 5.38541 5.63636 4.63593C6.46061 3.88646 7.33939 3.51172 8.27273 3.51172C8.67273 3.51172 9.01527 3.64732 9.30036 3.91851C9.58545 4.18971 9.72776 4.51532 9.72727 4.89537V9.0809L10.8909 8.00857L11.9091 8.97713L9 11.7444L6.09091 8.97713L7.10909 8.00857L8.27273 9.0809V4.89537C7.35152 5.05679 6.63636 5.48065 6.12727 6.16694C5.61818 6.85323 5.36364 7.55935 5.36364 8.2853H5C4.29697 8.2853 3.69697 8.52168 3.2 8.99442C2.70303 9.46717 2.45455 10.0379 2.45455 10.7067C2.45455 11.3755 2.70303 11.9462 3.2 12.419C3.69697 12.8917 4.29697 13.1281 5 13.1281H13.7273C14.2364 13.1281 14.6667 12.9609 15.0182 12.6265C15.3697 12.2921 15.5455 11.8828 15.5455 11.3985C15.5455 10.9142 15.3697 10.5049 15.0182 10.1705C14.6667 9.83614 14.2364 9.66895 13.7273 9.66895H12.6364V8.2853C12.6364 7.73184 12.503 7.21574 12.2364 6.737C11.9697 6.25826 11.6182 5.85193 11.1818 5.51801V3.90952C12.0788 4.31308 12.7879 4.90989 13.3091 5.69996C13.8303 6.49002 14.0909 7.3518 14.0909 8.2853C14.9273 8.37755 15.6213 8.72069 16.1731 9.31474C16.7248 9.90878 17.0005 10.6034 17 11.3985C17 12.2633 16.6819 12.9985 16.0458 13.604C15.4097 14.2096 14.6368 14.5122 13.7273 14.5117H5Z" fill="#0081F9"/>
</g>
</svg>
