<svg width="24" height="24" viewBox="0 0 24 24" fill="none" xmlns="http://www.w3.org/2000/svg">
<path d="M13.3539 17.3877C13.3539 17.6481 13.2766 17.9027 13.132 18.1192C12.9873 18.3358 12.7816 18.5045 12.541 18.6042C12.3004 18.7039 12.0356 18.7299 11.7802 18.6791C11.5248 18.6283 11.2901 18.5029 11.106 18.3188C10.9218 18.1346 10.7964 17.9 10.7456 17.6445C10.6948 17.3891 10.7209 17.1244 10.8205 16.8837C10.9202 16.6431 11.089 16.4375 11.3055 16.2928C11.5221 16.1481 11.7767 16.0709 12.0371 16.0709C12.3863 16.0709 12.7212 16.2096 12.9682 16.4566C13.2151 16.7035 13.3539 17.0384 13.3539 17.3877ZM12.0371 5.53665C9.61641 5.53665 7.64783 7.30881 7.64783 9.48698V9.92591C7.64783 10.1587 7.74031 10.382 7.90494 10.5466C8.06957 10.7113 8.29286 10.8038 8.52568 10.8038C8.7585 10.8038 8.98178 10.7113 9.14641 10.5466C9.31104 10.382 9.40353 10.1587 9.40353 9.92591V9.48698C9.40353 8.27994 10.5853 7.29235 12.0371 7.29235C13.4888 7.29235 14.6706 8.27994 14.6706 9.48698C14.6706 10.694 13.4888 11.6816 12.0371 11.6816C11.8043 11.6816 11.581 11.7741 11.4164 11.9387C11.2517 12.1034 11.1592 12.3266 11.1592 12.5595V13.4373C11.1592 13.6701 11.2517 13.8934 11.4164 14.0581C11.581 14.2227 11.8043 14.3152 12.0371 14.3152C12.2699 14.3152 12.4932 14.2227 12.6578 14.0581C12.8225 13.8934 12.9149 13.6701 12.9149 13.4373V13.3583C14.9164 12.9907 16.4264 11.3941 16.4264 9.48698C16.4264 7.30881 14.4578 5.53665 12.0371 5.53665ZM23.4492 11.6816C23.4492 13.9387 22.7799 16.1451 21.5259 18.0218C20.2719 19.8985 18.4896 21.3613 16.4043 22.225C14.319 23.0888 12.0244 23.3148 9.8107 22.8744C7.59697 22.4341 5.56354 21.3472 3.96753 19.7512C2.37152 18.1552 1.28462 16.1217 0.844285 13.908C0.403947 11.6943 0.629945 9.39968 1.4937 7.3144C2.35745 5.22911 3.82017 3.44679 5.69687 2.19281C7.57358 0.938838 9.77999 0.269531 12.0371 0.269531C15.0628 0.272726 17.9636 1.47609 20.1031 3.61558C22.2426 5.75507 23.446 8.65592 23.4492 11.6816ZM21.6935 11.6816C21.6935 9.77176 21.1271 7.9048 20.0661 6.31682C19.005 4.72884 17.4969 3.49115 15.7324 2.76028C13.968 2.02942 12.0264 1.83819 10.1532 2.21078C8.28007 2.58337 6.55947 3.50306 5.209 4.85352C3.85853 6.20399 2.93885 7.9246 2.56625 9.79775C2.19366 11.6709 2.38489 13.6125 3.11576 15.377C3.84663 17.1414 5.08431 18.6495 6.67229 19.7106C8.26028 20.7717 10.1272 21.338 12.0371 21.338C14.5972 21.3351 17.0517 20.3168 18.862 18.5065C20.6723 16.6962 21.6906 14.2418 21.6935 11.6816Z" fill="#455160"/>
</svg>
