<svg width="19" height="19" viewBox="0 0 19 19" fill="none" xmlns="http://www.w3.org/2000/svg">
<path fill-rule="evenodd" clip-rule="evenodd" d="M9.74701 2.22656C6.25201 2.22656 3.81601 4.96456 3.81601 7.42156C3.81601 9.50056 3.23901 10.4616 2.72901 11.3096C2.32001 11.9906 1.99701 12.5286 1.99701 13.6976C2.16401 15.5836 3.40901 16.5746 9.74701 16.5746C16.05 16.5746 17.334 15.5396 17.5 13.6326C17.497 12.5286 17.174 11.9906 16.765 11.3096C16.255 10.4616 15.678 9.50056 15.678 7.42156C15.678 4.96456 13.242 2.22656 9.74701 2.22656ZM9.74701 18.0746C5.07101 18.0746 0.845013 17.7446 0.500013 13.7616C0.497013 12.1136 1.00001 11.2756 1.44401 10.5376C1.89301 9.78956 2.31601 9.08456 2.31601 7.42156C2.31601 4.18856 5.30201 0.726562 9.74701 0.726562C14.192 0.726562 17.178 4.18856 17.178 7.42156C17.178 9.08456 17.601 9.78956 18.05 10.5376C18.494 11.2756 18.997 12.1136 18.997 13.6976C18.648 17.7446 14.423 18.0746 9.74701 18.0746Z" fill="#455160"/>
</svg>
