<svg width="18" height="18" viewBox="0 0 18 18" fill="none" xmlns="http://www.w3.org/2000/svg">
<path d="M4.975 4C4.65011 4 4.33853 4.1193 4.10879 4.33166C3.87906 4.54402 3.75 4.83203 3.75 5.13235V6.75C3.75 7.37506 4.2988 7.88235 4.975 7.88235H6.725C7.04989 7.88235 7.36147 7.76305 7.59121 7.55069C7.82094 7.33834 7.95 7.05032 7.95 6.75V5.13235C7.95 4.83203 7.82094 4.54402 7.59121 4.33166C7.36147 4.1193 7.04989 4 6.725 4H4.975ZM10.05 5.13235C10.05 4.50729 10.5988 4 11.275 4H13.025C13.7012 4 14.25 4.50729 14.25 5.13235V6.75C14.25 7.05032 14.1209 7.33834 13.8912 7.55069C13.6615 7.76305 13.3499 7.88235 13.025 7.88235H11.275C10.9501 7.88235 10.6385 7.76305 10.4088 7.55069C10.1791 7.33834 10.05 7.05032 10.05 6.75V5.13235ZM11.275 4.97059C11.2286 4.97059 11.1841 4.98763 11.1513 5.01797C11.1184 5.0483 11.1 5.08945 11.1 5.13235V6.75C11.1 6.83929 11.1784 6.91176 11.275 6.91176H13.025C13.0714 6.91176 13.1159 6.89472 13.1487 6.86439C13.1816 6.83405 13.2 6.7929 13.2 6.75V5.13235C13.2 5.08945 13.1816 5.0483 13.1487 5.01797C13.1159 4.98763 13.0714 4.97059 13.025 4.97059H11.275ZM5.5 13.0588C5.77848 13.0588 6.04555 12.9566 6.24246 12.7745C6.43938 12.5925 6.55 12.3457 6.55 12.0882C6.55 11.8308 6.43938 11.5839 6.24246 11.4019C6.04555 11.2199 5.77848 11.1176 5.5 11.1176C5.22152 11.1176 4.95445 11.2199 4.75754 11.4019C4.56062 11.5839 4.45 11.8308 4.45 12.0882C4.45 12.3457 4.56062 12.5925 4.75754 12.7745C4.95445 12.9566 5.22152 13.0588 5.5 13.0588ZM10.05 12.0882C10.05 12.3457 9.93938 12.5925 9.74246 12.7745C9.54555 12.9566 9.27848 13.0588 9 13.0588C8.72152 13.0588 8.45445 12.9566 8.25754 12.7745C8.06062 12.5925 7.95 12.3457 7.95 12.0882C7.95 11.8308 8.06062 11.5839 8.25754 11.4019C8.45445 11.2199 8.72152 11.1176 9 11.1176C9.27848 11.1176 9.54555 11.2199 9.74246 11.4019C9.93938 11.5839 10.05 11.8308 10.05 12.0882ZM12.5 13.0588C12.7785 13.0588 13.0455 12.9566 13.2425 12.7745C13.4394 12.5925 13.55 12.3457 13.55 12.0882C13.55 11.8308 13.4394 11.5839 13.2425 11.4019C13.0455 11.2199 12.7785 11.1176 12.5 11.1176C12.2215 11.1176 11.9545 11.2199 11.7575 11.4019C11.5606 11.5839 11.45 11.8308 11.45 12.0882C11.45 12.3457 11.5606 12.5925 11.7575 12.7745C11.9545 12.9566 12.2215 13.0588 12.5 13.0588ZM2 12.0882C2 11.316 2.33187 10.5754 2.92261 10.0293C3.51335 9.48325 4.31457 9.17647 5.15 9.17647H12.85C13.6854 9.17647 14.4866 9.48325 15.0774 10.0293C15.6681 10.5754 16 11.316 16 12.0882C16 12.8605 15.6681 13.6011 15.0774 14.1472C14.4866 14.6932 13.6854 15 12.85 15H5.15C4.31457 15 3.51335 14.6932 2.92261 14.1472C2.33187 13.6011 2 12.8605 2 12.0882ZM5.15 10.1471C4.59305 10.1471 4.0589 10.3516 3.66508 10.7156C3.27125 11.0797 3.05 11.5734 3.05 12.0882C3.05 12.6031 3.27125 13.0968 3.66508 13.4609C4.0589 13.8249 4.59305 14.0294 5.15 14.0294H12.85C13.407 14.0294 13.9411 13.8249 14.3349 13.4609C14.7288 13.0968 14.95 12.6031 14.95 12.0882C14.95 11.5734 14.7288 11.0797 14.3349 10.7156C13.9411 10.3516 13.407 10.1471 12.85 10.1471H5.15Z" fill="#455160"/>
</svg>
