<svg width="18" height="18" viewBox="0 0 18 18" fill="none" xmlns="http://www.w3.org/2000/svg">
<path fill-rule="evenodd" clip-rule="evenodd" d="M8.9613 1H9.0387C9.70772 1 10.2651 1 10.7072 1.05953C11.1745 1.12205 11.5965 1.26047 11.9351 1.59907C12.2744 1.93842 12.4128 2.36037 12.4753 2.82698C12.52 3.15442 12.5312 3.54437 12.5341 3.99535C13.0164 4.01098 13.4465 4.04 13.829 4.0906C14.7012 4.20819 15.4074 4.45526 15.9648 5.01191C16.5215 5.5693 16.7686 6.27553 16.8861 7.14772C17 7.99609 17 9.07888 17 10.4467V10.53C17 11.8979 17 12.9814 16.8861 13.829C16.7686 14.7012 16.5215 15.4074 15.9648 15.9648C15.4074 16.5215 14.7012 16.7686 13.829 16.8861C12.9807 17 11.8979 17 10.53 17H7.46995C6.10214 17 5.0186 17 4.17098 16.8861C3.29879 16.7686 2.59256 16.5215 2.03516 15.9648C1.47851 15.4074 1.23144 14.7012 1.11386 13.829C1 12.9807 1 11.8979 1 10.53V10.4467C1 9.07888 1 7.99535 1.11386 7.14772C1.23144 6.27553 1.47851 5.5693 2.03516 5.01191C2.59256 4.45526 3.29879 4.20819 4.17098 4.0906C4.60076 4.03739 5.03292 4.0056 5.46586 3.99535C5.46884 3.54437 5.48074 3.15442 5.52465 2.82698C5.58716 2.36037 5.72558 1.93842 6.06419 1.59907C6.40353 1.26047 6.82549 1.12279 7.29209 1.05953C7.73488 1 8.29302 1 8.9613 1ZM6.58288 3.97823C6.86419 3.97674 7.15963 3.97674 7.46995 3.97674H10.53C10.8404 3.97674 11.1358 3.97674 11.4171 3.97823C11.4141 3.55405 11.4037 3.23405 11.3695 2.97581C11.3226 2.63274 11.243 2.4854 11.1462 2.38865C11.0495 2.29191 10.9021 2.21228 10.5583 2.1654C10.1996 2.11777 9.7174 2.11628 9 2.11628C8.2826 2.11628 7.80037 2.11777 7.44093 2.16614C7.09786 2.21228 6.95051 2.29191 6.85377 2.3894C6.75702 2.48614 6.6774 2.63274 6.63051 2.97581C6.59628 3.2333 6.58586 3.5533 6.58288 3.97823ZM4.31907 5.19721C3.57042 5.29767 3.13879 5.4867 2.82326 5.80149C2.50921 6.11628 2.32019 6.54791 2.21972 7.29656C2.11702 8.06084 2.11553 9.06921 2.11553 10.4884C2.11553 11.9075 2.11702 12.9159 2.21972 13.6809C2.32019 14.4288 2.50921 14.8605 2.824 15.1753C3.13879 15.49 3.57042 15.6791 4.31907 15.7795C5.08409 15.8822 6.09172 15.8837 7.51088 15.8837H10.4876C11.9068 15.8837 12.9152 15.8822 13.6802 15.7795C14.4281 15.6791 14.8597 15.49 15.1745 15.1753C15.4893 14.8605 15.6783 14.4288 15.7788 13.6802C15.8815 12.9159 15.883 11.9075 15.883 10.4884C15.883 9.06921 15.8815 8.06158 15.7788 7.29581C15.6783 6.54791 15.4893 6.11628 15.1745 5.80149C14.8597 5.4867 14.4281 5.29767 13.6794 5.19721C12.9152 5.09451 11.9068 5.09302 10.4876 5.09302H7.51088C6.09172 5.09302 5.08484 5.09451 4.31907 5.19721ZM9 6.95349C9.14803 6.95349 9.28999 7.01229 9.39466 7.11696C9.49934 7.22164 9.55814 7.3636 9.55814 7.51163V7.51907C10.3686 7.72298 11.0465 8.36223 11.0465 9.24781C11.0465 9.39584 10.9877 9.53781 10.883 9.64248C10.7784 9.74715 10.6364 9.80595 10.4884 9.80595C10.3403 9.80595 10.1984 9.74715 10.0937 9.64248C9.98904 9.53781 9.93023 9.39584 9.93023 9.24781C9.93023 8.96205 9.61321 8.56614 9 8.56614C8.38679 8.56614 8.06977 8.96205 8.06977 9.24781C8.06977 9.53358 8.38679 9.93023 9 9.93023C10.0307 9.93023 11.0465 10.6447 11.0465 11.7289C11.0465 12.6145 10.3686 13.253 9.55814 13.4577V13.4651C9.55814 13.6131 9.49934 13.7551 9.39466 13.8598C9.28999 13.9645 9.14803 14.0233 9 14.0233C8.85197 14.0233 8.71001 13.9645 8.60534 13.8598C8.50066 13.7551 8.44186 13.6131 8.44186 13.4651V13.4577C7.63144 13.2538 6.95349 12.6145 6.95349 11.7289C6.95349 11.5809 7.01229 11.4389 7.11696 11.3343C7.22164 11.2296 7.3636 11.1708 7.51163 11.1708C7.65966 11.1708 7.80162 11.2296 7.90629 11.3343C8.01096 11.4389 8.06977 11.5809 8.06977 11.7289C8.06977 12.0147 8.38679 12.4106 9 12.4106C9.61321 12.4106 9.93023 12.0147 9.93023 11.7289C9.93023 11.4432 9.61321 11.0465 9 11.0465C7.9693 11.0465 6.95349 10.3321 6.95349 9.24781C6.95349 8.36223 7.63144 7.72298 8.44186 7.51907V7.51163C8.44186 7.3636 8.50066 7.22164 8.60534 7.11696C8.71001 7.01229 8.85197 6.95349 9 6.95349Z" fill="#455160"/>
</svg>
