<svg width="18" height="19" viewBox="0 0 18 19" fill="none" xmlns="http://www.w3.org/2000/svg">
<path fill-rule="evenodd" clip-rule="evenodd" d="M9.00163 2.25781C8.56757 2.25781 8.16795 2.36543 7.73103 2.54623C7.30845 2.72128 6.81772 2.97885 6.20717 3.29955L4.72349 4.07798C3.97375 4.47114 3.37468 4.7861 2.9105 5.09532C2.43124 5.41602 2.06104 5.75322 1.79199 6.21023C1.52367 6.66581 1.40314 7.15941 1.34502 7.747C1.28906 8.31737 1.28906 9.01832 1.28906 9.90078V10.04C1.28906 10.9224 1.28906 11.6234 1.34502 12.1937C1.40314 12.782 1.52439 13.2749 1.79199 13.7305C2.06104 14.1875 2.43052 14.5247 2.91121 14.8454C3.37397 15.1546 3.97375 15.4696 4.72349 15.8628L6.20717 16.6412C6.81772 16.9619 7.30845 17.2195 7.73103 17.3945C8.16867 17.5753 8.56757 17.6829 9.00163 17.6829C9.43569 17.6829 9.8353 17.5753 10.2722 17.3945C10.6948 17.2195 11.1855 16.9619 11.7961 16.6412L13.2798 15.8635C14.0295 15.4696 14.6286 15.1546 15.092 14.8454C15.5727 14.5247 15.9422 14.1875 16.2113 13.7305C16.4796 13.2749 16.6001 12.7813 16.6582 12.1937C16.7142 11.6234 16.7142 10.9224 16.7142 10.0407V9.90006C16.7142 9.01832 16.7142 8.31737 16.6582 7.747C16.6001 7.1587 16.4789 6.66581 16.2113 6.21023C15.9422 5.75322 15.5727 5.41602 15.092 5.09532C14.6293 4.7861 14.0295 4.47114 13.2798 4.07798L11.7961 3.29955C11.1855 2.97885 10.6948 2.72128 10.2722 2.54623C9.83459 2.36543 9.43569 2.25781 9.00163 2.25781ZM6.68427 4.2638C7.3228 3.92875 7.77049 3.69486 8.14213 3.54133C8.50372 3.39138 8.75841 3.33398 9.00163 3.33398C9.24556 3.33398 9.49954 3.39138 9.86113 3.54133C10.2328 3.69486 10.6797 3.92875 11.3183 4.2638L12.7532 5.01712C13.5352 5.42678 14.084 5.71591 14.4951 5.98997C14.6974 6.12557 14.856 6.25113 14.9851 6.3774L12.5953 7.57195L6.49702 4.36209L6.68427 4.2638ZM5.37493 4.95111L5.25009 5.01712C4.46807 5.42678 3.91923 5.71591 3.50885 5.98997C3.33374 6.10349 3.16968 6.2332 3.01883 6.3774L9.00163 9.36915L11.4101 8.16384L5.52272 5.0659C5.46712 5.03658 5.4171 4.99772 5.37493 4.95111ZM2.50011 7.32084C2.46424 7.47437 2.43626 7.64871 2.41617 7.85175C2.36595 8.36401 2.36523 9.01186 2.36523 9.92804V10.012C2.36523 10.9289 2.36523 11.5767 2.41617 12.0883C2.46568 12.5883 2.55966 12.9119 2.71965 13.1845C2.87893 13.455 3.10923 13.6839 3.50885 13.9508C3.91923 14.2248 4.46807 14.514 5.25009 14.9236L6.68499 15.677C7.32352 16.012 7.77049 16.2459 8.14213 16.3994C8.25979 16.4482 8.36525 16.4869 8.46354 16.5178V10.3026L2.50011 7.32084ZM9.53971 16.5171C9.63801 16.4869 9.74347 16.4482 9.86113 16.3994C10.2328 16.2459 10.6797 16.012 11.3183 15.677L12.7532 14.9236C13.5352 14.5132 14.084 14.2248 14.4951 13.9508C14.894 13.6839 15.1243 13.455 15.2843 13.1845C15.4443 12.9119 15.5376 12.5891 15.5871 12.0883C15.6373 11.5767 15.638 10.9289 15.638 10.0127V9.92876C15.638 9.01186 15.638 8.36401 15.5871 7.85247C15.5709 7.67383 15.5429 7.49647 15.5031 7.32156L13.127 8.50893V10.6878C13.127 10.8305 13.0703 10.9674 12.9694 11.0683C12.8684 11.1692 12.7316 11.2259 12.5889 11.2259C12.4462 11.2259 12.3093 11.1692 12.2084 11.0683C12.1075 10.9674 12.0508 10.8305 12.0508 10.6878V9.04774L9.53971 10.3033V16.5171Z" fill="#455160"/>
</svg>
