<svg width="22" height="23" viewBox="0 0 22 23" fill="none" xmlns="http://www.w3.org/2000/svg">
<path d="M20.375 11.6836C20.375 14.1368 19.4004 16.4896 17.6657 18.2243C15.931 19.959 13.5783 20.9336 11.125 20.9336V22.4336C17.062 22.4336 21.875 17.6206 21.875 11.6836H20.375ZM11.125 20.9336C8.67175 20.9336 6.31897 19.959 4.58426 18.2243C2.84955 16.4896 1.875 14.1368 1.875 11.6836H0.375C0.375 17.6206 5.188 22.4336 11.125 22.4336V20.9336ZM1.875 11.6836C1.875 9.23034 2.84955 6.87757 4.58426 5.14286C6.31897 3.40814 8.67175 2.43359 11.125 2.43359V0.933594C5.188 0.933594 0.375 5.74659 0.375 11.6836H1.875ZM14.625 13.9336C13.1 13.9336 11.6375 13.3278 10.5591 12.2495C9.4808 11.1711 8.875 9.70859 8.875 8.18359H7.375C7.375 10.1064 8.13884 11.9505 9.49848 13.3101C10.8581 14.6698 12.7022 15.4336 14.625 15.4336V13.9336ZM19.55 11.1526C19.0386 12.0015 18.3163 12.7037 17.4534 13.191C16.5904 13.6783 15.6161 13.9341 14.625 13.9336V15.4336C15.8744 15.4343 17.1028 15.1119 18.1909 14.4977C19.279 13.8836 20.1898 12.9986 20.835 11.9286L19.55 11.1526ZM8.875 8.18359C8.87457 7.19256 9.13041 6.21826 9.6177 5.3553C10.105 4.49234 10.8072 3.77006 11.656 3.25859L10.88 1.97459C9.81009 2.61958 8.92511 3.53024 8.31097 4.61816C7.69684 5.70608 7.37441 6.9343 7.375 8.18359H8.875ZM11.125 2.43359C11.0236 2.4312 10.9272 2.38878 10.857 2.31559C10.8141 2.27383 10.7854 2.21959 10.775 2.16059C10.771 2.12959 10.773 2.03959 10.88 1.97459L11.656 3.25859C12.159 2.95459 12.321 2.39759 12.262 1.95959C12.2 1.50459 11.842 0.933594 11.125 0.933594V2.43359ZM20.835 11.9286C20.769 12.0356 20.679 12.0376 20.648 12.0336C20.589 12.0232 20.5348 11.9945 20.493 11.9516C20.4198 11.8814 20.3774 11.785 20.375 11.6836H21.875C21.875 10.9666 21.304 10.6086 20.849 10.5466C20.411 10.4876 19.854 10.6496 19.55 11.1526L20.835 11.9286Z" fill="#455160"/>
</svg>
