<svg version="1.2" xmlns="http://www.w3.org/2000/svg" viewBox="0 0 164 72" width="164" height="72">
	<title>many_food_logo-svg</title>
	<defs>
		<linearGradient id="g1" x2="1" gradientUnits="userSpaceOnUse" gradientTransform="matrix(58.35,.47,-0.526,65.288,10.24,51.51)">
			<stop offset="0" stop-color="#f9a31a"/>
			<stop offset="1" stop-color="#f27121"/>
		</linearGradient>
		<linearGradient id="g2" x2="1" gradientUnits="userSpaceOnUse" gradientTransform="matrix(58.36,.47,-0.473,58.731,10.36,35.72)">
			<stop offset="0" stop-color="#f9a31a"/>
			<stop offset="1" stop-color="#f27121"/>
		</linearGradient>
	</defs>
	<style>
		.s0 { fill: #ffffff } 
		.s1 { fill: url(#g1) } 
		.s2 { fill: url(#g2) } 
		.s3 { fill: #f27121 } 
	</style>
	<g id="Layer">
		<path id="Layer" class="s0" d="m79.3 12.6h2l4.3 6c1 1.4 3 4.2 3 4.2 0 0 1.9-2.8 2.9-4.1l4.3-6.1h2v17.8h-2.2v-14.1c0 0-0.5 0.8-1.4 2l-5.6 8-5.7-8c-0.8-1.2-1.3-2-1.3-2v14.1h-2.3v-17.8z"/>
		<path id="Layer" fill-rule="evenodd" class="s0" d="m99.9 23.7c0-3.9 2.7-7 6.4-7 2.1 0 4 0.9 5 2.6v-2.3h2.1v13.4h-2.1v-2.3c-1 1.7-2.9 2.6-5 2.6-3.7 0-6.4-3.1-6.4-7zm11.4 0c0-2.8-2-4.9-4.6-4.9-2.5 0-4.6 2.1-4.6 4.9 0 2.9 2 5 4.6 5 2.6 0 4.6-2.2 4.6-5z"/>
		<path id="Layer" class="s0" d="m116.9 17h2.1v2.3c1-1.6 2.7-2.6 4.7-2.6 3.4 0 4.8 2.1 4.8 5.6v8.1h-2.1v-7.8c0-2.5-0.9-3.8-3.3-3.8-2.4 0-4.1 1.9-4.1 4.1v7.5h-2.1v-13.4z"/>
		<path id="Layer" class="s0" d="m132.7 32.5c1.4 0 2.3-0.4 3.2-2.3l0.3-0.7-6-12.5h2.2l4.2 9c0.3 0.6 0.6 1.5 0.6 1.5 0 0 0.4-1.1 0.7-1.6l4-8.9h2.1l-6.4 14.1c-1.5 3.2-3.4 3.4-4.9 3.4z"/>
	</g>
	<g id="Layer">
		<path id="Layer" class="s1" d="m52.3 48.2c-1.9 0-3.3 1.5-3.3 3.6 0 2.1 1.4 3.7 3.3 3.7 2 0 3.2-1.5 3.2-3.7 0-2.1-1.3-3.6-3.2-3.6z"/>
		<path id="Layer" fill-rule="evenodd" class="s2" d="m69.5 9.6v52.7c0 3.9-3.2 7-7.1 7h-52.7c-3.9 0-7.1-3.1-7.1-7 0-32.9 26.9-59.8 59.8-59.8 3.9 0 7.1 3.2 7.1 7.1zm-27.4 38.4h3.4v-2.9h-3.4v-0.5c0-1.4 0.7-1.7 1.4-1.7 0.6 0 1.2 0.2 1.5 0.4l1.1-2.7c-1-0.5-2.3-0.8-3.6-0.8-2.2 0-4 1.3-4 4.4v0.9h-2.1v2.9h2.1v10.6h3.6zm17-7.2h-3.6v5.7c-1-1.1-2.5-1.7-4.1-1.7-3.7 0-6.1 3.1-6.1 7 0 3.9 2.4 7 6.1 7 1.6 0 3.3-0.6 4.3-1.9v1.6h3.4c0 0 0-17.7 0-17.7z"/>
	</g>
	<g id="Layer">
		<path id="Layer" class="s3" d="m79.3 35.4h19v4.7h-13.5v5.2h11.5v4.6h-11.5v10.8h-5.5z"/>
		<path id="Layer" fill-rule="evenodd" class="s3" d="m97.8 51c0-5.7 4.5-10.2 10.4-10.2 5.8 0 10.4 4.5 10.4 10.2 0 5.6-4.6 10.1-10.4 10.1-5.9 0-10.5-4.5-10.4-10.1zm15.5 0c0-3.1-2.2-5.4-5.1-5.4-3 0-5.1 2.3-5.1 5.4 0 3 2.1 5.3 5.1 5.3 2.9 0 5.1-2.3 5.1-5.3z"/>
		<path id="Layer" fill-rule="evenodd" class="s3" d="m119.9 51c0-5.7 4.6-10.2 10.4-10.2 5.8 0 10.4 4.5 10.4 10.2 0 5.6-4.6 10.1-10.4 10.1-5.9 0-10.4-4.5-10.4-10.1zm15.5 0c0-3.1-2.2-5.4-5.1-5.4-2.9 0-5.1 2.3-5.1 5.4 0 3 2.2 5.3 5.1 5.3 2.9 0 5.1-2.3 5.1-5.3z"/>
		<path id="Layer" fill-rule="evenodd" class="s3" d="m142 51c0-5.7 3.5-10.2 8.9-10.2 2.3 0 4.5 0.9 5.9 2.6v-8.4h5.2v25.7h-4.9v-2.3c-1.4 1.9-3.9 2.7-6.3 2.7-5.4 0-8.8-4.5-8.8-10.1zm14.8 0c0-3.1-2-5.4-4.6-5.4-2.7 0-4.9 2.3-4.9 5.4 0 3 2 5.3 4.9 5.3 2.6 0 4.6-2.2 4.6-5.3z"/>
	</g>
</svg>