<svg enable-background="new 0 0 550 550" viewBox="0 0 550 550" xmlns="http://www.w3.org/2000/svg"><g id="_x33_45_-_Ready_Stock"><g><g><g><path d="m530.232 520.287h-510.464c-4.418 0-8-3.582-8-8v-37.89c0-4.418 3.582-8 8-8h510.465c4.418 0 8 3.582 8 8v37.89c-.001 4.418-3.583 8-8.001 8zm-502.464-16h494.465v-21.89h-494.465z"/></g><g><g><g><path d="m202.219 482.399h-145.562c-4.418 0-8-3.582-8-8v-125.765c0-15.327 12.47-27.797 27.797-27.797h105.969c15.327 0 27.796 12.47 27.796 27.797v125.766c0 4.417-3.582 7.999-8 7.999zm-137.562-16h129.562v-117.765c0-6.505-5.292-11.797-11.796-11.797h-105.969c-6.505 0-11.797 5.292-11.797 11.797z"/></g><g><path d="m150.377 388.681c-2.016 0-4.002-.762-5.519-2.207l-15.42-14.685-15.42 14.685c-2.318 2.207-5.727 2.818-8.668 1.561-2.941-1.261-4.849-4.153-4.849-7.354v-51.844c0-4.418 3.582-8 8-8h41.874c4.418 0 8 3.582 8 8v51.844c0 3.2-1.907 6.093-4.849 7.354-1.015.434-2.087.646-3.149.646zm-20.939-35.94c1.986 0 3.972.735 5.517 2.207l7.42 7.066v-25.178h-25.874v25.178l7.42-7.066c1.545-1.471 3.531-2.207 5.517-2.207z"/></g><g><g><path d="m177.294 435.54h-43.868c-4.418 0-8-3.582-8-8s3.582-8 8-8h43.868c4.418 0 8 3.582 8 8s-3.582 8-8 8z"/></g><g><path d="m166.327 458.471h-21.934c-4.418 0-8-3.582-8-8s3.582-8 8-8h21.934c4.418 0 8 3.582 8 8s-3.581 8-8 8z"/></g></g></g><g><g><path d="m347.781 482.399h-145.562c-4.418 0-8-3.582-8-8v-125.765c0-15.327 12.47-27.797 27.797-27.797h105.969c15.327 0 27.797 12.47 27.797 27.797v125.766c-.001 4.417-3.583 7.999-8.001 7.999zm-137.562-16h129.563v-117.765c0-6.505-5.292-11.797-11.797-11.797h-105.969c-6.505 0-11.797 5.292-11.797 11.797z"/></g><g><path d="m295.939 388.681c-2.017 0-4.002-.762-5.52-2.207l-15.419-14.685-15.42 14.685c-2.317 2.207-5.727 2.818-8.668 1.561-2.941-1.261-4.849-4.153-4.849-7.354v-51.844c0-4.418 3.582-8 8-8h41.875c4.418 0 8 3.582 8 8v51.844c0 3.2-1.907 6.093-4.849 7.354-1.016.434-2.087.646-3.15.646zm-20.939-35.94c1.986 0 3.973.735 5.518 2.207l7.42 7.066v-25.178h-25.875v25.178l7.42-7.066c1.545-1.471 3.531-2.207 5.517-2.207z"/></g><g><g><path d="m347.781 435.54h-144.565c-4.418 0-8-3.582-8-8s3.582-8 8-8h144.565c4.418 0 8 3.582 8 8s-3.582 8-8 8z"/></g><g><path d="m311.889 458.471h-21.934c-4.418 0-8-3.582-8-8s3.582-8 8-8h21.934c4.418 0 8 3.582 8 8s-3.582 8-8 8z"/></g></g></g><g><g><path d="m493.343 482.399h-145.562c-4.418 0-8-3.582-8-8v-125.765c0-15.327 12.47-27.797 27.797-27.797h105.969c15.327 0 27.796 12.47 27.796 27.797v125.766c0 4.417-3.582 7.999-8 7.999zm-137.562-16h129.562v-117.765c0-6.505-5.292-11.797-11.796-11.797h-105.969c-6.505 0-11.797 5.292-11.797 11.797z"/></g><g><path d="m399.623 388.681c-1.063 0-2.134-.212-3.149-.646-2.941-1.261-4.849-4.153-4.849-7.354v-51.844c0-4.418 3.582-8 8-8h41.874c4.418 0 8 3.582 8 8v51.844c0 3.2-1.907 6.093-4.849 7.354s-6.352.646-8.669-1.561l-15.419-14.685-15.42 14.685c-1.517 1.445-3.503 2.207-5.519 2.207zm8.002-51.844v25.178l7.42-7.066c3.09-2.943 7.945-2.943 11.035 0l7.419 7.065v-25.177z"/></g><g><g><path d="m468.418 435.54h-43.868c-4.418 0-8-3.582-8-8s3.582-8 8-8h43.868c4.418 0 8 3.582 8 8s-3.582 8-8 8z"/></g><g><path d="m457.451 458.471h-21.934c-4.418 0-8-3.582-8-8s3.582-8 8-8h21.934c4.418 0 8 3.582 8 8s-3.582 8-8 8z"/></g></g></g></g><g><g><path d="m250.075 336.837h-145.562c-4.418 0-8-3.582-8-8v-125.766c0-15.327 12.47-27.796 27.797-27.796h105.969c15.327 0 27.797 12.469 27.797 27.796v125.766c-.001 4.418-3.582 8-8.001 8zm-137.562-16h129.563v-117.766c0-6.504-5.292-11.796-11.797-11.796h-105.969c-6.505 0-11.797 5.292-11.797 11.796z"/></g><g><path d="m198.232 243.119c-2.016 0-4.001-.762-5.519-2.207l-15.42-14.686-15.42 14.686c-2.317 2.208-5.729 2.82-8.668 1.56-2.941-1.26-4.849-4.153-4.849-7.353v-51.844c0-4.418 3.582-8 8-8h41.874c4.418 0 8 3.582 8 8v51.844c0 3.2-1.907 6.093-4.849 7.353-1.014.436-2.086.647-3.149.647zm-20.938-35.94c1.986 0 3.973.736 5.517 2.207l7.42 7.066v-25.177h-25.874v25.177l7.42-7.066c1.544-1.471 3.531-2.207 5.517-2.207z"/></g><g><g><path d="m250.075 289.978h-141.574c-4.418 0-8-3.582-8-8s3.582-8 8-8h141.574c4.418 0 8 3.582 8 8s-3.581 8-8 8z"/></g><g><path d="m214.183 312.909h-21.934c-4.418 0-8-3.582-8-8s3.582-8 8-8h21.934c4.418 0 8 3.582 8 8s-3.581 8-8 8z"/></g></g></g><g><g><path d="m301.919 191.275h-145.562c-4.418 0-8-3.582-8-8v-125.766c0-15.327 12.469-27.796 27.796-27.796h105.969c15.327 0 27.797 12.469 27.797 27.796v125.766c0 4.418-3.582 8-8 8zm-137.562-16h129.562v-117.766c0-6.504-5.292-11.796-11.797-11.796h-105.969c-6.504 0-11.796 5.292-11.796 11.796z"/></g><g><path d="m250.077 97.557c-2.016 0-4.001-.762-5.519-2.207l-15.42-14.685-15.42 14.685c-2.318 2.207-5.729 2.821-8.668 1.56-2.941-1.261-4.849-4.153-4.849-7.353v-51.844c0-4.418 3.582-8 8-8h41.874c4.418 0 8 3.582 8 8v51.844c0 3.2-1.907 6.092-4.849 7.353-1.015.435-2.086.647-3.149.647zm-20.939-35.94c1.986 0 3.972.736 5.517 2.207l7.42 7.066v-25.177h-25.874v25.177l7.42-7.066c1.545-1.471 3.531-2.207 5.517-2.207z"/></g><g><g><path d="m276.994 144.416h-43.868c-4.418 0-8-3.582-8-8s3.582-8 8-8h43.868c4.418 0 8 3.582 8 8s-3.582 8-8 8z"/></g><g><path d="m266.027 167.347h-21.934c-4.418 0-8-3.582-8-8s3.582-8 8-8h21.934c4.418 0 8 3.582 8 8s-3.582 8-8 8z"/></g></g></g><g><g><path d="m395.637 336.837h-145.562c-4.418 0-8-3.582-8-8v-125.821c0-15.296 12.444-27.741 27.74-27.741h103.319c4.418 0 8 3.582 8 8s-3.582 8-8 8h-103.319c-6.474 0-11.74 5.267-11.74 11.741v117.821h129.562v-107.891c0-4.418 3.582-8 8-8s8 3.582 8 8v115.891c0 4.418-3.582 8-8 8z"/></g><g><path d="m343.795 243.119c-2.017 0-4.002-.762-5.52-2.207l-15.419-14.686-15.42 14.686c-2.317 2.207-5.727 2.821-8.669 1.56-2.941-1.261-4.849-4.153-4.849-7.353v-51.844c0-4.418 3.582-8 8-8h41.874c4.418 0 8 3.582 8 8v51.844c0 3.2-1.907 6.093-4.849 7.353-1.014.436-2.086.647-3.148.647zm-33.876-51.844v25.178l7.42-7.067c3.09-2.942 7.945-2.943 11.035 0l7.419 7.066v-25.177z"/></g><g><g><path d="m370.712 289.978h-43.868c-4.418 0-8-3.582-8-8s3.582-8 8-8h43.868c4.418 0 8 3.582 8 8s-3.582 8-8 8z"/></g><g><path d="m359.745 312.909h-21.934c-4.418 0-8-3.582-8-8s3.582-8 8-8h21.934c4.418 0 8 3.582 8 8s-3.582 8-8 8z"/></g></g></g><g><path d="m435.518 234.146c-41.245 0-74.8-33.555-74.8-74.799s33.555-74.799 74.8-74.799c41.244 0 74.799 33.555 74.799 74.799-.001 41.244-33.555 74.799-74.799 74.799zm0-133.598c-32.422 0-58.8 26.377-58.8 58.799s26.378 58.799 58.8 58.799 58.799-26.377 58.799-58.799-26.378-58.799-58.799-58.799z"/></g><g><path d="m417.571 190.278c-2.048 0-4.095-.781-5.657-2.343l-9.97-9.97c-3.124-3.124-3.124-8.189 0-11.313 3.125-3.124 8.189-3.124 11.314 0l4.313 4.313 40.205-40.205c3.127-3.124 8.191-3.124 11.314 0 3.124 3.124 3.124 8.189 0 11.313l-45.862 45.862c-1.562 1.562-3.61 2.343-5.657 2.343z"/></g></g><g><path d="m129.438 368.741c-4.418 0-8-3.582-8-8v-31.904c0-4.418 3.582-8 8-8s8 3.582 8 8v31.904c0 4.418-3.582 8-8 8z"/></g></g></g><g id="Layer_1"/></svg>