<svg xmlns="http://www.w3.org/2000/svg" xmlns:xlink="http://www.w3.org/1999/xlink" version="1.1" id="Capa_1" x="0px" y="0px" viewBox="0 0 512.865 512.865" style="enable-background:new 0 0 512.865 512.865;" xml:space="preserve" width="300" height="300" xmlns:svgjs="http://svgjs.dev/svgjs"><g width="100%" height="100%" transform="matrix(1,0,0,1,0,0)"><g>
	<g>

			<rect x="15" y="150.485" style="stroke-miterlimit: 10;" width="482.865" height="211.896" fill="none" fill-opacity="1" stroke="#f0851d" stroke-opacity="1" data-original-stroke-color="#000000ff" stroke-width="30" data-original-stroke-width="30"/>
	</g>
	<g>
		<polyline style="stroke-miterlimit: 10;" points="262.836,195.499 262.836,302.101 &#10;&#9;&#9;&#9;253.705,302.101 202.62,210.764 193.49,210.764 193.49,317.366 &#9;&#9;" fill="none" fill-opacity="1" stroke="#f0851d" stroke-opacity="1" data-original-stroke-color="#000000ff" stroke-width="30" data-original-stroke-width="30"/>
	</g>
	<path style="stroke-miterlimit: 10;" d="M104.653,306.016L104.653,306.016&#10;&#9;&#9;c-15.873,0-28.741-12.868-28.741-28.741v-37.771c0-15.873,12.868-28.741,28.741-28.741h0c15.873,0,28.741,12.868,28.741,28.741&#10;&#9;&#9;v37.771C133.393,293.149,120.526,306.016,104.653,306.016z" fill="none" fill-opacity="1" stroke="#f0851d" stroke-opacity="1" data-original-stroke-color="#000000ff" stroke-width="30" data-original-stroke-width="30"/>

		<line style="stroke-miterlimit: 10;" x1="406.432" y1="150.485" x2="406.432" y2="362.381" fill="none" fill-opacity="1" stroke="#f0851d" stroke-opacity="1" data-original-stroke-color="#000000ff" stroke-width="30" data-original-stroke-width="30"/>
</g></g></svg>
