<svg id="Layer_1" enable-background="new 0 0 70 70" viewBox="0 0 70 70" xmlns="http://www.w3.org/2000/svg"><g id="XMLID_534_"><path id="XMLID_626_" d="m19.1 34.1c5.4 0 10.2-2.6 13.2-6.7h25.2c2.6 0 5.1-1 7-2.9s2.9-4.3 2.9-7c0-5.4-4.4-9.8-9.8-9.8h-25.3c-3-4-7.8-6.7-13.2-6.7-9.1 0-16.5 7.4-16.5 16.5s7.4 16.6 16.5 16.6zm38.5-22.4c3.2 0 5.8 2.6 5.8 5.8 0 1.6-.6 3-1.7 4.1s-2.6 1.7-4.1 1.7h-23c.7-1.8 1.1-3.8 1.1-5.9s-.4-4-1.1-5.9h23zm-38.5-6.7c6.9 0 12.5 5.6 12.5 12.5s-5.6 12.6-12.5 12.6-12.5-5.7-12.5-12.6 5.6-12.5 12.5-12.5z"/><path id="XMLID_678_" d="m50.9 35.9c-5.4 0-10.2 2.6-13.2 6.7h-25.3c-5.4 0-9.8 4.4-9.8 9.8 0 2.6 1 5.1 2.9 7s4.3 2.9 7 2.9h25.2c3 4 7.8 6.7 13.2 6.7 9.1 0 16.5-7.4 16.5-16.5s-7.4-16.6-16.5-16.6zm-38.5 22.4c-1.6 0-3-.6-4.1-1.7s-1.7-2.6-1.7-4.1c0-3.2 2.6-5.8 5.8-5.8h23c-.7 1.8-1.1 3.8-1.1 5.9s.4 4 1.1 5.9h-23zm38.5 6.7c-6.9 0-12.5-5.6-12.5-12.5s5.6-12.5 12.5-12.5 12.5 5.6 12.5 12.5-5.6 12.5-12.5 12.5z"/></g></svg>