<svg version="1.1" id="Capa_1" xmlns="http://www.w3.org/2000/svg" xmlns:xlink="http://www.w3.org/1999/xlink" x="0px" y="0px" viewBox="0 0 512 512" style="enable-background:new 0 0 512 512;" xml:space="preserve" width="300" height="300" xmlns:svgjs="http://svgjs.dev/svgjs"><g width="100%" height="100%" transform="matrix(1,0,0,1,0,0)"><g>
	<g>
		<path d="M256,0C113.774,0,0,113.715,0,256c0,142.226,113.715,256,256,256c142.226,0,256-113.715,256-256&#10;&#9;&#9;&#9;C512,113.774,398.285,0,256,0z M256,482C130.354,482,30,381.703,30,256C30,130.354,130.297,30,256,30&#10;&#9;&#9;&#9;c125.646,0,226,100.297,226,226C482,381.646,381.703,482,256,482z" fill="#f0851d" fill-opacity="1" data-original-color="#000000ff" stroke="none" stroke-opacity="1"/>
	</g>
</g><g>
	<g>
		<path d="M393.884,118.114C361.13,85.358,317.63,65.318,271.399,61.686c-84.78-6.664-135.704,42.032-142.848,45.653L404.66,383.447&#10;&#9;&#9;&#9;l10.285-14.452C469.263,292.672,461.888,186.116,393.884,118.114z M400.104,336.464L175.536,111.896&#10;&#9;&#9;&#9;c63.859-35.847,144.235-25.471,197.137,27.431C425.575,192.229,435.951,272.605,400.104,336.464z" fill="#f0851d" fill-opacity="1" data-original-color="#000000ff" stroke="none" stroke-opacity="1"/>
	</g>
</g><g>
	<g>
		<path d="M107.339,128.553c-3.689,7.278-52.314,58.094-45.653,142.846c3.633,46.231,23.673,89.731,56.429,122.486&#10;&#9;&#9;&#9;c68.117,68.118,174.679,75.292,250.882,21.061l14.452-10.285L107.339,128.553z M139.327,372.673&#10;&#9;&#9;&#9;c-52.902-52.902-63.278-133.278-27.431-197.137l224.568,224.568C272.783,435.851,192.37,425.715,139.327,372.673z" fill="#f0851d" fill-opacity="1" data-original-color="#000000ff" stroke="none" stroke-opacity="1"/>
	</g>
</g><g>
</g><g>
</g><g>
</g><g>
</g><g>
</g><g>
</g><g>
</g><g>
</g><g>
</g><g>
</g><g>
</g><g>
</g><g>
</g><g>
</g><g>
</g></g></svg>
