<?xml version="1.0" encoding="UTF-8"?>
<svg id="Camada_1" data-name="Camada 1" xmlns="http://www.w3.org/2000/svg" viewBox="0 0 64.62 67.48">
  <defs>
    <style>
      .cls-1 {
        fill: #e3e3e8;
      }

      .cls-1, .cls-2, .cls-3, .cls-4 {
        stroke-width: 0px;
      }

      .cls-2 {
        fill: #7cc8cb;
      }

      .cls-3 {
        fill: #010202;
      }

      .cls-4 {
        fill: #f1f2f2;
      }
    </style>
  </defs>
  <g id="_22_Correct" data-name=" 22 Correct">
    <path class="cls-4" d="M34.74,49.33c-1.57,1.57-1.57,4.11,0,5.68l6.51,6.51c2.13,2.13,5.58,2.13,7.7,0l6.82-6.81v6.49c0,3.02-2.05,5.48-4.57,5.48H5.38c-2.52,0-4.57-2.45-4.57-5.48V5.38C.81,2.85,2.85.81,5.38.81h32.06v14.88c0,1.81,1.47,3.28,3.28,3.28h15.05v24.39l-9.39,9.39c-.7.7-1.83.7-2.53,0,0,0,0,0,0,0l-3.42-3.42c-1.57-1.57-4.11-1.57-5.68,0h0s0,0,0,0Z"/>
    <path class="cls-2" d="M37.44.81v14.88c0,1.81,1.47,3.28,3.28,3.28h15.05L37.44.81Z"/>
    <path class="cls-2" d="M62.63,42.18c-1.57-1.57-4.11-1.57-5.68,0l-10.57,10.57c-.7.7-1.83.7-2.53,0,0,0,0,0,0,0l-3.42-3.42c-1.57-1.57-4.11-1.57-5.68,0h0c-1.57,1.57-1.57,4.11,0,5.68l6.51,6.51c2.13,2.13,5.57,2.13,7.7,0l13.68-13.66c1.57-1.57,1.57-4.11,0-5.68h0Z"/>
    <path class="cls-1" d="M36.77,66.68H5.38c-2.52,0-4.57-2.45-4.57-5.48V28.59c6.37,17.03,19.33,30.76,35.97,38.09Z"/>
    <g>
      <path class="cls-3" d="M51.2,67.48H5.38c-2.96,0-5.38-2.82-5.38-6.28V23.95c0-.45.36-.81.81-.81s.81.36.81.81v37.24c0,2.58,1.69,4.67,3.76,4.67h45.82c2.08,0,3.76-2.09,3.76-4.67v-4.54l-5.44,5.44c-2.44,2.44-6.4,2.44-8.84,0l-6.51-6.51c-1.88-1.88-1.88-4.94,0-6.82,1.88-1.88,4.94-1.88,6.82,0l3.42,3.42c.38.39,1.01.39,1.39,0,0,0,0,0,0,0l9.16-9.15v-23.26h-14.24c-2.26,0-4.09-1.83-4.09-4.09V1.61H5.38c-2.08,0-3.76,1.69-3.76,3.76v12.29c0,.45-.36.81-.81.81s-.81-.36-.81-.81V5.38C0,2.41,2.41,0,5.38,0h32.06c.45,0,.81.36.81.81v14.88c0,1.37,1.11,2.47,2.48,2.48h15c.44-.03.83.31.85.76,0,.02,0,.03,0,.05v24.39c0,.21-.09.42-.24.57l-9.39,9.39c-1.01,1.02-2.66,1.02-3.67,0,0,0,0,0,0,0l-3.42-3.42c-1.26-1.25-3.29-1.25-4.54,0-1.25,1.26-1.25,3.29,0,4.54l6.51,6.51c1.81,1.81,4.75,1.81,6.56,0l6.82-6.81c.32-.31.83-.31,1.14,0,.15.15.23.35.24.57v6.49c0,3.46-2.41,6.28-5.38,6.28h0ZM55.72,18.16h-.03.03Z"/>
      <path class="cls-3" d="M.81,22.22C.36,22.22,0,21.86,0,21.41v-1.21C0,19.76.36,19.4.81,19.4s.81.36.81.81v1.21c0,.45-.36.81-.81.81Z"/>
      <path class="cls-3" d="M55.73,19.77h-15c-2.26,0-4.09-1.83-4.09-4.09V.81c0-.45.36-.81.81-.81.21,0,.42.08.57.23l18.33,18.16c.32.31.32.82,0,1.14-.14.14-.33.23-.53.24-.03,0-.06,0-.1,0h0ZM38.25,2.74v12.94c0,1.37,1.11,2.47,2.48,2.47h13.09l-15.57-15.42Z"/>
      <path class="cls-3" d="M45.1,63.92c-1.66,0-3.25-.65-4.42-1.83l-6.51-6.51c-1.85-1.91-1.81-4.97.11-6.82,1.87-1.81,4.84-1.81,6.72,0l3.42,3.42c.39.39,1.01.39,1.4,0l10.57-10.57c1.88-1.88,4.93-1.88,6.82,0h0c1.88,1.89,1.88,4.94,0,6.82h0s-13.68,13.67-13.68,13.67c-1.17,1.17-2.76,1.83-4.42,1.83h0ZM37.58,48.96c-1.77,0-3.21,1.44-3.21,3.21,0,.85.34,1.67.95,2.28l6.51,6.51c1.81,1.81,4.75,1.81,6.56,0l13.68-13.67c1.28-1.23,1.32-3.26.09-4.54-1.23-1.28-3.26-1.32-4.54-.09-.03.03-.06.06-.09.09l-10.57,10.57c-1.02,1.01-2.66,1.01-3.68,0l-3.42-3.42c-.6-.6-1.42-.94-2.27-.94h0Z"/>
      <path class="cls-3" d="M15.48,30.28h-5.64c-.45,0-.81-.36-.81-.81s.36-.81.81-.81h5.64c.45,0,.81.36.81.81s-.36.81-.81.81Z"/>
      <path class="cls-3" d="M35.03,30.28h-13.23c-.45,0-.81-.36-.81-.81s.36-.81.81-.81h13.23c.45,0,.81.36.81.81s-.36.81-.81.81Z"/>
      <path class="cls-3" d="M46.73,30.28h-5.85c-.45,0-.81-.36-.81-.81s.36-.81.81-.81h5.85c.45,0,.81.36.81.81s-.36.81-.81.81Z"/>
      <path class="cls-3" d="M15.48,38.19h-5.64c-.45,0-.81-.36-.81-.81s.36-.81.81-.81h5.64c.45,0,.81.36.81.81s-.36.81-.81.81Z"/>
      <path class="cls-3" d="M30.58,38.19h-8.78c-.45,0-.81-.36-.81-.81s.36-.81.81-.81h8.78c.45,0,.81.36.81.81s-.36.81-.81.81Z"/>
      <path class="cls-3" d="M46.73,38.19h-8.21c-.45,0-.81-.36-.81-.81s.36-.81.81-.81h8.21c.45,0,.81.36.81.81s-.36.81-.81.81Z"/>
      <path class="cls-3" d="M22.44,46.1h-12.59c-.45,0-.81-.36-.81-.81s.36-.81.81-.81h12.59c.45,0,.81.36.81.81s-.36.81-.81.81Z"/>
      <path class="cls-3" d="M35.03,46.1h-7.99c-.45,0-.81-.36-.81-.81s.36-.81.81-.81h7.99c.45,0,.81.36.81.81s-.36.81-.81.81Z"/>
    </g>
  </g>
</svg>