<?xml version="1.0" encoding="UTF-8"?>
<svg id="Layer_1" data-name="Layer 1" xmlns="http://www.w3.org/2000/svg" viewBox="0 0 63.8 74.19">
  <defs>
    <style>
      .cls-1 {
        fill: #736677;
        stroke-width: 0px;
      }
    </style>
  </defs>
  <path class="cls-1" d="M61.07,23.94c-.11-1.94-1.78-3.51-3.72-3.51h-11.7l.19-6.49c0-7.69-6.26-13.94-13.94-13.94s-13.94,6.26-13.94,13.98l.19,6.46H6.45c-1.94,0-3.61,1.58-3.72,3.51L0,70.54c-.06.97.27,1.88.93,2.57.65.69,1.55,1.08,2.52,1.08h56.89c.97,0,1.86-.38,2.52-1.08.65-.69.98-1.61.93-2.57l-2.72-46.59ZM20.35,13.94c0-6.37,5.18-11.55,11.55-11.55s11.55,5.18,11.55,11.52l-.19,6.53h-22.72l-.19-6.49ZM61.12,71.47c-.2.21-.47.33-.78.33H3.45c-.3,0-.58-.12-.78-.33-.2-.21-.3-.49-.28-.8l2.72-46.59c.04-.68.65-1.26,1.34-1.26h11.77l.1,3.48c-1.46.53-2.52,1.93-2.52,3.58,0,2.11,1.71,3.82,3.82,3.82s3.82-1.71,3.82-3.82c0-1.73-1.16-3.17-2.73-3.64l-.1-3.41h22.58l-.1,3.41c-1.57.47-2.73,1.92-2.73,3.64,0,2.11,1.71,3.82,3.82,3.82s3.82-1.71,3.82-3.82c0-1.65-1.05-3.04-2.52-3.58l.1-3.48h11.77c.68,0,1.3.58,1.34,1.26l2.72,46.59c.02.3-.08.59-.28.8h0ZM18.42,29.91c.02.66.6,1.21,1.23,1.16.66-.02,1.18-.57,1.16-1.23l-.02-.78c.16.23.26.51.26.81,0,.79-.64,1.43-1.43,1.43s-1.43-.64-1.43-1.43c0-.27.08-.52.21-.74l.02.78ZM44.14,31.07s.02,0,.04,0c.64,0,1.18-.51,1.19-1.16l.02-.77c.13.22.21.47.21.74,0,.79-.64,1.43-1.43,1.43s-1.43-.64-1.43-1.43c0-.3.1-.58.26-.82l-.02.78c-.02.66.5,1.21,1.16,1.23Z"/>
</svg>