<svg id="Layer_1" viewBox="0 0 36 36" xmlns="http://www.w3.org/2000/svg" data-name="Layer 1"><path d="m31.99 7.94c0-.08-.02-.17-.05-.25 0-.02 0-.05-.02-.07 0-.01-.02-.02-.02-.03-.05-.11-.11-.21-.2-.29l-6-6c-.09-.09-.19-.15-.29-.2-.01 0-.02-.02-.03-.02-.02 0-.05 0-.07-.01-.08-.03-.16-.04-.25-.05-.02 0-.04-.01-.06-.01h-12c-1.65 0-3 1.35-3 3v3h-3c-1.65 0-3 1.35-3 3v22c0 1.65 1.35 3 3 3h16c1.65 0 3-1.35 3-3v-3h3c1.65 0 3-1.35 3-3v-18.01s-.01-.04-.01-.06zm-3.4-.94h-2.59v-2.59zm-4.59 25c0 .55-.45 1-1 1h-16c-.55 0-1-.45-1-1v-22c0-.55.45-1 1-1h3v17c0 1.65 1.35 3 3 3h11zm5-5h-16c-.55 0-1-.45-1-1v-22c0-.55.45-1 1-1h11v4c0 1.1.9 2 2 2h4v17c0 .55-.45 1-1 1zm-1-14c0 .55-.45 1-1 1h-12c-.55 0-1-.45-1-1s.45-1 1-1h12c.55 0 1 .45 1 1zm0 5c0 .55-.45 1-1 1h-12c-.55 0-1-.45-1-1s.45-1 1-1h12c.55 0 1 .45 1 1zm0 5c0 .55-.45 1-1 1h-12c-.55 0-1-.45-1-1s.45-1 1-1h12c.55 0 1 .45 1 1z"/></svg>