<?xml version="1.0" encoding="UTF-8"?>
<svg id="Layer_1" data-name="Layer 1" xmlns="http://www.w3.org/2000/svg" viewBox="0 0 76.33 69.35">
  <defs>
    <style>
      .cls-1 {
        stroke: #fff;
        stroke-miterlimit: 10;
        stroke-width: .25px;
      }

      .cls-1, .cls-2 {
        fill: #fff;
      }

      .cls-2 {
        font-family: NunitoSans-Bold, 'Nunito Sans';
        font-size: 22px;
        font-variation-settings: 'wght' 700, 'wdth' 100, 'opsz' 12, 'YTLC' 500;
        font-weight: 700;
      }
    </style>
  </defs>
  <path class="cls-1" d="M70.64.12H5.7C2.62.12.12,2.62.12,5.7v44.58c0,3.07,2.5,5.57,5.57,5.57h22.44v1.11c0,3.07-2.5,5.57-5.57,5.57h-10.18c-3.07,0-5.57,2.5-5.57,5.57,0,.62.5,1.11,1.11,1.11h60.48c.62,0,1.11-.5,1.11-1.11,0-3.07-2.5-5.57-5.57-5.57h-10.18c-3.07,0-5.57-2.5-5.57-5.57v-1.11h22.44c3.07,0,5.57-2.5,5.57-5.57V5.7c0-3.07-2.5-5.57-5.57-5.57ZM5.7,2.35h64.94c1.84,0,3.34,1.5,3.34,3.34v39.01H2.35V5.7c0-1.84,1.5-3.34,3.34-3.34ZM48.32,62.54h-7.92c-.62,0-1.11.5-1.11,1.11s.5,1.11,1.11,1.11h23.55c1.45,0,2.69.93,3.15,2.23H9.23c.46-1.3,1.7-2.23,3.15-2.23h23.55c.62,0,1.11-.5,1.11-1.11s-.5-1.11-1.11-1.11h-7.92c1.45-1.42,2.35-3.39,2.35-5.57v-1.11h15.6v1.11c0,2.18.9,4.16,2.35,5.57ZM70.64,53.62H5.7c-1.84,0-3.34-1.5-3.34-3.34v-3.34h71.63v3.34c0,1.84-1.5,3.34-3.34,3.34Z"/>
  <text class="cls-2" transform="translate(14.15 32.08)"><tspan x="0" y="0">PDV</tspan></text>
</svg>