<?xml version="1.0" encoding="UTF-8"?>
<svg id="Layer_1" data-name="Layer 1" xmlns="http://www.w3.org/2000/svg" viewBox="0 0 77.45 61.49">
  <defs>
    <style>
      .cls-1 {
        fill: #32c541;
        stroke-width: 0px;
      }
    </style>
  </defs>
  <path class="cls-1" d="M75.65,50.46h-5.14v-15.15c0-2-1.63-3.62-3.63-3.62h-7.75s0-.06,0-.09v-1.89h5.57c1.78,0,3.23-1.45,3.23-3.23v-3.96c0-1.78-1.45-3.23-3.23-3.23h-13.29c-1.78,0-3.23,1.45-3.23,3.23v3.96c0,1.78,1.45,3.23,3.23,3.23h5.57v1.89s0,.06,0,.09h-12.65c-.01-.26-.11-.51-.3-.71-2.68-2.69-8.58-4.13-10.84-4.61v-3.53c0-.1-.02-.2-.05-.3,1.6-1.63,2.84-3.83,3.6-6.07,1.19-.44,2.02-2.03,2.02-4.04,0-1.44-.43-2.7-1.16-3.45-.67-5.47-4.62-8.98-10.17-8.98s-9.5,3.51-10.17,8.98c-.72.75-1.16,2.01-1.16,3.45,0,2.01.83,3.59,2.02,4.04.76,2.24,2,4.44,3.6,6.07-.03.1-.05.2-.05.3v3.53c-2.26.47-8.16,1.92-10.84,4.61-.15.15-.26.35-.3.57l-3.47,18.91H1.8c-.99,0-1.8.81-1.8,1.8v7.43c0,.99.81,1.8,1.8,1.8h73.85c.99,0,1.8-.81,1.8-1.8v-7.43c0-.99-.81-1.8-1.8-1.8h0ZM50.34,26.48v-3.96c0-.59.48-1.08,1.08-1.08h13.29c.59,0,1.08.48,1.08,1.08v3.96c0,.59-.48,1.08-1.08,1.08h-13.29c-.59,0-1.08-.48-1.08-1.08ZM68.36,35.32v15.15h-27.96v-15.15c0-.81.66-1.47,1.47-1.47h25.02c.81,0,1.47.66,1.47,1.47ZM20.02,15.18c-.14-.46-.56-.77-1.03-.77-.04,0-.07,0-.11,0-.2-.17-.57-.86-.57-1.99s.37-1.84.61-2c.28-.18.46-.48.49-.81.41-4.6,3.5-7.46,8.07-7.46s7.66,2.86,8.07,7.46c.03.33.21.63.49.81.25.16.61.91.61,2,0,1.17-.4,1.86-.54,1.99h0c-.53-.07-1.03.25-1.18.76-1.38,4.63-4.44,7.87-7.45,7.87s-6.07-3.24-7.45-7.87h0ZM12.64,32.28c2.96-2.65,10.26-3.95,10.34-3.96.52-.09.89-.54.89-1.06v-3.07c1.09.63,2.3,1.01,3.59,1.01s2.5-.38,3.59-1.01v3.07c0,.52.38.97.89,1.06,1.9.33,6.87,1.52,9.61,3.4-1.85.16-3.32,1.7-3.32,3.59v15.15H9.31l3.33-18.18ZM75.29,59.33H2.16v-6.72h73.13v6.72h0Z"/>
  <path class="cls-1" d="M23.75,36.48h-7.46c-.6,0-1.08.48-1.08,1.08v4.63c0,.6.48,1.08,1.08,1.08h7.46c.6,0,1.08-.48,1.08-1.08v-4.63c0-.6-.48-1.08-1.08-1.08ZM22.68,41.11h-5.3v-2.47h5.3v2.47Z"/>
</svg>
