<svg id="Capa_1" enable-background="new 0 0 510 510" height="300" viewBox="0 0 510 510" width="300" xmlns="http://www.w3.org/2000/svg" version="1.1" xmlns:xlink="http://www.w3.org/1999/xlink" xmlns:svgjs="http://svgjs.dev/svgjs"><g width="100%" height="100%" transform="matrix(1,0,0,1,0,0)"><g id="XMLID_621_"><path id="XMLID_622_" d="m60 0v510h390v-510zm360 480h-330v-450h330z" fill="#f0851d" fill-opacity="1" data-original-color="#000000ff" stroke="none" stroke-opacity="1"/><path id="XMLID_625_" d="m210 300h-90v90h90zm-30 60h-30v-30h30z" fill="#f0851d" fill-opacity="1" data-original-color="#000000ff" stroke="none" stroke-opacity="1"/><path id="XMLID_628_" d="m240 270h30v-32.58c17.459-6.192 30-22.865 30-42.42 0-24.814-20.187-45-45-45-8.272 0-15-6.729-15-15s6.728-15 15-15h45v-30h-30v-30h-30v32.58c-17.459 6.192-30 22.865-30 42.42 0 24.814 20.186 45 45 45 8.271 0 15 6.729 15 15s-6.729 15-15 15h-45v30h30z" fill="#f0851d" fill-opacity="1" data-original-color="#000000ff" stroke="none" stroke-opacity="1"/><path id="XMLID_629_" d="m255 300h135v30h-135z" fill="#f0851d" fill-opacity="1" data-original-color="#000000ff" stroke="none" stroke-opacity="1"/><path id="XMLID_630_" d="m255 360h135v30h-135z" fill="#f0851d" fill-opacity="1" data-original-color="#000000ff" stroke="none" stroke-opacity="1"/><path id="XMLID_631_" d="m330 180h60v30h-60z" fill="#f0851d" fill-opacity="1" data-original-color="#000000ff" stroke="none" stroke-opacity="1"/><path id="XMLID_632_" d="m330 240h60v30h-60z" fill="#f0851d" fill-opacity="1" data-original-color="#000000ff" stroke="none" stroke-opacity="1"/><path id="XMLID_633_" d="m330 60h60v30h-60z" fill="#f0851d" fill-opacity="1" data-original-color="#000000ff" stroke="none" stroke-opacity="1"/><path id="XMLID_634_" d="m330 120h60v30h-60z" fill="#f0851d" fill-opacity="1" data-original-color="#000000ff" stroke="none" stroke-opacity="1"/><path id="XMLID_635_" d="m120 180h60v30h-60z" fill="#f0851d" fill-opacity="1" data-original-color="#000000ff" stroke="none" stroke-opacity="1"/><path id="XMLID_636_" d="m120 240h60v30h-60z" fill="#f0851d" fill-opacity="1" data-original-color="#000000ff" stroke="none" stroke-opacity="1"/><path id="XMLID_637_" d="m120 60h60v30h-60z" fill="#f0851d" fill-opacity="1" data-original-color="#000000ff" stroke="none" stroke-opacity="1"/><path id="XMLID_638_" d="m120 120h60v30h-60z" fill="#f0851d" fill-opacity="1" data-original-color="#000000ff" stroke="none" stroke-opacity="1"/><path id="XMLID_639_" d="m120 420h270v30h-270z" fill="#f0851d" fill-opacity="1" data-original-color="#000000ff" stroke="none" stroke-opacity="1"/></g></g></svg>