<?xml version="1.0" encoding="iso-8859-1"?>
<!-- Generator: Adobe Illustrator 19.0.0, SVG Export Plug-In . SVG Version: 6.00 Build 0)  -->
<svg version="1.1" id="Capa_1" xmlns="http://www.w3.org/2000/svg" xmlns:xlink="http://www.w3.org/1999/xlink" x="0px" y="0px"
	 viewBox="0 0 512 512" style="enable-background:new 0 0 512 512;" xml:space="preserve">
<g>
	<g>
		<g>
			<path d="M42.667,251.738H76.8c4.719,0,8.533-3.823,8.533-8.533v-34.133c0-4.719-3.814-8.533-8.533-8.533H42.667
				c-4.719,0-8.533,3.814-8.533,8.533v34.133C34.133,247.915,37.948,251.738,42.667,251.738z M51.2,217.604h17.067v17.067H51.2
				V217.604z"/>
			<path d="M42.667,354.138H76.8c4.719,0,8.533-3.823,8.533-8.533v-34.133c0-4.719-3.814-8.533-8.533-8.533H42.667
				c-4.719,0-8.533,3.814-8.533,8.533v34.133C34.133,350.315,37.948,354.138,42.667,354.138z M51.2,320.004h17.067v17.067H51.2
				V320.004z"/>
			<path d="M110.933,294.4c4.719,0,8.533-3.823,8.533-8.533v-76.8c0-4.71-3.814-8.533-8.533-8.533s-8.533,3.823-8.533,8.533v76.8
				C102.4,290.577,106.214,294.4,110.933,294.4z"/>
			<path d="M145.067,268.8c4.719,0,8.533-3.823,8.533-8.533v-51.2c0-4.71-3.814-8.533-8.533-8.533s-8.533,3.823-8.533,8.533v51.2
				C136.533,264.977,140.348,268.8,145.067,268.8z"/>
			<path d="M136.533,345.6c0,4.71,3.814,8.533,8.533,8.533s8.533-3.823,8.533-8.533v-51.2c0-4.71-3.814-8.533-8.533-8.533
				s-8.533,3.823-8.533,8.533V345.6z"/>
			<path d="M102.4,345.6c0,4.71,3.814,8.533,8.533,8.533s8.533-3.823,8.533-8.533V320c0-4.71-3.814-8.533-8.533-8.533
				S102.4,315.29,102.4,320V345.6z"/>
			<path d="M213.333,294.4c4.719,0,8.533-3.823,8.533-8.533v-76.8c0-4.71-3.814-8.533-8.533-8.533c-4.719,0-8.533,3.823-8.533,8.533
				v76.8C204.8,290.577,208.614,294.4,213.333,294.4z"/>
			<path d="M213.333,354.133c4.719,0,8.533-3.823,8.533-8.533V320c0-4.71-3.814-8.533-8.533-8.533c-4.719,0-8.533,3.823-8.533,8.533
				v25.6C204.8,350.31,208.614,354.133,213.333,354.133z"/>
			<path d="M42.667,285.867H76.8c4.719,0,8.533-3.823,8.533-8.533S81.519,268.8,76.8,268.8H42.667c-4.719,0-8.533,3.823-8.533,8.533
				S37.948,285.867,42.667,285.867z"/>
			<path d="M179.2,354.133c4.719,0,8.533-3.823,8.533-8.533v-76.8c0-4.71-3.814-8.533-8.533-8.533s-8.533,3.823-8.533,8.533v76.8
				C170.667,350.31,174.481,354.133,179.2,354.133z"/>
			<path d="M179.2,243.2c4.719,0,8.533-3.823,8.533-8.533v-25.6c0-4.71-3.814-8.533-8.533-8.533s-8.533,3.823-8.533,8.533v25.6
				C170.667,239.377,174.481,243.2,179.2,243.2z"/>
			<path d="M213.333,371.204H42.667c-4.719,0-8.533,3.814-8.533,8.533v85.333c0,4.71,3.814,8.533,8.533,8.533h170.667
				c4.719,0,8.533-3.823,8.533-8.533v-85.333C221.867,375.019,218.052,371.204,213.333,371.204z M204.8,456.538H51.2v-68.267h153.6
				V456.538z"/>
			<path d="M93.867,140.8c0,18.825,15.309,34.133,34.133,34.133s34.133-15.309,34.133-34.133S146.825,106.667,128,106.667
				S93.867,121.975,93.867,140.8z M145.067,140.8c0,9.412-7.654,17.067-17.067,17.067c-9.412,0-17.067-7.654-17.067-17.067
				s7.654-17.067,17.067-17.067C137.412,123.733,145.067,131.388,145.067,140.8z"/>
			<path d="M503.467,21.333c-37.641,0-68.267,30.626-68.267,68.267v119.467c0,14.114-11.486,25.6-25.6,25.6s-25.6-11.486-25.6-25.6
				V72.533c0-37.641-30.626-68.267-68.267-68.267h-128c-34.749,0-63.499,26.108-67.714,59.733H76.8
				c-2.432,0-4.762,1.041-6.374,2.859l-68.267,76.8C0.768,145.229,0,147.243,0,149.333V499.2c0,4.71,3.814,8.533,8.533,8.533
				h238.933c4.719,0,8.533-3.823,8.533-8.533V149.333c0-2.091-0.768-4.105-2.159-5.675l-68.267-76.8
				C183.962,65.041,181.632,64,179.2,64h-41.942c4.075-24.186,25.147-42.667,50.476-42.667h128c28.237,0,51.2,22.963,51.2,51.2
				v136.533c0,23.526,19.14,42.667,42.667,42.667c23.526,0,42.667-19.14,42.667-42.667V89.6c0-28.237,22.963-51.2,51.2-51.2
				c4.719,0,8.533-3.823,8.533-8.533S508.186,21.333,503.467,21.333z M238.933,152.576v338.091H17.067V152.576l63.565-71.509h94.737
				L238.933,152.576z"/>
			<path d="M76.8,430.933h25.6c4.719,0,8.533-3.823,8.533-8.533c0-4.71-3.814-8.533-8.533-8.533H76.8
				c-4.719,0-8.533,3.823-8.533,8.533C68.267,427.11,72.081,430.933,76.8,430.933z"/>
			<path d="M153.6,430.933h25.6c4.719,0,8.533-3.823,8.533-8.533c0-4.71-3.814-8.533-8.533-8.533h-25.6
				c-4.719,0-8.533,3.823-8.533,8.533C145.067,427.11,148.881,430.933,153.6,430.933z"/>
		</g>
	</g>
</g>
<g>
</g>
<g>
</g>
<g>
</g>
<g>
</g>
<g>
</g>
<g>
</g>
<g>
</g>
<g>
</g>
<g>
</g>
<g>
</g>
<g>
</g>
<g>
</g>
<g>
</g>
<g>
</g>
<g>
</g>
</svg>
