<svg id="Capa_1" enable-background="new 0 0 510 510" height="512" viewBox="0 0 510 510" width="512" xmlns="http://www.w3.org/2000/svg">
  <g fill="#f0851d"> <path d="m492.452 263.363 5.616-8.363-5.616-8.363c-1.068-1.591-26.649-39.41-68.191-77.67-46.968-43.258-105.706-78.967-169.261-78.967-63.549 0-122.286 35.703-169.261 78.967-41.542 38.26-67.123 76.079-68.191 77.67l-5.616 8.363 5.616 8.363c1.068 1.591 26.649 39.41 68.191 77.67 46.968 43.258 105.706 78.967 169.261 78.967 63.549 0 122.286-35.703 169.261-78.967 41.542-38.26 67.123-76.079 68.191-77.67zm-237.452 126.637c-98.356 0-183.61-104.362-206.519-135.009 22.879-30.666 107.975-134.991 206.519-134.991 98.35 0 183.6 104.35 206.518 135.009-22.878 30.666-107.974 134.991-206.518 134.991z"/>
    <path d="m255 150c-57.898 0-105 47.103-105 105s47.102 105 105 105 105-47.103 105-105-47.103-105-105-105zm0 180c-41.355 0-75-33.645-75-75s33.645-75 75-75 75 33.645 75 75-33.645 75-75 75z"/>
    <path d="m255 210c-24.814 0-45 20.187-45 45 0 24.814 20.186 45 45 45s45-20.186 45-45c0-24.813-20.186-45-45-45zm0 60c-8.271 0-15-6.728-15-15 0-8.271 6.729-15 15-15 8.272 0 15 6.729 15 15 0 8.272-6.728 15-15 15z"/>
    <path d="m240 0h30v60h-30z"/>
    <path d="m158.787 6.213h30v60h-30z" transform="matrix(.707 -.707 .707 .707 25.294 133.492)"/>
    <path d="m306.213 21.214h60v30h-60z" transform="matrix(.707 -.707 .707 .707 72.868 248.345)"/>
    <path d="m240 450h30v60h-30z"/>
    <path d="m143.786 458.787h60.001v30h-60.001z" transform="matrix(.707 -.707 .707 .707 -284.117 261.655)"/>
    <path d="m321.214 443.786h30v60.001h-30z" transform="matrix(.707 -.707 .707 .707 -236.543 376.507)"/>
    <path d="m30 30h45v-30h-75v75h30z"/>
    <path d="m435 0v30h45v45h30v-75z"/>
    <path d="m30 435h-30v75h75v-30h-45z"/>
    <path d="m480 480h-45v30h75v-75h-30z"/>
  </g>
</svg>