<?xml version="1.0" encoding="UTF-8"?>
<svg id="Camada_1" data-name="Camada 1" xmlns="http://www.w3.org/2000/svg" viewBox="0 0 66.83 64.08">
  <defs>
    <style>
      .cls-1 {
        fill: #dbd9db;
      }

      .cls-1, .cls-2, .cls-3, .cls-4, .cls-5, .cls-6, .cls-7 {
        stroke-width: 0px;
      }

      .cls-2 {
        fill: #7cc8cb;
      }

      .cls-3 {
        fill: #010101;
      }

      .cls-4 {
        fill: #be4151;
      }

      .cls-5 {
        fill: #e16078;
      }

      .cls-6 {
        fill: #db4756;
      }

      .cls-7 {
        fill: #edeaec;
      }
    </style>
  </defs>
  <g>
    <g>
      <path class="cls-4" d="M7.96,41.07h-2.01c-2.77,0-5.02-2.25-5.02-5.02,0-1.66,1.35-3.01,3.01-3.01h4.01v8.03Z"/>
      <path class="cls-7" d="M56.53,10.38L47.67,1.53c-.38-.38-.89-.59-1.42-.59H8.96c-1.11,0-2.01.9-2.01,2.01v31.35l2.01,28.85h46.15c1.11,0,2.01-.9,2.01-2.01V11.8c0-.53-.21-1.04-.59-1.42Z"/>
      <path class="cls-1" d="M57.12,11.8c0-.53-.21-1.04-.59-1.42L47.67,1.53c-.38-.38-.89-.59-1.42-.59h-.17v10.03c0,.55.45,1,1,1h10.03v-.17Z"/>
      <path class="cls-1" d="M9.97,58.12V.94h-1c-1.11,0-2.01.9-2.01,2.01v58.19c0,1.11.9,2.01,2.01,2.01h46.15c1.11,0,2.01-.9,2.01-2.01v-1H11.97c-1.11,0-2.01-.9-2.01-2.01h0Z"/>
      <path class="cls-5" d="M35.05,39.06H3.95c-1.66,0-3.01-1.35-3.01-3.01v18.06c0,1.66,1.35,3.01,3.01,3.01h31.1c1.11,0,2.01-.9,2.01-2.01v-14.05c0-1.11-.9-2.01-2.01-2.01h0Z"/>
      <path class="cls-6" d="M3.95,57.12h31.1c1.11,0,2.01-.9,2.01-2.01v-1H5.95c-1.11,0-2.01-.9-2.01-2.01v-13.04c-1.66,0-3.01-1.35-3.01-3.01v18.06c0,1.66,1.35,3.01,3.01,3.01h0Z"/>
    </g>
    <g>
      <path class="cls-3" d="M57.19,9.72L48.34.86c-.56-.56-1.3-.86-2.08-.86H8.96c-1.62,0-2.95,1.32-2.95,2.95v29.16h-2.07c-2.18,0-3.95,1.77-3.95,3.95v18.06c0,2.18,1.77,3.95,3.95,3.95h31.1c1.62,0,2.95-1.32,2.95-2.95v-14.04c0-1.62-1.32-2.95-2.95-2.95H3.95c-1.14,0-2.07-.93-2.07-2.07s.93-2.07,2.07-2.07h2.07v1.07c0,.52.42.94.94.94s.94-.42.94-.94V2.95c0-.59.48-1.07,1.07-1.07h36.18v9.09c0,1.07.87,1.94,1.94,1.94h9.09v48.22c0,.59-.48,1.07-1.07,1.07H8.96c-.59,0-1.07-.48-1.07-1.07,0-.52-.42-.94-.94-.94s-.94.42-.94.94c0,1.62,1.32,2.95,2.95,2.95h46.15c1.62,0,2.95-1.32,2.95-2.95V11.8c0-.79-.31-1.53-.86-2.08ZM3.95,40h31.1c.59,0,1.07.48,1.07,1.07v14.05c0,.59-.48,1.07-1.07,1.07H3.95c-1.14,0-2.07-.93-2.07-2.07v-14.7c.6.37,1.31.59,2.07.59ZM47.02,10.97V2.2l8.83,8.83h-8.77s-.06-.03-.06-.06Z"/>
      <path class="cls-3" d="M26.6,53.01c.52,0,.94-.42.94-.94v-3.12h2.03c.52,0,.94-.42.94-.94s-.42-.94-.94-.94h-2.03v-2.03h2.29c.52,0,.94-.42.94-.94s-.42-.94-.94-.94h-3.23c-.52,0-.94.42-.94.94v7.97c0,.52.42.94.94.94h0Z"/>
      <path class="cls-3" d="M16.73,52.65c.18.17.41.27.66.27h0c.07,0,1.64,0,2.27-.02,2.32-.04,4-2.07,4-4.82,0-2.89-1.64-4.83-4.08-4.83h-2.21c-.25,0-.49.1-.66.28s-.27.42-.27.66h0v7.66c0,.06,0,.13.02.19.02.23.11.44.27.6h0ZM19.58,45.13c1.63,0,2.21,1.53,2.21,2.96,0,2-1.08,2.92-2.16,2.94-.3,0-.83,0-1.3.01,0-.92,0-4.95-.01-5.91h1.27Z"/>
      <path class="cls-3" d="M8.94,53.04c.52,0,.94-.42.94-.94v-2.55c.47,0,1,0,1.3,0,1.79,0,3.25-1.44,3.25-3.2s-1.46-3.2-3.25-3.2h-2.23c-.25,0-.49.1-.66.28-.18.18-.27.41-.27.66h0v8.03c0,.52.42.94.94.94h0ZM11.17,45.02c.74,0,1.37.61,1.37,1.33s-.63,1.33-1.37,1.33c-.3,0-.82,0-1.29,0,0-.48,0-2.16,0-2.66h1.29,0Z"/>
      <path class="cls-3" d="M26.52,27.22c-2.31.73-4.67,1.74-5.94,3.04-1.04,1.08-1.23,2.32-.52,3.42.48.75,1.15,1.14,1.9,1.14.29,0,.59-.06.89-.17,1.1-.42,2.29-1.62,3.64-3.67.44-.66.88-1.39,1.31-2.19.16-.05.32-.09.49-.14,2.65-.74,5.65-1.28,8.28-1.5,1.6,1.55,3.26,2.76,4.67,3.09,1.55.36,2.79-.35,3.3-1.9.31-.94-.05-1.83-.95-2.37-.93-.56-2.54-.83-4.79-.81-.48,0-.99.03-1.51.06-1.01-1.04-2.06-2.29-3.08-3.67-.79-1.07-1.49-2.13-2.08-3.15.06-.22.13-.44.18-.66.64-2.38.87-4.2.68-5.42-.27-1.75-1.41-2-1.88-2.03-1.61-.09-2.7.73-2.91,2.18-.16,1.15.22,2.74,1.15,4.71.22.47.47.95.74,1.45-.1.32-.21.66-.33,1.01-.87,2.56-2.04,5.29-3.25,7.58h0ZM22.01,32.93c-.07,0-.18.02-.37-.28-.16-.24-.17-.43-.03-.68.31-.58,1.38-1.4,3.45-2.25-1.44,2.24-2.52,3.14-3.05,3.2h0ZM42.77,27.68s0,.03-.02.06c-.23.72-.55.78-1.09.66-.65-.15-1.48-.64-2.41-1.38,2.51.02,3.38.47,3.51.65ZM30.06,12.73c.04-.27.08-.57.8-.57.04,0,.09,0,.14,0,.21.26.32,1.42-.17,3.71-.58-1.34-.87-2.45-.77-3.15h0ZM31.37,20.74c.41.63.86,1.27,1.32,1.91.67.92,1.43,1.87,2.24,2.77-.93.11-1.89.26-2.85.43-.65.12-1.78.34-3.11.67.29-.61.58-1.24.87-1.89.56-1.29,1.08-2.62,1.53-3.89h0Z"/>
    </g>
  </g>
  <path class="cls-2" d="M65.6,29.28c-1.63-1.63-4.28-1.63-5.91,0l-11.01,11.01c-.73.73-1.91.73-2.64,0,0,0,0,0,0,0l-3.57-3.57c-1.63-1.63-4.28-1.63-5.91,0h0c-1.63,1.63-1.63,4.28,0,5.92l6.78,6.78c2.21,2.21,5.8,2.21,8.02,0l14.24-14.23c1.63-1.63,1.63-4.28,0-5.91h0Z"/>
</svg>