<svg version="1.1" id="Capa_1" xmlns="http://www.w3.org/2000/svg" xmlns:xlink="http://www.w3.org/1999/xlink" x="0px" y="0px" viewBox="0 0 512 512" style="enable-background:new 0 0 512 512;" xml:space="preserve">
<g>
	<path style="fill:none;stroke:#f0851d;stroke-width:30;stroke-miterlimit:10;" d="M137,413.086H15V208.914&#10;&#9;&#9;c0-28.49,23.096-51.586,51.586-51.586h378.829c28.49,0,51.586,23.096,51.586,51.586v204.171H376"/>
	<rect x="145" y="337.914" style="fill:none;stroke:#f0851d;stroke-width:30;stroke-miterlimit:10;" width="222" height="159"/>
	<polyline style="fill:none;stroke:#f0851d;stroke-width:30;stroke-miterlimit:10;" points="145,337.914 85,337.914 85,409.086 &#9;"/>
	<polyline style="fill:none;stroke:#f0851d;stroke-width:30;stroke-miterlimit:10;" points="367,337.914 427,337.914 427,409.086 &#9;&#10;&#9;&#9;"/>
	<rect x="135" y="15.086" style="fill:none;stroke:#f0851d;stroke-width:30;stroke-miterlimit:10;" width="242" height="142.243"/>
	<line style="fill:none;stroke:#f0851d;stroke-width:30;stroke-miterlimit:10;" x1="190" y1="437.086" x2="322" y2="437.086"/>
	
		<line style="fill:none;stroke:#f0851d;stroke-width:30;stroke-miterlimit:10;" x1="148.603" y1="232.914" x2="178.603" y2="232.914"/>
	
		<line style="fill:none;stroke:#f0851d;stroke-width:30;stroke-miterlimit:10;" x1="210.201" y1="232.914" x2="240.201" y2="232.914"/>
	
		<line style="fill:none;stroke:#f0851d;stroke-width:30;stroke-miterlimit:10;" x1="271.799" y1="232.914" x2="301.799" y2="232.914"/>
	
		<line style="fill:none;stroke:#f0851d;stroke-width:30;stroke-miterlimit:10;" x1="333.397" y1="232.914" x2="363.397" y2="232.914"/>
</g>
<g>
</g>
<g>
</g>
<g>
</g>
<g>
</g>
<g>
</g>
<g>
</g>
<g>
</g>
<g>
</g>
<g>
</g>
<g>
</g>
<g>
</g>
<g>
</g>
<g>
</g>
<g>
</g>
<g>
</g>
</svg>