<?xml version="1.0" encoding="UTF-8"?>
<svg id="Camada_1" data-name="Camada 1" xmlns="http://www.w3.org/2000/svg" viewBox="0 0 75.98 75.98">
  <defs>
    <style>
      .cls-1 {
        fill: #55b262;
        stroke: #fff;
        stroke-miterlimit: 10;
        stroke-width: 5px;
      }

      .cls-2 {
        fill: #fff;
        stroke-width: 0px;
      }
    </style>
  </defs>
  <g id="WA">
    <g>
      <path class="cls-1" d="M3.77,72.21l15.21-4.18c5.45,3.42,12.04,5.45,19.01,5.45,19.65,0,35.49-15.84,35.49-35.49S57.64,2.5,37.99,2.5,2.5,18.34,2.5,37.99c0,6.97,2.03,13.56,5.45,19.01l-4.18,15.21Z"/>
      <path class="cls-2" d="M55.61,47.62c-2.41,5.07-6.84,5.7-6.84,5.7-3.8.76-8.62-.89-12.42-2.66-5.45-2.54-10.14-6.59-13.31-11.79-1.39-2.41-2.66-5.2-2.79-7.86,0,0-.51-4.44,3.8-7.99.38-.25.76-.38,1.27-.38h1.9c.76,0,1.52.51,1.77,1.27l2.92,7.1c.25.76.13,1.52-.38,2.15l-1.9,2.03c-.63.63-.63,1.52-.25,2.28.13.25.38.63.76,1.01,2.28,3.04,5.32,5.32,8.75,6.84.51.25.89.38,1.27.51.89.25,1.65-.13,2.15-.76l1.52-2.28c.38-.63,1.14-1.01,1.9-.89l7.61,1.14c.76.13,1.39.76,1.65,1.52l.51,1.9c.25.25.25.76.13,1.14h0Z"/>
    </g>
  </g>
</svg>