<?xml version="1.0" encoding="UTF-8"?>
<svg id="Camada_1" data-name="Camada 1" xmlns="http://www.w3.org/2000/svg" viewBox="0 0 69.06 58">
  <defs>
    <style>
      .cls-1 {
        fill: #d9e6f1;
      }

      .cls-1, .cls-2, .cls-3, .cls-4 {
        stroke-width: 0px;
      }

      .cls-2 {
        fill: #f5c84b;
      }

      .cls-3 {
        fill: #010101;
      }

      .cls-4 {
        fill: #b2d06f;
      }
    </style>
  </defs>
  <path class="cls-2" d="M1.82,44.47c-.59,0-1.07.48-1.07,1.07v7.53c0,.59.48,1.07,1.07,1.07h28.36v-9.67H1.82Z"/>
  <path class="cls-1" d="M46.76,44.47h-16.59v9.67h16.59c.59,0,1.07-.48,1.07-1.07v-7.53c0-.59-.48-1.07-1.07-1.07Z"/>
  <circle class="cls-2" cx="60.42" cy="49.33" r="7.94" transform="translate(-3.35 4.41) rotate(-4.07)"/>
  <path class="cls-4" d="M46.76,24.16H1.82c-.59,0-1.07.48-1.07,1.07v7.53c0,.59.48,1.07,1.07,1.07h44.94c.59,0,1.07-.48,1.07-1.07v-7.53c0-.59-.48-1.07-1.07-1.07h0Z"/>
  <circle class="cls-4" cx="60.38" cy="28.96" r="7.93" transform="translate(-2.57 6.12) rotate(-5.68)"/>
  <path class="cls-4" d="M46.76,3.85H1.82c-.59,0-1.07.48-1.07,1.07v7.53c0,.59.48,1.07,1.07,1.07h44.94c.59,0,1.07-.48,1.07-1.07v-7.53c0-.59-.48-1.07-1.07-1.07h0Z"/>
  <circle class="cls-4" cx="60.4" cy="8.68" r="7.94"/>
  <path class="cls-3" d="M46.76,43.73H1.82c-1,0-1.82.82-1.82,1.82v7.53c0,1,.82,1.82,1.82,1.82h44.94c1,0,1.82-.82,1.82-1.82v-7.53c0-1-.82-1.82-1.82-1.82h0ZM47.08,53.08c0,.18-.15.32-.32.32H1.82c-.18,0-.32-.15-.32-.32v-7.53c0-.18.15-.32.32-.32h44.94c.18,0,.32.15.32.32v7.53h0Z"/>
  <path class="cls-3" d="M6.63,44.37c-.41,0-.75.33-.75.75v8.38c0,.41.33.75.75.75s.75-.33.75-.75v-8.38c0-.41-.33-.75-.75-.75Z"/>
  <path class="cls-3" d="M12.52,44.37c-.41,0-.75.33-.75.75v8.38c0,.41.33.75.75.75s.75-.33.75-.75v-8.38c0-.41-.33-.75-.75-.75Z"/>
  <path class="cls-3" d="M18.4,44.37c-.41,0-.75.33-.75.75v8.38c0,.41.33.75.75.75s.75-.33.75-.75v-8.38c0-.41-.33-.75-.75-.75Z"/>
  <path class="cls-3" d="M24.29,44.37c-.41,0-.75.33-.75.75v8.38c0,.41.33.75.75.75s.75-.33.75-.75v-8.38c0-.41-.34-.75-.75-.75Z"/>
  <path class="cls-3" d="M30.18,44.37c-.41,0-.75.33-.75.75v8.38c0,.41.33.75.75.75s.75-.33.75-.75v-8.38c0-.41-.33-.75-.75-.75Z"/>
  <path class="cls-3" d="M36.06,44.37c-.41,0-.75.33-.75.75v8.38c0,.41.33.75.75.75s.75-.33.75-.75v-8.38c0-.41-.33-.75-.75-.75Z"/>
  <path class="cls-3" d="M41.95,44.37c-.41,0-.75.33-.75.75v8.38c0,.41.33.75.75.75s.75-.33.75-.75v-8.38c0-.41-.33-.75-.75-.75Z"/>
  <path class="cls-3" d="M60.38,40.63c-4.79,0-8.68,3.9-8.68,8.68s3.9,8.68,8.68,8.68,8.68-3.9,8.68-8.68-3.9-8.68-8.68-8.68h0ZM60.38,56.5c-3.96,0-7.19-3.22-7.19-7.19s3.22-7.19,7.19-7.19,7.19,3.22,7.19,7.19c0,3.96-3.22,7.19-7.19,7.19h0Z"/>
  <path class="cls-3" d="M60.38,44.37c-2.73,0-4.95,2.22-4.95,4.95s2.22,4.95,4.95,4.95c.84,0,1.68-.22,2.41-.63.36-.2.49-.66.29-1.02-.2-.36-.66-.49-1.02-.29-.51.29-1.09.44-1.68.44-1.9,0-3.45-1.55-3.45-3.45s1.55-3.45,3.45-3.45,3.45,1.55,3.45,3.45c0,.41.33.75.75.75s.75-.33.75-.75c0-2.73-2.22-4.95-4.95-4.95h0Z"/>
  <path class="cls-3" d="M66.36,48.73c-.29-.29-.77-.29-1.06,0l-.79.79-.79-.79c-.29-.29-.77-.29-1.06,0-.29.29-.29.77,0,1.06l1.32,1.32c.14.14.33.22.53.22s.39-.08.53-.22l1.32-1.32c.29-.29.29-.77,0-1.06Z"/>
  <path class="cls-3" d="M46.76,23.41H1.82c-1,0-1.82.82-1.82,1.82v7.53c0,1,.82,1.82,1.82,1.82h44.94c1,0,1.82-.82,1.82-1.82v-7.53c0-1-.82-1.82-1.82-1.82h0ZM47.08,32.76c0,.18-.15.32-.32.32H1.82c-.18,0-.32-.15-.32-.32v-7.53c0-.18.15-.32.32-.32h44.94c.18,0,.32.15.32.32v7.53h0Z"/>
  <path class="cls-3" d="M6.63,24.06c-.41,0-.75.33-.75.75v8.38c0,.41.33.75.75.75s.75-.33.75-.75v-8.38c0-.41-.33-.75-.75-.75h0Z"/>
  <path class="cls-3" d="M12.52,24.06c-.41,0-.75.33-.75.75v8.38c0,.41.33.75.75.75s.75-.33.75-.75v-8.38c0-.41-.33-.75-.75-.75h0Z"/>
  <path class="cls-3" d="M18.4,24.06c-.41,0-.75.33-.75.75v8.38c0,.41.33.75.75.75s.75-.33.75-.75v-8.38c0-.41-.33-.75-.75-.75h0Z"/>
  <path class="cls-3" d="M24.29,24.06c-.41,0-.75.33-.75.75v8.38c0,.41.33.75.75.75s.75-.33.75-.75v-8.38c0-.41-.34-.75-.75-.75h0Z"/>
  <path class="cls-3" d="M30.18,24.06c-.41,0-.75.33-.75.75v8.38c0,.41.33.75.75.75s.75-.33.75-.75v-8.38c0-.41-.33-.75-.75-.75h0Z"/>
  <path class="cls-3" d="M36.06,24.06c-.41,0-.75.33-.75.75v8.38c0,.41.33.75.75.75s.75-.33.75-.75v-8.38c0-.41-.33-.75-.75-.75h0Z"/>
  <path class="cls-3" d="M41.95,24.06c-.41,0-.75.33-.75.75v8.38c0,.41.33.75.75.75s.75-.33.75-.75v-8.38c0-.41-.33-.75-.75-.75h0Z"/>
  <path class="cls-3" d="M60.38,20.31c-4.79,0-8.68,3.9-8.68,8.68s3.9,8.68,8.68,8.68,8.68-3.9,8.68-8.68-3.9-8.68-8.68-8.68h0ZM60.38,36.19c-3.96,0-7.19-3.22-7.19-7.19s3.22-7.19,7.19-7.19,7.19,3.22,7.19,7.19-3.22,7.19-7.19,7.19h0Z"/>
  <path class="cls-3" d="M63.68,27.23c-.29-.29-.77-.29-1.06,0l-2.86,2.86-1.56-1.56c-.29-.29-.77-.29-1.06,0-.29.29-.29.77,0,1.06l2.09,2.09c.14.14.33.22.53.22s.39-.08.53-.22l3.39-3.39c.29-.29.29-.77,0-1.06Z"/>
  <path class="cls-3" d="M46.76,3.1H1.82c-1,0-1.82.82-1.82,1.82v7.53c0,1,.82,1.82,1.82,1.82h44.94c1,0,1.82-.82,1.82-1.82v-7.53c0-1-.82-1.82-1.82-1.82h0ZM47.08,12.45c0,.18-.15.32-.32.32H1.82c-.18,0-.32-.15-.32-.32v-7.53c0-.18.15-.32.32-.32h44.94c.18,0,.32.15.32.32v7.53h0Z"/>
  <path class="cls-3" d="M6.63,3.74c-.41,0-.75.33-.75.75v8.38c0,.41.33.75.75.75s.75-.33.75-.75V4.49c0-.41-.33-.75-.75-.75Z"/>
  <path class="cls-3" d="M12.52,3.74c-.41,0-.75.33-.75.75v8.38c0,.41.33.75.75.75s.75-.33.75-.75V4.49c0-.41-.33-.75-.75-.75Z"/>
  <path class="cls-3" d="M18.4,3.74c-.41,0-.75.33-.75.75v8.38c0,.41.33.75.75.75s.75-.33.75-.75V4.49c0-.41-.33-.75-.75-.75Z"/>
  <path class="cls-3" d="M24.29,3.74c-.41,0-.75.33-.75.75v8.38c0,.41.33.75.75.75s.75-.33.75-.75V4.49c0-.41-.34-.75-.75-.75Z"/>
  <path class="cls-3" d="M30.18,3.74c-.41,0-.75.33-.75.75v8.38c0,.41.33.75.75.75s.75-.33.75-.75V4.49c0-.41-.33-.75-.75-.75Z"/>
  <path class="cls-3" d="M36.06,3.74c-.41,0-.75.33-.75.75v8.38c0,.41.33.75.75.75s.75-.33.75-.75V4.49c0-.41-.33-.75-.75-.75Z"/>
  <path class="cls-3" d="M41.95,3.74c-.41,0-.75.33-.75.75v8.38c0,.41.33.75.75.75s.75-.33.75-.75V4.49c0-.41-.33-.75-.75-.75Z"/>
  <path class="cls-3" d="M60.38,0C55.59,0,51.69,3.9,51.69,8.68s3.9,8.68,8.68,8.68,8.68-3.9,8.68-8.68S65.17,0,60.38,0h0ZM60.38,15.87c-3.96,0-7.19-3.22-7.19-7.19s3.22-7.19,7.19-7.19,7.19,3.22,7.19,7.19-3.22,7.19-7.19,7.19h0Z"/>
  <path class="cls-3" d="M63.68,6.91c-.29-.29-.77-.29-1.06,0l-2.86,2.86-1.56-1.56c-.29-.29-.77-.29-1.06,0-.29.29-.29.77,0,1.06l2.09,2.09c.15.15.34.22.53.22s.38-.07.53-.22l3.39-3.39c.29-.29.29-.77,0-1.06Z"/>
</svg>