<?xml version="1.0" encoding="UTF-8"?>
<svg id="Camada_1" data-name="Camada 1" xmlns="http://www.w3.org/2000/svg" viewBox="0 0 243 191.14">
  <defs>
    <style>
      .cls-1 {
        fill: #fff;
        fill: #fff;
        stroke: #fff;
        stroke-width: 1px;
      }
    </style>
  </defs>
  <path class="cls-1" d="M78.44,0c-5.2,0-10.16,1.05-14.66,2.95-4.5,1.9-8.55,4.66-11.96,8.06-.85.85-1.65,1.74-2.42,2.67-.77.93-1.48,1.9-2.16,2.9-.67,1-1.3,2.04-1.88,3.1-.22.4-.42.81-.63,1.23-.21.3-.35.64-.42.99-.13.56-.07,1.15.18,1.67,1.01,3.81,2.79,7.41,5.26,10.5v3.13c-3.32,1.06-5.67,4.33-5.67,8.03s2.38,7,5.72,8.05c.96,16.72,14.77,29.97,31.7,29.97s30.76-13.27,31.71-30c3.28-1.08,5.61-4.35,5.61-8.02s-2.3-6.9-5.56-8v-12.77c.07-.42.03-.84-.1-1.24-.06-.2-.15-.4-.25-.59-1.89-4.38-4.58-8.33-7.9-11.65-3.4-3.4-7.44-6.16-11.95-8.06-4.5-1.9-9.47-2.95-14.66-2.95ZM195.4,0c-19.69,0-35.7,16.01-35.7,35.69s16.01,35.7,35.7,35.7,35.7-16.02,35.7-35.7S215.09,0,195.4,0ZM78.44,5.1c4.51,0,8.79.91,12.67,2.55,3.89,1.64,7.39,4.02,10.33,6.96,2.82,2.83,5.12,6.19,6.75,9.91v12.28c-.19-.01-.38-.02-.57-.04-.63-.06-1.26-.15-1.88-.26-.63-.11-1.24-.26-1.86-.42-2.45-.67-4.78-1.78-6.86-3.27-1.94-1.4-3.64-3.14-5.01-5.19-.57-1.54-2.42-2.14-3.78-1.25-.49.3-.86.76-1.06,1.3-5.9,10.71-18.27,14.17-28.12,7.98-4.71-2.96-7.98-7.64-9.5-12.95.1-.19.19-.39.3-.58.5-.92,1.04-1.82,1.63-2.69.58-.86,1.21-1.7,1.87-2.51.66-.8,1.36-1.58,2.1-2.31,2.94-2.94,6.44-5.32,10.32-6.96,3.89-1.64,8.17-2.55,12.68-2.55h0ZM192.85,5.21v2.32c-.04,3.44,5.14,3.44,5.1,0v-2.32c14.89,1.22,26.71,13.04,27.93,27.93h-2.32c-3.37.03-3.37,5.07,0,5.1h2.32c-1.23,14.89-13.05,26.71-27.93,27.93v-2.32c.02-1.44-1.15-2.61-2.59-2.59-1.4.02-2.53,1.18-2.51,2.59v2.32c-14.89-1.22-26.71-13.04-27.93-27.93h2.32c3.43.03,3.43-5.14,0-5.1h-2.33c1.23-14.89,13.05-26.71,27.94-27.93ZM195.36,17.74c-1.4.02-2.53,1.18-2.51,2.58v12.82h-5.96c-3.37.03-3.37,5.07,0,5.1h7.67c2.18,0,3.39-.13,3.39-2.41v-15.52c.02-1.44-1.16-2.6-2.59-2.58ZM89.77,33.06c1.28,1.46,2.71,2.77,4.27,3.88,2.58,1.86,5.47,3.22,8.5,4.05.76.21,1.52.39,2.29.53.77.14,1.55.24,2.33.31.34.03.69.05,1.03.07v9.54c0,14.85-11.85,26.72-26.66,26.72s-26.66-11.87-26.66-26.72v-12.49c.48.35.96.69,1.47,1,11.28,7.09,25.63,3.8,33.43-6.91ZM49.77,43.26v3.97c-.36-.53-.57-1.21-.57-1.98s.22-1.45.57-1.99ZM113.29,43.45c.29.5.46,1.12.46,1.8s-.17,1.3-.46,1.8v-3.61ZM86.37,65.68c-.75-.02-1.47.3-1.97.86-.79.87-1.78,1.34-2.88,1.34s-2.09-.47-2.88-1.34c-2.28-2.51-6.05.9-3.78,3.42,1.65,1.82,4.04,3.02,6.66,3.02s5.02-1.2,6.67-3.02c1.5-1.62.39-4.25-1.82-4.29ZM190.55,80.99c-1.93-.02-3.17,2.05-2.27,3.75,0,0,.29.56.59,1.32.29.76.52,1.75.52,1.97s-.06.38-.41,1.05c-.34.67-.98,1.85-.98,3.4s.63,2.73.98,3.4c.35.67.41.85.41,1.06s-.23,1.2-.52,1.96c-.3.76-.59,1.32-.59,1.32-1.59,3.03,2.98,5.4,4.53,2.34,0,0,.41-.78.81-1.81.4-1.03.87-2.26.87-3.81s-.63-2.73-.98-3.4c-.35-.67-.41-.85-.41-1.06s.06-.38.41-1.05c.35-.67.98-1.85.98-3.4s-.47-2.79-.87-3.82c-.4-1.02-.81-1.81-.81-1.81-.43-.86-1.3-1.4-2.26-1.41ZM199.91,80.99c-1.93-.02-3.17,2.05-2.27,3.75,0,0,.29.56.59,1.32.29.76.52,1.75.52,1.97s-.06.38-.41,1.05c-.35.67-.98,1.85-.98,3.4s.63,2.73.98,3.4c.35.67.41.85.41,1.06s-.23,1.2-.52,1.96c-.3.76-.59,1.32-.59,1.32-1.61,3.03,2.99,5.41,4.53,2.34,0,0,.41-.78.81-1.81.4-1.03.87-2.26.87-3.81s-.63-2.73-.98-3.4c-.35-.67-.41-.85-.41-1.06s.06-.38.41-1.05c.35-.67.98-1.85.98-3.4s-.47-2.79-.87-3.82c-.4-1.02-.81-1.81-.81-1.81-.43-.86-1.3-1.4-2.26-1.41ZM60.68,81.07c-.66-.03-1.31.2-1.81.64l-6.31,5.6h-12.42c-8.12,0-14.73,6.63-14.73,14.75v14.25c-4.22.33-8.4,2.17-11.53,4.96-1.72,1.54-3.13,3.4-3.87,5.58-.74,2.18-.73,4.71.33,7.06l19.18,42.78c-2.43,1.29-4.11,3.85-4.11,6.76,0,.9.17,1.75.45,2.55H2.65c-3.53-.13-3.53,5.23,0,5.1h237.71c3.53.13,3.53-5.23,0-5.1h-8.81c1.23-1.82,1.95-4.02,1.95-6.38,0-6.31-5.16-11.47-11.47-11.47h-8.24c-.16-.06-.32-.11-.48-.13-3-.53-5.24-3.08-5.24-6.27s2.25-5.74,5.24-6.27c.11-.02.22-.05.34-.09h8.39c6.31,0,11.47-5.16,11.47-11.47s-5.16-11.47-11.47-11.47h-12.08v-1.37c4.79-.01,8.59-4.1,8.59-8.92s-3.8-8.92-8.59-8.93v-3.83c0-1.4-1.14-2.55-2.55-2.55h-22.95c-1.41,0-2.55,1.14-2.55,2.55v23.04h-12.98c-.71,0-1.39.07-2.02.18-2.8.5-2.8,4.52,0,5.02,3,.53,5.25,3.08,5.25,6.27s-2.25,5.74-5.25,6.27c-.11.02-.23.05-.34.09h-8.39c-6.31,0-11.47,5.16-11.47,11.47s5.16,11.47,11.47,11.47h8.23c3.46,0,5.66,3.56,5.74,6.4,0,3.19-2.25,5.74-5.25,6.27-.13.03-.27.06-.4.11h-29.33c.29-.8.45-1.66.45-2.55,0-2.92-1.67-5.47-4.11-6.76l19.18-42.78c1.05-2.35,1.08-4.88.34-7.06-.74-2.18-2.15-4.05-3.88-5.58-3.12-2.79-7.31-4.63-11.53-4.96v-14.26c0-8.09-6.54-14.69-14.6-14.75h-12.54l-6.31-5.6c-.45-.4-1.03-.63-1.62-.64-.32-.01-.63.04-.93.15l-16.78,6.02h-6.64l-16.77-6.02c-.24-.09-.5-.13-.75-.15ZM61.13,86.53l11.6,4.16-4.84,4.08-9.76-5.57,3-2.67ZM101.93,86.53l3,2.67-9.76,5.57-4.84-4.08,11.61-4.16ZM79.05,92.34h5.31l1.19,1,1.64,2.19-2.57,4.39h-5.38l-2.53-4.4,2.35-3.19ZM40.15,92.42h13.34l13.42,7.66c.93.54,2.08.43,2.9-.26l2.33-1.97,2.88,5-3.39,13.42H30.52v-14.2c0-5.4,4.25-9.65,9.62-9.65ZM109.56,92.42h13.35c5.37,0,9.62,4.25,9.62,9.65v14.2h-40.29l-3.43-13.41,2.66-4.54,1.77,1.5c.82.69,1.98.8,2.91.26l13.42-7.66ZM79.74,105.03h4.35l2.88,11.25h-10.07l2.83-11.25ZM186.99,111.99h17.85v20.4h-17.85v-20.4ZM209.94,118.36c1.89.01,3.48,1.62,3.48,3.83s-1.6,3.81-3.48,3.82v-7.65ZM26.74,121.38h46.7c.12,0,.25,0,.37,0h62.49c3.14,0,7.01,1.54,9.45,3.71,1.21,1.09,2.06,2.29,2.44,3.42.38,1.12.39,2.13-.15,3.34l-19.72,43.98H34.73l-19.73-43.98c-.54-1.21-.53-2.21-.16-3.34.38-1.12,1.23-2.33,2.45-3.42,2.43-2.18,6.31-3.71,9.45-3.71ZM175.13,137.57h40.74v12.76h-4c-.19-.02-.39-.02-.59-.02h-36.13c1.25-1.84,2.1-3.97,2.1-6.36s-.85-4.54-2.12-6.38ZM220.97,137.57h1.05c3.58,0,6.38,2.8,6.38,6.38s-2.8,6.38-6.38,6.38h-1.05v-12.76ZM81.53,138.43c-5.6,0-10.2,4.59-10.2,10.19s4.6,10.2,10.2,10.2,10.2-4.6,10.2-10.2-4.6-10.19-10.2-10.19ZM81.53,143.52c2.85,0,5.1,2.25,5.1,5.1s-2.26,5.1-5.1,5.1-5.1-2.25-5.1-5.1,2.26-5.1,5.1-5.1ZM162.75,155.41h5.56c.2.01.4.02.61.02h36.13c-1.25,1.84-2.1,3.97-2.1,6.36s.85,4.54,2.11,6.38h-42.31v-12.75ZM157.65,155.43v12.7c-3.32-.26-5.85-2.95-5.85-6.35s2.53-6.09,5.85-6.35ZM175.13,173.29h42.31v12.75h-42.31c1.26-1.84,2.11-3.99,2.11-6.38s-.85-4.53-2.11-6.37ZM222.54,173.31c3.32.26,5.85,2.95,5.85,6.35s-2.53,6.09-5.85,6.35v-12.7ZM33.6,180.93h95.84c.29.06.58.07.87.03,1.28.15,2.21,1.18,2.21,2.52,0,1.46-1.09,2.55-2.55,2.55H33.08c-1.46,0-2.55-1.09-2.55-2.55,0-1.33.93-2.36,2.21-2.52.29.04.58.03.87-.03Z"/>
</svg>
