<?xml version="1.0" encoding="UTF-8"?>
<svg id="Camada_1" data-name="Camada 1" xmlns="http://www.w3.org/2000/svg" viewBox="0 0 64.23 71.03">
  <defs>
    <style>
      .cls-1 {
        fill: #faf8f9;
      }

      .cls-1, .cls-2, .cls-3, .cls-4, .cls-5, .cls-6, .cls-7 {
        stroke-width: 0px;
      }

      .cls-2 {
        fill: #cac0c9;
      }

      .cls-3 {
        fill: #cbe0ac;
      }

      .cls-4 {
        fill: #e5e1e5;
      }

      .cls-5 {
        fill: #a2cf99;
      }

      .cls-6 {
        fill: #d7d0d6;
      }

      .cls-7 {
        fill: #efedef;
      }

      .cls-8 {
        fill: none;
        stroke: #010101;
        stroke-linecap: round;
        stroke-linejoin: round;
        stroke-width: .25px;
      }
    </style>
  </defs>
  <g>
    <g>
      <path class="cls-1" d="M52.81,58.08h-31.32c-2.36,0-4.27-1.91-4.27-4.27V13.34l8.4-8.4h27.19c2.36,0,4.27,1.91,4.27,4.27v44.6c0,2.36-1.91,4.27-4.27,4.27Z"/>
      <path class="cls-7" d="M52.81,4.94h-4.27c2.36,0,4.27,1.91,4.27,4.27v44.6c0,2.36-1.91,4.27-4.27,4.27h4.27c2.36,0,4.27-1.91,4.27-4.27V9.21c0-2.36-1.91-4.27-4.27-4.27Z"/>
      <path class="cls-6" d="M24.19,13.34h-6.98l8.4-8.4v6.98c0,.79-.64,1.42-1.42,1.42Z"/>
    </g>
    <g>
      <path class="cls-7" d="M44.26,64.49H12.94c-2.36,0-4.27-1.91-4.27-4.27V19.75l8.4-8.4h27.19c2.36,0,4.27,1.91,4.27,4.27v44.6c0,2.36-1.91,4.27-4.27,4.27Z"/>
      <path class="cls-4" d="M44.26,11.34h-4.27c2.36,0,4.27,1.91,4.27,4.27v44.6c0,2.36-1.91,4.27-4.27,4.27h4.27c2.36,0,4.27-1.91,4.27-4.27V15.62c0-2.36-1.91-4.27-4.27-4.27Z"/>
      <path class="cls-6" d="M15.65,19.75h-6.98l8.4-8.4v6.98c0,.79-.64,1.42-1.42,1.42Z"/>
    </g>
    <g>
      <path class="cls-1" d="M35.72,70.9H4.4c-2.36,0-4.27-1.91-4.27-4.27V26.15l8.4-8.4h27.19c2.36,0,4.27,1.91,4.27,4.27v44.6c0,2.36-1.91,4.27-4.27,4.27Z"/>
      <path class="cls-4" d="M35.72,17.75h-4.27c2.36,0,4.27,1.91,4.27,4.27v44.6c0,2.36-1.91,4.27-4.27,4.27h4.27c2.36,0,4.27-1.91,4.27-4.27V22.02c0-2.36-1.91-4.27-4.27-4.27Z"/>
      <path class="cls-6" d="M7.1,26.15H.13l8.4-8.4v6.98c0,.79-.64,1.42-1.42,1.42Z"/>
    </g>
    <g>
      <circle class="cls-3" cx="48.05" cy="16.18" r="16.05"/>
      <path class="cls-5" d="M48.05.12c-.72,0-1.44.05-2.14.14,7.86,1.04,13.92,7.77,13.92,15.91s-6.06,14.87-13.92,15.91c.7.09,1.41.14,2.14.14,8.87,0,16.05-7.19,16.05-16.05S56.91.12,48.05.12Z"/>
    </g>
    <path class="cls-6" d="M31.38,34.87H8.74c-.31,0-.57-.26-.57-.57v-4.27c0-.31.26-.57.57-.57h22.64c.31,0,.57.26.57.57v4.27c0,.31-.26.57-.57.57Z"/>
    <path class="cls-2" d="M31.38,29.46h-4.27c.31,0,.57.26.57.57v4.27c0,.31-.26.57-.57.57h4.27c.31,0,.57-.26.57-.57v-4.27c0-.31-.26-.57-.57-.57Z"/>
    <g>
      <path class="cls-6" d="M31.95,44.63H8.17c-.59,0-1.07-.48-1.07-1.07s.48-1.07,1.07-1.07h23.78c.59,0,1.07.48,1.07,1.07s-.48,1.07-1.07,1.07Z"/>
      <path class="cls-6" d="M31.95,51.04H8.17c-.59,0-1.07-.48-1.07-1.07s.48-1.07,1.07-1.07h23.78c.59,0,1.07.48,1.07,1.07s-.48,1.07-1.07,1.07Z"/>
      <path class="cls-6" d="M31.95,57.44H8.17c-.59,0-1.07-.48-1.07-1.07s.48-1.07,1.07-1.07h23.78c.59,0,1.07.48,1.07,1.07s-.48,1.07-1.07,1.07Z"/>
      <path class="cls-6" d="M25.54,63.85H8.17c-.59,0-1.07-.48-1.07-1.07s.48-1.07,1.07-1.07h17.37c.59,0,1.07.48,1.07,1.07s-.48,1.07-1.07,1.07Z"/>
    </g>
  </g>
  <g>
    <g>
      <line class="cls-8" x1="25.62" y1="4.94" x2="36.59" y2="4.94"/>
      <path class="cls-8" d="M57.08,29.45v24.36c0,2.36-1.91,4.27-4.27,4.27h-4.27"/>
      <polyline class="cls-8" points="19.21 11.34 25.62 4.94 25.62 11.34"/>
    </g>
    <g>
      <polyline class="cls-8" points="10.66 17.75 17.07 11.34 32.61 11.34"/>
      <path class="cls-8" d="M48.53,50.68v9.54c0,2.36-1.91,4.27-4.27,4.27h-4.27"/>
      <line class="cls-8" x1="48.53" y1="32.22" x2="48.53" y2="45.7"/>
      <polyline class="cls-8" points="10.66 17.75 17.07 11.34 17.07 17.75"/>
    </g>
    <g>
      <line class="cls-8" x1="26.73" y1="17.75" x2="32.07" y2="17.75"/>
      <path class="cls-8" d="M39.99,30.07v36.56c0,2.36-1.91,4.27-4.27,4.27H4.4c-2.36,0-4.27-1.91-4.27-4.27V26.15l8.4-8.4h13.22"/>
      <path class="cls-8" d="M7.1,26.15H.13l8.4-8.4v6.98c0,.79-.64,1.42-1.42,1.42Z"/>
    </g>
    <g>
      <circle class="cls-8" cx="48.05" cy="16.18" r="16.05"/>
      <g>
        <path class="cls-8" d="M37.99,19.53c-.35-1.05-.54-2.18-.54-3.35,0-5.85,4.75-10.6,10.6-10.6,3.47,0,6.56,1.69,8.49,4.27"/>
        <path class="cls-8" d="M58.1,12.81c.35,1.06.55,2.19.55,3.37,0,5.85-4.75,10.6-10.6,10.6-3.47,0-6.56-1.69-8.49-4.27"/>
        <polyline class="cls-8" points="56.54 6.86 56.54 9.85 53.55 9.85"/>
        <polyline class="cls-8" points="39.56 25.5 39.56 22.51 42.55 22.51"/>
      </g>
    </g>
    <path class="cls-8" d="M31.38,34.87H8.74c-.31,0-.57-.26-.57-.57v-4.27c0-.31.26-.57.57-.57h22.64c.31,0,.57.26.57.57v4.27c0,.31-.26.57-.57.57Z"/>
    <g>
      <line class="cls-8" x1="8.17" y1="43.56" x2="31.95" y2="43.56"/>
      <line class="cls-8" x1="8.17" y1="49.97" x2="31.95" y2="49.97"/>
      <line class="cls-8" x1="8.17" y1="56.38" x2="31.95" y2="56.38"/>
      <line class="cls-8" x1="8.17" y1="62.78" x2="25.54" y2="62.78"/>
    </g>
  </g>
</svg>