<?xml version="1.0" encoding="UTF-8"?>
<svg id="Camada_1" data-name="Camada 1" xmlns="http://www.w3.org/2000/svg" viewBox="0 0 178.49 154.7">
  <defs>
    <style>
      .cls-1 {
        fill: #fff;
        stroke: #fff;
        stroke-miterlimit: 10;
        stroke-width: .5px;
      }
    </style>
  </defs>
  <path class="cls-1" d="M176.92,74.59h-1.3v-2.77c0-1.46-1.18-2.64-2.64-2.64h-24.94c-1.46,0-2.64,1.18-2.64,2.64v2.77h-2.6v-6.05c.1,0,.2,0,.3,0,7.59,0,13.76-4.93,13.76-10.98,0-.56-.06-1.14-.17-1.71-.02-.26-.08-.51-.18-.75-.12-.42-.33-.79-.62-1.09L124.28,1.8c-.48-.79-1.33-1.27-2.26-1.27h-10.54c-.36-.18-.75-.28-1.17-.28h-7.82c-.41,0-.81.1-1.17.28h-18.69c-.25-.08-.51-.13-.78-.14l-9.8-.09h-.03c-.38,0-.73.09-1.06.23h-16.16c-.15-.03-.31-.05-.48-.05h-7.82c-.16,0-.32.02-.47.05h-11.59c-.93,0-1.79.49-2.27,1.29L1.23,54.06c-.29.3-.52.68-.64,1.11-.23.81-.34,1.63-.34,2.44,0,4.93,4.13,9.11,9.78,10.43v70.18c-3.34,1.08-5.77,4.22-5.77,7.91,0,4.59,3.73,8.32,8.31,8.32h128.08c4.58,0,8.31-3.73,8.31-8.32,0-3.84-2.62-7.07-6.17-8.02v-60.88h2.6v9.67c0,1.46,1.18,2.64,2.64,2.64h24.94c1.46,0,2.64-1.18,2.64-2.64v-9.67h1.3c.73,0,1.32-.59,1.32-1.32s-.59-1.32-1.32-1.32ZM148.03,71.82h24.94v15.08h-24.94v-15.08ZM140.65,151.81H12.57c-3.14,0-5.68-2.54-5.68-5.68s2.54-5.68,5.68-5.68h128.08c3.14,0,5.68,2.54,5.68,5.68s-2.54,5.68-5.68,5.68ZM97.42,134.78c0-1.9,1.54-3.44,3.44-3.44h31.96c1.9,0,3.44,1.54,3.44,3.44,0,1.32-.74,2.46-1.83,3.04h-35.19c-1.09-.58-1.83-1.72-1.83-3.04ZM133.02,128.71c-.06,0-.12,0-.19,0h-31.96c-.06,0-.12,0-.19,0v-51.54h32.33v51.54ZM91.33,137.82h-30.78v-60.84h30.78v60.84ZM50.67,127.67h-31.08v-50.51h31.08v50.51ZM50.89,130.31c1.9,0,3.44,1.54,3.44,3.44s-1.54,3.44-3.44,3.44h-31.52c-1.9,0-3.44-1.54-3.44-3.44s1.54-3.44,3.44-3.44h31.52ZM140.16,137.82h-2.07c.52-.9.82-1.93.82-3.04,0-2.33-1.32-4.36-3.26-5.38v-52.23c0-1.46-1.18-2.64-2.64-2.64h-32.33c-1.46,0-2.64,1.18-2.64,2.64v52.23c-1.93,1.02-3.26,3.05-3.26,5.38,0,1.11.3,2.14.82,3.04h-1.64v-60.84c0-1.46-1.18-2.64-2.64-2.64h-30.78c-1.46,0-2.64,1.18-2.64,2.64v60.84h-2.52c.97-1.08,1.57-2.5,1.57-4.06,0-2.49-1.51-4.64-3.66-5.58v-51.01c0-1.46-1.18-2.64-2.64-2.64h-31.08c-1.46,0-2.64,1.18-2.64,2.64v51.01c-2.15.94-3.66,3.08-3.66,5.58,0,1.56.6,2.99,1.57,4.06h-2.19v-69.38c.4.03.8.05,1.2.05,4.28,0,8.18-1.61,10.7-4.16,2.5,2.67,6.48,4.37,10.91,4.37s8.07-1.51,10.58-4c2.51,2.48,6.34,4,10.58,4s8.28-1.6,10.77-4.18c2.5,2.58,6.4,4.18,10.77,4.18s8.33-1.66,10.83-4.29c2.51,2.58,6.44,4.22,10.76,4.22s8.28-1.64,10.78-4.24c2.5,2.64,6.45,4.31,10.86,4.31s8.34-1.67,10.85-4.31c1.95,1.98,4.72,3.37,7.89,3.91v6.29h-1.59c-.73,0-1.32.59-1.32,1.32s.59,1.32,1.32,1.32h1.59v60.59ZM3.13,55.88h.08L34.45,3.16h9.2l-21.21,51.66c-.09.17-.17.36-.23.55v.02c-.08.21-.13.42-.16.64-.12.6-.19,1.2-.19,1.78s.07,1.23.22,1.9c.19.86.51,1.68.93,2.45-1.97,2.22-5.32,3.68-9.13,3.68-6.07,0-10.98-3.69-10.98-8.24,0-.59.09-1.17.24-1.72ZM153.97,55.83c.02.06.03.13.05.19l.04.07h-.03c.12.48.18.97.18,1.48,0,4.61-4.98,8.34-11.12,8.34-3.85,0-7.23-1.47-9.23-3.7.4-.72.71-1.48.91-2.28.18-.72.26-1.43.26-2.12,0-.82-.12-1.64-.34-2.44-.03-.1-.06-.19-.1-.28L113.28,3.16h8.75l31.88,52.67h.07ZM46.51,3.11h7.82v.05s-8.03,53.25-8.03,53.25c.1.46.16.92.16,1.4,0,.76-.15,1.49-.4,2.19-1.28,3.49-5.52,6.05-10.58,6.05-5.46,0-9.97-2.99-10.83-6.9-.09-.44-.16-.88-.16-1.34,0-.5.06-.98.18-1.45v-.04s.02-.08.02-.08v-.03s.04-.12.04-.12h.02L46.49,3.16l.02-.05ZM69.36,3.16l-4.61,52.7c0,.08,0,.15,0,.23-.12.58-.17,1.16-.17,1.73,0,.75.1,1.51.3,2.26.21.8.53,1.56.94,2.27-1.96,2.23-5.33,3.71-9.16,3.71s-6.93-1.37-8.92-3.45c.32-.54.6-1.1.82-1.69.37-1.02.56-2.06.56-3.09,0-.48-.04-.97-.13-1.46L56.93,3.6c.03-.14.04-.29.04-.44h12.39ZM72.03,2.93l9.8.09.02.14,7.08,52.93c.02.07.03.13.05.2.12.49.19,1,.19,1.52,0,.49-.07.97-.18,1.44-.91,3.86-5.4,6.8-10.8,6.8s-9.78-2.86-10.77-6.65c-.13-.52-.21-1.05-.21-1.59s.08-1.07.21-1.58l.03-.14h-.07s0,0,0,0l4.63-52.93.02-.23ZM102.54,3.16l8.23,54.58c0,.48-.07.94-.17,1.4-.89,3.88-5.38,6.84-10.81,6.84-3.84,0-7.21-1.49-9.17-3.73.42-.75.75-1.55.95-2.39.17-.71.25-1.38.25-2.05,0-.71-.09-1.44-.27-2.17v-.04s-.01-.02-.01-.02l-7.01-52.43h18.03ZM110.31,2.89l.11.28,21.73,52.93c.16.56.24,1.13.24,1.72,0,.51-.07,1.01-.19,1.49-.94,3.84-5.41,6.75-10.79,6.75-3.89,0-7.3-1.53-9.24-3.82.44-.79.79-1.62.99-2.51.16-.7.24-1.35.24-1.99,0-.13-.01-.26-.03-.39L105.16,2.89h5.15Z"/>
</svg>
