<?xml version="1.0" encoding="UTF-8"?>
<svg id="Layer_1" data-name="Layer 1" xmlns="http://www.w3.org/2000/svg" viewBox="0 0 17.19 76.4">
  <defs>
    <style>
      .cls-1 {
        fill: #f0851d;
        stroke-width: 0px;
      }
    </style>
  </defs>
  <path class="cls-1" d="M8.6,17.19c4.78,0,8.6-3.82,8.6-8.6S13.37,0,8.6,0,0,3.82,0,8.6s3.82,8.6,8.6,8.6ZM8.6,59.21c-4.78,0-8.6,3.82-8.6,8.6s3.82,8.6,8.6,8.6,8.6-3.82,8.6-8.6-3.82-8.6-8.6-8.6ZM8.6,29.61c-4.78,0-8.6,3.82-8.6,8.6s3.82,8.6,8.6,8.6,8.6-3.82,8.6-8.6-3.82-8.6-8.6-8.6Z"/>
</svg>