<?xml version="1.0" encoding="UTF-8"?>
<svg id="Camada_1" data-name="Camada 1" xmlns="http://www.w3.org/2000/svg" viewBox="0 0 199.13 186.79">
  <defs>
    <style>
      .cls-1 {
        fill: #fff;
        stroke: #fff;
        stroke-linecap: round;
        stroke-linejoin: round;
      }
    </style>
  </defs>
  <path class="cls-1" d="M50.72,84.64c-14.33-9.22-15.36-29.45-2.05-40.08,8.06-6.44,19.66-7.04,28.33-1.46,14.33,9.22,15.36,29.45,2.05,40.09-8.06,6.43-19.66,7.03-28.33,1.45ZM103.39,113.96l14.34-15.88c.92-1.02.84-2.59-.18-3.51l-8.4-7.58c-.79-.71-.99-1.84-.56-2.8,1.16-2.55,2.09-5.18,2.79-7.84.26-1.03,1.14-1.77,2.2-1.83l11.3-.57c1.37-.07,2.42-1.24,2.35-2.6l-1.09-21.38c-.07-1.37-1.24-2.41-2.6-2.35l-11.31.58c-1.05.05-2-.6-2.37-1.59-.97-2.58-2.16-5.1-3.57-7.51-.53-.92-.45-2.06.26-2.84l7.59-8.4c.92-1.02.84-2.58-.18-3.5l-15.88-14.34c-1.02-.92-2.59-.84-3.5.17l-7.59,8.41c-.71.78-1.83.99-2.8.55-2.55-1.16-5.17-2.09-7.84-2.78-1.02-.27-1.77-1.15-1.82-2.2l-.58-11.31c-.07-1.37-1.24-2.41-2.6-2.35l-21.37,1.1c-1.37.07-2.42,1.24-2.35,2.6l.58,11.3c.05,1.06-.6,2.01-1.59,2.38-2.59.97-5.1,2.16-7.52,3.57-.92.54-2.05.44-2.84-.27l-8.4-7.58c-1.02-.92-2.59-.84-3.51.17l-14.34,15.88c-.91,1.02-.83,2.59.19,3.51l8.4,7.58c.79.71.99,1.84.56,2.81-1.17,2.54-2.09,5.17-2.79,7.83-.26,1.03-1.14,1.77-2.2,1.83l-11.3.57c-1.37.07-2.42,1.24-2.35,2.6l1.09,21.37c.07,1.37,1.24,2.42,2.61,2.35l11.31-.58c1.06-.05,2,.6,2.37,1.59.97,2.58,2.16,5.1,3.57,7.51.53.92.45,2.06-.26,2.84l-7.59,8.4c-.91,1.02-.83,2.59.19,3.5l15.88,14.34c1.02.92,2.59.84,3.5-.17l7.59-8.41c.7-.78,1.83-.99,2.8-.55,2.55,1.16,5.17,2.09,7.83,2.78,1.03.27,1.77,1.15,1.83,2.2l.58,11.31c.07,1.37,1.24,2.42,2.6,2.35l16.7-.86c3.94-.2,6.97-3.56,6.78-7.5l-.34-6.64c-.05-1.06.6-2.01,1.59-2.38,2.59-.96,5.1-2.16,7.52-3.57.91-.53,2.05-.44,2.84.27l8.4,7.58c1.02.92,2.59.84,3.51-.18Z"/>
  <path class="cls-1" d="M153.72,156.45c-4.64-3.69-5.41-10.43-1.73-15.07,3.69-4.64,10.44-5.41,15.08-1.73,4.64,3.69,5.41,10.44,1.73,15.08-3.69,4.64-10.44,5.41-15.07,1.72ZM185.84,176.68l8.18-10.3c.46-.57.36-1.41-.21-1.86l-5.44-4.32c-.5-.4-.66-1.07-.44-1.66.6-1.57,1.05-3.18,1.37-4.8.12-.62.62-1.1,1.25-1.17l6.91-.79c.73-.08,1.25-.74,1.16-1.47l-1.49-13.07c-.09-.72-.74-1.25-1.47-1.16l-6.91.79c-.63.07-1.22-.29-1.47-.87-.68-1.51-1.48-2.97-2.42-4.36-.36-.53-.34-1.21.06-1.71l4.32-5.44c.45-.57.36-1.41-.22-1.87l-10.29-8.18c-.57-.46-1.41-.36-1.87.21l-4.32,5.44c-.39.5-1.06.66-1.65.44-1.57-.6-3.18-1.05-4.8-1.37-.62-.12-1.1-.62-1.18-1.25l-.79-6.9c-.09-.73-.74-1.25-1.47-1.17l-13.07,1.49c-.73.08-1.25.74-1.17,1.47l.79,6.9c.08.63-.28,1.22-.86,1.48-1.51.67-2.97,1.48-4.36,2.42-.53.36-1.22.34-1.71-.05l-5.44-4.33c-.57-.46-1.41-.36-1.87.22l-8.18,10.29c-.46.57-.36,1.42.21,1.87l5.44,4.32c.5.39.66,1.06.44,1.66-.6,1.56-1.05,3.17-1.37,4.8-.12.62-.62,1.1-1.25,1.17l-6.91.79c-.73.08-1.25.74-1.16,1.47l1.49,13.06c.09.73.74,1.25,1.47,1.17l6.91-.79c.63-.07,1.22.28,1.47.86.68,1.51,1.48,2.97,2.42,4.37.35.52.34,1.21-.06,1.71l-4.32,5.44c-.46.57-.36,1.41.21,1.86l10.3,8.19c.57.46,1.41.36,1.87-.22l4.32-5.44c.39-.49,1.06-.66,1.65-.44,1.57.6,3.18,1.05,4.8,1.37.62.12,1.1.62,1.18,1.25l.79,6.9c.09.73.74,1.25,1.47,1.17l13.07-1.49c.73-.09,1.25-.74,1.17-1.47l-.79-6.9c-.08-.64.28-1.22.86-1.48,1.51-.68,2.97-1.48,4.36-2.42.53-.36,1.22-.34,1.71.05l5.44,4.32c.57.46,1.41.36,1.87-.21Z"/>
</svg>
