<?xml version="1.0" encoding="UTF-8"?>
<svg id="Camada_1" data-name="Camada 1" xmlns="http://www.w3.org/2000/svg" xmlns:xlink="http://www.w3.org/1999/xlink" viewBox="0 0 69.94 70.98">
  <defs>
    <style>
      .cls-1 {
        fill: url(#Gradiente_sem_nome_2);
      }

      .cls-1, .cls-2, .cls-3, .cls-4, .cls-5 {
        stroke-width: 0px;
      }

      .cls-2 {
        fill: #fbfbfb;
      }

      .cls-3 {
        fill: #2d2d2d;
        isolation: isolate;
        opacity: .1;
      }

      .cls-6 {
        fill: none;
        stroke: #919191;
        stroke-linecap: round;
      }

      .cls-4 {
        fill: url(#Gradiente_sem_nome_4);
      }

      .cls-5 {
        fill: url(#Gradiente_sem_nome_3);
      }
    </style>
    <linearGradient id="Gradiente_sem_nome_4" data-name="Gradiente sem nome 4" x1="205.62" y1="481.17" x2="205.62" y2="560.8" gradientTransform="translate(-178 -511)" gradientUnits="userSpaceOnUse">
      <stop offset="0" stop-color="#fff"/>
      <stop offset="1" stop-color="#e2e1e1"/>
    </linearGradient>
    <linearGradient id="Gradiente_sem_nome_2" data-name="Gradiente sem nome 2" x1="220.08" y1="517.66" x2="233.08" y2="517.66" gradientTransform="translate(-178 -511)" gradientUnits="userSpaceOnUse">
      <stop offset="0" stop-color="#4ba7d4"/>
      <stop offset="1" stop-color="#338ebb"/>
    </linearGradient>
    <linearGradient id="Gradiente_sem_nome_3" data-name="Gradiente sem nome 3" x1="226.58" y1="539.42" x2="226.58" y2="581.42" gradientTransform="translate(-178 -511)" gradientUnits="userSpaceOnUse">
      <stop offset="0" stop-color="#ea5657"/>
      <stop offset="1" stop-color="#da3b3b"/>
    </linearGradient>
  </defs>
  <path class="cls-4" d="M55.24,65.55c0,1.59-1.31,2.9-2.9,2.9H2.9c-1.59,0-2.9-1.31-2.9-2.9V3.06C0,1.46,1.31.16,2.9.16h39.03l13.31,13v52.39Z"/>
  <path class="cls-3" d="M52.34,67.03H2.9C1.31,67.03,0,65.72,0,64.13v1.42C0,67.14,1.31,68.45,2.9,68.45h49.44c1.59,0,2.9-1.31,2.9-2.9v-1.42c0,1.59-1.31,2.9-2.9,2.9Z"/>
  <path class="cls-3" d="M42.08.95v10.42c0,1.59,1.31,2.9,2.9,2.9l10.1-.29L42.08.95Z"/>
  <path class="cls-1" d="M42.08,0v10.42c0,1.59,1.31,2.9,2.9,2.9l10.1-.29L42.08,0Z"/>
  <path class="cls-3" d="M44.98,12.37c-1.59,0-2.9-1.3-2.9-2.9v.95c0,1.59,1.31,2.9,2.9,2.9l10.1-.29-.92-.92-9.18.26Z"/>
  <g>
    <path class="cls-6" d="M10.12,17.45h24.6"/>
    <path class="cls-6" d="M10.12,27.76h35.45"/>
    <path class="cls-6" d="M10.12,38.08h35.45"/>
    <path class="cls-6" d="M10.12,48.39h35.45"/>
    <path class="cls-6" d="M10.12,58.7h24.6"/>
  </g>
  <circle class="cls-5" cx="48.58" cy="49.62" r="21.36"/>
  <path class="cls-3" d="M48.58,70.27c-11.68,0-21.16-9.37-21.35-21.01,0,.12,0,.24,0,.35,0,11.8,9.56,21.36,21.36,21.36s21.36-9.56,21.36-21.36c0-.12,0-.24,0-.35-.19,11.63-9.67,21.01-21.35,21.01Z"/>
  <path class="cls-3" d="M53.87,49.97l6.13-6.13c.96-.96.96-2.54,0-3.5l-1.93-1.93c-.96-.96-2.54-.96-3.5,0l-6.13,6.13-6.13-6.13c-.96-.96-2.54-.96-3.5,0l-1.93,1.93c-.96.96-.96,2.54,0,3.5l6.13,6.13-6.13,6.13c-.96.96-.96,2.54,0,3.5l1.93,1.93c.96.96,2.54.96,3.5,0l6.13-6.13,6.13,6.13c.96.96,2.54.96,3.5,0l1.93-1.93c.96-.96.96-2.54,0-3.5l-6.13-6.13Z"/>
  <path class="cls-2" d="M53.87,49.49l6.13-6.13c.96-.96.96-2.54,0-3.5l-1.93-1.93c-.96-.96-2.54-.96-3.5,0l-6.13,6.13-6.13-6.13c-.96-.96-2.54-.96-3.5,0l-1.93,1.93c-.96.96-.96,2.54,0,3.5l6.13,6.13-6.13,6.13c-.96.96-.96,2.54,0,3.5l1.93,1.93c.96.96,2.54.96,3.5,0l6.13-6.13,6.13,6.13c.96.96,2.54.96,3.5,0l1.93-1.93c.96-.96.96-2.54,0-3.5l-6.13-6.13Z"/>
  <path class="cls-3" d="M42.78,49.26l.24-.24-6.13-6.13c-.42-.42-.65-.96-.7-1.51-.07.71.16,1.45.7,1.99l5.89,5.89ZM60,43.37c.54-.54.77-1.28.7-1.99-.05.55-.28,1.09-.7,1.51l-6.13,6.13.24.24,5.89-5.89ZM60,58.65l-1.93,1.93c-.96.96-2.54.96-3.5,0l-6.13-6.13-6.13,6.13c-.96.96-2.54.96-3.5,0l-1.93-1.93c-.42-.42-.65-.96-.7-1.51-.07.71.16,1.45.7,1.99l1.93,1.93c.96.96,2.54.96,3.5,0l6.13-6.13,6.13,6.13c.96.96,2.54.96,3.5,0l1.93-1.93c.54-.54.77-1.28.7-1.99-.05.55-.28,1.09-.7,1.51Z"/>
</svg>