<svg id="Layer_1" enable-background="new 0 0 512 512" viewBox="0 0 512 512" xmlns="http://www.w3.org/2000/svg"><g id="Layer_2_00000102520838651122187850000014197880699018494389_"><g id="Layer_2_copy_15"><g id="_140"><path d="m247.6 190.6h-23.2c-8.5 0-15.4 6.8-15.4 15.3v212.6c0 8.5 6.9 15.4 15.4 15.4h23.2c8.5 0 15.4-6.8 15.4-15.3v-.1-212.6c0-8.5-6.9-15.3-15.4-15.3zm4.8 228c0 2.6-2.1 4.8-4.8 4.8h-23.2c-2.6 0-4.8-2.1-4.8-4.8v-212.7c0-2.6 2.1-4.8 4.8-4.8h23.2c2.6 0 4.8 2.1 4.8 4.8z"/><path d="m149 190.6h-23.2c-8.5 0-15.4 6.9-15.4 15.4v212.6c0 8.5 6.9 15.4 15.4 15.4h23.2c8.5 0 15.4-6.9 15.4-15.4v-212.7c0-8.5-6.9-15.3-15.4-15.3zm4.8 228c0 2.6-2.1 4.8-4.8 4.8h-23.2c-2.6 0-4.8-2.1-4.8-4.8v-212.7c0-2.6 2.1-4.8 4.8-4.8h23.2c2.6 0 4.8 2.1 4.8 4.8z"/><path d="m433.3 211.1v-75.8h.5c21.1 0 38.3-17.1 38.3-38.3 0-21.1-17.1-38.2-38.3-38.3h-94v-5.1c0-18.5-15-33.6-33.5-33.6 0 0 0 0-.1 0h-140.3c-18.5 0-33.6 15-33.6 33.5v5.1h-94c-21.1.1-38.3 17.3-38.3 38.4s17.1 38.2 38.3 38.3h.5v312.2c0 24.6 19.9 44.5 44.5 44.5h305.5c24.6 0 44.5-19.9 44.5-44.5v-42.6c53.5-11.1 87.9-63.6 76.7-117.1-8-38.5-38.2-68.7-76.7-76.7zm-395-86.5c-15.3.3-27.9-11.9-28.2-27.1-.3-15.3 11.8-27.9 27.1-28.2h1.1 94c5.8 0 10.6-4.7 10.6-10.6v-5.1c0-12.7 10.3-23 23-23h140.3c12.7 0 23 10.3 23 23v5.1c0 5.8 4.7 10.6 10.6 10.6h94c15.3-.3 27.9 11.9 28.2 27.1.3 15.3-11.9 27.9-27.1 28.2-.4 0-.7 0-1.1 0zm384.4 322.9c0 18.7-15.2 33.9-33.9 33.9h-305.6c-18.7 0-33.9-15.2-33.9-33.9v-312.3h373.4v74.2c-3.2-.3-6.4-.5-9.7-.5-18.1 0-35.9 4.9-51.4 14.4v-17.5c0-8.5-6.9-15.4-15.4-15.4h-23.2c-8.5 0-15.4 6.9-15.4 15.4v212.6c0 8.5 6.9 15.4 15.4 15.4h23.2c8.5 0 15.4-6.9 15.4-15.4v-25.9c15.5 9.4 33.3 14.4 51.4 14.4 3.2 0 6.5-.2 9.7-.5zm-104.4-110.7c5.8 19 17.2 35.9 32.7 48.3v33.4c0 2.6-2.1 4.8-4.8 4.8h-23.2c-2.6 0-4.8-2.1-4.8-4.8zm32.7-106c-15.5 12.5-26.9 29.3-32.8 48.3v-73.2c0-2.6 2.1-4.8 4.8-4.8h23.2c2.6 0 4.8 2.1 4.8 4.8zm82.3 163.3c-24.8 5.8-50.9.7-71.7-14.2-3.8-2.7-7.3-5.6-10.6-8.9-34.8-34.1-35.3-90-1.2-124.8.4-.4.8-.8 1.2-1.2 3.3-3.3 6.8-6.2 10.6-8.9 39.7-28.3 95-19.1 123.3 20.6s19.1 95-20.6 123.3c-9.4 6.7-19.9 11.5-31 14.1z"/><path d="m440.2 308 20.4-20.4c4-4 4-10.4 0-14.4l-11.1-11.1c-4-4-10.4-4-14.4 0l-20.4 20.4-20.4-20.4c-4-4-10.4-4-14.4 0l-11.1 11.1c-4 4-4 10.4 0 14.4l20.4 20.4-20.4 20.4c-4 4-4 10.4 0 14.4l11.1 11.1c4 4 10.4 4 14.4 0l20.4-20.4 20.4 20.4c4 4 10.4 4 14.4 0l11.1-11.1c4-4 4-10.4 0-14.4zm2.1 38.1-20.1-20c-4.1-4.1-10.9-4.1-15 0l-20.1 20.1-10.5-10.5 20.1-20.1c4.1-4.1 4.2-10.8 0-15l-20.1-20.1 10.5-10.5 20.1 20c4.1 4.1 10.9 4.1 15 0l20.1-20.1 10.5 10.5-20.1 20.1c-4.1 4.1-4.2 10.8 0 15l20.1 20.1z"/></g></g></g></svg>