<?xml version="1.0" encoding="UTF-8"?>
<svg id="Camada_1" data-name="Camada 1" xmlns="http://www.w3.org/2000/svg" viewBox="0 0 73.24 73.24">
  <defs>
    <style>
      .cls-1 {
        fill: #a78966;
      }

      .cls-1, .cls-2, .cls-3, .cls-4, .cls-5, .cls-6, .cls-7, .cls-8, .cls-9, .cls-10, .cls-11, .cls-12 {
        stroke-width: 0px;
      }

      .cls-2 {
        fill: #ea5330;
      }

      .cls-3 {
        fill: #fee9ac;
      }

      .cls-4 {
        fill: #c7c6cb;
      }

      .cls-5 {
        fill: #79cadf;
      }

      .cls-6 {
        fill: #010101;
      }

      .cls-7 {
        fill: #c1ac92;
      }

      .cls-8 {
        fill: #58575d;
      }

      .cls-9 {
        fill: #c4e5ee;
      }

      .cls-10 {
        fill: #ffde56;
      }

      .cls-11 {
        fill: #ef785a;
      }

      .cls-12 {
        fill: #898991;
      }
    </style>
  </defs>
  <g id="Database">
    <path class="cls-4" d="M23.19,40.14v5.03h-4.88v-5.03c1.62.2,3.26.2,4.88,0Z"/>
    <path class="cls-3" d="M72.02,30.52v36.62c0,2.7-2.19,4.88-4.88,4.88h-31.73c-2.7,0-4.88-2.19-4.88-4.88v-29.46c1.23-.71,2.37-1.54,3.42-2.5.47.16.97.24,1.46.23h31.73c2.69,0,4.88-2.18,4.88-4.87,0,0,0,0,0-.01h0Z"/>
    <path class="cls-10" d="M72.02,30.52v36.62c0,2.7-2.19,4.88-4.88,4.88h-4.88c2.7,0,4.88-2.19,4.88-4.88v-31.73c2.69,0,4.88-2.18,4.88-4.87,0,0,0,0,0-.01Z"/>
    <path class="cls-11" d="M67.14,25.64c2.7,0,4.88,2.19,4.88,4.88s-2.19,4.88-4.88,4.88h-31.73c-.5,0-.99-.07-1.46-.23,2.79-2.56,4.79-5.87,5.74-9.53h27.46Z"/>
    <path class="cls-2" d="M72.02,30.52c0,2.69-2.18,4.88-4.87,4.88,0,0,0,0-.01,0h-4.88c2.7,0,4.88-2.19,4.88-4.88s-2.19-4.88-4.88-4.88h4.88c2.7,0,4.88,2.19,4.88,4.88Z"/>
    <path class="cls-7" d="M40.28,20.76c.01,5.49-2.29,10.72-6.35,14.41-2.98,2.72-6.73,4.46-10.74,4.97-1.62.2-3.26.2-4.88,0C7.61,38.79.03,29.02,1.38,18.32,2.73,7.62,12.49.04,23.19,1.39c9.76,1.23,17.08,9.53,17.09,19.37Z"/>
    <path class="cls-1" d="M40.28,20.76c.01,5.49-2.29,10.72-6.35,14.41-2.98,2.72-6.73,4.46-10.74,4.97-1.62.2-3.26.2-4.88,0,4.01-.51,7.76-2.24,10.74-4.97,7.96-7.28,8.51-19.63,1.23-27.59-3.13-3.42-7.37-5.62-11.97-6.19.81-.11,1.62-.16,2.44-.16,10.79,0,19.53,8.74,19.53,19.53Z"/>
    <circle class="cls-9" cx="20.75" cy="20.76" r="14.65"/>
    <path class="cls-5" d="M35.4,20.76c0,8.08-6.54,14.64-14.62,14.65-.83,0-1.65-.07-2.47-.21,7.97-1.36,13.34-8.92,11.98-16.9-1.04-6.13-5.85-10.94-11.98-11.98,7.97-1.36,15.52,4,16.88,11.97.14.82.21,1.64.21,2.47Z"/>
    <path class="cls-12" d="M25.64,45.17v21.97c0,2.7-2.19,4.88-4.88,4.88s-4.88-2.19-4.88-4.88v-21.97h9.76Z"/>
    <path class="cls-8" d="M25.64,45.17v21.97c0,2.69-2.17,4.88-4.87,4.88-.86,0-1.71-.23-2.46-.66,1.51-.87,2.44-2.48,2.44-4.22v-21.97h4.88Z"/>
    <path class="cls-12" d="M23.19,40.14v5.03h-2.44v-4.88c.82,0,1.63-.05,2.44-.15Z"/>
    <path class="cls-6" d="M67.14,24.42h-25.97C43.19,13.14,35.69,2.36,24.42.33,13.14-1.7,2.36,5.8.33,17.07c-2.03,11.27,5.47,22.06,16.74,24.09h.02v2.79h-1.22c-.67,0-1.22.55-1.22,1.22v21.97c0,3.37,2.73,6.1,6.1,6.1s6.1-2.73,6.1-6.1v-21.97c0-.67-.55-1.22-1.22-1.22h-1.22v-2.78c1.68-.3,3.32-.81,4.88-1.52v27.49c0,3.37,2.73,6.1,6.1,6.1h31.73c3.37,0,6.1-2.73,6.1-6.1V30.52c0-3.37-2.73-6.1-6.1-6.1ZM2.45,20.76C2.45,10.65,10.64,2.45,20.75,2.45s18.31,8.2,18.31,18.31-8.2,18.31-18.31,18.31c-10.11-.01-18.3-8.2-18.31-18.31ZM24.42,67.14c0,2.02-1.64,3.66-3.66,3.66s-3.66-1.64-3.66-3.66v-20.75h7.32v20.75ZM21.97,43.95h-2.44v-2.5c.41.02.81.06,1.22.06s.81-.04,1.22-.06v2.5ZM67.14,70.8h-31.73c-2.02,0-3.66-1.64-3.66-3.66v-28.81c.88-.55,1.71-1.16,2.5-1.83.38.08.77.12,1.17.12h31.73c1.32,0,2.61-.45,3.66-1.25v31.77c0,2.02-1.64,3.66-3.66,3.66ZM69.73,33.11c-.69.69-1.62,1.08-2.6,1.08h-30.59c1.83-2.14,3.2-4.63,4.04-7.32h26.55c2.02,0,3.66,1.64,3.67,3.66,0,.97-.38,1.9-1.07,2.59Z"/>
    <path class="cls-6" d="M36.62,41.51h29.29v2.44h-29.29v-2.44Z"/>
    <path class="cls-6" d="M36.62,48.83h29.29v2.44h-29.29v-2.44Z"/>
    <path class="cls-6" d="M36.62,56.15h29.29v2.44h-29.29v-2.44Z"/>
    <path class="cls-6" d="M36.62,63.48h29.29v2.44h-29.29v-2.44Z"/>
    <path class="cls-6" d="M41.5,29.3h2.44v2.44h-2.44v-2.44Z"/>
    <path class="cls-6" d="M46.39,29.3h2.44v2.44h-2.44v-2.44Z"/>
    <path class="cls-6" d="M36.62,20.76c0-8.76-7.1-15.87-15.87-15.87s-15.87,7.1-15.87,15.87,7.1,15.87,15.87,15.87c8.76-.01,15.86-7.11,15.87-15.87ZM7.33,20.76c0-7.42,6.01-13.43,13.43-13.43s13.43,6.01,13.43,13.43-6.01,13.43-13.43,13.43c-7.41,0-13.42-6.01-13.43-13.43Z"/>
    <path class="cls-6" d="M20.75,9.77c-6.06,0-10.98,4.92-10.99,10.99h2.44c0-4.72,3.83-8.54,8.54-8.54v-2.44Z"/>
    <path class="cls-6" d="M51.27,0h21.97v2.44h-21.97V0Z"/>
    <path class="cls-6" d="M43.94,0h4.88v2.44h-4.88V0Z"/>
    <path class="cls-6" d="M51.27,7.33h21.97v2.44h-21.97v-2.44Z"/>
    <path class="cls-6" d="M43.94,7.33h4.88v2.44h-4.88v-2.44Z"/>
    <path class="cls-6" d="M51.27,14.65h21.97v2.44h-21.97v-2.44Z"/>
    <path class="cls-6" d="M43.94,14.65h4.88v2.44h-4.88v-2.44Z"/>
    <path class="cls-6" d="M19.53,48.83h2.44v2.44h-2.44v-2.44Z"/>
    <path class="cls-6" d="M19.53,53.71h2.44v14.65h-2.44v-14.65Z"/>
  </g>
</svg>