<?xml version="1.0" encoding="UTF-8" standalone="no"?>
<svg
   version="1.1"
   id="svg1536"
   xml:space="preserve"
   width="682.66669"
   height="682.66669"
   viewBox="0 0 682.66669 682.66669"
   xmlns="http://www.w3.org/2000/svg"
   xmlns:svg="http://www.w3.org/2000/svg"><defs
     id="defs1540"><clipPath
       clipPathUnits="userSpaceOnUse"
       id="clipPath1550"><path
         d="M 0,512 H 512 V 0 H 0 Z"
         id="path1548" /></clipPath></defs><g
     id="g1542"
     transform="matrix(1.3333333,0,0,-1.3333333,0,682.66667)"><g
       id="g1544"><g
         id="g1546"
         clip-path="url(#clipPath1550)"><g
           id="g1552"
           transform="translate(496.8724,223.0814)"><path
             d="m 0,0 c 0,-33.864 -62.222,-61.317 -138.976,-61.317 -21.37,0 -41.5,2.104 -59.587,5.906"
             style="fill:none;stroke:#f0851d;stroke-width:30;stroke-linecap:butt;stroke-linejoin:miter;stroke-miterlimit:10;stroke-dasharray:none;stroke-opacity:1"
             id="path1554" /></g><g
           id="g1556"
           transform="translate(496.8724,293.9484)"><path
             d="m 0,0 c 0,-33.864 -62.222,-61.317 -138.976,-61.317 -35.622,0 -67.965,5.855 -92.56,15.578"
             style="fill:none;stroke:#f0851d;stroke-width:30;stroke-linecap:butt;stroke-linejoin:miter;stroke-miterlimit:10;stroke-dasharray:none;stroke-opacity:1"
             id="path1558" /></g><g
           id="g1560"
           transform="translate(496.8724,364.8154)"><path
             d="m 0,0 c 0,-33.864 -62.222,-61.317 -138.976,-61.317 -76.754,0 -138.976,27.453 -138.976,61.317"
             style="fill:none;stroke:#f0851d;stroke-width:30;stroke-linecap:butt;stroke-linejoin:miter;stroke-miterlimit:10;stroke-dasharray:none;stroke-opacity:1"
             id="path1562" /></g><g
           id="g1564"
           transform="translate(496.8724,435.6823)"><path
             d="m 0,0 c 0,-33.864 -62.222,-61.317 -138.976,-61.317 -76.754,0 -138.976,27.453 -138.976,61.317 0,33.864 62.222,61.317 138.976,61.317 C -62.222,61.317 0,33.864 0,0 Z"
             style="fill:none;stroke:#f0851d;stroke-width:30;stroke-linecap:butt;stroke-linejoin:miter;stroke-miterlimit:10;stroke-dasharray:none;stroke-opacity:1"
             id="path1566" /></g><g
           id="g1568"
           transform="translate(218.9207,435.6823)"><path
             d="M 0,0 V -151.314"
             style="fill:none;stroke:#f0851d;stroke-width:30;stroke-linecap:butt;stroke-linejoin:miter;stroke-miterlimit:10;stroke-dasharray:none;stroke-opacity:1"
             id="path1570" /></g><g
           id="g1572"
           transform="translate(286.6759,99.5548)"><path
             d="m 0,0 c 20.829,-5.496 45.187,-8.657 71.221,-8.657 76.754,0 138.976,27.452 138.976,61.317 v 283.468"
             style="fill:none;stroke:#f0851d;stroke-width:30;stroke-linecap:butt;stroke-linejoin:miter;stroke-miterlimit:10;stroke-dasharray:none;stroke-opacity:1"
             id="path1574" /></g><g
           id="g1576"
           transform="translate(298.7189,156.8078)"><path
             d="m 0,0 c 0,-78.318 -63.489,-141.807 -141.807,-141.807 -78.318,0 -141.807,63.489 -141.807,141.807 0,78.318 63.489,141.807 141.807,141.807 C -63.489,141.807 0,78.318 0,0 Z"
             style="fill:none;stroke:#f0851d;stroke-width:30;stroke-linecap:butt;stroke-linejoin:miter;stroke-miterlimit:10;stroke-dasharray:none;stroke-opacity:1"
             id="path1578" /></g><g
           id="g1580"
           transform="translate(107.6084,99.3976)"><path
             d="m 0,0 h 69.333 c 16.168,0 29.274,13.107 29.274,29.274 v 10e-4 c 0,16.167 -13.106,29.274 -29.274,29.274 H 37.158 c -15.539,0 -28.136,12.597 -28.136,28.136 v 0 c 0,15.539 12.597,28.136 28.136,28.136 h 54.323"
             style="fill:none;stroke:#f0851d;stroke-width:30;stroke-linecap:butt;stroke-linejoin:miter;stroke-miterlimit:10;stroke-dasharray:none;stroke-opacity:1"
             id="path1582" /></g><g
           id="g1584"
           transform="translate(156.9121,214.2181)"><path
             d="M 0,0 V 35.239"
             style="fill:none;stroke:#f0851d;stroke-width:30;stroke-linecap:butt;stroke-linejoin:miter;stroke-miterlimit:10;stroke-dasharray:none;stroke-opacity:1"
             id="path1586" /></g><g
           id="g1588"
           transform="translate(156.9121,64.1582)"><path
             d="M 0,0 V 35.239"
             style="fill:none;stroke:#f0851d;stroke-width:30;stroke-linecap:butt;stroke-linejoin:miter;stroke-miterlimit:10;stroke-dasharray:none;stroke-opacity:1"
             id="path1590" /></g></g></g></g></svg>