<svg xmlns="http://www.w3.org/2000/svg" xmlns:xlink="http://www.w3.org/1999/xlink" version="1.1" id="Capa_1" x="0px" y="0px" viewBox="0 0 512 512" style="enable-background:new 0 0 512 512;" xml:space="preserve" width="300" height="300" xmlns:svgjs="http://svgjs.dev/svgjs"><g width="100%" height="100%" transform="matrix(1,0,0,1,0,0)"><g>
	<path style="stroke-miterlimit: 10;" d="M497,261.932V256h-37.895&#10;&#9;&#9;c0-112.172-90.933-203.105-203.105-203.105c-56.086,0-106.862,22.733-143.617,59.488l46.964,46.964&#10;&#9;&#9;c24.736-24.736,58.908-40.035,96.654-40.035c75.491,0,136.689,61.198,136.689,136.689h-37.894v5.932l71.103,71.103L497,261.932z" fill="none" fill-opacity="1" stroke="#f0851d" stroke-opacity="1" data-original-stroke-color="#000000ff" stroke-width="30" data-original-stroke-width="30"/>
	<path style="stroke-miterlimit: 10;" d="M399.617,399.617l-46.964-46.964&#10;&#9;&#9;c-24.736,24.736-58.908,40.035-96.654,40.035c-75.491,0-136.689-61.198-136.689-136.689h37.894v-5.932l-71.103-71.103L15,250.068&#10;&#9;&#9;V256h37.895c0,112.172,90.933,203.105,203.105,203.105C312.086,459.105,362.862,436.372,399.617,399.617z" fill="none" fill-opacity="1" stroke="#f0851d" stroke-opacity="1" data-original-stroke-color="#000000ff" stroke-width="30" data-original-stroke-width="30"/>
</g></g></svg>
