<?xml version="1.0" encoding="UTF-8"?>
<svg id="Camada_1" data-name="Camada 1" xmlns="http://www.w3.org/2000/svg" xmlns:xlink="http://www.w3.org/1999/xlink" viewBox="0 0 56.58 68.43">
  <defs>
    <style>
      .cls-1 {
        fill: url(#Gradiente_sem_nome_6);
      }

      .cls-1, .cls-2, .cls-3, .cls-4, .cls-5, .cls-6, .cls-7, .cls-8 {
        fill-rule: evenodd;
        stroke-width: 0px;
      }

      .cls-2 {
        fill: url(#Gradiente_sem_nome_13-2);
      }

      .cls-3 {
        fill: url(#Gradiente_sem_nome_13-4);
      }

      .cls-4 {
        fill: url(#Gradiente_sem_nome_5);
      }

      .cls-5 {
        fill: url(#Gradiente_sem_nome_13-5);
      }

      .cls-6 {
        fill: url(#Gradiente_sem_nome_7);
      }

      .cls-7 {
        fill: url(#Gradiente_sem_nome_13-3);
      }

      .cls-8 {
        fill: url(#Gradiente_sem_nome_13);
      }
    </style>
    <linearGradient id="Gradiente_sem_nome_7" data-name="Gradiente sem nome 7" x1="-219.07" y1="283.27" x2="-219.07" y2="281.96" gradientTransform="translate(8789.05 14730.17) scale(40 -52)" gradientUnits="userSpaceOnUse">
      <stop offset="0" stop-color="#f3f5f6"/>
      <stop offset="1" stop-color="#e3e8eb"/>
    </linearGradient>
    <linearGradient id="Gradiente_sem_nome_6" data-name="Gradiente sem nome 6" x1="-202.17" y1="266.1" x2="-202.17" y2="264.78" gradientTransform="translate(2028.24 2660.98) scale(10 -10)" gradientUnits="userSpaceOnUse">
      <stop offset="0" stop-color="#7ebcd5"/>
      <stop offset="1" stop-color="#4887ab"/>
    </linearGradient>
    <linearGradient id="Gradiente_sem_nome_5" data-name="Gradiente sem nome 5" x1="-213.07" y1="268.59" x2="-213.07" y2="267.28" gradientTransform="translate(4304.27 3241.36) scale(20 -11.9)" gradientUnits="userSpaceOnUse">
      <stop offset="0" stop-color="#c1d882"/>
      <stop offset="1" stop-color="#92c24f"/>
    </linearGradient>
    <linearGradient id="Gradiente_sem_nome_13" data-name="Gradiente sem nome 13" x1="-217.14" y1="178.67" x2="-217.14" y2="177.36" gradientTransform="translate(6540.45 377.09) scale(30 -2)" gradientUnits="userSpaceOnUse">
      <stop offset="0" stop-color="#4c89ab"/>
      <stop offset="1" stop-color="#255273"/>
    </linearGradient>
    <linearGradient id="Gradiente_sem_nome_13-2" data-name="Gradiente sem nome 13" x1="-191.24" y1="177.88" x2="-191.24" y2="176.57" gradientTransform="translate(1380.16 382.09) scale(7 -2)" xlink:href="#Gradiente_sem_nome_13"/>
    <linearGradient id="Gradiente_sem_nome_13-3" data-name="Gradiente sem nome 13" x1="-213.36" y1="177.88" x2="-213.36" y2="176.57" gradientTransform="translate(4286.85 382.09) scale(20 -2)" xlink:href="#Gradiente_sem_nome_13"/>
    <linearGradient id="Gradiente_sem_nome_13-4" data-name="Gradiente sem nome 13" x1="-192.28" y1="177.09" x2="-192.28" y2="175.78" gradientTransform="translate(1357.16 387.09) scale(7 -2)" xlink:href="#Gradiente_sem_nome_13"/>
    <linearGradient id="Gradiente_sem_nome_13-5" data-name="Gradiente sem nome 13" x1="-213.2" y1="177.09" x2="-213.2" y2="175.78" gradientTransform="translate(4296.85 387.09) scale(20 -2)" xlink:href="#Gradiente_sem_nome_13"/>
  </defs>
  <text/>
  <g>
    <path id="Path" class="cls-6" d="M52.64,2.63v63.16c0,1.45-1.18,2.63-2.63,2.63H2.63c-1.45,0-2.63-1.18-2.63-2.63V13.16L13.16,0h36.84c1.45,0,2.63,1.18,2.63,2.63Z"/>
    <path id="Path-2" data-name="Path" class="cls-1" d="M13.16,0v10.53c0,1.45-1.18,2.63-2.63,2.63H0L13.16,0Z"/>
    <path id="Path-3" data-name="Path" class="cls-4" d="M56.1,53.67l-3.46,2.82-4.55,3.7c-.38.31-.91.36-1.35.14s-.7-.68-.68-1.17v-2.58h-14.47c-.73,0-1.32-.59-1.32-1.32v-5.26c0-.73.59-1.32,1.32-1.32h14.47v-2.58c-.02-.49.24-.95.68-1.17.44-.22.96-.17,1.35.14l4.55,3.7,3.46,2.82c.31.26.48.64.48,1.04s-.18.78-.48,1.04Z"/>
    <path id="Path-4" data-name="Path" class="cls-8" d="M44.74,22.37H7.9c-.73,0-1.32-.59-1.32-1.32s.59-1.32,1.32-1.32h36.84c.73,0,1.32.59,1.32,1.32s-.59,1.32-1.32,1.32Z"/>
    <path id="Path-5" data-name="Path" class="cls-2" d="M44.74,28.95h-6.58c-.73,0-1.32-.59-1.32-1.32s.59-1.32,1.32-1.32h6.58c.73,0,1.32.59,1.32,1.32s-.59,1.32-1.32,1.32Z"/>
    <path id="Path-6" data-name="Path" class="cls-7" d="M31.58,28.95H7.9c-.73,0-1.32-.59-1.32-1.32s.59-1.32,1.32-1.32h23.69c.73,0,1.32.59,1.32,1.32s-.59,1.32-1.32,1.32Z"/>
    <path id="Path-7" data-name="Path" class="cls-3" d="M14.47,35.53h-6.58c-.73,0-1.32-.59-1.32-1.32s.59-1.32,1.32-1.32h6.58c.73,0,1.32.59,1.32,1.32s-.59,1.32-1.32,1.32Z"/>
    <path id="Path-8" data-name="Path" class="cls-5" d="M44.74,35.53h-23.69c-.73,0-1.32-.59-1.32-1.32s.59-1.32,1.32-1.32h23.69c.73,0,1.32.59,1.32,1.32s-.59,1.32-1.32,1.32Z"/>
  </g>
</svg>