<?xml version="1.0" encoding="UTF-8" standalone="no"?>
<svg
   version="1.1"
   id="svg72"
   xml:space="preserve"
   width="682.66669"
   height="682.66669"
   viewBox="0 0 682.66669 682.66669"
   xmlns="http://www.w3.org/2000/svg"
   xmlns:svg="http://www.w3.org/2000/svg"><defs
     id="defs76"><clipPath
       clipPathUnits="userSpaceOnUse"
       id="clipPath86"><path
         d="M 0,512 H 512 V 0 H 0 Z"
         id="path84" /></clipPath><clipPath
       clipPathUnits="userSpaceOnUse"
       id="clipPath110"><path
         d="M 0,512 H 512 V 0 H 0 Z"
         id="path108" /></clipPath></defs><g
     id="g78"
     transform="matrix(1.3333333,0,0,-1.3333333,0,682.66667)"><g
       id="g80"><g
         id="g82"
         clip-path="url(#clipPath86)"><g
           id="g88"
           transform="translate(181,256)"><path
             d="M 0,0 V 241 H 270 V -150 H 116.219"
             style="fill:none;stroke:#f0851d;stroke-width:30;stroke-linecap:butt;stroke-linejoin:miter;stroke-miterlimit:10;stroke-dasharray:none;stroke-opacity:1"
             id="path90" /></g></g></g><g
       id="g92"
       transform="translate(226,406)"><path
         d="M 0,0 H 180"
         style="fill:none;stroke:#f0851d;stroke-width:30;stroke-linecap:butt;stroke-linejoin:miter;stroke-miterlimit:10;stroke-dasharray:none;stroke-opacity:1"
         id="path94" /></g><g
       id="g96"
       transform="translate(226,346)"><path
         d="M 0,0 H 180"
         style="fill:none;stroke:#f0851d;stroke-width:30;stroke-linecap:butt;stroke-linejoin:miter;stroke-miterlimit:10;stroke-dasharray:none;stroke-opacity:1"
         id="path98" /></g><g
       id="g100"
       transform="translate(286,286)"><path
         d="M 0,0 H 120"
         style="fill:none;stroke:#f0851d;stroke-width:30;stroke-linecap:butt;stroke-linejoin:miter;stroke-miterlimit:10;stroke-dasharray:none;stroke-opacity:1"
         id="path102" /></g><g
       id="g104"><g
         id="g106"
         clip-path="url(#clipPath110)"><g
           id="g112"
           transform="translate(301,136)"><path
             d="m 0,0 c 0,-66.274 -53.726,-121 -120,-121 -66.274,0 -120,54.726 -120,121 0,66.274 53.726,120 120,120 C -53.726,120 0,66.274 0,0 Z"
             style="fill:none;stroke:#f0851d;stroke-width:30;stroke-linecap:butt;stroke-linejoin:miter;stroke-miterlimit:10;stroke-dasharray:none;stroke-opacity:1"
             id="path114" /></g><g
           id="g116"
           transform="translate(181,211)"><path
             d="M 0,0 V -75 H 45"
             style="fill:none;stroke:#f0851d;stroke-width:30;stroke-linecap:butt;stroke-linejoin:miter;stroke-miterlimit:10;stroke-dasharray:none;stroke-opacity:1"
             id="path118" /></g></g></g></g></svg>