<?xml version="1.0" encoding="UTF-8"?>
<svg id="Camada_1" data-name="Camada 1" xmlns="http://www.w3.org/2000/svg" viewBox="0 0 75.38 73.44">
  <defs>
    <style>
      .cls-1 {
        fill: #fecb25;
      }

      .cls-1, .cls-2, .cls-3 {
        stroke-width: 0px;
      }

      .cls-2 {
        fill: #f4a1a3;
      }

      .cls-3 {
        fill: #090b0d;
      }
    </style>
  </defs>
  <g id="Layer_1">
    <g id="_549640384" data-name=" 549640384">
      <g>
        <path class="cls-2" d="M2.5,41.73L44.35,6.53c.75-.63,1.59-.92,2.57-.92h24.04c2.45,0,4.06,2.14,3.81,4.51l-2.45,23.13c-.15.98-.6,1.77-1.35,2.4l-43.26,36.07c-1.65,1.37-4.62,1.64-6.01,0L1.25,47.69c-1.4-1.65-.4-4.57,1.25-5.96ZM62.21,12.32c-1.44,1.2-1.62,3.34-.42,4.77,1.2,1.44,3.34,1.62,4.77.42s1.62-3.34.42-4.77c-1.2-1.44-3.34-1.62-4.77-.42Z"/>
        <path class="cls-3" d="M2.13,41.28L43.96,6.08c.43-.35.9-.62,1.39-.8.5-.17,1.02-.25,1.57-.25h24.04c.15,0,.32.02.48.03h.02c1.19.13,2.15.7,2.85,1.52.67.82,1.07,1.9,1.07,3.05,0,.17-.02.35-.03.53l-2.45,23.15v.03c-.08.55-.27,1.07-.52,1.52-.27.47-.62.88-1.05,1.25,0,0-.02.02-.03.02l-43.23,36.02v.02c-.95.8-2.32,1.27-3.62,1.27-1.22,0-2.42-.42-3.2-1.35L.8,48.06h-.02s-.02-.03-.02-.05c-.8-.97-.92-2.27-.6-3.52.3-1.22,1.03-2.42,1.94-3.19l.03-.02ZM44.73,6.98L2.9,42.16s-.03.02-.03.03c-.73.62-1.32,1.57-1.57,2.57-.23.92-.17,1.85.37,2.5l.02.02.02.02,20.43,24.04c.53.63,1.4.92,2.3.92,1.03,0,2.12-.37,2.87-.98l43.23-36.04s.03-.02.03-.03c.33-.27.58-.57.77-.9.2-.33.32-.72.38-1.14l2.45-23.12c.02-.13.02-.27.02-.42,0-.88-.28-1.69-.8-2.3-.5-.6-1.2-1.02-2.05-1.1h-.02c-.12-.02-.23-.02-.37-.02h-24.04c-.43,0-.82.05-1.19.18-.35.12-.68.32-1,.58ZM62.59,12.77c-.6.48-.93,1.19-1,1.9-.07.7.15,1.45.65,2.04.48.6,1.19.93,1.9,1,.72.05,1.45-.15,2.04-.65.6-.5.93-1.19,1-1.9.05-.72-.15-1.45-.65-2.04-.5-.6-1.19-.93-1.9-1s-1.45.15-2.04.65ZM60.42,14.56c.08-1,.57-1.99,1.4-2.69.85-.72,1.9-1.02,2.9-.92,1.02.08,2,.57,2.7,1.4.7.85,1,1.9.92,2.9-.08,1.02-.57,2-1.42,2.7-.83.7-1.89,1-2.89.92-1.02-.1-2-.57-2.7-1.42-.72-.83-1-1.89-.92-2.9Z"/>
        <path class="cls-1" d="M6.67,43.38L44.55,11.77l3.57-.13,16.83,19.21v3.61l-38.46,32.45h-3.61L6.87,47l-.2-3.62Z"/>
      </g>
      <path class="cls-3" d="M6.29,42.93L44.16,11.32c.12-.1.25-.15.38-.15l3.54-.13c.2,0,.37.08.48.22l16.81,19.21c.1.12.15.25.15.38v3.61c0,.2-.1.37-.23.48l-38.44,32.42c-.1.1-.23.15-.37.15h-3.61c-.2,0-.38-.1-.48-.25l-15.97-19.88c-.08-.1-.12-.22-.13-.33l-.22-3.62c0-.2.08-.37.22-.48ZM44.76,12.34L7.27,43.65l.18,3.12,15.69,19.55h3.12l38.07-32.13v-3.1l-16.49-18.86-3.09.12ZM48.57,11.25c.07.1.13.22.13.35l-.13-.35Z"/>
      <path class="cls-3" d="M38.05,22.82c-.22-.25-.18-.62.07-.82.25-.22.62-.18.83.07l12.99,15.62c.22.25.18.62-.07.83-.25.2-.62.17-.83-.08l-12.99-15.62Z"/>
      <path class="cls-3" d="M32.63,26.42c-.2-.25-.17-.62.08-.82.25-.22.62-.18.82.07l11,13.22c.22.25.18.62-.07.83-.25.2-.62.17-.83-.08l-11-13.22Z"/>
      <path class="cls-3" d="M28.14,18.59c.32.05.53.35.48.67s-.35.53-.67.48c-4.77-.78-8.81-2.07-11.65-3.67-.02,0-.03-.02-.05-.02-2.85-1.62-4.51-3.59-4.51-5.74,0-2.97,3.15-5.59,8.23-7.43,4.91-1.79,11.68-2.89,19.13-2.89s14.24,1.1,19.15,2.89c5.07,1.84,8.23,4.47,8.23,7.43,0,.58-.13,1.15-.37,1.72-.23.55-.58,1.08-1.03,1.6-.22.25-.58.27-.83.05-.23-.2-.27-.58-.05-.82.37-.42.65-.85.83-1.3.18-.4.27-.82.27-1.25,0-2.42-2.85-4.66-7.44-6.33-4.79-1.74-11.42-2.8-18.74-2.8s-13.94,1.07-18.73,2.8c-4.61,1.67-7.44,3.91-7.44,6.33,0,1.69,1.44,3.32,3.91,4.72.02,0,.03.02.03.02,2.72,1.54,6.63,2.77,11.27,3.54Z"/>
    </g>
  </g>
</svg>