<svg version="1.1" id="svg147" xml:space="preserve" width="300" height="300" viewBox="0 0 682.66669 682.66669" xmlns="http://www.w3.org/2000/svg" xmlns:svg="http://www.w3.org/2000/svg" xmlns:xlink="http://www.w3.org/1999/xlink" xmlns:svgjs="http://svgjs.dev/svgjs"><g width="100%" height="100%" transform="matrix(1,0,0,1,0,0)"><defs id="defs151"><clipPath clipPathUnits="userSpaceOnUse" id="clipPath161"><path d="M 0,512 H 512 V 0 H 0 Z" id="path159" fill="#f0851d" fill-opacity="1" data-original-color="#000000ff" stroke="none" stroke-opacity="1"/></clipPath></defs><g id="g153" transform="matrix(1.3333333,0,0,-1.3333333,0,682.66667)"><g id="g155"><g id="g157" clip-path="url(#clipPath161)"><g id="g163" transform="translate(346,437)"><path d="M 0,0 H 90 V -422 H -270 V 0 h 90" style="stroke-linecap: butt; stroke-linejoin: miter; stroke-miterlimit: 10; stroke-dasharray: none;" id="path165" fill="none" fill-opacity="1" stroke="#f0851d" stroke-opacity="1" data-original-stroke-color="#000000ff" stroke-width="30" data-original-stroke-width="30"/></g><g id="g167" transform="translate(286,467)"><path d="M 0,0 C 0,16.569 -13.431,30 -30,30 -46.569,30 -60,16.569 -60,0 h -60 V -60 H 60 V 0 Z" style="stroke-linecap: butt; stroke-linejoin: miter; stroke-miterlimit: 10; stroke-dasharray: none;" id="path169" fill="none" fill-opacity="1" stroke="#f0851d" stroke-opacity="1" data-original-stroke-color="#000000ff" stroke-width="30" data-original-stroke-width="30"/></g><g id="g171" transform="translate(121,286)"><path d="M 0,0 30,-30 90,30" style="stroke-linecap: butt; stroke-linejoin: miter; stroke-miterlimit: 10; stroke-dasharray: none;" id="path173" fill="none" fill-opacity="1" stroke="#f0851d" stroke-opacity="1" data-original-stroke-color="#000000ff" stroke-width="30" data-original-stroke-width="30"/></g><g id="g175" transform="translate(121,196)"><path d="M 0,0 30,-30 90,30" style="stroke-linecap: butt; stroke-linejoin: miter; stroke-miterlimit: 10; stroke-dasharray: none;" id="path177" fill="none" fill-opacity="1" stroke="#f0851d" stroke-opacity="1" data-original-stroke-color="#000000ff" stroke-width="30" data-original-stroke-width="30"/></g><g id="g179" transform="translate(121,106)"><path d="M 0,0 30,-30 90,30" style="stroke-linecap: butt; stroke-linejoin: miter; stroke-miterlimit: 10; stroke-dasharray: none;" id="path181" fill="none" fill-opacity="1" stroke="#f0851d" stroke-opacity="1" data-original-stroke-color="#000000ff" stroke-width="30" data-original-stroke-width="30"/></g><g id="g183" transform="translate(241,286)"><path d="M 0,0 H 150" style="stroke-linecap: butt; stroke-linejoin: miter; stroke-miterlimit: 10; stroke-dasharray: none;" id="path185" fill="none" fill-opacity="1" stroke="#f0851d" stroke-opacity="1" data-original-stroke-color="#000000ff" stroke-width="30" data-original-stroke-width="30"/></g><g id="g187" transform="translate(241,196)"><path d="M 0,0 H 150" style="stroke-linecap: butt; stroke-linejoin: miter; stroke-miterlimit: 10; stroke-dasharray: none;" id="path189" fill="none" fill-opacity="1" stroke="#f0851d" stroke-opacity="1" data-original-stroke-color="#000000ff" stroke-width="30" data-original-stroke-width="30"/></g><g id="g191" transform="translate(241,106)"><path d="M 0,0 H 150" style="stroke-linecap: butt; stroke-linejoin: miter; stroke-miterlimit: 10; stroke-dasharray: none;" id="path193" fill="none" fill-opacity="1" stroke="#f0851d" stroke-opacity="1" data-original-stroke-color="#000000ff" stroke-width="30" data-original-stroke-width="30"/></g></g></g></g></g></svg>
