<svg id="Capa_1" enable-background="new 0 0 512 512" height="512" viewBox="0 0 512 512" width="512" xmlns="http://www.w3.org/2000/svg">
  <g fill="#f0851d"> <g>
      <path d="m169.772 193.29h30.014v248.329h-30.014z"/>
      <path d="m240.993 193.291h30.014v248.328h-30.014z"/>
    </g>
    <path d="m460.763 103.305-38.806-38.805h-86.891v-21.914c.001-23.482-19.103-42.586-42.586-42.586h-80.122c-23.483 0-42.586 19.104-42.586 42.586v21.914h-79.73l-38.805 38.804v50.47h28.802l29.959 358.226h292.003l29.959-358.225h28.802v-50.47zm-260.977-60.719c0-6.932 5.64-12.572 12.572-12.572h80.122c6.932 0 12.572 5.64 12.572 12.572v21.914h-105.266zm-97.312 51.928h307.052l21.223 21.223v7.375h-349.498v-7.375zm271.919 387.472h-236.786l-27.45-328.211h291.686z"/>
    <path d="m312.213 193.29h30.014v248.329h-30.014z"/>
  </g>
</svg>