<?xml version="1.0" encoding="UTF-8"?>
<svg id="Camada_1" data-name="Camada 1" xmlns="http://www.w3.org/2000/svg" viewBox="0 0 66.43 71.14">
  <defs>
    <style>
      .cls-1 {
        fill: #fff;
      }

      .cls-1, .cls-2, .cls-3 {
        stroke-width: 0px;
      }

      .cls-2 {
        fill: #cd8f1a;
      }

      .cls-2, .cls-3 {
        fill-rule: evenodd;
      }

      .cls-3 {
        fill: #f9b029;
      }
    </style>
  </defs>
  <g>
    <path class="cls-3" d="M21.07,0h24.09l21.27,21.27v40.85c0,4.96-4.06,9.02-9.02,9.02H21.07c-4.96,0-9.02-4.06-9.02-9.02V9.02c0-4.96,4.06-9.02,9.02-9.02h0Z"/>
    <path class="cls-2" d="M45.16,0l21.27,21.27h-18.98c-1.26,0-2.29-1.03-2.29-2.3V0Z"/>
    <path class="cls-2" d="M1.98,30.29h48.99c1.09,0,1.98.89,1.98,1.98v17.97c0,1.09-.89,1.98-1.98,1.98H1.98C.89,52.23,0,51.34,0,50.25v-17.97c0-1.09.89-1.98,1.98-1.98Z"/>
  </g>
  <path class="cls-1" d="M31.68,35.03s0,.06,0,.09v12.29c0,.63-.51,1.15-1.15,1.15s-1.15-.51-1.15-1.15v-8.66l-2.21,3.16c-.21.31-.57.49-.94.49h0c-.37,0-.73-.18-.94-.49l-2.22-3.17v8.66c0,.63-.51,1.15-1.15,1.15s-1.15-.51-1.15-1.15v-12.29s0-.06,0-.09c.01-.16.06-.32.13-.45.07-.14.17-.26.3-.37.11-.09.24-.16.37-.2.14-.04.28-.06.42-.05.16.01.32.06.45.13.14.07.26.17.37.3.02.02.04.05.05.07l3.36,4.79,3.35-4.79s.04-.05.05-.07c.1-.13.23-.23.36-.3.14-.07.29-.12.46-.13.14,0,.29,0,.43.05.13.04.26.11.37.2.13.1.23.23.3.37.07.14.12.29.13.46h0ZM43.12,46.26h-6.25v-11.15c0-.63-.51-1.15-1.15-1.15s-1.15.51-1.15,1.15v12.3c0,.63.51,1.15,1.15,1.15h7.4c.63,0,1.15-.51,1.15-1.15s-.51-1.15-1.15-1.15ZM17.82,34.12c-.54-.33-1.25-.15-1.58.39l-2.71,4.51-2.71-4.51c-.33-.54-1.03-.72-1.58-.39-.54.33-.72,1.03-.39,1.58l3.34,5.56-3.34,5.56c-.33.54-.15,1.25.39,1.58.19.11.39.16.59.16.39,0,.77-.2.99-.56l2.71-4.51,2.71,4.51c.22.36.6.56.99.56.2,0,.41-.05.59-.16.54-.33.72-1.03.39-1.58l-3.34-5.56,3.34-5.56c.33-.54.15-1.25-.39-1.58h0Z"/>
</svg>