<svg viewBox="-30 0 512 512" xmlns="http://www.w3.org/2000/svg">
  <g fill="#f0851d"> <path d="m325.847656 340.433594c-30.746094 0-60.132812 13.222656-80.621094 36.28125l22.421876 19.929687c14.804687-16.65625 36.015624-26.210937 58.199218-26.210937 22.179688 0 43.390625 9.554687 58.191406 26.210937l22.425782-19.929687c-20.488282-23.058594-49.875-36.28125-80.617188-36.28125zm0 0"/>
    <path d="m326.144531 421.054688c-7.765625-.121094-15.242187 3.074218-20.511719 8.804687l20.035157 18.4375 20.667969-17.726563c-5.070313-5.910156-12.429688-9.378906-20.191407-9.515624zm0 0"/>
    <path d="m325.847656 380.417969c-19.347656 0-37.835937 8.320312-50.730468 22.832031l22.425781 19.929688c7.207031-8.109376 17.523437-12.761719 28.304687-12.761719s21.09375 4.648437 28.300782 12.761719l22.425781-19.929688c-12.894531-14.511719-31.382813-22.832031-50.726563-22.832031zm0 0"/>
    <path d="m64.660156 150.980469h261.355469v30h-261.355469zm0 0"/>
    <path d="m64.660156 210.980469h261.355469v30h-261.355469zm0 0"/>
    <path d="m451.6875 385.84375c0-45.96875-24.777344-86.25-61.671875-108.210938v-178.839843l-98.792969-98.792969h-291.222656v512h330.542969v-.410156c67.222656-2.484375 121.144531-57.929688 121.144531-125.746094zm-112.890625-295.84375-38.777344-.003906-.007812-38.777344zm-308.796875-60h240.011719l.011719 89.992188 89.992187.011718v144.710938c-10.871094-3.070313-22.332031-4.714844-34.167969-4.714844-18.300781 0-35.703125 3.929688-51.40625 10.984375h-209.78125v30h168.339844c-8.078125 8.835937-14.917969 18.820313-20.238281 29.679687h-148.765625v30h138.539062c-1.660156 8.140626-2.53125 16.558594-2.53125 25.179688 0 38.523438 17.40625 73.054688 44.761719 96.15625h-214.765625zm295.847656 451.683594c-52.851562 0-95.84375-42.992188-95.84375-95.839844s42.992188-95.84375 95.84375-95.84375c52.847656 0 95.839844 42.996094 95.839844 95.84375s-42.992188 95.839844-95.839844 95.839844zm0 0"/>
  </g>
</svg>