<?xml version="1.0" encoding="UTF-8"?>
<svg id="Camada_1" data-name="Camada 1" xmlns="http://www.w3.org/2000/svg" viewBox="0 0 70.86 67.68">
  <defs>
    <style>
      .cls-1 {
        fill: #d4e1f4;
      }

      .cls-1, .cls-2, .cls-3, .cls-4, .cls-5 {
        stroke-width: 0px;
      }

      .cls-1, .cls-2, .cls-4, .cls-5 {
        fill-rule: evenodd;
      }

      .cls-2 {
        fill: #f28a15;
      }

      .cls-3 {
        fill: #010101;
      }

      .cls-4 {
        fill: #f9b216;
      }

      .cls-5 {
        fill: #f59e1b;
      }
    </style>
  </defs>
  <g>
    <path class="cls-5" d="M.53,23.22h69.8v37.58c0,3.48-2.85,6.33-6.33,6.33H6.86c-3.48,0-6.33-2.85-6.33-6.33V23.22Z"/>
    <path class="cls-4" d="M70.33,23.22L39.3,1.72c-2.13-1.47-5.49-1.55-7.48-.17L.53,23.22l31.28,21.69c1.99,1.37,5.36,1.3,7.48-.17l31.04-21.52Z"/>
    <path class="cls-2" d="M67.76,65.88l-28.92-23.98c-1.76-1.45-4.95-1.51-6.6-.15L3.11,65.88c1.05.78,2.36,1.24,3.76,1.24h57.14c1.4,0,2.71-.46,3.76-1.24h0Z"/>
    <path class="cls-1" d="M59.68,12.57c0-1.93-1.59-3.52-3.52-3.52H14.7c-1.93,0-3.52,1.59-3.52,3.52v18.03l18.8,13.02,2.26-1.87c1.64-1.36,4.84-1.31,6.6.15l2.06,1.71,18.78-13.01V12.57Z"/>
  </g>
  <path class="cls-3" d="M70.86,23.35c0-.32-.16-.62-.42-.8l-10.1-7v-2.72c0-2.45-1.99-4.45-4.45-4.45h-6.01c-.07-.1-.15-.18-.25-.25l-9.85-6.82c-2.45-1.7-6.18-1.77-8.49-.17l-10.45,7.24h-5.9c-2.45,0-4.44,1.99-4.44,4.45v2.72L.42,22.56c-.26.18-.42.48-.42.8,0,.03,0,.06,0,.08,0,.03,0,.07,0,.1v36.92c0,3.98,3.24,7.22,7.22,7.22h56.42c3.98,0,7.22-3.24,7.22-7.22V23.43s0-.03,0-.04c0-.01,0-.02,0-.03h0ZM68.19,23.35l-7.84,5.44v-10.87l7.84,5.43ZM32.41,2.75c1.64-1.13,4.52-1.06,6.28.17l7.91,5.48h-22.35l8.15-5.65ZM10.52,17.92v10.88l-7.85-5.44,7.85-5.44ZM7.22,65.74c-.72,0-1.4-.14-2.02-.4l27.7-22.94c1.26-1.05,3.92-.97,5.28.15l27.49,22.79c-.62.26-1.31.4-2.02.4H7.22ZM67.35,64.22l-27.93-23.16c-2.08-1.72-5.77-1.79-7.75-.15L3.51,64.22c-.97-.96-1.58-2.29-1.58-3.76V25.2l8.97,6.22s.04.03.06.04l15.55,10.78c.17.12.36.17.55.17.31,0,.61-.15.8-.42.3-.44.2-1.04-.24-1.35l-15.17-10.51V12.84c0-1.38,1.12-2.51,2.5-2.51h40.94c1.38,0,2.51,1.12,2.51,2.51v17.29l-15.15,10.5c-.44.3-.55.91-.24,1.35.19.27.49.42.8.42.19,0,.38-.06.55-.17l15.51-10.75s.08-.05.12-.08l8.93-6.19v35.26c0,1.47-.6,2.8-1.58,3.76h0ZM41.27,33.48c-1.71,1.24-3.72,1.9-5.84,1.9-5.47,0-9.93-4.45-9.93-9.93s4.45-9.93,9.93-9.93,9.93,4.45,9.93,9.93c0,2.18-.41,3.32-.75,3.89-.3.51-.67.77-1.08.77-.69,0-1.52-.75-1.52-1.69v-8.58c0-.54-.43-.97-.97-.97s-.97.43-.97.97v.95c-1.19-1.19-2.83-1.92-4.64-1.92-3.63,0-6.58,2.95-6.58,6.58s2.95,6.58,6.58,6.58c1.96,0,3.72-.86,4.93-2.22.54,1.29,1.8,2.24,3.18,2.24,1.11,0,2.08-.61,2.74-1.71.68-1.13,1.02-2.78,1.02-4.88,0-6.54-5.32-11.86-11.86-11.86s-11.86,5.32-11.86,11.86,5.32,11.86,11.86,11.86c2.53,0,4.94-.79,6.98-2.27.43-.32.53-.92.21-1.35-.32-.43-.92-.53-1.35-.21h0ZM35.43,30.1c-2.56,0-4.64-2.08-4.64-4.64s2.08-4.65,4.64-4.65,4.64,2.08,4.64,4.65-2.08,4.64-4.64,4.64Z"/>
</svg>