<svg version="1.1" id="svg3585" xml:space="preserve" width="300" height="300" viewBox="0 0 682.66669 682.66669" xmlns="http://www.w3.org/2000/svg" xmlns:svg="http://www.w3.org/2000/svg" xmlns:xlink="http://www.w3.org/1999/xlink" xmlns:svgjs="http://svgjs.dev/svgjs"><g width="100%" height="100%" transform="matrix(1,0,0,1,0,0)"><defs id="defs3589"><clipPath clipPathUnits="userSpaceOnUse" id="clipPath3599"><path d="M 0,512 H 512 V 0 H 0 Z" id="path3597" fill="#f0851d" fill-opacity="1" data-original-color="#000000ff" stroke="none" stroke-opacity="1"/></clipPath></defs><g id="g3591" transform="matrix(1.3333333,0,0,-1.3333333,0,682.66667)"><g id="g3593"><g id="g3595" clip-path="url(#clipPath3599)"><g id="g3601" transform="translate(375,481)"><path d="m 0,0 c 0,-16.567 -13.431,-30 -30,-30 -16.569,0 -30,13.433 -30,30 h -60 c 0,-16.567 -13.431,-30 -30,-30 -16.569,0 -30,13.433 -30,30 h -60 c 0,-16.567 -13.431,-30 -30,-30 -16.569,0 -30,13.433 -30,30 h -60 V -390 H 60 V 0 Z" style="stroke-linecap: round; stroke-linejoin: round; stroke-miterlimit: 10; stroke-dasharray: none;" id="path3603" fill="none" fill-opacity="1" stroke="#f0851d" stroke-opacity="1" data-original-stroke-color="#000000ff" stroke-width="30" data-original-stroke-width="30"/></g><g id="g3605" transform="translate(435,421)"><path d="m 0,0 h 62 v -390 h -422 v 60" style="stroke-linecap: round; stroke-linejoin: round; stroke-miterlimit: 10; stroke-dasharray: none;" id="path3607" fill="none" fill-opacity="1" stroke="#f0851d" stroke-opacity="1" data-original-stroke-color="#000000ff" stroke-width="30" data-original-stroke-width="30"/></g><g id="g3609" transform="translate(105,331)"><path d="M 0,0 H 240" style="stroke-linecap: round; stroke-linejoin: round; stroke-miterlimit: 10; stroke-dasharray: none;" id="path3611" fill="none" fill-opacity="1" stroke="#f0851d" stroke-opacity="1" data-original-stroke-color="#000000ff" stroke-width="30" data-original-stroke-width="30"/></g><g id="g3613" transform="translate(105,271)"><path d="M 0,0 H 240" style="stroke-linecap: round; stroke-linejoin: round; stroke-miterlimit: 10; stroke-dasharray: none;" id="path3615" fill="none" fill-opacity="1" stroke="#f0851d" stroke-opacity="1" data-original-stroke-color="#000000ff" stroke-width="30" data-original-stroke-width="30"/></g><g id="g3617" transform="translate(105,211)"><path d="M 0,0 H 240" style="stroke-linecap: round; stroke-linejoin: round; stroke-miterlimit: 10; stroke-dasharray: none;" id="path3619" fill="none" fill-opacity="1" stroke="#f0851d" stroke-opacity="1" data-original-stroke-color="#000000ff" stroke-width="30" data-original-stroke-width="30"/></g></g></g></g></g></svg>