<svg version="1.1" id="Capa_1" xmlns="http://www.w3.org/2000/svg" xmlns:xlink="http://www.w3.org/1999/xlink" x="0px" y="0px" viewBox="0 0 512 512" style="enable-background:new 0 0 512 512;" xml:space="preserve" width="300" height="300" xmlns:svgjs="http://svgjs.dev/svgjs"><g width="100%" height="100%" transform="matrix(1,0,0,1,0,0)"><g>
	<polyline style="stroke-miterlimit: 10;" points="324.109,380.774 324.109,472.313 &#10;&#9;&#9;15,472.313 15,39.687 324.109,39.687 324.109,250.485 &#9;" fill="none" fill-opacity="1" stroke="#f0851d" stroke-opacity="1" data-original-stroke-color="#000000ff" stroke-width="30" data-original-stroke-width="30"/>
	<path style="stroke-miterlimit: 10;" d="M483.505,221.404&#10;&#9;&#9;c17.993-17.993,17.993-47.165,0-65.157l0,0c-17.993-17.993-47.165-17.993-65.157,0l-15.698,15.698l65.157,65.157L483.505,221.404z" fill="none" fill-opacity="1" stroke="#f0851d" stroke-opacity="1" data-original-stroke-color="#000000ff" stroke-width="30" data-original-stroke-width="30"/>
	<polygon style="stroke-miterlimit: 10;" points="258.951,315.643 258.951,380.801 &#10;&#9;&#9;324.108,380.801 356.343,348.566 291.186,283.408 &#9;" fill="none" fill-opacity="1" stroke="#f0851d" stroke-opacity="1" data-original-stroke-color="#000000ff" stroke-width="30" data-original-stroke-width="30"/>

		<rect x="300.68" y="214.182" transform="matrix(0.7071 -0.7071 0.7071 0.7071 -72.8762 344.5715)" style="stroke-miterlimit: 10;" width="157.634" height="92.146" fill="none" fill-opacity="1" stroke="#f0851d" stroke-opacity="1" data-original-stroke-color="#000000ff" stroke-width="30" data-original-stroke-width="30"/>

		<line style="stroke-miterlimit: 10;" x1="73.001" y1="131.199" x2="266.109" y2="131.199" fill="none" fill-opacity="1" stroke="#f0851d" stroke-opacity="1" data-original-stroke-color="#000000ff" stroke-width="30" data-original-stroke-width="30"/>

		<line style="stroke-miterlimit: 10;" x1="73.001" y1="192.872" x2="266.109" y2="192.872" fill="none" fill-opacity="1" stroke="#f0851d" stroke-opacity="1" data-original-stroke-color="#000000ff" stroke-width="30" data-original-stroke-width="30"/>

		<line style="stroke-miterlimit: 10;" x1="73.001" y1="255.515" x2="233.411" y2="255.515" fill="none" fill-opacity="1" stroke="#f0851d" stroke-opacity="1" data-original-stroke-color="#000000ff" stroke-width="30" data-original-stroke-width="30"/>

		<line style="stroke-miterlimit: 10;" x1="73.001" y1="318.158" x2="206.103" y2="318.158" fill="none" fill-opacity="1" stroke="#f0851d" stroke-opacity="1" data-original-stroke-color="#000000ff" stroke-width="30" data-original-stroke-width="30"/>

		<line style="stroke-miterlimit: 10;" x1="73.001" y1="380.801" x2="206.103" y2="380.801" fill="none" fill-opacity="1" stroke="#f0851d" stroke-opacity="1" data-original-stroke-color="#000000ff" stroke-width="30" data-original-stroke-width="30"/>
</g><g>
</g><g>
</g><g>
</g><g>
</g><g>
</g><g>
</g><g>
</g><g>
</g><g>
</g><g>
</g><g>
</g><g>
</g><g>
</g><g>
</g><g>
</g></g></svg>
