<?xml version="1.0" encoding="UTF-8"?>
<svg id="Camada_1" data-name="Camada 1" xmlns="http://www.w3.org/2000/svg" viewBox="0 0 72.62 73.76">
  <defs>
    <style>
      .cls-1 {
        fill: #f39200;
        stroke-width: 0px;
      }
    </style>
  </defs>
  <path class="cls-1" d="M57.62,24.59H19.46L37.59,6.46c.23-.23.36-.54.36-.87s-.13-.64-.36-.87l-3.48-3.48c-1.39-1.39-3.82-1.39-5.22,0l-2.81,2.81,1.74,1.74,2.81-2.81c.46-.46,1.27-.46,1.74,0l2.61,2.61L5.43,35.14l-2.61-2.61c-.23-.23-.36-.54-.36-.87s.13-.64.36-.87L25.37,8.25l-1.74-1.74-1.69,1.69-1.74-1.74c-1.44-1.44-3.78-1.44-5.22,0L6.3,15.15c-1.44,1.44-1.44,3.78,0,5.22l1.74,1.74-6.95,6.95c-.7.7-1.08,1.62-1.08,2.61s.38,1.91,1.08,2.61l3.48,3.48c.23.23.54.36.87.36s.64-.13.87-.36l6.54-6.54,5.18,39.34c.24,1.83,1.81,3.21,3.66,3.21h27.65c1.84,0,3.42-1.38,3.66-3.21l4.25-32.28-2.44-.32-4.25,32.28c-.08.61-.6,1.07-1.22,1.07h-27.65c-.61,0-1.14-.46-1.22-1.07l-5.42-41.21,1.97-1.97h39.22l-.79,5.99,2.44.32.97-7.38c.05-.35-.06-.7-.29-.97-.23-.27-.57-.42-.93-.42h0ZM8.04,18.63c-.48-.48-.48-1.26,0-1.74l8.69-8.69c.48-.48,1.26-.48,1.74,0l1.74,1.74-10.43,10.43-1.74-1.74Z"/>
  <path class="cls-1" d="M31.81,35.65v27.05c0,2.03,1.65,3.69,3.69,3.69s3.69-1.65,3.69-3.69v-27.05c0-2.03-1.65-3.69-3.69-3.69s-3.69,1.65-3.69,3.69ZM36.72,35.65v27.05c0,.68-.55,1.23-1.23,1.23s-1.23-.55-1.23-1.23v-27.05c0-.68.55-1.23,1.23-1.23s1.23.55,1.23,1.23Z"/>
  <path class="cls-1" d="M21.97,35.65v27.05c0,2.03,1.65,3.69,3.69,3.69s3.69-1.65,3.69-3.69v-27.05c0-2.03-1.65-3.69-3.69-3.69s-3.69,1.65-3.69,3.69ZM26.89,35.65v27.05c0,.68-.55,1.23-1.23,1.23s-1.23-.55-1.23-1.23v-27.05c0-.68.55-1.23,1.23-1.23s1.23.55,1.23,1.23Z"/>
  <path class="cls-1" d="M41.64,35.65v27.05c0,2.03,1.65,3.69,3.69,3.69s3.69-1.65,3.69-3.69v-27.05c0-2.03-1.65-3.69-3.69-3.69s-3.69,1.65-3.69,3.69ZM46.56,35.65v27.05c0,.68-.55,1.23-1.23,1.23s-1.23-.55-1.23-1.23v-27.05c0-.68.55-1.23,1.23-1.23s1.23.55,1.23,1.23Z"/>
  <path class="cls-1" d="M41.94,13.56l-4.92-1.23c-.48-.12-.99.06-1.28.45l-3.69,4.92c-.22.29-.3.67-.21,1.02.08.36.32.65.65.82l4.92,2.46c.17.08.36.13.55.13h6.15c.41,0,.79-.2,1.02-.54s.28-.77.12-1.15l-2.46-6.15c-.15-.37-.46-.64-.84-.74h0ZM38.24,19.67l-3.34-1.67,2.31-3.09,3.51.88,1.55,3.88h-4.04Z"/>
  <path class="cls-1" d="M57.44,11.64l-1.18-2.36c-.25-.5-.8-.76-1.34-.66l-6.15,1.23c-.58.11-.99.62-.99,1.2v2.46c0,.1.01.2.04.3l1.23,4.92c.14.55.63.93,1.19.93.05,0,.1,0,.15,0l9.84-1.23c.44-.05.81-.34.98-.74s.11-.87-.15-1.22l-3.62-4.83ZM51.17,17.09l-.93-3.71v-1.3l4.24-.85.81,1.62c.03.07.07.13.12.19l2.42,3.22-6.65.83Z"/>
  <path class="cls-1" d="M61.07,7.63l1.5,1.95c2.72-2.09,6.21-2.9,9.57-2.23l.48-2.41c-4.06-.81-8.27.17-11.55,2.69Z"/>
  <path class="cls-1" d="M55.16,6.15h2.46c0-2.03,1.65-3.69,3.69-3.69V0c-3.39,0-6.15,2.76-6.15,6.15Z"/>
</svg>