<svg id="Capa_1" xmlns="http://www.w3.org/2000/svg" width="150" height="150" viewBox="0 0 512 512">
    <g transform="matrix(1,0,0,1,0,0)">
        <g>
            <path d="M73.334 109.774h263.172v30.031H73.334z" fill="#f0851d"/>
            <path d="M73.334 169.836h263.172v30.031H73.334z" fill="#f0851d"/>
            <path d="M73.334 229.898h263.172v30.031H73.334z" fill="#f0851d"/>
            <path d="M400.122 278.606V0H9.717v512h375.389c64.611 0 117.177-52.565 117.177-117.176 0-59.525-44.615-108.825-102.161-116.218zM39.748 481.969V30.031h30.032v35.247h30.031V30.031h30.031v35.247h30.031V30.031h30.031v35.247h30.031V30.031h30.031v35.247h30.031V30.031h30.031v35.247h30.031V30.031h30.031v248.575c-13.222 1.699-25.757 5.616-37.229 11.355H73.334v30.031h221.674c-7.471 8.98-13.624 19.089-18.169 30.031H73.334v30.031h195.524c-.611 4.839-.928 9.768-.928 14.77 0 5.171.341 10.265.993 15.261H73.334v30.031h203.707c6.767 16.086 17.026 30.353 29.822 41.853zM385.106 481.969c-48.052 0-87.145-39.093-87.145-87.145 0-48.053 39.093-87.146 87.145-87.146s87.145 39.093 87.145 87.146c.001 48.052-39.093 87.145-87.145 87.145z" fill="#f0851d"/>
            <path d="M400.122 347.181h-30.031v32.627h-32.627v30.031h32.627v32.627h30.031v-32.627h32.627v-30.031h-32.627z" fill="#f0851d"/>
        </g>
    </g>
</svg>
