<svg id="Capa_1" enable-background="new 0 0 510.15 510.15" height="300" viewBox="0 0 510.15 510.15" width="300" xmlns="http://www.w3.org/2000/svg" version="1.1" xmlns:xlink="http://www.w3.org/1999/xlink" xmlns:svgjs="http://svgjs.dev/svgjs"><g width="100%" height="100%" transform="matrix(1,0,0,1,0,0)"><g><path d="m360 210.072h30v-32.58c17.458-6.192 30-22.865 30-42.42 0-24.813-20.187-45-45-45-8.271 0-15-6.729-15-15s6.728-15 15-15h45v-30h-30v-30h-30v32.58c-17.459 6.192-30 22.865-30 42.42 0 24.813 20.187 45 45 45 8.271 0 15 6.729 15 15s-6.729 15-15 15h-45v30h30z" fill="#f0851d" fill-opacity="1" data-original-color="#000000ff" stroke="none" stroke-opacity="1"/><path d="m270 240.072h210v30h-210z" fill="#f0851d" fill-opacity="1" data-original-color="#000000ff" stroke="none" stroke-opacity="1"/><path d="m453.087 323.331-1.793.365-121.674 57.821c-3.801-37.82-35.815-67.445-74.62-67.445h-30.001c-29.255 0-51.256 1.882-70.517 11.253-6.787 3.302-13.206 6.064-19.483 8.373v-33.626h-134.999v210h135v-40.501c1.616.513-16.323-5.18 121.306 38.495 12.814 3.559 26.772 2.451 39.248-3.765 8.911-4.345 176.448-86.031 188.301-91.81 16.22-8.11 26.295-24.413 26.295-42.547 0-30.058-27.554-52.623-57.063-46.613zm-348.087 156.741h-75v-150h75zm365.492-94.441c-6.582 3.21-178.93 87.241-188.285 91.802-5.476 2.737-11.73 3.37-17.637 1.792l-129.57-41.129v-72.755c10.594-3.245 21.19-7.485 32.607-13.039 12.332-5.999 27.887-8.23 57.393-8.23h30c24.813 0 45 20.187 45 45v1h-75v30h93.383l142.228-67.588c10.35-1.18 19.539 6.923 19.539 17.46 0 6.677-3.699 12.682-9.658 15.687z" fill="#f0851d" fill-opacity="1" data-original-color="#000000ff" stroke="none" stroke-opacity="1"/></g></g></svg>