<?xml version="1.0" encoding="UTF-8"?>
<svg id="Layer_1" data-name="Layer 1" xmlns="http://www.w3.org/2000/svg" viewBox="0 0 71.18 68.48">
  <defs>
    <style>
      .cls-1 {
        fill: #736677;
        stroke-width: 0px;
      }
    </style>
  </defs>
  <path class="cls-1" d="M71.18,30.67v33.73c0,2.25-1.83,4.08-4.08,4.08H4.08c-2.25,0-4.08-1.83-4.08-4.08V30.67c0-2.25,1.83-4.08,4.08-4.08h25.13c.61,0,1.11.5,1.11,1.11s-.5,1.11-1.11,1.11H4.08c-1.03,0-1.87.84-1.87,1.86v33.73c0,1.03.84,1.87,1.87,1.87h63.02c1.03,0,1.87-.84,1.87-1.87V30.67c0-1.03-.84-1.86-1.87-1.86h-25.13c-.61,0-1.11-.5-1.11-1.11s.5-1.11,1.11-1.11h25.13c2.25,0,4.08,1.83,4.08,4.08h0ZM35.59,33.56c7.7,0,13.97,6.27,13.97,13.97s-6.27,13.97-13.97,13.97-13.97-6.27-13.97-13.97,6.27-13.97,13.97-13.97h0ZM35.59,35.78c-6.48,0-11.75,5.27-11.75,11.76s5.27,11.75,11.75,11.75,11.76-5.27,11.76-11.75-5.27-11.76-11.76-11.76ZM35.59,38.38c.61,0,1.11.5,1.11,1.11v1.9h3.4c.61,0,1.11.5,1.11,1.11s-.5,1.11-1.11,1.11h-3.4v2.83h.88c2,0,3.63,1.63,3.63,3.62s-1.63,3.63-3.63,3.63h-.88v1.9c0,.61-.5,1.11-1.11,1.11s-1.11-.5-1.11-1.11v-1.9h-3.39c-.61,0-1.11-.5-1.11-1.11s.5-1.11,1.11-1.11h3.39v-2.82h-.88c-2,0-3.62-1.63-3.62-3.63s1.63-3.63,3.62-3.63h.88v-1.9c0-.61.5-1.11,1.11-1.11h0ZM37.57,48.64h-.88v2.82h.88c.78,0,1.41-.63,1.41-1.41,0-.78-.63-1.41-1.41-1.41ZM34.48,43.6h-.88c-.78,0-1.41.63-1.41,1.41s.63,1.41,1.41,1.41h.88v-2.83ZM62.64,35.78c.61,0,1.11-.5,1.11-1.11s-.5-1.11-1.11-1.11h-6.33c-.61,0-1.11.5-1.11,1.11s.5,1.11,1.11,1.11h6.33ZM8.54,59.29c-.61,0-1.11.5-1.11,1.11s.5,1.11,1.11,1.11h6.33c.61,0,1.11-.5,1.11-1.11s-.5-1.11-1.11-1.11h-6.33ZM34.78,31.58c.18.27.48.43.81.43s.63-.16.81-.43l11.14-16.78c.2-.3.22-.68.05-.99-.17-.31-.5-.51-.85-.51h-6.64V.97c0-.54-.43-.97-.97-.97s-.97.43-.97.97v13.3c0,.54.43.97.97.97h5.8l-9.33,14.06-9.33-14.06h5.81c.54,0,.97-.43.97-.97V.97C33.03.43,32.6,0,32.06,0s-.97.43-.97.97v12.33h-6.65c-.36,0-.69.2-.85.51-.17.31-.15.7.05.99l11.14,16.78Z"/>
</svg>