<svg id="Glyph" viewBox="0 0 64 64" xmlns="http://www.w3.org/2000/svg" width="300" height="300" version="1.1" xmlns:xlink="http://www.w3.org/1999/xlink" xmlns:svgjs="http://svgjs.dev/svgjs"><g width="100%" height="100%" transform="matrix(1,0,0,1,0,0)"><path d="m55.11829 54.11672c-.61005.58034-1.35012.8805-2.12022.8805h-43.00448v2.00111c0 1.65088 1.35012 3.00167 3.00031 3.00167h44.00459c1.6502 0 3.00031-1.35079 3.00031-3.00167v-9.99556c-1.15088 2.66161-2.81455 5.04749-4.88051 7.11395z" fill="#56327a" fill-opacity="1" data-original-color="#000000ff" stroke="none" stroke-opacity="1"/><path d="m55.9989 7.97115h-5.09986c-1.30002-5.84984-9.79983-4.98988-9.8998.99998 0 2.46998 1.78994 4.51992 4.14993 4.92988 1.29996.22003.98997 2.15999-.29003 1.98-3.64988-.55998-6.37986-4.15994-5.77984-7.90986h-10.17976c-1.11997-5.28986-8.68981-5.29987-9.80978 0-.58 2.73993 1.34995 5.49988 4.05991 5.92986 1.19992.17999 1.03995 1.99001-.13 1.99001-.06 0-.11004 0-.16003-.01001-3.65989-.55998-6.38987-4.15994-5.78985-7.90986h-3.07995c-2.20991 0-3.99991 1.79-3.99991 3.99991v6.00987h50.00888v-6.00987c0-2.20991-1.78994-3.99991-3.99991-3.99991zm-34.81922 0c.86998-2.62995 4.7599-2.62995 5.63989 0zm21.9995 0c.87998-2.62995 4.7599-2.62995 5.63989 0z" fill="#56327a" fill-opacity="1" data-original-color="#000000ff" stroke="none" stroke-opacity="1"/><path d="m9.98993 19.98089v17.51962c0 5.20984-2.02992 10.09975-5.70983 13.77966-.61003.60002-.15002 1.74996.70994 1.71999h48.00892c.27001 0 .52001-.10998.71001-.29003 4.05991-4.05991 6.28984-9.45975 6.28984-15.20962v-17.51962zm24.53948 29.54932c-7.16988 0-12.99971-5.82982-12.99971-12.99971s5.82982-12.99971 12.99971-12.99971c2.50989 0 4.95985.72002 7.05984 2.08998.46996.29998.59996.91996.29998 1.37997-.29998.46996-.92002.59996-1.37997.29998-1.79-1.15995-3.84995-1.76998-5.97985-1.76998-6.06987 0-10.99975 4.92988-10.99975 10.99975s4.92988 10.99975 10.99975 10.99975 10.99975-4.92988 10.99975-10.99975c0-2.13991-.61003-4.20987-1.77999-5.97985-.29998-.46001-.16998-1.07999.28997-1.38998.47002-.29998 1.07999-.16998 1.38998.29003 1.36996 2.10994 2.09999 4.54988 2.09999 7.0798 0 7.16988-5.82989 12.99971-12.99971 12.99971zm-5.32989-11.46972c.85997-.83 1.72994-1.64999 2.60993-2.46998 3.01995-2.50995 5.46991-.06 7.09981 1.55996.29003.30004.58.59001.87004.85002.90995.78996 1.22995 2.06996.82994 3.27989-.39995 1.23001-1.44998 2.06996-2.65991 2.15999-.10003.01001-.20001.01996-.29003.01996-.44994 0-.86998-.11999-1.21994-.20996l-.15997-.04004c-1.17002-.38994-2.32996-.36999-3.51994.04004-.97001.32995-2.04994.26-2.88995-.20001-.73997-.39001-1.25998-1.05997-1.46994-1.86995-.36999-1.12998-.09002-2.25996.79997-3.11992zm-1.47-5.73986c.35003-.66002 1.06998-.79002 1.64999-.30999.51.40996.83 1.16996.83995 1.96993 0 .34997-.04999.7-.21997 1.02-.33001.61998-1.02.76994-1.58999.34997-.78996-.59996-1.13993-2.14991-.67998-3.0299zm3.58994-3.22996c.55998-.68999 1.46994-.64995 1.98995.09002.29998.42998.39001.93998.40002 1.41995-.02002.60002-.16003 1.11997-.53002 1.54995-.52001.59001-1.26999.60002-1.78994.01001-.68999-.76994-.73002-2.26991-.07001-3.06994zm4.44992.04003c.54998-.72002 1.46994-.71001 2.00996.01996.30999.43999.40996.92997.41997 1.44998-.01001.56999-.15002 1.10001-.53002 1.54-.52996.60997-1.29996.60997-1.81997-.01001-.64995-.77-.68999-2.18995-.07995-2.99993zm3.96988 6.41984c-.52996-.11999-.78996-.53997-.86998-1.03995-.14001-.80003.02002-1.55001.49999-2.20997.14001-.17999.30999-.33001.51-.45.48998-.26.99998-.14001 1.32999.30999.20996.29003.32.7.32 1.28-.02002.48998-.18005 1.06998-.56005 1.56997-.30999.39995-.69994.65996-1.22995.53997zm-8.91979 5.73986c.34997.19.84996.22003 1.28995.07001.83-.28997 1.67001-.42998 2.49994-.42998.75999 0 1.50998.11999 2.22999.35998l.11999.03003c.30999.07995.58995.15997.79997.13.53997-.04004.83995-.43999.95994-.80003.11004-.34997.11004-.82994-.24999-1.13993-.00995-.01001-.01996-.01001-.01996-.02002-.32-.28002-.64-.59996-.96-.91996-1.93996-1.93996-2.92993-2.65997-4.35989-1.47-.83.75999-1.68996 1.56997-2.53992 2.38996-.34002.33001-.42003.66997-.27001 1.12998.08996.33996.24999.53997.49999.66997z" fill="#56327a" fill-opacity="1" data-original-color="#000000ff" stroke="none" stroke-opacity="1"/></g></svg>