<?xml version="1.0" encoding="UTF-8"?>
<svg id="Layer_1" data-name="Layer 1" xmlns="http://www.w3.org/2000/svg" viewBox="0 0 75.02 72.17">
  <defs>
    <style>
      .cls-1 {
        fill: #736677;
        stroke-width: 0px;
      }
    </style>
  </defs>
  <path class="cls-1" d="M0,39.85V4.3C0,1.93,1.93,0,4.3,0h66.42c2.37,0,4.3,1.93,4.3,4.3v35.54c0,2.37-1.93,4.3-4.3,4.3h-26.48c-.64,0-1.17-.52-1.17-1.17s.52-1.17,1.17-1.17h26.48c1.09,0,1.97-.88,1.97-1.97V4.3c0-1.09-.88-1.97-1.97-1.97H4.3c-1.09,0-1.97.88-1.97,1.97v35.54c0,1.08.88,1.97,1.97,1.97h26.48c.64,0,1.17.52,1.17,1.17s-.52,1.17-1.17,1.17H4.3c-2.37,0-4.3-1.93-4.3-4.3h0ZM37.51,36.8c-8.12,0-14.72-6.61-14.72-14.72s6.61-14.72,14.72-14.72,14.72,6.6,14.72,14.72-6.6,14.72-14.72,14.72h0ZM37.51,34.46c6.83,0,12.39-5.56,12.39-12.39s-5.56-12.39-12.39-12.39-12.39,5.56-12.39,12.39,5.56,12.39,12.39,12.39ZM37.51,31.72c-.64,0-1.17-.52-1.17-1.17v-2h-3.58c-.64,0-1.17-.52-1.17-1.17s.52-1.17,1.17-1.17h3.58v-2.98h-.92c-2.11,0-3.82-1.71-3.82-3.82s1.71-3.82,3.82-3.82h.92v-2c0-.64.52-1.17,1.17-1.17s1.17.52,1.17,1.17v2h3.57c.64,0,1.17.52,1.17,1.17s-.52,1.17-1.17,1.17h-3.57v2.97h.92c2.11,0,3.82,1.71,3.82,3.82s-1.71,3.82-3.82,3.82h-.92v2c0,.64-.52,1.17-1.17,1.17h0ZM35.42,20.91h.92v-2.97h-.92c-.82,0-1.49.67-1.49,1.49,0,.82.67,1.49,1.49,1.49ZM38.68,26.22h.92c.82,0,1.49-.67,1.49-1.49s-.67-1.49-1.49-1.49h-.92v2.98ZM9,34.46c-.64,0-1.17.52-1.17,1.17s.52,1.17,1.17,1.17h6.67c.64,0,1.17-.52,1.17-1.17s-.52-1.17-1.17-1.17h-6.67ZM66.02,9.69c.64,0,1.17-.52,1.17-1.17s-.52-1.17-1.17-1.17h-6.67c-.64,0-1.17.52-1.17,1.17s.52,1.17,1.17,1.17h6.67ZM38.36,38.88c-.19-.29-.51-.46-.85-.46s-.66.17-.85.46l-11.74,17.68c-.21.31-.23.72-.05,1.05.18.33.52.54.9.54h7v13c0,.56.46,1.02,1.02,1.02s1.02-.46,1.02-1.02v-14.02c0-.56-.46-1.02-1.02-1.02h-6.12l9.84-14.81,9.84,14.81h-6.12c-.56,0-1.02.46-1.02,1.02v14.02c0,.56.46,1.02,1.02,1.02s1.02-.46,1.02-1.02v-13h7c.38,0,.72-.21.9-.54.18-.33.16-.73-.05-1.05l-11.74-17.68Z"/>
</svg>