<?xml version="1.0" encoding="UTF-8"?>
<svg id="Layer_1" data-name="Layer 1" xmlns="http://www.w3.org/2000/svg" viewBox="0 0 71.78 75.38">
  <defs>
    <style>
      .cls-1 {
        fill-rule: evenodd;
      }

      .cls-1, .cls-2 {
        fill: #280a3c;
        stroke-width: 0px;
      }
    </style>
  </defs>
  <path class="cls-1" d="M52.77,60.78c4.03,0,7.3,3.27,7.3,7.3s-3.27,7.3-7.3,7.3-7.3-3.27-7.3-7.3c0-.12,0-.23,0-.35h-12.42c0,.12,0,.23,0,.35,0,4.03-3.27,7.3-7.3,7.3s-7.3-3.27-7.3-7.3c0-.12,0-.24,0-.36h0c-4.43-.21-7.94-3.89-7.94-8.32,0-3.56,2.28-6.72,5.62-7.88L7.65,16.32c-.02-.08-.06-.14-.12-.19-.05-.04-.13-.06-.21-.06H2.23c-1.23,0-2.23-1-2.23-2.23s1-2.23,2.23-2.23h5.09c1.11,0,2.14.37,2.97,1.02.82.64,1.42,1.56,1.69,2.65l2.42,10.04h31.13c-.89,1.35-1.57,2.86-2.01,4.46h-3.43v5.81h2.98c.09.83.25,1.64.46,2.43h-3.45v4.67h5.61c.6.88,1.29,1.69,2.06,2.43h-7.67v5.95h7.8v-5.83c.75.7,1.56,1.33,2.43,1.88v3.95h2.93c.9,0,1.72-.27,2.36-.75.36-.26.67-.59.92-.97.67.09,1.36.13,2.06.13.96,0,1.9-.09,2.81-.25l-.11.35c-.55,1.79-1.62,3.27-3.03,4.31-1.42,1.05-3.15,1.64-5.01,1.64H18.87c-2.13,0-3.87,1.75-3.87,3.87s1.75,3.87,3.87,3.87h1.4c1.34-1.53,3.3-2.49,5.49-2.49s4.15.96,5.49,2.49h16.02c1.34-1.53,3.3-2.49,5.49-2.49h0Z"/>
  <path class="cls-1" d="M63.89,36.83c-.18-1.49-1.01-2.54-2.31-3.23-.87-.46-1.87-.7-2.79-.85-1.14-.19-2.82-.61-2.88-2.02-.06-1.21.93-1.94,2.02-2.16.51-.1,1.05-.09,1.57.04.66.17,1.28.55,1.7,1.18.1.16.2.33.28.51.16.39.53.64.92.67.17.01.34-.01.51-.08.56-.23.82-.88.59-1.44-.69-1.65-2.01-2.61-3.47-2.97-.11-.03-.22-.05-.33-.07v-.87c0-.07,0-.14-.02-.21-.1-.5-.54-.88-1.08-.88s-.98.38-1.08.88c-.01.07-.02.14-.02.21v.88h0c-2.18.44-3.89,2.09-3.78,4.41.13,2.64,2.43,3.71,4.72,4.08,1.26.21,3.09.63,3.28,2.18.19,1.59-1.71,2.14-2.97,2.17-.81.02-1.61-.18-2.24-.6-.54-.36-.92-.87-1.07-1.5-.14-.59-.74-.95-1.32-.8-.59.14-.95.74-.8,1.32.03.12.06.23.1.34.35,1.07,1.03,1.89,1.89,2.46.65.43,1.41.72,2.21.86v.87c0,.17.04.33.11.47.18.37.55.62.99.62.61,0,1.1-.49,1.1-1.1v-.85c.96-.15,1.95-.5,2.72-1.08,1.12-.85,1.65-2.06,1.48-3.46h0Z"/>
  <path class="cls-1" d="M58.6,47.05c7.24,0,13.18-5.86,13.18-13.18s-5.9-13.18-13.18-13.18-13.18,5.94-13.18,13.18,5.91,13.18,13.18,13.18Z"/>
  <path class="cls-1" d="M29.93,18.44v-10.3h2.87c.18,0,.33-.1.41-.26.07-.16.05-.34-.06-.48L26.99.16c-.09-.1-.2-.16-.34-.16s-.25.05-.34.16l-6.15,7.25c-.12.14-.14.32-.06.48.07.16.23.26.41.26h2.87v10.3c0,.49.4.89.89.89h4.79c.49,0,.89-.4.89-.89Z"/>
  <path class="cls-1" d="M43.15.16l-6.15,7.25c-.12.14-.14.32-.06.48s.23.26.41.26h2.87v10.3c0,.49.4.89.89.89h4.79c.49,0,.89-.4.89-.89v-10.3h2.87c.18,0,.33-.1.41-.26.07-.16.05-.34-.06-.48L43.83.16c-.09-.1-.2-.16-.34-.16-.14,0-.25.05-.34.16h0Z"/>
  <path class="cls-1" d="M25.76,65.11c-1.64,0-2.97,1.33-2.97,2.97s1.33,2.97,2.97,2.97,2.97-1.33,2.97-2.97c0-1.64-1.33-2.97-2.97-2.97Z"/>
  <rect class="cls-2" x="29.86" y="29.77" width="7.8" height="5.81"/>
  <polygon class="cls-1" points="27.43 29.77 15.48 29.77 16.88 35.59 27.43 35.59 27.43 29.77"/>
  <polygon class="cls-1" points="17.47 38.02 18.59 42.68 27.43 42.68 27.43 38.02 17.47 38.02"/>
  <rect class="cls-2" x="29.86" y="38.02" width="7.8" height="4.67"/>
  <rect class="cls-2" x="29.86" y="45.12" width="7.8" height="5.95"/>
  <polygon class="cls-1" points="19.18 45.12 20.62 51.06 27.43 51.06 27.43 45.12 19.18 45.12"/>
  <circle class="cls-2" cx="52.77" cy="68.08" r="2.97"/>
</svg>
