<?xml version="1.0" encoding="UTF-8"?>
<svg id="Layer_1" data-name="Layer 1" xmlns="http://www.w3.org/2000/svg" viewBox="0 0 73.17 73.17">
  <defs>
    <style>
      .cls-1 {
        fill: #280a3c;
        stroke-width: 0px;
      }
    </style>
  </defs>
  <path class="cls-1" d="M2.44,60.97c0-1.93,2.8-2.44,4.46-2.44h11.16l7.17,2.38c.25.08.52.08.77,0l5.71-1.9v1.21l-6.27,3.13-5.68-1.14c-.66-.13-1.3.29-1.44.95-.02.08-.02.16-.02.24v9.76h2.44v-8.27l4.63.93c.27.05.54.02.78-.1l7.32-3.66c.42-.21.68-.63.68-1.09v-3.66c0-.39-.19-.76-.51-.99-.32-.23-.73-.29-1.1-.17l-6.93,2.31-6.98-2.31c-.12-.04-.25-.06-.38-.06h-3.6c2.71-1.36,3.8-4.66,2.44-7.37-1.36-2.71-4.66-3.8-7.37-2.44-2.71,1.36-3.8,4.66-2.44,7.37.53,1.06,1.39,1.91,2.44,2.44h-2.84c-4.13,0-6.9,1.96-6.9,4.88v12.19h2.44v-12.19ZM12.19,48.17c1.68,0,3.05,1.36,3.05,3.05s-1.36,3.05-3.05,3.05-3.05-1.36-3.05-3.05,1.36-3.05,3.05-3.05Z"/>
  <path class="cls-1" d="M4.88,63.41h2.44v9.76h-2.44v-9.76Z"/>
  <path class="cls-1" d="M22.69,50.95l6.1,2.61c.31.13.65.13.96,0l6.1-2.61c.45-.19.74-.63.74-1.12v-6.97c0-.49-.29-.93-.74-1.12l-6.1-2.61c-.31-.13-.65-.13-.96,0l-6.1,2.61c-.45.19-.74.63-.74,1.12v6.97c0,.49.29.93.74,1.12h0ZM24.39,44.7l3.66,1.57v4.32l-3.66-1.57v-4.32ZM30.49,50.59v-4.32l3.66-1.57v4.32l-3.66,1.57ZM29.27,41.56l3,1.29-3,1.29-3-1.29,3-1.29Z"/>
  <path class="cls-1" d="M66.27,20.73h-2.84c2.71-1.36,3.8-4.66,2.44-7.37-1.36-2.71-4.66-3.8-7.37-2.44-2.71,1.36-3.8,4.66-2.44,7.37.53,1.06,1.39,1.91,2.44,2.44h-3.6c-.13,0-.26.02-.38.06l-6.98,2.31-6.93-2.31c-.64-.21-1.33.13-1.54.77-.04.12-.06.25-.06.38v3.66c0,.46.26.88.67,1.09l7.32,3.66c.24.12.52.16.78.1l4.63-.93v8.27h2.44v-9.76c0-.67-.55-1.22-1.22-1.22-.08,0-.16,0-.24.02l-5.69,1.14-6.26-3.13v-1.21l5.71,1.9c.25.08.52.08.77,0l7.18-2.38h11.16c1.65,0,4.45.51,4.45,2.44v12.19h2.44v-12.19c0-2.92-2.77-4.88-6.9-4.88h0ZM60.97,12.8c1.68,0,3.05,1.36,3.05,3.05s-1.36,3.05-3.05,3.05-3.05-1.36-3.05-3.05,1.36-3.05,3.05-3.05Z"/>
  <path class="cls-1" d="M65.85,28.05h2.44v9.76h-2.44v-9.76Z"/>
  <path class="cls-1" d="M48.78,6.71h2.44c-.18-2.52-2.36-4.42-4.88-4.27V0h-2.44v2.44c-2.52-.15-4.7,1.75-4.88,4.27.18,2.52,2.36,4.42,4.88,4.27v3.66c-1.32,0-2.44-.84-2.44-1.83h-2.44c.18,2.52,2.36,4.42,4.88,4.27v2.44h2.44v-2.44c2.52.15,4.7-1.75,4.88-4.27-.18-2.52-2.36-4.42-4.88-4.27v-3.66c1.32,0,2.44.84,2.44,1.83ZM48.78,12.8c0,.99-1.12,1.83-2.44,1.83v-3.66c1.32,0,2.44.84,2.44,1.83ZM43.9,8.54c-1.32,0-2.44-.84-2.44-1.83s1.12-1.83,2.44-1.83v3.66Z"/>
  <path class="cls-1" d="M9.76,36.58c.02-14.81,12.02-26.81,26.83-26.83v-2.44c-16.16.02-29.25,13.11-29.27,29.27h2.44Z"/>
  <path class="cls-1" d="M65.61,40.4l-2.42-.31c-1.78,13.34-13.15,23.31-26.61,23.33v2.44c14.68-.02,27.09-10.9,29.02-25.45h0Z"/>
</svg>
