<?xml version="1.0" encoding="UTF-8"?>
<svg id="Layer_1" data-name="Layer 1" xmlns="http://www.w3.org/2000/svg" viewBox="0 0 72.41 72.41">
  <defs>
    <style>
      .cls-1 {
        fill: #7e687d;
        stroke-width: 0px;
      }
    </style>
  </defs>
  <path class="cls-1" d="M51.89,41.03c11.33,0,20.52-9.19,20.52-20.52S63.23,0,51.89,0c-8.43,0-15.68,5.09-18.83,12.37-.96-.2-1.92-.3-2.89-.3-8.68,0-15.69,7.45-15.69,16.59v6.34c0,4.53,1.44,9.08,3.77,12.74l-1.22,3.79c-.1.3-.07.62.07.9-4.05.8-8.53,2.61-14.02,5.5-1.89,1-3.08,2.96-3.08,5.1v8.18c0,.67.54,1.21,1.21,1.21h21.72s0,0,0,0h14.48s0,0,0,0h21.72c.67,0,1.21-.54,1.21-1.21v-8.18c0-2.14-1.19-4.11-3.08-5.1-5.49-2.89-9.97-4.7-14.02-5.5.14-.28.16-.6.07-.9l-1.22-3.79c1.46-2.3,2.57-4.96,3.2-7.79,2.07.7,4.3,1.09,6.61,1.09ZM51.89,2.41c10,0,18.1,8.1,18.1,18.1s-8.11,18.1-18.1,18.1c-2.5,0-4.88-.51-7.04-1.42,0,0,0,0,0,0-.19-.08-.38-.16-.57-.25-.03-.02-.07-.03-.1-.05-.18-.09-.36-.17-.54-.27-.02,0-.04-.02-.06-.03-.15-.08-.3-.16-.45-.24-.06-.03-.11-.06-.17-.1-.15-.08-.29-.17-.43-.25-.07-.04-.15-.09-.22-.14-.09-.05-.17-.11-.26-.16-.08-.05-.17-.11-.25-.17-.06-.04-.12-.08-.18-.13-.16-.11-.32-.22-.48-.34-.04-.03-.08-.06-.12-.09-.32-.24-.63-.49-.94-.75-.02-.02-.04-.03-.06-.05-.31-.27-.61-.55-.9-.84-.02-.02-.04-.04-.06-.06-.28-.28-.55-.57-.8-.86-.04-.04-.07-.09-.11-.13-.08-.09-.15-.18-.22-.26-.09-.11-.19-.23-.28-.35-.06-.07-.11-.15-.17-.22-.06-.08-.13-.17-.19-.25-.05-.06-.09-.12-.14-.19-.1-.14-.2-.29-.3-.43-.03-.04-.06-.08-.08-.13-.09-.14-.18-.27-.26-.41-.02-.03-.04-.06-.05-.09-.11-.17-.21-.35-.31-.53,0,0,0-.01-.01-.02-1.17-2.07-1.94-4.39-2.22-6.83,0-.02,0-.05,0-.07-.05-.41-.08-.83-.09-1.25,0-.05,0-.1,0-.15,0-.2-.01-.41-.01-.62,0-.14,0-.28,0-.43,0-.1,0-.19,0-.29,0-.04,0-.07,0-.11.09-1.87.47-3.71,1.13-5.49.03-.07.04-.14.06-.21,2.62-6.78,9.19-11.59,16.89-11.59ZM21.25,51.45c2.07,2.05,4.44,3.41,6.95,3.88l-2.92,5.12-5.14-7.79s0,0,0,0l-.62-.94.51-1.58c.39.46.8.9,1.23,1.32ZM30.17,56.75l2.75,4.8h-5.49l2.74-4.8ZM26.25,63.96h7.83l1.72,6.03h-11.28l1.72-6.03ZM2.41,63.03c0-1.24.69-2.39,1.79-2.97,5.76-3.03,10.31-4.81,14.33-5.44l5.5,8.33-2.01,7.04H2.41v-6.97ZM57.93,63.03v6.97h-19.61l-2.01-7.04,5.5-8.33c4.02.62,8.57,2.4,14.33,5.44,1.1.58,1.79,1.72,1.79,2.97ZM40.84,51.71l-.62.94s0,0,0,0l-5.14,7.79-2.93-5.12c1.92-.36,3.76-1.24,5.44-2.55.13-.1.26-.2.39-.31.01,0,.02-.02.04-.03.82-.68,1.59-1.45,2.32-2.3l.51,1.57ZM39.89,46.69c-.05.05-.1.11-.14.17-.86,1.29-1.81,2.41-2.83,3.33-1.79,1.61-3.82,2.64-5.9,2.87-.04,0-.07,0-.11.01-.05,0-.11,0-.16.01-.06,0-.13,0-.19.01-.03,0-.07,0-.1,0-.1,0-.2,0-.3,0h0c-.11,0-.22,0-.32,0-2.69-.11-5.3-1.61-7.47-3.94-.63-.69-1.23-1.45-1.79-2.29-.04-.06-.09-.11-.13-.16-2.17-3.3-3.57-7.5-3.57-11.7v-6.34c0-7.85,5.96-14.18,13.28-14.18.68,0,1.37.06,2.06.18-.48,1.61-.76,3.3-.83,5.05,0,.04,0,.07,0,.11,0,.23-.01.46-.01.69s0,.45.01.67c0,.06,0,.11,0,.17,0,.2.02.39.03.59,0,.03,0,.05,0,.08.02.23.04.47.06.7,0,.02,0,.03,0,.05.02.23.05.45.09.68,0,0,0,.02,0,.03.38,2.66,1.28,5.16,2.59,7.39.01.02.02.04.04.06.1.18.21.35.32.52.01.02.03.05.04.07.11.18.23.35.35.52.04.05.07.1.11.16.08.12.16.23.25.35.05.07.1.14.15.2.09.12.18.24.28.37.08.11.17.21.25.32.05.07.11.13.16.2.08.1.16.19.24.28.04.04.07.08.11.12.17.2.35.39.53.58.02.02.04.05.06.07.1.11.21.21.31.32.02.02.04.04.06.06.33.32.66.64,1.01.94.02.02.05.04.07.06.33.29.68.57,1.03.83.05.04.1.08.16.12.1.08.21.15.31.23.14.1.27.19.41.29.08.06.16.11.25.16.1.06.2.13.3.19.07.05.15.09.22.14.17.1.34.21.51.3.03.02.07.04.1.06.16.09.33.18.49.27.04.02.08.04.12.06.2.1.4.21.6.3-.58,2.82-1.68,5.46-3.13,7.67Z"/>
  <path class="cls-1" d="M50.69,21.65v9.66c-1.51-.19-2.8-.75-3.62-1.59v-3.16c0-.67-.54-1.21-1.21-1.21s-1.21.54-1.21,1.21v3.59s0,.01,0,.02v3.62c0,.67.54,1.21,1.21,1.21s1.21-.54,1.21-1.21v-1.11c1.06.56,2.29.92,3.62,1.05v1.27c0,.67.54,1.21,1.21,1.21s1.21-.54,1.21-1.21v-1.28c3.98-.49,7.24-3.37,7.24-7.17s-3.28-6.67-7.24-7.17v-9.66c1.54.19,2.79.74,3.62,1.59v3.16c0,.67.54,1.21,1.21,1.21s1.21-.54,1.21-1.21v-3.59s0-.02,0-.02v-3.62c0-.67-.54-1.21-1.21-1.21s-1.21.54-1.21,1.21v1.1c-1.05-.56-2.28-.91-3.62-1.04v-1.27c0-.67-.54-1.21-1.21-1.21s-1.21.54-1.21,1.21v1.28c-3.96.5-7.24,3.4-7.24,7.17,0,3.78,3.27,6.67,7.24,7.17ZM57.93,26.55c0,2.35-2.1,4.28-4.83,4.73v-9.46c2.71.46,4.83,2.4,4.83,4.73ZM50.69,9.76v9.46c-2.72-.45-4.83-2.39-4.83-4.73s2.12-4.27,4.83-4.73Z"/>
</svg>
