<svg xmlns="http://www.w3.org/2000/svg" xmlns:xlink="http://www.w3.org/1999/xlink" width="822" zoomAndPan="magnify" viewBox="0 0 616.5 143.249994" height="191" preserveAspectRatio="xMidYMid meet" version="1.0"><defs><clipPath id="51de4c949c"><path d="M 144.828125 16 L 266 16 L 266 122 L 144.828125 122 Z M 144.828125 16 " clip-rule="nonzero"/></clipPath><clipPath id="c24641233d"><path d="M 176 9.03125 L 194 9.03125 L 194 27 L 176 27 Z M 176 9.03125 " clip-rule="nonzero"/></clipPath><clipPath id="44e8a19b1e"><path d="M 191 116 L 210 116 L 210 133.628906 L 191 133.628906 Z M 191 116 " clip-rule="nonzero"/></clipPath><clipPath id="5042896cf2"><path d="M 268.039062 86.832031 L 399.636719 86.832031 L 399.636719 111.496094 L 268.039062 111.496094 Z M 268.039062 86.832031 " clip-rule="nonzero"/></clipPath></defs><g clip-path="url(#51de4c949c)"><path fill="#391547" d="M 194.65625 16.496094 L 201.863281 16.496094 L 206.1875 16.976562 L 209.433594 17.578125 L 212.796875 18.421875 L 217.121094 19.863281 L 220.003906 21.070312 L 223.246094 22.632812 L 226.128906 24.320312 L 229.011719 26.246094 L 231.535156 28.171875 L 233.097656 29.496094 L 234.539062 30.820312 L 236.339844 32.503906 L 237.179688 33.46875 L 238.742188 35.152344 L 240.0625 36.839844 L 241.503906 38.765625 L 242.945312 40.933594 L 244.386719 43.339844 L 246.191406 46.832031 L 247.511719 49.960938 L 248.710938 53.332031 L 249.671875 56.824219 L 250.394531 60.3125 L 250.875 63.925781 L 251.117188 67.539062 L 251.117188 70.1875 L 250.996094 71.027344 L 250.753906 71.027344 L 250.394531 72.113281 L 249.792969 73.316406 L 248.710938 74.640625 L 247.269531 75.722656 L 245.710938 76.445312 L 244.269531 76.808594 L 242.105469 76.808594 L 240.664062 76.445312 L 238.742188 75.484375 L 237.421875 74.398438 L 236.21875 72.835938 L 235.140625 70.789062 L 234.898438 70.066406 L 234.777344 69.101562 L 234.539062 65.25 L 234.058594 62.359375 L 233.335938 59.351562 L 232.253906 56.101562 L 230.933594 53.089844 L 229.492188 50.441406 L 227.8125 47.914062 L 226.25 45.867188 L 225.046875 44.542969 L 224.207031 43.582031 L 222.765625 42.136719 L 221.804688 41.292969 L 219.882812 39.726562 L 217 37.800781 L 215.078125 36.71875 L 213.15625 35.753906 L 210.273438 34.550781 L 207.148438 33.589844 L 204.507812 32.988281 L 202.105469 32.625 L 198.140625 32.386719 L 195.015625 32.503906 L 191.292969 32.988281 L 188.289062 33.710938 L 185.886719 34.429688 L 182.882812 35.636719 L 180.960938 36.597656 L 179.160156 37.5625 L 176.636719 39.246094 L 175.078125 40.449219 L 173.394531 41.894531 L 172.554688 42.738281 L 171.832031 43.339844 L 170.992188 44.304688 L 169.792969 45.628906 L 168.351562 47.554688 L 166.910156 49.71875 L 165.226562 52.730469 L 163.90625 55.738281 L 162.703125 59.351562 L 161.984375 62.601562 L 161.503906 66.09375 L 161.382812 68.378906 L 161.382812 70.425781 L 161.503906 72.714844 L 161.984375 76.085938 L 162.703125 79.335938 L 163.90625 82.945312 L 165.105469 85.714844 L 166.546875 88.484375 L 167.871094 90.53125 L 169.191406 92.335938 L 170.273438 93.660156 L 171.59375 95.105469 L 172.554688 96.1875 L 173.515625 97.03125 L 174.835938 98.234375 L 177.238281 100.039062 L 179.519531 101.484375 L 181.683594 102.6875 L 183.964844 103.773438 L 187.210938 104.976562 L 190.332031 105.820312 L 193.9375 106.421875 L 197.058594 106.660156 L 199.582031 106.660156 L 202.585938 106.421875 L 205.589844 105.941406 L 208.472656 105.21875 L 211.355469 104.253906 L 214.355469 102.929688 L 216.640625 101.726562 L 218.921875 100.28125 L 220.964844 98.714844 L 222.285156 97.632812 L 224.207031 95.828125 L 225.890625 94.023438 L 227.210938 92.335938 L 228.410156 90.652344 L 228.890625 89.808594 L 229.371094 88.484375 L 230.09375 87.160156 L 231.292969 85.714844 L 232.734375 84.632812 L 234.296875 83.910156 L 235.621094 83.546875 L 236.460938 83.429688 L 238.140625 83.429688 L 239.824219 83.789062 L 241.265625 84.390625 L 243.667969 85.835938 L 247.03125 87.882812 L 250.515625 89.929688 L 252.917969 91.375 L 256.761719 93.660156 L 259.765625 95.464844 L 261.804688 96.671875 L 263.007812 97.753906 L 263.96875 98.835938 L 264.929688 100.644531 L 265.410156 102.449219 L 265.410156 105.097656 L 264.929688 106.902344 L 264.207031 108.347656 L 263.367188 109.429688 L 262.167969 110.632812 L 260.605469 111.597656 L 258.921875 112.199219 L 257.242188 112.441406 L 255.320312 112.320312 L 253.398438 111.71875 L 252.078125 110.996094 L 250.152344 109.792969 L 246.671875 107.746094 L 244.867188 106.660156 L 241.023438 104.375 L 239.222656 103.292969 L 238.742188 103.050781 L 237.300781 104.734375 L 236.101562 105.941406 L 235.257812 106.902344 L 234.058594 107.984375 L 232.496094 109.429688 L 230.8125 110.753906 L 228.773438 112.320312 L 226.609375 113.765625 L 224.207031 115.210938 L 220.964844 116.894531 L 218.320312 118.097656 L 215.078125 119.300781 L 211.953125 120.265625 L 209.550781 120.867188 L 209.3125 120.867188 L 208.589844 119.421875 L 207.75 118.339844 L 207.148438 117.617188 L 205.707031 116.535156 L 203.785156 115.570312 L 201.746094 115.089844 L 199.460938 115.089844 L 197.660156 115.449219 L 195.738281 116.292969 L 194.417969 117.253906 L 193.09375 118.582031 L 192.132812 120.144531 L 191.414062 121.710938 L 189.972656 121.589844 L 186.730469 120.988281 L 182.882812 120.023438 L 179.28125 118.820312 L 176.039062 117.496094 L 173.753906 116.414062 L 171.113281 114.96875 L 168.589844 113.402344 L 166.546875 111.957031 L 164.984375 110.753906 L 163.664062 109.671875 L 161.984375 108.226562 L 160.78125 107.023438 L 159.941406 106.300781 L 159.101562 105.335938 L 158.257812 104.496094 L 157.179688 103.171875 L 155.855469 101.605469 L 154.296875 99.4375 L 153.09375 97.632812 L 151.652344 95.226562 L 150.210938 92.457031 L 149.128906 90.167969 L 147.808594 86.679688 L 146.847656 83.667969 L 146.007812 80.175781 L 145.285156 75.84375 L 145.046875 73.4375 L 144.925781 71.148438 L 144.925781 67.65625 L 145.164062 64.167969 L 145.527344 61.277344 L 146.246094 57.546875 L 147.328125 53.574219 L 148.527344 50.203125 L 149.730469 47.433594 L 150.8125 45.144531 L 152.375 42.375 L 153.816406 40.089844 L 155.257812 38.042969 L 156.578125 36.359375 L 157.898438 34.792969 L 158.980469 33.589844 L 159.820312 32.625 L 161.503906 30.941406 L 162.464844 30.097656 L 163.785156 28.894531 L 165.464844 27.570312 L 167.75 25.882812 L 170.152344 24.320312 L 172.675781 22.875 L 174.714844 21.792969 L 176.15625 21.1875 L 177.117188 23.117188 L 178.078125 24.441406 L 179.039062 25.402344 L 180.722656 26.484375 L 182.523438 27.207031 L 183.605469 27.449219 L 186.609375 27.449219 L 188.410156 26.96875 L 190.332031 26.003906 L 191.414062 25.160156 L 192.496094 24.078125 L 193.574219 22.394531 L 194.175781 20.828125 L 194.535156 19.023438 L 194.535156 16.613281 Z M 194.65625 16.496094 " fill-opacity="1" fill-rule="nonzero"/></g><path fill="#19e4d8" d="M 236.460938 83.429688 L 238.140625 83.429688 L 239.824219 83.789062 L 241.265625 84.390625 L 243.667969 85.835938 L 247.03125 87.882812 L 250.515625 89.929688 L 252.917969 91.375 L 256.761719 93.660156 L 259.765625 95.464844 L 261.804688 96.671875 L 263.007812 97.753906 L 263.96875 98.835938 L 264.929688 100.644531 L 265.410156 102.449219 L 265.410156 105.097656 L 264.929688 106.902344 L 264.207031 108.347656 L 263.367188 109.429688 L 262.167969 110.632812 L 260.605469 111.597656 L 258.921875 112.199219 L 257.242188 112.441406 L 255.320312 112.320312 L 253.398438 111.71875 L 252.078125 110.996094 L 250.152344 109.792969 L 246.671875 107.746094 L 244.867188 106.660156 L 241.023438 104.375 L 239.222656 103.292969 L 238.742188 103.050781 L 237.300781 104.734375 L 236.101562 105.941406 L 235.257812 106.902344 L 234.058594 107.984375 L 232.496094 109.429688 L 230.8125 110.753906 L 228.773438 112.320312 L 226.609375 113.765625 L 224.207031 115.210938 L 220.964844 116.894531 L 218.320312 118.097656 L 215.078125 119.300781 L 211.953125 120.265625 L 209.550781 120.867188 L 209.3125 120.867188 L 208.589844 119.421875 L 207.75 118.339844 L 207.148438 117.617188 L 205.707031 116.535156 L 203.785156 115.570312 L 201.746094 115.089844 L 199.460938 115.089844 L 197.660156 115.449219 L 195.738281 116.292969 L 194.417969 117.253906 L 193.09375 118.582031 L 192.132812 120.144531 L 191.414062 121.710938 L 189.972656 121.589844 L 186.730469 120.988281 L 182.882812 120.023438 L 179.28125 118.820312 L 176.039062 117.496094 L 173.753906 116.414062 L 171.113281 114.96875 L 168.589844 113.402344 L 166.546875 111.957031 L 164.984375 110.753906 L 163.664062 109.671875 L 161.984375 108.226562 L 160.78125 107.023438 L 159.941406 106.300781 L 159.101562 105.335938 L 158.257812 104.496094 L 157.179688 103.171875 L 155.855469 101.605469 L 154.296875 99.4375 L 153.09375 97.632812 L 152.132812 95.949219 L 152.613281 95.949219 L 153.574219 96.789062 L 155.496094 97.753906 L 156.9375 98.113281 L 159.21875 98.113281 L 160.660156 97.753906 L 162.582031 96.789062 L 163.785156 95.707031 L 164.625 94.625 L 165.464844 92.816406 L 165.828125 91.253906 L 165.945312 89.207031 L 165.828125 87.402344 L 166.308594 88.003906 L 167.390625 89.808594 L 168.949219 92.09375 L 170.390625 93.78125 L 172.554688 96.1875 L 173.515625 97.03125 L 174.835938 98.234375 L 177.238281 100.039062 L 179.519531 101.484375 L 181.683594 102.6875 L 183.964844 103.773438 L 187.210938 104.976562 L 190.332031 105.820312 L 193.9375 106.421875 L 197.058594 106.660156 L 199.582031 106.660156 L 202.585938 106.421875 L 205.589844 105.941406 L 208.472656 105.21875 L 211.355469 104.253906 L 214.355469 102.929688 L 216.640625 101.726562 L 218.921875 100.28125 L 220.964844 98.714844 L 222.285156 97.632812 L 224.207031 95.828125 L 225.890625 94.023438 L 227.210938 92.335938 L 228.410156 90.652344 L 228.890625 89.808594 L 229.371094 88.484375 L 230.09375 87.160156 L 231.292969 85.714844 L 232.734375 84.632812 L 234.296875 83.910156 L 235.621094 83.546875 Z M 236.460938 83.429688 " fill-opacity="1" fill-rule="nonzero"/><path fill="#3e64cf" d="M 197.660156 52.851562 L 200.0625 52.96875 L 202.464844 53.453125 L 204.746094 54.292969 L 206.550781 55.257812 L 208.472656 56.703125 L 209.792969 57.90625 L 210.875 59.230469 L 211.953125 60.796875 L 212.914062 62.722656 L 213.515625 64.285156 L 213.996094 66.332031 L 214.117188 67.175781 L 214.117188 71.027344 L 213.636719 73.4375 L 212.914062 75.484375 L 211.953125 77.410156 L 210.753906 79.09375 L 209.671875 80.296875 L 208.351562 81.621094 L 206.308594 83.066406 L 203.785156 84.269531 L 201.265625 84.992188 L 199.820312 85.234375 L 196.21875 85.234375 L 193.695312 84.753906 L 191.414062 83.910156 L 189.371094 82.824219 L 187.449219 81.382812 L 186.488281 80.539062 L 185.648438 79.574219 L 184.445312 78.011719 L 183.246094 75.84375 L 182.402344 73.554688 L 181.921875 71.148438 L 181.804688 69.703125 L 181.804688 68.5 L 182.042969 66.214844 L 182.644531 63.925781 L 183.367188 62.121094 L 184.445312 60.195312 L 185.527344 58.75 L 186.96875 57.183594 L 188.652344 55.859375 L 190.332031 54.777344 L 192.132812 53.933594 L 194.535156 53.210938 L 195.976562 52.96875 Z M 197.660156 52.851562 " fill-opacity="1" fill-rule="nonzero"/><path fill="#000000" d="M 311.777344 42.980469 L 317.304688 42.980469 L 319.707031 43.21875 L 322.109375 43.699219 L 323.910156 44.304688 L 325.832031 45.265625 L 327.152344 46.230469 L 328.476562 47.554688 L 329.4375 49.117188 L 330.035156 50.683594 L 330.398438 52.128906 L 330.515625 52.96875 L 330.515625 56.101562 L 330.035156 58.269531 L 329.074219 60.3125 L 327.996094 61.757812 L 326.554688 63.203125 L 324.75 64.40625 L 323.550781 65.007812 L 324.871094 65.730469 L 326.3125 67.054688 L 327.152344 68.257812 L 328.113281 70.1875 L 328.957031 72.953125 L 330.636719 79.9375 L 331.597656 83.429688 L 331.957031 84.269531 L 331.957031 84.632812 L 330.035156 85.234375 L 327.632812 85.472656 L 325.710938 85.234375 L 323.910156 84.632812 L 323.429688 83.667969 L 322.347656 79.9375 L 321.269531 75 L 320.667969 72.59375 L 319.945312 70.667969 L 319.105469 69.464844 L 318.144531 68.621094 L 316.941406 68.140625 L 315.5 67.898438 L 312.136719 67.777344 L 312.136719 84.511719 L 311.175781 84.992188 L 309.375 85.355469 L 307.09375 85.355469 L 304.929688 84.871094 L 304.210938 84.511719 L 304.210938 43.820312 L 306.253906 43.460938 L 309.855469 43.097656 Z M 314.300781 48.996094 L 312.378906 49.238281 L 312.136719 49.359375 L 312.136719 61.878906 L 316.703125 61.878906 L 318.625 61.398438 L 320.066406 60.675781 L 321.269531 59.59375 L 321.988281 58.507812 L 322.46875 57.183594 L 322.589844 56.582031 L 322.589844 54.054688 L 322.230469 52.609375 L 321.507812 51.285156 L 320.546875 50.320312 L 319.464844 49.71875 L 318.144531 49.238281 L 316.460938 48.996094 Z M 314.300781 48.996094 " fill-opacity="1" fill-rule="nonzero"/><path fill="#000001" d="M 284.628906 42.859375 L 288.472656 42.859375 L 291.597656 43.21875 L 293.878906 43.699219 L 296.160156 44.542969 L 296.761719 45.988281 L 296.882812 46.46875 L 296.882812 47.914062 L 296.402344 49.117188 L 295.679688 50.082031 L 294.601562 51.042969 L 293.878906 50.925781 L 292.078125 50.320312 L 290.394531 49.960938 L 287.992188 49.71875 L 285.472656 49.71875 L 283.066406 50.082031 L 281.386719 50.5625 L 279.464844 51.527344 L 278.261719 52.367188 L 277.183594 53.332031 L 275.980469 54.898438 L 275.019531 56.824219 L 274.300781 58.988281 L 273.9375 60.796875 L 273.820312 61.878906 L 273.820312 66.332031 L 274.058594 68.140625 L 274.660156 70.546875 L 275.5 72.472656 L 276.339844 73.917969 L 277.421875 75.242188 L 278.503906 76.203125 L 280.066406 77.167969 L 281.507812 77.769531 L 283.429688 78.25 L 284.269531 78.371094 L 287.03125 78.371094 L 288.714844 78.132812 L 289.433594 77.890625 L 289.554688 67.777344 L 283.667969 67.777344 L 283.1875 67.054688 L 282.707031 65.492188 L 282.707031 63.804688 L 283.1875 62.242188 L 283.667969 61.519531 L 297.121094 61.519531 L 297.121094 82.945312 L 295.921875 83.429688 L 293.160156 84.148438 L 290.636719 84.632812 L 287.273438 84.992188 L 283.546875 84.992188 L 281.144531 84.753906 L 278.625 84.269531 L 276.101562 83.429688 L 274.179688 82.464844 L 272.859375 81.621094 L 271.65625 80.660156 L 270.335938 79.457031 L 269.015625 77.769531 L 267.933594 75.964844 L 267.089844 74.160156 L 266.128906 71.269531 L 265.648438 68.980469 L 265.410156 67.054688 L 265.289062 63.683594 L 265.53125 60.433594 L 266.128906 57.425781 L 266.972656 54.898438 L 268.054688 52.609375 L 268.894531 51.285156 L 270.09375 49.71875 L 271.535156 48.15625 L 272.859375 47.070312 L 274.417969 45.988281 L 277.183594 44.542969 L 280.066406 43.582031 L 282.46875 43.097656 Z M 284.628906 42.859375 " fill-opacity="1" fill-rule="nonzero"/><path fill="#3e64cf" d="M 236.460938 83.429688 L 238.140625 83.429688 L 239.824219 83.789062 L 241.265625 84.390625 L 243.667969 85.835938 L 247.03125 87.882812 L 250.515625 89.929688 L 252.917969 91.375 L 256.761719 93.660156 L 259.765625 95.464844 L 261.804688 96.671875 L 263.007812 97.753906 L 263.96875 98.835938 L 264.929688 100.644531 L 265.410156 102.449219 L 265.410156 105.097656 L 264.929688 106.902344 L 264.207031 108.347656 L 263.367188 109.429688 L 262.167969 110.632812 L 260.605469 111.597656 L 258.921875 112.199219 L 257.242188 112.441406 L 255.320312 112.320312 L 253.398438 111.71875 L 252.078125 110.996094 L 250.152344 109.792969 L 246.671875 107.746094 L 244.867188 106.660156 L 241.023438 104.375 L 239.222656 103.292969 L 235.738281 101.246094 L 233.335938 99.800781 L 232.015625 98.957031 L 230.8125 97.875 L 229.972656 96.789062 L 229.132812 95.105469 L 228.652344 93.300781 L 228.652344 90.769531 L 229.011719 89.328125 L 229.972656 87.402344 L 230.695312 86.4375 L 231.292969 85.714844 L 232.734375 84.632812 L 234.296875 83.910156 L 235.621094 83.546875 Z M 236.460938 83.429688 " fill-opacity="1" fill-rule="nonzero"/><path fill="#000000" d="M 337.125 43.339844 L 359.347656 43.339844 L 360.066406 44.304688 L 360.546875 45.507812 L 360.667969 46.710938 L 360.308594 48.394531 L 359.46875 49.839844 L 359.347656 49.960938 L 345.050781 49.960938 L 345.050781 59.953125 L 358.625 59.953125 L 359.347656 61.519531 L 359.585938 62.601562 L 359.585938 63.683594 L 359.226562 65.128906 L 358.625 66.332031 L 358.507812 66.453125 L 345.050781 66.453125 L 345.050781 77.890625 L 360.1875 77.890625 L 360.667969 78.851562 L 361.027344 80.296875 L 361.027344 82.222656 L 360.546875 83.910156 L 360.1875 84.511719 L 337.125 84.511719 Z M 337.125 43.339844 " fill-opacity="1" fill-rule="nonzero"/><path fill="#000000" d="M 366.3125 43.339844 L 388.539062 43.339844 L 389.136719 44.542969 L 389.378906 45.386719 L 389.5 46.953125 L 389.257812 48.394531 L 388.539062 49.960938 L 374.242188 49.960938 L 374.242188 59.953125 L 387.695312 59.953125 L 388.296875 61.15625 L 388.65625 62.84375 L 388.539062 64.40625 L 388.058594 65.851562 L 387.695312 66.453125 L 374.242188 66.453125 L 374.242188 77.890625 L 389.378906 77.890625 L 389.980469 79.695312 L 390.097656 80.417969 L 390.097656 82.222656 L 389.738281 83.789062 L 389.378906 84.511719 L 366.3125 84.511719 Z M 366.3125 43.339844 " fill-opacity="1" fill-rule="nonzero"/><g clip-path="url(#c24641233d)"><path fill="#391548" d="M 184.445312 9.03125 L 185.886719 9.03125 L 187.691406 9.390625 L 189.25 9.992188 L 190.691406 10.957031 L 192.253906 12.523438 L 193.214844 14.207031 L 193.816406 16.011719 L 193.9375 16.734375 L 193.9375 19.023438 L 193.457031 20.949219 L 192.613281 22.632812 L 191.773438 23.71875 L 190.691406 24.800781 L 189.371094 25.644531 L 188.050781 26.246094 L 186.609375 26.605469 L 184.6875 26.726562 L 182.644531 26.367188 L 181.203125 25.765625 L 180 25.042969 L 178.800781 23.957031 L 177.839844 22.875 L 176.878906 20.949219 L 176.398438 19.144531 L 176.398438 16.613281 L 176.878906 14.6875 L 177.839844 12.882812 L 178.921875 11.558594 L 180.480469 10.355469 L 182.164062 9.511719 L 183.605469 9.152344 Z M 184.445312 9.03125 " fill-opacity="1" fill-rule="nonzero"/></g><g clip-path="url(#44e8a19b1e)"><path fill="#19e5d9" d="M 199.222656 116.050781 L 202.105469 116.050781 L 203.90625 116.535156 L 205.707031 117.496094 L 207.148438 118.820312 L 207.992188 119.785156 L 208.953125 121.710938 L 209.433594 123.515625 L 209.433594 126.042969 L 208.953125 127.851562 L 207.992188 129.777344 L 206.910156 131.101562 L 205.589844 132.183594 L 203.667969 133.148438 L 202.226562 133.507812 L 201.382812 133.628906 L 199.941406 133.628906 L 198.019531 133.265625 L 196.339844 132.542969 L 195.015625 131.582031 L 194.175781 130.859375 L 193.09375 129.414062 L 192.375 127.851562 L 191.894531 125.921875 L 191.894531 123.636719 L 192.375 121.710938 L 193.214844 120.023438 L 194.175781 118.820312 L 195.136719 117.859375 L 196.457031 117.015625 L 197.78125 116.414062 Z M 199.222656 116.050781 " fill-opacity="1" fill-rule="nonzero"/></g><path fill="#04060d" d="M 329.074219 88.726562 L 330.035156 88.726562 L 331.117188 91.613281 L 331.359375 91.375 L 332.320312 88.726562 L 333.28125 88.726562 L 333.28125 92.9375 L 332.679688 92.816406 L 332.679688 89.6875 L 331.476562 92.816406 L 330.996094 92.9375 L 330.398438 91.492188 L 329.675781 89.566406 L 329.675781 92.9375 L 329.074219 92.9375 Z M 329.074219 88.726562 " fill-opacity="1" fill-rule="nonzero"/><path fill="#03050b" d="M 276.460938 88.605469 L 277.300781 88.605469 L 278.144531 88.964844 L 278.742188 89.566406 L 278.742188 89.808594 L 278.023438 89.808594 L 277.542969 89.445312 L 276.582031 89.328125 L 275.859375 89.6875 L 275.5 90.289062 L 275.5 91.375 L 275.859375 91.976562 L 276.339844 92.214844 L 277.421875 92.214844 L 278.144531 91.613281 L 278.261719 91.375 L 276.460938 91.375 L 276.339844 90.890625 L 276.460938 90.769531 L 278.984375 90.769531 L 278.863281 91.734375 L 278.261719 92.578125 L 277.542969 92.9375 L 276.222656 92.9375 L 275.378906 92.457031 L 274.898438 91.855469 L 274.660156 90.769531 L 274.898438 89.808594 L 275.621094 88.964844 Z M 276.460938 88.605469 " fill-opacity="1" fill-rule="nonzero"/><path fill="#04060e" d="M 378.207031 88.605469 L 379.046875 88.605469 L 379.886719 88.964844 L 380.488281 89.566406 L 380.847656 90.410156 L 380.730469 91.613281 L 380.25 92.335938 L 379.648438 92.816406 L 379.289062 92.9375 L 377.964844 92.9375 L 377.246094 92.457031 L 376.644531 91.734375 L 376.523438 91.253906 L 376.523438 90.289062 L 377.003906 89.328125 L 377.847656 88.726562 Z M 378.328125 89.207031 L 377.726562 89.566406 L 377.246094 90.167969 L 377.125 91.132812 L 377.484375 91.855469 L 378.085938 92.335938 L 379.289062 92.335938 L 379.886719 91.855469 L 380.25 90.769531 L 380.007812 89.929688 L 379.289062 89.328125 Z M 378.328125 89.207031 " fill-opacity="1" fill-rule="nonzero"/><path fill="#04060e" d="M 344.8125 88.605469 L 345.652344 88.605469 L 346.613281 89.085938 L 347.09375 89.6875 L 347.335938 90.289062 L 347.335938 91.375 L 346.972656 92.09375 L 346.132812 92.816406 L 345.894531 92.9375 L 344.570312 92.9375 L 343.851562 92.578125 L 343.25 91.855469 L 343.011719 91.011719 L 343.128906 90.050781 L 343.609375 89.328125 L 344.332031 88.726562 Z M 344.933594 89.207031 L 344.210938 89.566406 L 343.851562 89.929688 L 343.730469 90.289062 L 343.730469 91.375 L 344.210938 92.09375 L 344.691406 92.335938 L 345.773438 92.335938 L 346.492188 91.734375 L 346.734375 91.132812 L 346.613281 90.050781 L 345.894531 89.328125 Z M 344.933594 89.207031 " fill-opacity="1" fill-rule="nonzero"/><path fill="#090f1f" d="M 381.328125 88.726562 L 382.050781 88.726562 L 383.972656 91.613281 L 384.09375 88.726562 L 384.691406 88.726562 L 384.691406 92.816406 L 384.09375 92.9375 L 383.132812 91.613281 L 382.050781 89.929688 L 381.929688 92.9375 L 381.328125 92.816406 Z M 381.328125 88.726562 " fill-opacity="1" fill-rule="nonzero"/><path fill="#010204" d="M 350.9375 88.726562 L 351.660156 88.726562 L 352.859375 90.652344 L 353.460938 91.492188 L 353.582031 88.726562 L 354.183594 88.726562 L 354.183594 92.9375 L 353.582031 92.9375 L 352.019531 90.53125 L 351.660156 89.929688 L 351.539062 92.9375 L 350.9375 92.9375 Z M 350.9375 88.726562 " fill-opacity="1" fill-rule="nonzero"/><path fill="#020409" d="M 337.003906 88.726562 L 337.605469 88.726562 L 338.566406 90.050781 L 339.527344 91.613281 L 339.648438 88.726562 L 340.246094 88.726562 L 340.246094 92.9375 L 339.648438 92.9375 L 337.726562 90.050781 L 337.726562 89.808594 L 337.484375 89.808594 L 337.605469 90.167969 L 337.605469 92.9375 L 337.003906 92.9375 Z M 337.003906 88.726562 " fill-opacity="1" fill-rule="nonzero"/><path fill="#03060c" d="M 282.46875 88.726562 L 283.1875 88.726562 L 284.75 91.132812 L 284.992188 91.734375 L 285.230469 91.734375 L 285.109375 90.769531 L 285.109375 88.726562 L 285.710938 88.726562 L 285.710938 92.9375 L 285.109375 92.9375 L 283.667969 90.652344 L 283.1875 89.929688 L 283.066406 92.9375 L 282.46875 92.9375 Z M 282.46875 88.726562 " fill-opacity="1" fill-rule="nonzero"/><path fill="#020307" d="M 363.429688 88.726562 L 364.152344 88.726562 L 366.074219 91.613281 L 366.074219 88.726562 L 366.675781 88.726562 L 366.675781 92.9375 L 366.074219 92.816406 L 364.152344 89.929688 L 364.03125 92.9375 L 363.429688 92.9375 Z M 363.429688 88.726562 " fill-opacity="1" fill-rule="nonzero"/><path fill="#03040a" d="M 297.484375 88.726562 L 299.523438 88.726562 L 300.484375 89.328125 L 300.964844 90.289062 L 300.964844 91.375 L 300.605469 92.09375 L 299.765625 92.816406 L 299.285156 92.9375 L 297.484375 92.9375 Z M 298.082031 89.328125 L 298.082031 92.335938 L 299.40625 92.335938 L 300.003906 91.976562 L 300.367188 91.253906 L 300.367188 90.410156 L 300.003906 89.6875 L 299.40625 89.328125 Z M 298.082031 89.328125 " fill-opacity="1" fill-rule="nonzero"/><path fill="#020408" d="M 306.132812 88.726562 L 308.054688 88.726562 L 308.65625 89.085938 L 308.894531 89.566406 L 308.894531 90.53125 L 308.414062 91.132812 L 307.8125 91.253906 L 308.894531 92.816406 L 308.894531 92.9375 L 308.175781 92.9375 L 307.214844 91.734375 L 306.851562 91.132812 L 306.734375 92.9375 L 306.132812 92.9375 Z M 306.734375 89.328125 L 306.734375 90.890625 L 307.574219 90.890625 L 308.175781 90.652344 L 308.292969 90.410156 L 308.292969 89.6875 L 307.933594 89.328125 Z M 306.734375 89.328125 " fill-opacity="1" fill-rule="nonzero"/><path fill="#070b18" d="M 316.824219 88.726562 L 318.746094 88.726562 L 319.464844 89.207031 L 319.585938 89.445312 L 319.585938 90.652344 L 318.867188 91.253906 L 318.503906 91.253906 L 319.585938 92.699219 L 319.585938 92.9375 L 318.867188 92.9375 L 317.664062 91.253906 L 317.421875 91.132812 L 317.421875 92.9375 L 316.824219 92.816406 Z M 317.421875 89.328125 L 317.421875 90.769531 L 317.542969 90.890625 L 318.382812 90.890625 L 318.984375 90.53125 L 318.984375 89.566406 L 318.625 89.328125 Z M 317.421875 89.328125 " fill-opacity="1" fill-rule="nonzero"/><path fill="#060914" d="M 360.1875 88.726562 L 361.988281 88.726562 L 362.710938 89.207031 L 362.832031 89.445312 L 362.832031 90.652344 L 362.109375 91.253906 L 361.75 91.253906 L 362.832031 92.699219 L 362.832031 92.9375 L 362.109375 92.9375 L 360.910156 91.253906 L 360.789062 92.816406 L 360.1875 92.9375 L 360.066406 92.699219 Z M 360.789062 89.328125 L 360.789062 90.890625 L 361.628906 90.890625 L 362.230469 90.53125 L 362.351562 89.929688 L 362.109375 89.445312 L 361.871094 89.328125 Z M 360.789062 89.328125 " fill-opacity="1" fill-rule="nonzero"/><path fill="#050812" d="M 272.496094 88.726562 L 273.21875 88.726562 L 274.78125 92.816406 L 274.78125 92.9375 L 274.058594 92.9375 L 273.699219 91.734375 L 272.015625 91.855469 L 271.535156 92.9375 L 270.9375 92.9375 L 271.296875 91.734375 Z M 272.738281 89.566406 L 272.257812 90.890625 L 272.257812 91.132812 L 273.339844 91.132812 L 273.21875 90.410156 L 272.859375 89.566406 Z M 272.738281 89.566406 " fill-opacity="1" fill-rule="nonzero"/><path fill="#050811" d="M 293.398438 88.726562 L 294 88.726562 L 295.320312 91.976562 L 295.5625 92.578125 L 295.5625 92.9375 L 294.960938 92.9375 L 294.480469 91.855469 L 292.796875 91.734375 L 292.4375 92.816406 L 292.316406 92.9375 L 291.71875 92.9375 L 292.4375 90.890625 L 293.277344 88.84375 Z M 293.640625 89.566406 L 293.160156 90.652344 L 293.160156 91.132812 L 294.238281 91.132812 L 293.878906 89.929688 Z M 293.640625 89.566406 " fill-opacity="1" fill-rule="nonzero"/><path fill="#050811" d="M 326.554688 88.726562 L 327.273438 88.726562 L 328.835938 92.816406 L 328.835938 92.9375 L 328.113281 92.9375 L 327.753906 91.734375 L 326.074219 91.855469 L 325.59375 92.9375 L 324.992188 92.9375 L 325.351562 91.734375 Z M 326.792969 89.566406 L 326.3125 90.890625 L 326.3125 91.132812 L 327.394531 91.132812 L 327.273438 90.410156 L 326.914062 89.566406 Z M 326.792969 89.566406 " fill-opacity="1" fill-rule="nonzero"/><path fill="#04070f" d="M 386.375 88.726562 L 387.097656 88.726562 L 388.296875 91.734375 L 388.65625 92.9375 L 388.058594 92.9375 L 387.578125 91.855469 L 385.894531 91.734375 L 385.535156 92.816406 L 385.414062 92.9375 L 384.8125 92.9375 L 385.535156 90.890625 Z M 386.734375 89.566406 L 386.253906 90.652344 L 386.253906 91.132812 L 387.335938 91.132812 L 386.976562 89.929688 Z M 386.734375 89.566406 " fill-opacity="1" fill-rule="nonzero"/><path fill="#040710" d="M 368.476562 88.726562 L 369.199219 88.726562 L 370.757812 92.699219 L 370.757812 92.9375 L 370.160156 92.9375 L 369.679688 91.855469 L 367.996094 91.734375 L 367.636719 92.816406 L 367.515625 92.9375 L 366.914062 92.9375 L 367.273438 91.855469 Z M 368.835938 89.566406 L 368.355469 90.652344 L 368.355469 91.132812 L 369.4375 91.132812 L 369.078125 89.929688 Z M 368.835938 89.566406 " fill-opacity="1" fill-rule="nonzero"/><path fill="#03050c" d="M 287.992188 88.605469 L 288.835938 88.605469 L 289.675781 88.964844 L 290.277344 89.566406 L 290.277344 89.808594 L 289.554688 89.808594 L 289.074219 89.445312 L 288.113281 89.328125 L 287.394531 89.6875 L 287.03125 90.410156 L 287.152344 91.492188 L 287.632812 92.09375 L 287.875 92.214844 L 289.074219 92.214844 L 289.554688 91.855469 L 290.277344 91.855469 L 290.035156 92.335938 L 289.433594 92.816406 L 289.195312 92.9375 L 287.753906 92.9375 L 287.03125 92.457031 L 286.433594 91.734375 L 286.3125 91.375 L 286.3125 90.289062 L 286.792969 89.328125 L 287.394531 88.84375 Z M 287.992188 88.605469 " fill-opacity="1" fill-rule="nonzero"/><path fill="#03050c" d="M 372.441406 88.605469 L 373.28125 88.605469 L 374.121094 88.964844 L 374.722656 89.566406 L 374.722656 89.808594 L 374.003906 89.808594 L 373.523438 89.445312 L 372.5625 89.328125 L 371.839844 89.6875 L 371.480469 90.410156 L 371.480469 91.253906 L 371.960938 91.976562 L 372.320312 92.214844 L 373.402344 92.214844 L 374.003906 91.855469 L 374.722656 91.855469 L 374.363281 92.457031 L 373.640625 92.9375 L 372.199219 92.9375 L 371.238281 92.335938 L 370.757812 91.375 L 370.757812 90.167969 L 371.359375 89.207031 L 372.082031 88.726562 Z M 372.441406 88.605469 " fill-opacity="1" fill-rule="nonzero"/><path fill="#03060c" d="M 313.941406 88.605469 L 314.78125 88.605469 L 315.621094 88.964844 L 316.222656 89.566406 L 316.222656 89.808594 L 315.5 89.808594 L 315.019531 89.445312 L 314.058594 89.328125 L 313.339844 89.6875 L 312.980469 90.410156 L 312.980469 91.253906 L 313.460938 91.976562 L 313.820312 92.214844 L 314.902344 92.214844 L 315.5 91.855469 L 316.222656 91.855469 L 315.863281 92.457031 L 315.140625 92.9375 L 313.699219 92.9375 L 312.738281 92.335938 L 312.257812 91.375 L 312.257812 90.167969 L 312.859375 89.207031 L 313.578125 88.726562 Z M 313.941406 88.605469 " fill-opacity="1" fill-rule="nonzero"/><path fill="#010204" d="M 320.1875 88.726562 L 320.789062 88.726562 L 320.90625 92.214844 L 321.988281 92.214844 L 322.109375 91.976562 L 322.230469 88.726562 L 322.828125 88.726562 L 322.828125 92.214844 L 322.347656 92.816406 L 322.109375 92.9375 L 320.90625 92.9375 L 320.308594 92.457031 L 320.1875 92.09375 Z M 320.1875 88.726562 " fill-opacity="1" fill-rule="nonzero"/><path fill="#03060c" d="M 334 88.726562 L 336.285156 88.726562 L 336.164062 89.328125 L 334.722656 89.328125 L 334.601562 90.53125 L 336.164062 90.53125 L 336.285156 91.011719 L 336.042969 91.132812 L 334.722656 91.132812 L 334.601562 92.335938 L 336.164062 92.335938 L 336.285156 92.816406 L 336.164062 92.9375 L 334 92.9375 Z M 334 88.726562 " fill-opacity="1" fill-rule="nonzero"/><path fill="#020408" d="M 301.566406 88.726562 L 303.730469 88.726562 L 303.609375 89.328125 L 302.167969 89.328125 L 302.167969 90.53125 L 303.730469 90.53125 L 303.609375 91.132812 L 302.289062 91.132812 L 302.167969 92.335938 L 303.730469 92.335938 L 303.730469 92.9375 L 301.566406 92.9375 Z M 301.566406 88.726562 " fill-opacity="1" fill-rule="nonzero"/><path fill="#020307" d="M 357.183594 88.726562 L 359.347656 88.726562 L 359.347656 89.328125 L 357.90625 89.328125 L 357.785156 90.53125 L 359.347656 90.53125 L 359.347656 91.011719 L 357.90625 91.132812 L 357.785156 92.335938 L 359.347656 92.335938 L 359.347656 92.9375 L 357.183594 92.9375 Z M 357.183594 88.726562 " fill-opacity="1" fill-rule="nonzero"/><path fill="#020307" d="M 279.585938 88.726562 L 281.746094 88.726562 L 281.625 89.328125 L 280.183594 89.328125 L 280.183594 90.53125 L 281.746094 90.53125 L 281.746094 91.011719 L 280.304688 91.132812 L 280.183594 92.335938 L 281.746094 92.335938 L 281.746094 92.9375 L 279.585938 92.9375 Z M 279.585938 88.726562 " fill-opacity="1" fill-rule="nonzero"/><path fill="#020306" d="M 309.496094 88.726562 L 311.65625 88.726562 L 311.539062 89.328125 L 310.214844 89.328125 L 310.097656 90.53125 L 311.65625 90.53125 L 311.65625 91.011719 L 310.214844 91.132812 L 310.097656 92.335938 L 311.65625 92.335938 L 311.65625 92.9375 L 309.496094 92.9375 Z M 309.496094 88.726562 " fill-opacity="1" fill-rule="nonzero"/><path fill="#050811" d="M 323.191406 88.726562 L 325.472656 88.726562 L 325.351562 89.328125 L 324.632812 89.328125 L 324.632812 92.9375 L 324.03125 92.9375 L 324.03125 89.328125 L 323.308594 89.328125 Z M 323.191406 88.726562 " fill-opacity="1" fill-rule="nonzero"/><path fill="#04070f" d="M 340.609375 88.726562 L 342.769531 88.726562 L 342.890625 89.207031 L 342.769531 89.328125 L 342.050781 89.328125 L 342.050781 92.9375 L 341.449219 92.9375 L 341.449219 89.328125 L 340.726562 89.328125 Z M 340.609375 88.726562 " fill-opacity="1" fill-rule="nonzero"/><path fill="#03050a" d="M 354.664062 88.726562 L 356.824219 88.726562 L 356.703125 89.328125 L 355.984375 89.328125 L 355.984375 92.9375 L 355.382812 92.9375 L 355.382812 89.328125 L 354.664062 89.328125 Z M 354.664062 88.726562 " fill-opacity="1" fill-rule="nonzero"/><path fill="#000001" d="M 388.898438 88.726562 L 389.5 88.726562 L 389.5 92.335938 L 390.941406 92.335938 L 390.941406 92.9375 L 388.898438 92.9375 Z M 388.898438 88.726562 " fill-opacity="1" fill-rule="nonzero"/><path fill="#0c142a" d="M 290.996094 88.726562 L 291.597656 88.726562 L 291.597656 92.816406 L 290.996094 92.9375 L 290.875 92.699219 L 290.875 88.84375 Z M 290.996094 88.726562 " fill-opacity="1" fill-rule="nonzero"/><path fill="#000001" d="M 349.617188 88.726562 L 350.21875 88.726562 L 350.21875 92.9375 L 349.617188 92.9375 Z M 349.617188 88.726562 " fill-opacity="1" fill-rule="nonzero"/><path fill="#0c1328" d="M 375.324219 88.726562 L 375.925781 88.726562 L 375.925781 92.9375 L 375.324219 92.816406 Z M 375.324219 88.726562 " fill-opacity="1" fill-rule="nonzero"/><path fill="#0a1123" d="M 280.304688 87.28125 L 280.90625 87.28125 L 281.386719 88.003906 L 281.386719 88.363281 L 280.90625 88.121094 L 280.785156 87.882812 L 279.824219 88.363281 L 280.066406 87.761719 Z M 280.304688 87.28125 " fill-opacity="1" fill-rule="nonzero"/><g clip-path="url(#5042896cf2)"><path fill="#ffffff" d="M 268.039062 86.832031 L 399.660156 86.832031 L 399.660156 111.496094 L 268.039062 111.496094 Z M 268.039062 86.832031 " fill-opacity="1" fill-rule="nonzero"/></g></svg>