<svg version="1.2" xmlns="http://www.w3.org/2000/svg" viewBox="0 0 165 52" width="165" height="52">
	<title>poweredby_logo-svg</title>
	<style>
		.s0 { fill: #ffffff } 
	</style>
	<g id="Layer">
		<path id="Layer" class="s0" d="m1.8 24.6h4l3.3 4.7c1.2 1.7 3.8 5.5 3.8 5.5 0 0 2.6-3.7 3.8-5.5l3.3-4.8h4v21.2h-4.6v-13.4c0 0-0.8 1.3-1.9 2.9l-4.6 6.6-4.7-6.6c-1.1-1.5-1.9-2.9-1.9-2.9v13.4h-4.6v-21.2z"/>
		<path id="Layer" fill-rule="evenodd" class="s0" d="m26.1 37.7c0-4.7 2.9-8.5 7.4-8.5 4.5 0 3.9 0.8 5.1 2.3v-2h4.3v16.4h-4.3v-2c-1.2 1.6-3.2 2.3-5.1 2.3-4.5 0-7.4-3.8-7.4-8.5zm12.4 0c0-2.6-1.6-4.4-3.9-4.4-2.3 0-4.1 1.9-4.1 4.4 0 2.5 1.7 4.4 4.1 4.4 2.3 0 3.9-1.8 3.9-4.4z"/>
		<path id="Layer" class="s0" d="m45 29.5h4.3v2.2c1.3-1.8 3.2-2.5 5.2-2.5 4.3 0 5.8 2.8 5.8 7.3v9.4h-4.4v-8.9c0-2.4-0.6-3.7-2.8-3.7-2.2 0-3.7 1.8-3.7 4.3v8.3h-4.4z"/>
		<path id="Layer" class="s0" d="m63.8 46.7c2 0 2.8-0.7 3.4-2l0.4-0.7-6.8-14.5h4.4l3.3 7.7c0.5 1.2 1.1 2.8 1.1 2.8 0 0 0.7-1.9 1.1-2.9l3-7.6h4.4l-7.3 16.8c-1.8 4-4.8 4.4-6.9 4.4v-4z"/>
		<path id="Layer" class="s0" d="m80.2 29.5h4.3v2.2c0.9-1.5 2.9-2.5 4.9-2.5 2 0 4.2 1.1 5 2.9 1.2-2 3.4-2.9 5.3-2.9 4.6 0 6.1 3.2 6.1 7.4v9.3h-4.4v-8.8c0-2.2-0.5-3.8-2.9-3.8-2.4 0-3.3 1.7-3.3 3.9v8.6h-4.4v-8.8c0-2.2-0.5-3.8-2.9-3.8-2.4 0-3.3 1.9-3.3 4.1v8.5h-4.4v-16.4z"/>
		<path id="Layer" class="s0" d="m107.4 24.9c0-1.4 1.2-2.6 2.6-2.6 1.4 0 2.6 1.2 2.6 2.6 0 1.4-1.2 2.6-2.6 2.6-1.4 0-2.6-1.2-2.6-2.6zm0.5 4.6h4.4v16.4h-4.4z"/>
		<path id="Layer" class="s0" d="m114.3 29.5h4.3v2.2c1.3-1.8 3.2-2.5 5.2-2.5 4.3 0 5.8 2.8 5.8 7.3v9.4h-4.4v-8.9c0-2.4-0.6-3.7-2.9-3.7-2.3 0-3.7 1.8-3.7 4.3v8.3h-4.4v-16.4z"/>
		<path id="Layer" fill-rule="evenodd" class="s0" d="m131.7 37.7c0-4.7 2.9-8.5 7.5-8.5 4.6 0 3.8 0.8 4.9 2.2v-7h4.4v21.6h-4.2v-2c-1.2 1.6-3.3 2.3-5.2 2.3-4.5 0-7.4-3.8-7.4-8.5zm12.4 0c0-2.6-1.6-4.4-3.9-4.4-2.3 0-4.1 1.9-4.1 4.4 0 2.5 1.7 4.4 4.1 4.4 2.3 0 3.9-1.8 3.9-4.4z"/>
		<path id="Layer" class="s0" d="m149.9 43.9l1.6-3.4c1.1 0.8 2.6 1.7 5.1 1.7 2.5 0 2.7-0.4 2.7-1.4 0-1-1.4-1.2-2.8-1.6-3.2-0.8-5.9-1.9-5.9-5.1 0-3.2 3.3-5.1 6.4-5.1 3.1 0 4.4 0.7 6.1 1.6l-1.5 3.3c-1.6-0.8-3.1-1.2-4.6-1.2-1.5 0-2 0.5-2 1.2 0 0.7 1.4 1.2 2.9 1.5 2.8 0.7 5.8 1.9 5.8 5.2 0 3.3-4.1 5.4-7.1 5.4-3.5 0-5.8-1.4-6.7-2.2z"/>
	</g>
	<g id="Layer">
		<path id="Layer" fill-rule="evenodd" class="s0" d="m10 11.1c0 1.4-0.3 2.6-1 3.4-0.7 0.9-1.5 1.3-2.6 1.3-1.1 0-1.8-0.3-2.5-1v4.4h-2.1v-12.9h1.9v1c0.7-0.7 1.5-1.1 2.6-1.1 1.1 0 2 0.4 2.7 1.3 0.6 0.8 1 2 1 3.5zm-2.1-0.2c0-0.9-0.2-1.7-0.6-2.2-0.4-0.5-0.9-0.8-1.6-0.8-0.7 0-1.5 0.3-1.8 1.1v4.1c0.4 0.7 1 1.1 1.9 1.1 0.9 0 1.2-0.3 1.6-0.8q0.6-0.8 0.6-2.4z"/>
		<path id="Layer" fill-rule="evenodd" class="s0" d="m11.3 10.9c0-0.9 0.2-1.7 0.5-2.5 0.3-0.8 0.9-1.3 1.5-1.7 0.7-0.4 1.4-0.6 2.2-0.6 1.2 0 2.3 0.4 3.1 1.2 0.8 0.8 1.2 1.9 1.3 3.2v0.5c0 0.9-0.2 1.7-0.5 2.5-0.3 0.7-0.9 1.3-1.5 1.7-0.7 0.4-1.4 0.6-2.3 0.6-1.3 0-2.4-0.4-3.2-1.3-0.8-0.9-1.2-2-1.2-3.5zm2.1 0.2c0 1 0.2 1.7 0.6 2.2 0.4 0.5 0.9 0.8 1.7 0.8 0.8 0 1.2-0.3 1.6-0.8q0.6-0.7 0.6-2.4c0-1.1-0.2-1.7-0.6-2.2-0.4-0.5-0.9-0.8-1.7-0.8-0.8 0-1.2 0.3-1.6 0.8q-0.6 0.8-0.6 2.4z"/>
		<path id="Layer" class="s0" d="m29.9 12.8l1.5-6.4h2l-2.5 9.3h-1.7l-2-6.4-2 6.4h-1.7l-2.5-9.3h2l1.5 6.3 1.9-6.3h1.6z"/>
		<path id="Layer" fill-rule="evenodd" class="s0" d="m38.8 15.8q0 0 0 0 0.1 0 0.1 0zm-3.1-1.2q-1.2-1.2-1.2-3.3v-0.3c0-0.9 0.2-1.8 0.5-2.5 0.4-0.7 0.9-1.3 1.5-1.7 0.6-0.4 1.4-0.6 2.2-0.6 1.3 0 2.2 0.4 2.9 1.2 0.7 0.8 1 2 1 3.4v0.8h-6.1c0 0.8 0.3 1.4 0.8 1.8 0.5 0.4 1 0.7 1.7 0.7 0.7 0 1.7-0.4 2.3-1.2l1.1 1.1c-0.4 0.6-0.9 1-1.5 1.3-0.6 0.3-1.3 0.5-2.1 0.5-1.2 0-2.3-0.4-3.1-1.2zm2.9-6.7q0 0 0.1 0 0 0 0 0zm-1.3 0.6c-0.3 0.4-0.6 1-0.7 1.7h4v-0.2c0-0.7-0.2-1.2-0.6-1.6-0.3-0.4-0.8-0.5-1.3-0.5-0.6 0-1 0.2-1.4 0.6z"/>
		<path id="Layer" class="s0" d="m49.1 8.3c-0.3 0-0.6 0-0.8 0-1 0-1.6 0.4-1.9 1.1v6.4h-2.1v-9.3h2v1c0.6-0.8 1.2-1.2 2.2-1.2 1 0 0.5 0 0.7 0.1v2z"/>
		<path id="Layer" fill-rule="evenodd" class="s0" d="m54.5 15.8q0 0 0 0 0.1 0 0.1 0zm-3.1-1.2q-1.2-1.2-1.2-3.3v-0.3c0-0.9 0.2-1.8 0.5-2.5 0.4-0.7 0.9-1.3 1.5-1.7 0.6-0.4 1.4-0.6 2.2-0.6 1.3 0 2.2 0.4 2.9 1.2 0.7 0.8 1 2 1 3.4v0.8h-6.1c0 0.8 0.3 1.4 0.8 1.8 0.5 0.4 1 0.7 1.7 0.7 0.7 0 1.7-0.4 2.3-1.2l1.1 1.1c-0.4 0.6-0.9 1-1.5 1.3-0.6 0.3-1.3 0.5-2.1 0.5-1.2 0-2.3-0.4-3.1-1.2zm2.8-6.7q0 0 0.1 0 0 0 0 0zm-1.3 0.6c-0.3 0.4-0.6 1-0.7 1.7h4v-0.2c0-0.7-0.2-1.2-0.6-1.6-0.3-0.4-0.8-0.5-1.3-0.5-0.6 0-1 0.2-1.4 0.6z"/>
		<path id="Layer" fill-rule="evenodd" class="s0" d="m59.5 10.9c0-1.4 0.3-2.6 1-3.5 0.7-0.9 1.6-1.3 2.7-1.3 1.1 0 1.8 0.3 2.4 1v-4.8h2.1v13.2h-1.9v-1c-0.7 0.8-1.6 1.1-2.6 1.1-1 0-2-0.4-2.6-1.3-0.7-0.9-1-2.1-1-3.6zm2.1 0.2c0 1 0.2 1.7 0.6 2.2 0.4 0.5 0.9 0.8 1.6 0.8 0.7 0 1.5-0.4 1.9-1.1v-4c-0.4-0.7-1-1.1-1.9-1.1-0.9 0-1.2 0.3-1.6 0.8-0.4 0.5-0.6 1.4-0.6 2.4z"/>
		<path id="Layer" fill-rule="evenodd" class="s0" d="m82.4 11.1c0 1.4-0.3 2.6-1 3.5-0.6 0.8-1.5 1.3-2.7 1.3-1.2 0-1.9-0.4-2.5-1.2v1h-2v-13.2h2.1v4.8c0.6-0.7 1.4-1.1 2.4-1.1 1 0 2 0.4 2.7 1.3 0.7 0.9 1 2 1 3.5q0 0.1 0 0.1zm-2.1-0.2c0-1-0.2-1.8-0.5-2.3-0.4-0.5-0.9-0.8-1.6-0.8-0.7 0-1.5 0.4-1.9 1.2v3.8c0.4 0.8 1 1.2 1.9 1.2 0.9 0 1.2-0.2 1.5-0.7 0.4-0.5 0.5-1.2 0.6-2.2z"/>
		<path id="Layer" class="s0" d="m87.4 12.7l1.9-6.3h2.2l-3.7 10.7c-0.6 1.6-1.5 2.3-2.9 2.3-1.4 0-0.6 0-1-0.2v-1.6h0.4c0.5 0 0.9 0 1.2-0.3 0.3-0.2 0.5-0.5 0.6-1l0.3-0.8-3.3-9.2h2.2l2 6.3z"/>
	</g>
</svg>