<svg xmlns="http://www.w3.org/2000/svg" xmlns:xlink="http://www.w3.org/1999/xlink" width="100" zoomAndPan="magnify" viewBox="0 0 75 37.5" height="50" preserveAspectRatio="xMidYMid meet" version="1.0"><defs><clipPath id="3149f0d267"><path d="M 3.042969 4 L 35 4 L 35 32 L 3.042969 32 Z M 3.042969 4 " clip-rule="nonzero"/></clipPath><clipPath id="bdce7532bd"><path d="M 60 11 L 66.695312 11 L 66.695312 22 L 60 22 Z M 60 11 " clip-rule="nonzero"/></clipPath><clipPath id="430283ba21"><path d="M 11 2.425781 L 16 2.425781 L 16 7 L 11 7 Z M 11 2.425781 " clip-rule="nonzero"/></clipPath><clipPath id="a9436ed072"><path d="M 15 29 L 20 29 L 20 34.25 L 15 34.25 Z M 15 29 " clip-rule="nonzero"/></clipPath><clipPath id="634570d588"><path d="M 65 22 L 66.695312 22 L 66.695312 24 L 65 24 Z M 65 22 " clip-rule="nonzero"/></clipPath><clipPath id="165cf611da"><path d="M 66 22 L 66.695312 22 L 66.695312 24 L 66 24 Z M 66 22 " clip-rule="nonzero"/></clipPath><clipPath id="e4973c7a6b"><path d="M 34.855469 22.648438 L 67.867188 22.648438 L 67.867188 26.347656 L 34.855469 26.347656 Z M 34.855469 22.648438 " clip-rule="nonzero"/></clipPath></defs><g clip-path="url(#3149f0d267)"><path fill="#391547" d="M 15.910156 4.332031 L 17.773438 4.332031 L 18.894531 4.457031 L 19.734375 4.609375 L 20.601562 4.824219 L 21.722656 5.191406 L 22.46875 5.5 L 23.304688 5.898438 L 24.050781 6.332031 L 24.796875 6.824219 L 25.449219 7.316406 L 25.855469 7.652344 L 26.226562 7.992188 L 26.695312 8.421875 L 26.910156 8.667969 L 27.316406 9.097656 L 27.65625 9.527344 L 28.03125 10.019531 L 28.402344 10.574219 L 28.777344 11.1875 L 29.242188 12.082031 L 29.585938 12.878906 L 29.894531 13.742188 L 30.144531 14.632812 L 30.332031 15.523438 L 30.453125 16.449219 L 30.515625 17.371094 L 30.515625 18.046875 L 30.484375 18.261719 L 30.421875 18.261719 L 30.332031 18.539062 L 30.175781 18.847656 L 29.894531 19.183594 L 29.523438 19.460938 L 29.117188 19.644531 L 28.746094 19.738281 L 28.1875 19.738281 L 27.8125 19.644531 L 27.316406 19.398438 L 26.972656 19.121094 L 26.664062 18.722656 L 26.382812 18.199219 L 26.320312 18.015625 L 26.289062 17.769531 L 26.226562 16.785156 L 26.105469 16.046875 L 25.917969 15.277344 L 25.636719 14.449219 L 25.296875 13.679688 L 24.921875 13.003906 L 24.488281 12.359375 L 24.082031 11.835938 L 23.773438 11.496094 L 23.554688 11.25 L 23.183594 10.882812 L 22.933594 10.667969 L 22.4375 10.265625 L 21.691406 9.773438 L 21.191406 9.5 L 20.695312 9.253906 L 19.949219 8.945312 L 19.140625 8.699219 L 18.457031 8.542969 L 17.835938 8.453125 L 16.8125 8.390625 L 16.003906 8.421875 L 15.039062 8.542969 L 14.261719 8.730469 L 13.640625 8.914062 L 12.863281 9.222656 L 12.367188 9.46875 L 11.902344 9.714844 L 11.246094 10.144531 L 10.84375 10.453125 L 10.410156 10.820312 L 10.191406 11.035156 L 10.003906 11.1875 L 9.789062 11.433594 L 9.476562 11.773438 L 9.101562 12.265625 L 8.730469 12.820312 L 8.296875 13.585938 L 7.953125 14.355469 L 7.644531 15.277344 L 7.457031 16.109375 L 7.332031 17 L 7.300781 17.585938 L 7.300781 18.109375 L 7.332031 18.691406 L 7.457031 19.554688 L 7.644531 20.382812 L 7.953125 21.304688 L 8.265625 22.011719 L 8.636719 22.71875 L 8.980469 23.242188 L 9.320312 23.703125 L 9.601562 24.042969 L 9.941406 24.410156 L 10.191406 24.6875 L 10.441406 24.902344 L 10.78125 25.210938 L 11.402344 25.671875 L 11.992188 26.042969 L 12.554688 26.347656 L 13.144531 26.625 L 13.984375 26.933594 L 14.789062 27.148438 L 15.722656 27.300781 L 16.53125 27.363281 L 17.183594 27.363281 L 17.960938 27.300781 L 18.738281 27.179688 L 19.484375 26.996094 L 20.230469 26.75 L 21.007812 26.410156 L 21.597656 26.101562 L 22.1875 25.734375 L 22.714844 25.335938 L 23.058594 25.058594 L 23.554688 24.597656 L 23.992188 24.136719 L 24.332031 23.703125 L 24.644531 23.273438 L 24.765625 23.058594 L 24.890625 22.71875 L 25.078125 22.382812 L 25.390625 22.011719 L 25.761719 21.734375 L 26.164062 21.550781 L 26.507812 21.460938 L 26.726562 21.429688 L 27.160156 21.429688 L 27.59375 21.519531 L 27.96875 21.675781 L 28.589844 22.042969 L 29.460938 22.566406 L 30.363281 23.089844 L 30.984375 23.457031 L 31.976562 24.042969 L 32.753906 24.503906 L 33.28125 24.8125 L 33.59375 25.089844 L 33.84375 25.363281 L 34.089844 25.824219 L 34.214844 26.289062 L 34.214844 26.964844 L 34.089844 27.425781 L 33.90625 27.792969 L 33.6875 28.070312 L 33.375 28.378906 L 32.972656 28.625 L 32.539062 28.777344 L 32.101562 28.839844 L 31.605469 28.808594 L 31.109375 28.65625 L 30.765625 28.46875 L 30.269531 28.164062 L 29.367188 27.640625 L 28.902344 27.363281 L 27.441406 26.503906 L 27.316406 26.441406 L 26.941406 26.871094 L 26.632812 27.179688 L 26.414062 27.425781 L 26.105469 27.703125 L 25.699219 28.070312 L 25.265625 28.410156 L 24.734375 28.808594 L 24.175781 29.175781 L 23.554688 29.546875 L 22.714844 29.976562 L 22.03125 30.285156 L 21.191406 30.59375 L 20.386719 30.839844 L 19.761719 30.992188 L 19.703125 30.992188 L 19.515625 30.621094 L 19.296875 30.347656 L 19.140625 30.160156 L 18.769531 29.886719 L 18.273438 29.640625 L 17.742188 29.515625 L 17.152344 29.515625 L 16.6875 29.609375 L 16.191406 29.824219 L 15.847656 30.070312 L 15.503906 30.40625 L 15.257812 30.808594 L 15.070312 31.207031 L 14.699219 31.175781 L 13.859375 31.023438 L 12.863281 30.777344 L 11.929688 30.46875 L 11.09375 30.132812 L 10.503906 29.855469 L 9.816406 29.484375 L 9.164062 29.085938 L 8.636719 28.714844 L 8.234375 28.410156 L 7.890625 28.132812 L 7.457031 27.761719 L 7.144531 27.457031 L 6.929688 27.269531 L 6.710938 27.023438 L 6.492188 26.808594 L 6.214844 26.472656 L 5.871094 26.070312 L 5.46875 25.519531 L 5.15625 25.058594 L 4.785156 24.441406 L 4.410156 23.734375 L 4.128906 23.152344 L 3.789062 22.257812 L 3.539062 21.492188 L 3.324219 20.597656 L 3.136719 19.492188 L 3.074219 18.875 L 3.042969 18.292969 L 3.042969 17.402344 L 3.105469 16.507812 L 3.199219 15.769531 L 3.386719 14.816406 L 3.664062 13.804688 L 3.976562 12.941406 L 4.285156 12.234375 L 4.566406 11.652344 L 4.96875 10.941406 L 5.34375 10.359375 L 5.714844 9.835938 L 6.058594 9.40625 L 6.398438 9.007812 L 6.679688 8.699219 L 6.898438 8.453125 L 7.332031 8.023438 L 7.582031 7.808594 L 7.921875 7.5 L 8.359375 7.160156 L 8.949219 6.730469 L 9.570312 6.332031 L 10.222656 5.960938 L 10.75 5.683594 L 11.125 5.53125 L 11.371094 6.023438 L 11.621094 6.363281 L 11.871094 6.609375 L 12.304688 6.882812 L 12.769531 7.070312 L 13.050781 7.128906 L 13.828125 7.128906 L 14.292969 7.007812 L 14.789062 6.761719 L 15.070312 6.546875 L 15.351562 6.269531 L 15.628906 5.839844 L 15.785156 5.4375 L 15.878906 4.976562 L 15.878906 4.363281 Z M 15.910156 4.332031 " fill-opacity="1" fill-rule="nonzero"/></g><path fill="#19e4d8" d="M 26.726562 21.429688 L 27.160156 21.429688 L 27.59375 21.519531 L 27.96875 21.675781 L 28.589844 22.042969 L 29.460938 22.566406 L 30.363281 23.089844 L 30.984375 23.457031 L 31.976562 24.042969 L 32.753906 24.503906 L 33.28125 24.8125 L 33.59375 25.089844 L 33.84375 25.363281 L 34.089844 25.824219 L 34.214844 26.289062 L 34.214844 26.964844 L 34.089844 27.425781 L 33.90625 27.792969 L 33.6875 28.070312 L 33.375 28.378906 L 32.972656 28.625 L 32.539062 28.777344 L 32.101562 28.839844 L 31.605469 28.808594 L 31.109375 28.65625 L 30.765625 28.46875 L 30.269531 28.164062 L 29.367188 27.640625 L 28.902344 27.363281 L 27.441406 26.503906 L 27.316406 26.441406 L 26.941406 26.871094 L 26.632812 27.179688 L 26.414062 27.425781 L 26.105469 27.703125 L 25.699219 28.070312 L 25.265625 28.410156 L 24.734375 28.808594 L 24.175781 29.175781 L 23.554688 29.546875 L 22.714844 29.976562 L 22.03125 30.285156 L 21.191406 30.59375 L 20.386719 30.839844 L 19.761719 30.992188 L 19.703125 30.992188 L 19.515625 30.621094 L 19.296875 30.347656 L 19.140625 30.160156 L 18.769531 29.886719 L 18.273438 29.640625 L 17.742188 29.515625 L 17.152344 29.515625 L 16.6875 29.609375 L 16.191406 29.824219 L 15.847656 30.070312 L 15.503906 30.40625 L 15.257812 30.808594 L 15.070312 31.207031 L 14.699219 31.175781 L 13.859375 31.023438 L 12.863281 30.777344 L 11.929688 30.46875 L 11.09375 30.132812 L 10.503906 29.855469 L 9.816406 29.484375 L 9.164062 29.085938 L 8.636719 28.714844 L 8.234375 28.410156 L 7.890625 28.132812 L 7.457031 27.761719 L 7.144531 27.457031 L 6.929688 27.269531 L 6.710938 27.023438 L 6.492188 26.808594 L 6.214844 26.472656 L 5.871094 26.070312 L 5.46875 25.519531 L 5.15625 25.058594 L 4.90625 24.625 L 5.03125 24.625 L 5.28125 24.84375 L 5.777344 25.089844 L 6.152344 25.179688 L 6.742188 25.179688 L 7.113281 25.089844 L 7.613281 24.84375 L 7.921875 24.566406 L 8.140625 24.289062 L 8.359375 23.828125 L 8.449219 23.425781 L 8.480469 22.90625 L 8.449219 22.445312 L 8.574219 22.597656 L 8.855469 23.058594 L 9.257812 23.644531 L 9.632812 24.074219 L 10.191406 24.6875 L 10.441406 24.902344 L 10.78125 25.210938 L 11.402344 25.671875 L 11.992188 26.042969 L 12.554688 26.347656 L 13.144531 26.625 L 13.984375 26.933594 L 14.789062 27.148438 L 15.722656 27.300781 L 16.53125 27.363281 L 17.183594 27.363281 L 17.960938 27.300781 L 18.738281 27.179688 L 19.484375 26.996094 L 20.230469 26.75 L 21.007812 26.410156 L 21.597656 26.101562 L 22.1875 25.734375 L 22.714844 25.335938 L 23.058594 25.058594 L 23.554688 24.597656 L 23.992188 24.136719 L 24.332031 23.703125 L 24.644531 23.273438 L 24.765625 23.058594 L 24.890625 22.71875 L 25.078125 22.382812 L 25.390625 22.011719 L 25.761719 21.734375 L 26.164062 21.550781 L 26.507812 21.460938 Z M 26.726562 21.429688 " fill-opacity="1" fill-rule="nonzero"/><path fill="#3e64cf" d="M 16.6875 13.617188 L 17.308594 13.648438 L 17.929688 13.773438 L 18.519531 13.988281 L 18.988281 14.234375 L 19.484375 14.601562 L 19.824219 14.910156 L 20.105469 15.25 L 20.386719 15.648438 L 20.632812 16.140625 L 20.789062 16.539062 L 20.914062 17.0625 L 20.945312 17.277344 L 20.945312 18.261719 L 20.820312 18.875 L 20.632812 19.398438 L 20.386719 19.890625 L 20.074219 20.320312 L 19.792969 20.628906 L 19.453125 20.96875 L 18.925781 21.335938 L 18.273438 21.644531 L 17.617188 21.828125 L 17.246094 21.890625 L 16.3125 21.890625 L 15.660156 21.765625 L 15.070312 21.550781 L 14.542969 21.273438 L 14.046875 20.90625 L 13.796875 20.691406 L 13.578125 20.445312 L 13.269531 20.046875 L 12.957031 19.492188 L 12.738281 18.90625 L 12.617188 18.292969 L 12.585938 17.921875 L 12.585938 17.617188 L 12.644531 17.03125 L 12.800781 16.449219 L 12.988281 15.984375 L 13.269531 15.496094 L 13.546875 15.125 L 13.921875 14.726562 L 14.355469 14.386719 L 14.789062 14.109375 L 15.257812 13.894531 L 15.878906 13.710938 L 16.25 13.648438 Z M 16.6875 13.617188 " fill-opacity="1" fill-rule="nonzero"/><path fill="#000000" d="M 46.210938 11.097656 L 47.640625 11.097656 L 48.261719 11.160156 L 48.886719 11.28125 L 49.351562 11.433594 L 49.847656 11.679688 L 50.191406 11.925781 L 50.53125 12.265625 L 50.78125 12.664062 L 50.9375 13.066406 L 51.027344 13.433594 L 51.058594 13.648438 L 51.058594 14.449219 L 50.9375 15.003906 L 50.6875 15.523438 L 50.40625 15.894531 L 50.035156 16.261719 L 49.570312 16.570312 L 49.257812 16.722656 L 49.601562 16.910156 L 49.972656 17.246094 L 50.191406 17.554688 L 50.4375 18.046875 L 50.65625 18.753906 L 51.089844 20.535156 L 51.339844 21.429688 L 51.433594 21.644531 L 51.433594 21.734375 L 50.9375 21.890625 L 50.3125 21.953125 L 49.816406 21.890625 L 49.351562 21.734375 L 49.226562 21.492188 L 48.945312 20.535156 L 48.667969 19.277344 L 48.511719 18.660156 L 48.324219 18.167969 L 48.109375 17.863281 L 47.859375 17.648438 L 47.546875 17.523438 L 47.175781 17.460938 L 46.304688 17.429688 L 46.304688 21.707031 L 46.054688 21.828125 L 45.589844 21.921875 L 45 21.921875 L 44.441406 21.796875 L 44.253906 21.707031 L 44.253906 11.3125 L 44.78125 11.21875 L 45.714844 11.128906 Z M 46.863281 12.632812 L 46.367188 12.695312 L 46.304688 12.726562 L 46.304688 15.925781 L 47.484375 15.925781 L 47.984375 15.800781 L 48.355469 15.617188 L 48.667969 15.339844 L 48.855469 15.0625 L 48.976562 14.726562 L 49.007812 14.570312 L 49.007812 13.925781 L 48.914062 13.558594 L 48.730469 13.21875 L 48.480469 12.972656 L 48.199219 12.820312 L 47.859375 12.695312 L 47.425781 12.632812 Z M 46.863281 12.632812 " fill-opacity="1" fill-rule="nonzero"/><path fill="#000001" d="M 39.1875 11.066406 L 40.183594 11.066406 L 40.992188 11.160156 L 41.582031 11.28125 L 42.171875 11.496094 L 42.328125 11.867188 L 42.359375 11.988281 L 42.359375 12.359375 L 42.234375 12.664062 L 42.046875 12.910156 L 41.769531 13.15625 L 41.582031 13.125 L 41.113281 12.972656 L 40.679688 12.878906 L 40.058594 12.820312 L 39.40625 12.820312 L 38.785156 12.910156 L 38.347656 13.035156 L 37.851562 13.28125 L 37.539062 13.496094 L 37.261719 13.742188 L 36.949219 14.140625 L 36.703125 14.632812 L 36.515625 15.1875 L 36.421875 15.648438 L 36.390625 15.925781 L 36.390625 17.0625 L 36.453125 17.523438 L 36.609375 18.136719 L 36.824219 18.628906 L 37.042969 19 L 37.324219 19.335938 L 37.601562 19.582031 L 38.007812 19.828125 L 38.378906 19.984375 L 38.878906 20.105469 L 39.09375 20.136719 L 39.808594 20.136719 L 40.246094 20.074219 L 40.429688 20.015625 L 40.460938 17.429688 L 38.9375 17.429688 L 38.816406 17.246094 L 38.691406 16.847656 L 38.691406 16.417969 L 38.816406 16.015625 L 38.9375 15.832031 L 42.421875 15.832031 L 42.421875 21.304688 L 42.109375 21.429688 L 41.394531 21.613281 L 40.742188 21.734375 L 39.871094 21.828125 L 38.910156 21.828125 L 38.285156 21.765625 L 37.632812 21.644531 L 36.980469 21.429688 L 36.484375 21.183594 L 36.140625 20.96875 L 35.832031 20.722656 L 35.488281 20.414062 L 35.148438 19.984375 L 34.867188 19.523438 L 34.652344 19.0625 L 34.402344 18.324219 L 34.277344 17.738281 L 34.214844 17.246094 L 34.183594 16.386719 L 34.246094 15.554688 L 34.402344 14.785156 L 34.621094 14.140625 L 34.898438 13.558594 L 35.117188 13.21875 L 35.425781 12.820312 L 35.800781 12.417969 L 36.140625 12.140625 L 36.546875 11.867188 L 37.261719 11.496094 L 38.007812 11.25 L 38.628906 11.128906 Z M 39.1875 11.066406 " fill-opacity="1" fill-rule="nonzero"/><path fill="#3e64cf" d="M 26.726562 21.429688 L 27.160156 21.429688 L 27.59375 21.519531 L 27.96875 21.675781 L 28.589844 22.042969 L 29.460938 22.566406 L 30.363281 23.089844 L 30.984375 23.457031 L 31.976562 24.042969 L 32.753906 24.503906 L 33.28125 24.8125 L 33.59375 25.089844 L 33.84375 25.363281 L 34.089844 25.824219 L 34.214844 26.289062 L 34.214844 26.964844 L 34.089844 27.425781 L 33.90625 27.792969 L 33.6875 28.070312 L 33.375 28.378906 L 32.972656 28.625 L 32.539062 28.777344 L 32.101562 28.839844 L 31.605469 28.808594 L 31.109375 28.65625 L 30.765625 28.46875 L 30.269531 28.164062 L 29.367188 27.640625 L 28.902344 27.363281 L 27.441406 26.503906 L 26.539062 25.980469 L 25.917969 25.609375 L 25.574219 25.394531 L 25.265625 25.117188 L 25.046875 24.84375 L 24.828125 24.410156 L 24.707031 23.949219 L 24.707031 23.304688 L 24.796875 22.9375 L 25.046875 22.445312 L 25.234375 22.199219 L 25.390625 22.011719 L 25.761719 21.734375 L 26.164062 21.550781 L 26.507812 21.460938 Z M 26.726562 21.429688 " fill-opacity="1" fill-rule="nonzero"/><path fill="#000000" d="M 52.769531 11.1875 L 58.519531 11.1875 L 58.707031 11.433594 L 58.832031 11.742188 L 58.859375 12.050781 L 58.769531 12.480469 L 58.550781 12.851562 L 58.519531 12.878906 L 54.820312 12.878906 L 54.820312 15.433594 L 58.332031 15.433594 L 58.519531 15.832031 L 58.582031 16.109375 L 58.582031 16.386719 L 58.488281 16.753906 L 58.332031 17.0625 L 58.300781 17.09375 L 54.820312 17.09375 L 54.820312 20.015625 L 58.738281 20.015625 L 58.859375 20.261719 L 58.953125 20.628906 L 58.953125 21.121094 L 58.832031 21.550781 L 58.738281 21.707031 L 52.769531 21.707031 Z M 52.769531 11.1875 " fill-opacity="1" fill-rule="nonzero"/><g clip-path="url(#bdce7532bd)"><path fill="#000000" d="M 60.320312 11.1875 L 66.070312 11.1875 L 66.226562 11.496094 L 66.289062 11.710938 L 66.320312 12.113281 L 66.257812 12.480469 L 66.070312 12.878906 L 62.375 12.878906 L 62.375 15.433594 L 65.855469 15.433594 L 66.007812 15.738281 L 66.101562 16.171875 L 66.070312 16.570312 L 65.949219 16.9375 L 65.855469 17.09375 L 62.375 17.09375 L 62.375 20.015625 L 66.289062 20.015625 L 66.445312 20.476562 L 66.476562 20.660156 L 66.476562 21.121094 L 66.382812 21.519531 L 66.289062 21.707031 L 60.320312 21.707031 Z M 60.320312 11.1875 " fill-opacity="1" fill-rule="nonzero"/></g><g clip-path="url(#430283ba21)"><path fill="#391548" d="M 13.269531 2.425781 L 13.640625 2.425781 L 14.105469 2.519531 L 14.511719 2.671875 L 14.882812 2.917969 L 15.289062 3.316406 L 15.535156 3.746094 L 15.691406 4.210938 L 15.722656 4.394531 L 15.722656 4.976562 L 15.597656 5.46875 L 15.382812 5.898438 L 15.164062 6.175781 L 14.882812 6.453125 L 14.542969 6.667969 L 14.199219 6.824219 L 13.828125 6.914062 L 13.332031 6.945312 L 12.800781 6.855469 L 12.429688 6.699219 L 12.117188 6.515625 L 11.808594 6.238281 L 11.558594 5.960938 L 11.308594 5.46875 L 11.1875 5.007812 L 11.1875 4.363281 L 11.308594 3.871094 L 11.558594 3.410156 L 11.839844 3.070312 L 12.242188 2.765625 L 12.675781 2.546875 L 13.050781 2.457031 Z M 13.269531 2.425781 " fill-opacity="1" fill-rule="nonzero"/></g><g clip-path="url(#a9436ed072)"><path fill="#19e5d9" d="M 17.089844 29.761719 L 17.835938 29.761719 L 18.304688 29.886719 L 18.769531 30.132812 L 19.140625 30.46875 L 19.359375 30.714844 L 19.609375 31.207031 L 19.734375 31.667969 L 19.734375 32.3125 L 19.609375 32.773438 L 19.359375 33.265625 L 19.078125 33.605469 L 18.738281 33.882812 L 18.242188 34.128906 L 17.867188 34.21875 L 17.648438 34.25 L 17.277344 34.25 L 16.78125 34.160156 L 16.34375 33.972656 L 16.003906 33.730469 L 15.785156 33.542969 L 15.503906 33.175781 L 15.320312 32.773438 L 15.195312 32.285156 L 15.195312 31.699219 L 15.320312 31.207031 L 15.535156 30.777344 L 15.785156 30.46875 L 16.035156 30.222656 L 16.375 30.007812 L 16.71875 29.855469 Z M 17.089844 29.761719 " fill-opacity="1" fill-rule="nonzero"/></g><path fill="#04060d" d="M 50.6875 22.78125 L 50.9375 22.78125 L 51.214844 23.519531 L 51.277344 23.457031 L 51.527344 22.78125 L 51.773438 22.78125 L 51.773438 23.859375 L 51.621094 23.828125 L 51.621094 23.027344 L 51.308594 23.828125 L 51.183594 23.859375 L 51.027344 23.488281 L 50.84375 22.996094 L 50.84375 23.859375 L 50.6875 23.859375 Z M 50.6875 22.78125 " fill-opacity="1" fill-rule="nonzero"/><path fill="#03050b" d="M 37.074219 22.75 L 37.292969 22.75 L 37.511719 22.84375 L 37.664062 22.996094 L 37.664062 23.058594 L 37.480469 23.058594 L 37.355469 22.964844 L 37.105469 22.9375 L 36.917969 23.027344 L 36.824219 23.179688 L 36.824219 23.457031 L 36.917969 23.613281 L 37.042969 23.671875 L 37.324219 23.671875 L 37.511719 23.519531 L 37.539062 23.457031 L 37.074219 23.457031 L 37.042969 23.335938 L 37.074219 23.304688 L 37.726562 23.304688 L 37.695312 23.550781 L 37.539062 23.765625 L 37.355469 23.859375 L 37.011719 23.859375 L 36.796875 23.734375 L 36.671875 23.582031 L 36.609375 23.304688 L 36.671875 23.058594 L 36.855469 22.84375 Z M 37.074219 22.75 " fill-opacity="1" fill-rule="nonzero"/><path fill="#04060e" d="M 63.398438 22.75 L 63.617188 22.75 L 63.832031 22.84375 L 63.988281 22.996094 L 64.082031 23.210938 L 64.050781 23.519531 L 63.925781 23.703125 L 63.773438 23.828125 L 63.679688 23.859375 L 63.335938 23.859375 L 63.148438 23.734375 L 62.996094 23.550781 L 62.964844 23.425781 L 62.964844 23.179688 L 63.089844 22.9375 L 63.304688 22.78125 Z M 63.429688 22.90625 L 63.273438 22.996094 L 63.148438 23.152344 L 63.117188 23.398438 L 63.210938 23.582031 L 63.367188 23.703125 L 63.679688 23.703125 L 63.832031 23.582031 L 63.925781 23.304688 L 63.863281 23.089844 L 63.679688 22.9375 Z M 63.429688 22.90625 " fill-opacity="1" fill-rule="nonzero"/><path fill="#04060e" d="M 54.757812 22.75 L 54.976562 22.75 L 55.226562 22.875 L 55.347656 23.027344 L 55.410156 23.179688 L 55.410156 23.457031 L 55.316406 23.644531 L 55.101562 23.828125 L 55.039062 23.859375 L 54.695312 23.859375 L 54.511719 23.765625 L 54.355469 23.582031 L 54.292969 23.367188 L 54.324219 23.121094 L 54.449219 22.9375 L 54.632812 22.78125 Z M 54.789062 22.90625 L 54.601562 22.996094 L 54.511719 23.089844 L 54.480469 23.179688 L 54.480469 23.457031 L 54.601562 23.644531 L 54.726562 23.703125 L 55.007812 23.703125 L 55.195312 23.550781 L 55.257812 23.398438 L 55.226562 23.121094 L 55.039062 22.9375 Z M 54.789062 22.90625 " fill-opacity="1" fill-rule="nonzero"/><path fill="#090f1f" d="M 64.207031 22.78125 L 64.394531 22.78125 L 64.890625 23.519531 L 64.921875 22.78125 L 65.078125 22.78125 L 65.078125 23.828125 L 64.921875 23.859375 L 64.671875 23.519531 L 64.394531 23.089844 L 64.363281 23.859375 L 64.207031 23.828125 Z M 64.207031 22.78125 " fill-opacity="1" fill-rule="nonzero"/><path fill="#010204" d="M 56.34375 22.78125 L 56.53125 22.78125 L 56.839844 23.273438 L 56.996094 23.488281 L 57.027344 22.78125 L 57.183594 22.78125 L 57.183594 23.859375 L 57.027344 23.859375 L 56.625 23.242188 L 56.53125 23.089844 L 56.5 23.859375 L 56.34375 23.859375 Z M 56.34375 22.78125 " fill-opacity="1" fill-rule="nonzero"/><path fill="#020409" d="M 52.738281 22.78125 L 52.894531 22.78125 L 53.144531 23.121094 L 53.390625 23.519531 L 53.421875 22.78125 L 53.578125 22.78125 L 53.578125 23.859375 L 53.421875 23.859375 L 52.925781 23.121094 L 52.925781 23.058594 L 52.863281 23.058594 L 52.894531 23.152344 L 52.894531 23.859375 L 52.738281 23.859375 Z M 52.738281 22.78125 " fill-opacity="1" fill-rule="nonzero"/><path fill="#03060c" d="M 38.628906 22.78125 L 38.816406 22.78125 L 39.21875 23.398438 L 39.28125 23.550781 L 39.34375 23.550781 L 39.3125 23.304688 L 39.3125 22.78125 L 39.46875 22.78125 L 39.46875 23.859375 L 39.3125 23.859375 L 38.9375 23.273438 L 38.816406 23.089844 L 38.785156 23.859375 L 38.628906 23.859375 Z M 38.628906 22.78125 " fill-opacity="1" fill-rule="nonzero"/><path fill="#020307" d="M 59.574219 22.78125 L 59.761719 22.78125 L 60.261719 23.519531 L 60.261719 22.78125 L 60.414062 22.78125 L 60.414062 23.859375 L 60.261719 23.828125 L 59.761719 23.089844 L 59.730469 23.859375 L 59.574219 23.859375 Z M 59.574219 22.78125 " fill-opacity="1" fill-rule="nonzero"/><path fill="#03040a" d="M 42.511719 22.78125 L 43.042969 22.78125 L 43.289062 22.9375 L 43.414062 23.179688 L 43.414062 23.457031 L 43.320312 23.644531 L 43.105469 23.828125 L 42.980469 23.859375 L 42.511719 23.859375 Z M 42.667969 22.9375 L 42.667969 23.703125 L 43.011719 23.703125 L 43.167969 23.613281 L 43.257812 23.425781 L 43.257812 23.210938 L 43.167969 23.027344 L 43.011719 22.9375 Z M 42.667969 22.9375 " fill-opacity="1" fill-rule="nonzero"/><path fill="#020408" d="M 44.75 22.78125 L 45.25 22.78125 L 45.402344 22.875 L 45.464844 22.996094 L 45.464844 23.242188 L 45.339844 23.398438 L 45.1875 23.425781 L 45.464844 23.828125 L 45.464844 23.859375 L 45.28125 23.859375 L 45.03125 23.550781 L 44.9375 23.398438 L 44.90625 23.859375 L 44.75 23.859375 Z M 44.90625 22.9375 L 44.90625 23.335938 L 45.125 23.335938 L 45.28125 23.273438 L 45.3125 23.210938 L 45.3125 23.027344 L 45.21875 22.9375 Z M 44.90625 22.9375 " fill-opacity="1" fill-rule="nonzero"/><path fill="#070b18" d="M 47.515625 22.78125 L 48.015625 22.78125 L 48.199219 22.90625 L 48.230469 22.964844 L 48.230469 23.273438 L 48.046875 23.425781 L 47.953125 23.425781 L 48.230469 23.796875 L 48.230469 23.859375 L 48.046875 23.859375 L 47.734375 23.425781 L 47.671875 23.398438 L 47.671875 23.859375 L 47.515625 23.828125 Z M 47.671875 22.9375 L 47.671875 23.304688 L 47.703125 23.335938 L 47.921875 23.335938 L 48.078125 23.242188 L 48.078125 22.996094 L 47.984375 22.9375 Z M 47.671875 22.9375 " fill-opacity="1" fill-rule="nonzero"/><path fill="#060914" d="M 58.738281 22.78125 L 59.203125 22.78125 L 59.390625 22.90625 L 59.421875 22.964844 L 59.421875 23.273438 L 59.234375 23.425781 L 59.140625 23.425781 L 59.421875 23.796875 L 59.421875 23.859375 L 59.234375 23.859375 L 58.921875 23.425781 L 58.890625 23.828125 L 58.738281 23.859375 L 58.707031 23.796875 Z M 58.890625 22.9375 L 58.890625 23.335938 L 59.109375 23.335938 L 59.265625 23.242188 L 59.296875 23.089844 L 59.234375 22.964844 L 59.171875 22.9375 Z M 58.890625 22.9375 " fill-opacity="1" fill-rule="nonzero"/><path fill="#050812" d="M 36.050781 22.78125 L 36.234375 22.78125 L 36.640625 23.828125 L 36.640625 23.859375 L 36.453125 23.859375 L 36.359375 23.550781 L 35.925781 23.582031 L 35.800781 23.859375 L 35.644531 23.859375 L 35.738281 23.550781 Z M 36.109375 22.996094 L 35.988281 23.335938 L 35.988281 23.398438 L 36.265625 23.398438 L 36.234375 23.210938 L 36.140625 22.996094 Z M 36.109375 22.996094 " fill-opacity="1" fill-rule="nonzero"/><path fill="#050811" d="M 41.457031 22.78125 L 41.613281 22.78125 L 41.953125 23.613281 L 42.015625 23.765625 L 42.015625 23.859375 L 41.859375 23.859375 L 41.738281 23.582031 L 41.300781 23.550781 L 41.207031 23.828125 L 41.175781 23.859375 L 41.023438 23.859375 L 41.207031 23.335938 L 41.425781 22.8125 Z M 41.519531 22.996094 L 41.394531 23.273438 L 41.394531 23.398438 L 41.675781 23.398438 L 41.582031 23.089844 Z M 41.519531 22.996094 " fill-opacity="1" fill-rule="nonzero"/><path fill="#050811" d="M 50.035156 22.78125 L 50.222656 22.78125 L 50.625 23.828125 L 50.625 23.859375 L 50.4375 23.859375 L 50.34375 23.550781 L 49.910156 23.582031 L 49.785156 23.859375 L 49.628906 23.859375 L 49.722656 23.550781 Z M 50.097656 22.996094 L 49.972656 23.335938 L 49.972656 23.398438 L 50.253906 23.398438 L 50.222656 23.210938 L 50.128906 22.996094 Z M 50.097656 22.996094 " fill-opacity="1" fill-rule="nonzero"/><g clip-path="url(#634570d588)"><path fill="#04070f" d="M 65.511719 22.78125 L 65.699219 22.78125 L 66.007812 23.550781 L 66.101562 23.859375 L 65.949219 23.859375 L 65.824219 23.582031 L 65.386719 23.550781 L 65.292969 23.828125 L 65.261719 23.859375 L 65.109375 23.859375 L 65.292969 23.335938 Z M 65.605469 22.996094 L 65.480469 23.273438 L 65.480469 23.398438 L 65.761719 23.398438 L 65.667969 23.089844 Z M 65.605469 22.996094 " fill-opacity="1" fill-rule="nonzero"/></g><path fill="#040710" d="M 60.882812 22.78125 L 61.066406 22.78125 L 61.472656 23.796875 L 61.472656 23.859375 L 61.316406 23.859375 L 61.191406 23.582031 L 60.757812 23.550781 L 60.664062 23.828125 L 60.632812 23.859375 L 60.476562 23.859375 L 60.570312 23.582031 Z M 60.976562 22.996094 L 60.851562 23.273438 L 60.851562 23.398438 L 61.128906 23.398438 L 61.035156 23.089844 Z M 60.976562 22.996094 " fill-opacity="1" fill-rule="nonzero"/><path fill="#03050c" d="M 40.058594 22.75 L 40.277344 22.75 L 40.492188 22.84375 L 40.648438 22.996094 L 40.648438 23.058594 L 40.460938 23.058594 L 40.339844 22.964844 L 40.089844 22.9375 L 39.902344 23.027344 L 39.808594 23.210938 L 39.839844 23.488281 L 39.964844 23.644531 L 40.027344 23.671875 L 40.339844 23.671875 L 40.460938 23.582031 L 40.648438 23.582031 L 40.585938 23.703125 L 40.429688 23.828125 L 40.367188 23.859375 L 39.996094 23.859375 L 39.808594 23.734375 L 39.652344 23.550781 L 39.625 23.457031 L 39.625 23.179688 L 39.746094 22.9375 L 39.902344 22.8125 Z M 40.058594 22.75 " fill-opacity="1" fill-rule="nonzero"/><path fill="#03050c" d="M 61.90625 22.75 L 62.125 22.75 L 62.34375 22.84375 L 62.496094 22.996094 L 62.496094 23.058594 L 62.3125 23.058594 L 62.1875 22.964844 L 61.9375 22.9375 L 61.75 23.027344 L 61.660156 23.210938 L 61.660156 23.425781 L 61.78125 23.613281 L 61.875 23.671875 L 62.15625 23.671875 L 62.3125 23.582031 L 62.496094 23.582031 L 62.402344 23.734375 L 62.21875 23.859375 L 61.84375 23.859375 L 61.597656 23.703125 L 61.472656 23.457031 L 61.472656 23.152344 L 61.628906 22.90625 L 61.8125 22.78125 Z M 61.90625 22.75 " fill-opacity="1" fill-rule="nonzero"/><path fill="#03060c" d="M 46.769531 22.75 L 46.988281 22.75 L 47.207031 22.84375 L 47.363281 22.996094 L 47.363281 23.058594 L 47.175781 23.058594 L 47.050781 22.964844 L 46.800781 22.9375 L 46.617188 23.027344 L 46.523438 23.210938 L 46.523438 23.425781 L 46.648438 23.613281 L 46.742188 23.671875 L 47.019531 23.671875 L 47.175781 23.582031 L 47.363281 23.582031 L 47.269531 23.734375 L 47.082031 23.859375 L 46.710938 23.859375 L 46.460938 23.703125 L 46.335938 23.457031 L 46.335938 23.152344 L 46.492188 22.90625 L 46.679688 22.78125 Z M 46.769531 22.75 " fill-opacity="1" fill-rule="nonzero"/><path fill="#010204" d="M 48.386719 22.78125 L 48.542969 22.78125 L 48.574219 23.671875 L 48.855469 23.671875 L 48.886719 23.613281 L 48.914062 22.78125 L 49.070312 22.78125 L 49.070312 23.671875 L 48.945312 23.828125 L 48.886719 23.859375 L 48.574219 23.859375 L 48.417969 23.734375 L 48.386719 23.644531 Z M 48.386719 22.78125 " fill-opacity="1" fill-rule="nonzero"/><path fill="#03060c" d="M 51.960938 22.78125 L 52.550781 22.78125 L 52.519531 22.9375 L 52.148438 22.9375 L 52.117188 23.242188 L 52.519531 23.242188 L 52.550781 23.367188 L 52.488281 23.398438 L 52.148438 23.398438 L 52.117188 23.703125 L 52.519531 23.703125 L 52.550781 23.828125 L 52.519531 23.859375 L 51.960938 23.859375 Z M 51.960938 22.78125 " fill-opacity="1" fill-rule="nonzero"/><path fill="#020408" d="M 43.570312 22.78125 L 44.128906 22.78125 L 44.097656 22.9375 L 43.726562 22.9375 L 43.726562 23.242188 L 44.128906 23.242188 L 44.097656 23.398438 L 43.757812 23.398438 L 43.726562 23.703125 L 44.128906 23.703125 L 44.128906 23.859375 L 43.570312 23.859375 Z M 43.570312 22.78125 " fill-opacity="1" fill-rule="nonzero"/><path fill="#020307" d="M 57.960938 22.78125 L 58.519531 22.78125 L 58.519531 22.9375 L 58.144531 22.9375 L 58.117188 23.242188 L 58.519531 23.242188 L 58.519531 23.367188 L 58.144531 23.398438 L 58.117188 23.703125 L 58.519531 23.703125 L 58.519531 23.859375 L 57.960938 23.859375 Z M 57.960938 22.78125 " fill-opacity="1" fill-rule="nonzero"/><path fill="#020307" d="M 37.882812 22.78125 L 38.441406 22.78125 L 38.410156 22.9375 L 38.039062 22.9375 L 38.039062 23.242188 L 38.441406 23.242188 L 38.441406 23.367188 L 38.070312 23.398438 L 38.039062 23.703125 L 38.441406 23.703125 L 38.441406 23.859375 L 37.882812 23.859375 Z M 37.882812 22.78125 " fill-opacity="1" fill-rule="nonzero"/><path fill="#020306" d="M 45.621094 22.78125 L 46.179688 22.78125 L 46.148438 22.9375 L 45.808594 22.9375 L 45.777344 23.242188 L 46.179688 23.242188 L 46.179688 23.367188 L 45.808594 23.398438 L 45.777344 23.703125 L 46.179688 23.703125 L 46.179688 23.859375 L 45.621094 23.859375 Z M 45.621094 22.78125 " fill-opacity="1" fill-rule="nonzero"/><path fill="#050811" d="M 49.164062 22.78125 L 49.753906 22.78125 L 49.722656 22.9375 L 49.539062 22.9375 L 49.539062 23.859375 L 49.382812 23.859375 L 49.382812 22.9375 L 49.195312 22.9375 Z M 49.164062 22.78125 " fill-opacity="1" fill-rule="nonzero"/><path fill="#04070f" d="M 53.671875 22.78125 L 54.230469 22.78125 L 54.261719 22.90625 L 54.230469 22.9375 L 54.042969 22.9375 L 54.042969 23.859375 L 53.886719 23.859375 L 53.886719 22.9375 L 53.703125 22.9375 Z M 53.671875 22.78125 " fill-opacity="1" fill-rule="nonzero"/><path fill="#03050a" d="M 57.308594 22.78125 L 57.867188 22.78125 L 57.835938 22.9375 L 57.648438 22.9375 L 57.648438 23.859375 L 57.492188 23.859375 L 57.492188 22.9375 L 57.308594 22.9375 Z M 57.308594 22.78125 " fill-opacity="1" fill-rule="nonzero"/><g clip-path="url(#165cf611da)"><path fill="#000001" d="M 66.164062 22.78125 L 66.320312 22.78125 L 66.320312 23.703125 L 66.691406 23.703125 L 66.691406 23.859375 L 66.164062 23.859375 Z M 66.164062 22.78125 " fill-opacity="1" fill-rule="nonzero"/></g><path fill="#0c142a" d="M 40.835938 22.78125 L 40.992188 22.78125 L 40.992188 23.828125 L 40.835938 23.859375 L 40.804688 23.796875 L 40.804688 22.8125 Z M 40.835938 22.78125 " fill-opacity="1" fill-rule="nonzero"/><path fill="#000001" d="M 56 22.78125 L 56.15625 22.78125 L 56.15625 23.859375 L 56 23.859375 Z M 56 22.78125 " fill-opacity="1" fill-rule="nonzero"/><path fill="#0c1328" d="M 62.652344 22.78125 L 62.808594 22.78125 L 62.808594 23.859375 L 62.652344 23.828125 Z M 62.652344 22.78125 " fill-opacity="1" fill-rule="nonzero"/><path fill="#0a1123" d="M 38.070312 22.414062 L 38.226562 22.414062 L 38.347656 22.597656 L 38.347656 22.691406 L 38.226562 22.628906 L 38.195312 22.566406 L 37.945312 22.691406 L 38.007812 22.535156 Z M 38.070312 22.414062 " fill-opacity="1" fill-rule="nonzero"/><g clip-path="url(#e4973c7a6b)"><path fill="#ffffff" d="M 34.855469 22.648438 L 67.871094 22.648438 L 67.871094 26.347656 L 34.855469 26.347656 Z M 34.855469 22.648438 " fill-opacity="1" fill-rule="nonzero"/></g></svg>