<?xml version="1.0" encoding="UTF-8"?>
<svg version="1.1" viewBox="0 0 2048 1035" width="3251" height="1644" xmlns="http://www.w3.org/2000/svg">
<path transform="translate(414,62)" d="m0 0h60l36 4 27 5 28 7 36 12 24 10 27 13 24 14 24 16 21 16 13 11 12 11 15 14 7 8 13 14 11 14 12 16 12 18 12 20 15 29 11 26 10 28 8 29 6 29 4 30 2 30v22l-1 7h-2l-3 9-5 10-9 11-12 9-13 6-12 3h-18l-12-3-16-8-11-9-10-13-9-17-2-6-1-8-2-32-4-24-6-25-9-27-11-25-12-22-14-21-13-17-10-11-7-8-12-12-8-7-16-13-24-16-16-9-16-8-24-10-26-8-22-5-20-3-33-2-26 1-31 4-25 6-20 6-25 10-16 8-15 8-21 14-13 10-14 12-7 7-6 5-7 8-10 11-12 16-12 18-14 25-11 25-10 30-6 27-4 29-1 19v17l1 19 4 28 6 27 10 30 10 23 12 23 11 17 11 15 9 11 11 12 8 9 8 7 11 10 20 15 19 12 18 10 19 9 27 10 26 7 30 5 26 2h21l25-2 25-4 24-6 24-8 25-11 19-10 19-12 17-13 11-9 16-15 14-15 11-14 10-14 4-7 4-11 6-11 10-12 12-9 13-6 11-3 7-1h14l14 3 12 5 20 12 28 17 29 17 20 12 32 19 25 15 17 10 10 9 8 9 8 15 4 15v22l-4 15-6 12-7 9-10 10-13 8-14 5-14 2-16-1-16-5-11-6-16-10-29-17-15-9-32-19-15-9-4-2-12 14-10 10-7 8-10 9-13 12-14 11-17 13-18 12-20 12-27 14-22 10-27 10-26 8-20 5h-2l-6-12-7-9-5-6-12-9-16-8-17-4h-19l-15 3-16 7-11 8-11 11-8 13-6 13-12-1-27-5-32-8-30-10-27-11-19-9-22-12-21-13-17-12-13-10-11-9-14-12-10-10-7-6-7-8-7-7-9-11-11-13-13-18-10-15-12-20-12-23-9-19-11-29-8-25-7-29-6-36-2-20-1-19v-29l2-29 3-24 6-31 9-33 10-28 10-23 9-19 13-23 12-19 12-17 11-14 11-13 9-10 7-8 14-14 8-7 11-10 14-11 19-14 20-13 21-12 17-9 12-5 8 16 8 11 8 8 14 9 15 6 9 2h25l15-4 16-8 9-7 9-9 9-14 5-13 3-15v-20z" fill="#391547"/>
<path transform="translate(762,618)" d="m0 0h14l14 3 12 5 20 12 28 17 29 17 20 12 32 19 25 15 17 10 10 9 8 9 8 15 4 15v22l-4 15-6 12-7 9-10 10-13 8-14 5-14 2-16-1-16-5-11-6-16-10-29-17-15-9-32-19-15-9-4-2-12 14-10 10-7 8-10 9-13 12-14 11-17 13-18 12-20 12-27 14-22 10-27 10-26 8-20 5h-2l-6-12-7-9-5-6-12-9-16-8-17-4h-19l-15 3-16 7-11 8-11 11-8 13-6 13-12-1-27-5-32-8-30-10-27-11-19-9-22-12-21-13-17-12-13-10-11-9-14-12-10-10-7-6-7-8-7-7-9-11-11-13-13-18-10-15-8-14h4l8 7 16 8 12 3h19l12-3 16-8 10-9 7-9 7-15 3-13 1-17-1-15 4 5 9 15 13 19 12 14 18 20 8 7 11 10 20 15 19 12 18 10 19 9 27 10 26 7 30 5 26 2h21l25-2 25-4 24-6 24-8 25-11 19-10 19-12 17-13 11-9 16-15 14-15 11-14 10-14 4-7 4-11 6-11 10-12 12-9 13-6 11-3z" fill="#19E4D8"/>
<path transform="translate(439,364)" d="m0 0 20 1 20 4 19 7 15 8 16 12 11 10 9 11 9 13 8 16 5 13 4 17 1 7v32l-4 20-6 17-8 16-10 14-9 10-11 11-17 12-21 10-21 6-12 2h-30l-21-4-19-7-17-9-16-12-8-7-7-8-10-13-10-18-7-19-4-20-1-12v-10l2-19 5-19 6-15 9-16 9-12 12-13 14-11 14-9 15-7 20-6 12-2z" fill="#3E64CF"/>
<path transform="translate(1389,282)" d="m0 0h46l20 2 20 4 15 5 16 8 11 8 11 11 8 13 5 13 3 12 1 7v26l-4 18-8 17-9 12-12 12-15 10-10 5 11 6 12 11 7 10 8 16 7 23 14 58 8 29 3 7v3l-16 5-20 2-16-2-15-5-4-8-9-31-9-41-5-20-6-16-7-10-8-7-10-4-12-2-28-1v139l-8 4-15 3h-19l-18-4-6-3v-338l17-3 30-3zm21 50-16 2-2 1v104h38l16-4 12-6 10-9 6-9 4-11 1-5v-21l-3-12-6-11-8-8-9-5-11-4-14-2z"/>
<path transform="translate(1163,281)" d="m0 0h32l26 3 19 4 19 7 5 12 1 4v12l-4 10-6 8-9 8-6-1-15-5-14-3-20-2h-21l-20 3-14 4-16 8-10 7-9 8-10 13-8 16-6 18-3 15-1 9v37l2 15 5 20 7 16 7 12 9 11 9 8 13 8 12 5 16 4 7 1h23l14-2 6-2 1-84h-49l-4-6-4-13v-14l4-13 4-6h112v178l-10 4-23 6-21 4-28 3h-31l-20-2-21-4-21-7-16-8-11-7-10-8-11-10-11-14-9-15-7-15-8-24-4-19-2-16-1-28 2-27 5-25 7-21 9-19 7-11 10-13 12-13 11-9 13-9 23-12 24-8 20-4z" fill="#000001"/>
<path transform="translate(762,618)" d="m0 0h14l14 3 12 5 20 12 28 17 29 17 20 12 32 19 25 15 17 10 10 9 8 9 8 15 4 15v22l-4 15-6 12-7 9-10 10-13 8-14 5-14 2-16-1-16-5-11-6-16-10-29-17-15-9-32-19-15-9-29-17-20-12-11-7-10-9-7-9-7-14-4-15v-21l3-12 8-16 6-8 5-6 12-9 13-6 11-3z" fill="#3E64CF"/>
<path transform="translate(1600,285)" d="m0 0h185l6 8 4 10 1 10-3 14-7 12-1 1h-119v83h113l6 13 2 9v9l-3 12-5 10-1 1h-112v95h126l4 8 3 12v16l-4 14-3 5h-192z"/>
<path transform="translate(1843,285)" d="m0 0h185l5 10 2 7 1 13-2 12-6 13h-119v83h112l5 10 3 14-1 13-4 12-3 5h-112v95h126l5 15 1 6v15l-3 13-3 6h-192z"/>
<path transform="translate(329)" d="m0 0h12l15 3 13 5 12 8 13 13 8 14 5 15 1 6v19l-4 16-7 14-7 9-9 9-11 7-11 5-12 3-16 1-17-3-12-5-10-6-10-9-8-9-8-16-4-15v-21l4-16 8-15 9-11 13-10 14-7 12-3z" fill="#391548"/>
<path transform="translate(452,889)" d="m0 0h24l15 4 15 8 12 11 7 8 8 16 4 15v21l-4 15-8 16-9 11-11 9-16 8-12 3-7 1h-12l-16-3-14-6-11-8-7-6-9-12-6-13-4-16v-19l4-16 7-14 8-10 8-8 11-7 11-5z" fill="#19E5D9"/>
<path transform="translate(1533,662)" d="m0 0h8l9 24 2-2 8-22h8v35l-5-1v-26l-10 26-4 1-5-12-6-16v28h-5z" fill="#04060D"/>
<path transform="translate(1095,661)" d="m0 0h7l7 3 5 5v2h-6l-4-3-8-1-6 3-3 5v9l3 5 4 2h9l6-5 1-2h-15l-1-4 1-1h21l-1 8-5 7-6 3h-11l-7-4-4-5-2-9 2-8 6-7z" fill="#03050B"/>
<path transform="translate(1942,661)" d="m0 0h7l7 3 5 5 3 7-1 10-4 6-5 4-3 1h-11l-6-4-5-6-1-4v-8l4-8 7-5zm1 5-5 3-4 5-1 8 3 6 5 4h10l5-4 3-9-2-7-6-5z" fill="#04060E"/>
<path transform="translate(1664,661)" d="m0 0h7l8 4 4 5 2 5v9l-3 6-7 6-2 1h-11l-6-3-5-6-2-7 1-8 4-6 6-5zm1 5-6 3-3 3-1 3v9l4 6 4 2h9l6-5 2-5-1-9-6-6z" fill="#04060E"/>
<path transform="translate(1968,662)" d="m0 0h6l16 24 1-24h5v34l-5 1-8-11-9-14-1 25-5-1z" fill="#090F1F"/>
<path transform="translate(1715,662)" d="m0 0h6l10 16 5 7 1-23h5v35h-5l-13-20-3-5-1 25h-5z" fill="#010204"/>
<path transform="translate(1599,662)" d="m0 0h5l8 11 8 13 1-24h5v35h-5l-16-24v-2h-2l1 3v23h-5z" fill="#020409"/>
<path transform="translate(1145,662)" d="m0 0h6l13 20 2 5h2l-1-8v-17h5v35h-5l-12-19-4-6-1 25h-5z" fill="#03060C"/>
<path transform="translate(1819,662)" d="m0 0h6l16 24v-24h5v35l-5-1-16-24-1 25h-5z" fill="#020307"/>
<path transform="translate(1270,662)" d="m0 0h17l8 5 4 8v9l-3 6-7 6-4 1h-15zm5 5v25h11l5-3 3-6v-7l-3-6-5-3z" fill="#03040A"/>
<path transform="translate(1342,662)" d="m0 0h16l5 3 2 4v8l-4 5-5 1 9 13v1h-6l-8-10-3-5-1 15h-5zm5 5v13h7l5-2 1-2v-6l-3-3z" fill="#020408"/>
<path transform="translate(1431,662)" d="m0 0h16l6 4 1 2v10l-6 5h-3l9 12v2h-6l-10-14-2-1v15l-5-1zm5 5v12l1 1h7l5-3v-8l-3-2z" fill="#070B18"/>
<path transform="translate(1792,662)" d="m0 0h15l6 4 1 2v10l-6 5h-3l9 12v2h-6l-10-14-1 13-5 1-1-2zm5 5v13h7l5-3 1-5-2-4-2-1z" fill="#060914"/>
<path transform="translate(1062,662)" d="m0 0h6l13 34v1h-6l-3-10-14 1-4 9h-5l3-10zm2 7-4 11v2h9l-1-6-3-7z" fill="#050812"/>
<path transform="translate(1236,662)" d="m0 0h5l11 27 2 5v3h-5l-4-9-14-1-3 9-1 1h-5l6-17 7-17zm2 7-4 9v4h9l-3-10z" fill="#050811"/>
<path transform="translate(1512,662)" d="m0 0h6l13 34v1h-6l-3-10-14 1-4 9h-5l3-10zm2 7-4 11v2h9l-1-6-3-7z" fill="#050811"/>
<path transform="translate(2010,662)" d="m0 0h6l10 25 3 10h-5l-4-9-14-1-3 9-1 1h-5l6-17zm3 7-4 9v4h9l-3-10z" fill="#04070F"/>
<path transform="translate(1861,662)" d="m0 0h6l13 33v2h-5l-4-9-14-1-3 9-1 1h-5l3-9zm3 7-4 9v4h9l-3-10z" fill="#040710"/>
<path transform="translate(1191,661)" d="m0 0h7l7 3 5 5v2h-6l-4-3-8-1-6 3-3 6 1 9 4 5 2 1h10l4-3h6l-2 4-5 4-2 1h-12l-6-4-5-6-1-3v-9l4-8 5-4z" fill="#03050C"/>
<path transform="translate(1894,661)" d="m0 0h7l7 3 5 5v2h-6l-4-3-8-1-6 3-3 6v7l4 6 3 2h9l5-3h6l-3 5-6 4h-12l-8-5-4-8v-10l5-8 6-4z" fill="#03050C"/>
<path transform="translate(1407,661)" d="m0 0h7l7 3 5 5v2h-6l-4-3-8-1-6 3-3 6v7l4 6 3 2h9l5-3h6l-3 5-6 4h-12l-8-5-4-8v-10l5-8 6-4z" fill="#03060C"/>
<path transform="translate(1459,662)" d="m0 0h5l1 29h9l1-2 1-27h5v29l-4 5-2 1h-10l-5-4-1-3z" fill="#010204"/>
<path transform="translate(1574,662)" d="m0 0h19l-1 5h-12l-1 10h13l1 4-2 1h-11l-1 10h13l1 4-1 1h-18z" fill="#03060C"/>
<path transform="translate(1304,662)" d="m0 0h18l-1 5h-12v10h13l-1 5h-11l-1 10h13v5h-18z" fill="#020408"/>
<path transform="translate(1767,662)" d="m0 0h18v5h-12l-1 10h13v4l-12 1-1 10h13v5h-18z" fill="#020307"/>
<path transform="translate(1121,662)" d="m0 0h18l-1 5h-12v10h13v4l-12 1-1 10h13v5h-18z" fill="#020307"/>
<path transform="translate(1370,662)" d="m0 0h18l-1 5h-11l-1 10h13v4l-12 1-1 10h13v5h-18z" fill="#020306"/>
<path transform="translate(1484,662)" d="m0 0h19l-1 5h-6v30h-5v-30h-6z" fill="#050811"/>
<path transform="translate(1629,662)" d="m0 0h18l1 4-1 1h-6v30h-5v-30h-6z" fill="#04070F"/>
<path transform="translate(1746,662)" d="m0 0h18l-1 5h-6v30h-5v-30h-6z" fill="#03050A"/>
<path transform="translate(2031,662)" d="m0 0h5v30h12v5h-17z" fill="#000001"/>
<path transform="translate(1216,662)" d="m0 0h5v34l-5 1-1-2v-32z" fill="#0C142A"/>
<path transform="translate(1704,662)" d="m0 0h5v35h-5z" fill="#000001"/>
<path transform="translate(1918,662)" d="m0 0h5v35l-5-1z" fill="#0C1328"/>
<path transform="translate(1127,650)" d="m0 0h5l4 6v3l-4-2-1-2-8 4 2-5z" fill="#0A1123"/>
</svg>
