<svg version="1.2" xmlns="http://www.w3.org/2000/svg" viewBox="0 0 167 53" width="167" height="53">
	<title>poweredby_logo-svg</title>
	<style>
		.s0 { fill: #455161 } 
		.s1 { fill: #1978b0 } 
	</style>
	<g id="Layer">
		<path id="Layer" class="s0" d="m2.8 24.6h3.9l3.3 4.8c1.3 1.7 3.9 5.4 3.9 5.4 0 0 2.6-3.7 3.8-5.4l3.3-4.8h4v21.2h-4.6v-13.4c0 0-0.8 1.4-1.9 3l-4.6 6.6-4.7-6.7c-1.1-1.5-1.9-2.9-1.9-2.9v13.5h-4.6z"/>
		<path id="Layer" fill-rule="evenodd" class="s0" d="m27.1 37.7c0-4.7 2.9-8.5 7.4-8.5 1.9 0 3.9 0.7 5.1 2.3v-2h4.3v16.4h-4.3v-2c-1.1 1.6-3.2 2.3-5.1 2.3-4.5 0-7.4-3.8-7.4-8.5zm12.4 0c0-2.6-1.6-4.5-3.9-4.5-2.3 0-4 1.9-4 4.5 0 2.6 1.7 4.4 4 4.4 2.3 0 3.9-1.8 3.9-4.4z"/>
		<path id="Layer" class="s0" d="m46 29.5h4.3v2.2c1.3-1.8 3.2-2.6 5.2-2.6 4.3 0 5.8 2.8 5.8 7.3v9.4h-4.4v-8.8c0-2.4-0.6-3.7-2.8-3.7-2.2 0-3.7 1.8-3.7 4.3v8.2h-4.4z"/>
		<path id="Layer" class="s0" d="m64.8 46.7c2 0 2.8-0.7 3.3-2l0.4-0.7-6.8-14.5h4.4l3.3 7.6c0.5 1.2 1.1 2.8 1.1 2.8 0 0 0.7-1.9 1.1-2.9l2.9-7.5h4.4l-7.3 16.8c-1.7 4-4.8 4.4-6.8 4.4z"/>
		<path id="Layer" class="s0" d="m81.2 29.5h4.3v2.2c0.9-1.5 2.9-2.6 4.8-2.6 2.6 0 4.2 1.1 5.1 3 1.2-2 3.4-3 5.3-3 4.6 0 6 3.2 6 7.4v9.3h-4.4v-8.7c0-2.2-0.5-3.8-2.8-3.8-2.2 0-3.3 1.7-3.3 3.9v8.7h-4.4v-8.8c0-2.2-0.5-3.8-2.9-3.8-2.2 0-3.3 1.9-3.3 4.1v8.5h-4.4c0 0 0-16.4 0-16.4z"/>
		<path id="Layer" class="s0" d="m108.4 24.9c0-1.4 1.2-2.6 2.6-2.6 1.5 0 2.6 1.2 2.6 2.6 0 1.4-1.1 2.6-2.6 2.6-1.4 0-2.6-1.2-2.6-2.6zm0.4 4.6h4.4v16.3h-4.4z"/>
		<path id="Layer" class="s0" d="m115.3 29.5h4.3v2.2c1.3-1.8 3.2-2.6 5.2-2.6 4.3 0 5.8 2.8 5.8 7.3v9.4h-4.4v-8.8c0-2.4-0.6-3.7-2.8-3.7-2.2 0-3.7 1.8-3.7 4.3v8.2h-4.4c0 0 0-16.3 0-16.3z"/>
		<path id="Layer" fill-rule="evenodd" class="s0" d="m132.7 37.7c0-4.7 3-8.5 7.5-8.5 1.9 0 3.8 0.7 4.9 2.1v-7h4.4v21.6h-4.1v-2c-1.2 1.6-3.3 2.3-5.3 2.3-4.5 0-7.4-3.8-7.4-8.5zm12.4 0c0-2.6-1.6-4.5-3.9-4.5-2.3 0-4 1.9-4 4.5 0 2.6 1.7 4.4 4 4.4 2.3 0 3.9-1.8 3.9-4.4z"/>
		<path id="Layer" class="s0" d="m150.9 44l1.6-3.4c1.1 0.8 2.7 1.7 5.1 1.7 1 0 2.7-0.4 2.7-1.4 0-0.9-1.4-1.2-2.8-1.6-3.3-0.8-5.9-1.9-5.9-5 0-3.4 3.3-5.1 6.4-5.1 2.6 0 4.3 0.6 6 1.6l-1.4 3.3c-1.6-0.8-3.1-1.2-4.6-1.2-1 0-1.9 0.5-1.9 1.2 0 0.9 1.3 1.2 2.8 1.5 2.8 0.7 5.9 1.9 5.9 5.2 0 4.1-4.1 5.4-7.2 5.4-3.5 0-5.7-1.4-6.7-2.2z"/>
	</g>
	<g id="Layer">
		<path id="Layer" fill-rule="evenodd" class="s1" d="m11 11.1q0 2.2-1 3.4-1 1.3-2.7 1.3-1.5 0-2.4-1v4.4h-2.1v-12.8h1.9l0.1 0.9q0.9-1.1 2.5-1.1 1.7 0 2.7 1.3 1 1.2 1 3.5zm-2.1-0.2q0-1.4-0.6-2.2-0.5-0.8-1.5-0.8-1.3 0-1.9 1v4.2q0.6 1 1.9 1 1 0 1.5-0.8 0.6-0.8 0.6-2.4z"/>
		<path id="Layer" fill-rule="evenodd" class="s1" d="m12.3 10.9q0-1.3 0.6-2.4 0.5-1.1 1.5-1.7 1-0.6 2.3-0.6 1.8 0 3 1.2 1.2 1.2 1.3 3.2v0.5q0 1.4-0.5 2.5-0.6 1-1.6 1.6-0.9 0.6-2.2 0.6-2 0-3.2-1.3-1.2-1.3-1.2-3.5zm2.1 0.2q0 1.5 0.6 2.3 0.6 0.8 1.7 0.8 1 0 1.6-0.8 0.6-0.9 0.6-2.5 0-1.4-0.6-2.2-0.6-0.8-1.7-0.8-1 0-1.6 0.8-0.6 0.8-0.6 2.4z"/>
		<path id="Layer" class="s1" d="m30.9 12.8l1.5-6.4h2l-2.5 9.3h-1.7l-2-6.4-2 6.4h-1.7l-2.5-9.3h2l1.5 6.3 1.9-6.3h1.6z"/>
		<path id="Layer" fill-rule="evenodd" class="s1" d="m39.9 15.8q-2 0-3.2-1.2-1.2-1.3-1.2-3.4v-0.2q0-1.4 0.5-2.5 0.5-1.1 1.5-1.7 1-0.6 2.2-0.6 1.9 0 2.9 1.2 1 1.2 1.1 3.4v0.9h-6.1q0.1 1.1 0.8 1.8 0.6 0.6 1.7 0.6 1.4 0 2.3-1.1l1.1 1.1q-0.5 0.8-1.5 1.2-0.9 0.5-2.1 0.5zm-0.2-7.9q-0.9 0-1.4 0.6-0.5 0.6-0.7 1.6h4v-0.1q-0.1-1.1-0.6-1.6-0.5-0.5-1.3-0.5z"/>
		<path id="Layer" class="s1" d="m50.1 8.3q-0.4-0.1-0.8-0.1-1.5 0-2 1.1v6.3h-2v-9.3h1.9l0.1 1.1q0.7-1.2 2.1-1.2 0.4 0 0.7 0.1z"/>
		<path id="Layer" fill-rule="evenodd" class="s1" d="m55.5 15.8q-1.9 0-3.2-1.2-1.2-1.3-1.2-3.4v-0.2q0-1.4 0.5-2.5 0.6-1.1 1.6-1.7 0.9-0.6 2.1-0.6 1.9 0 2.9 1.2 1.1 1.2 1.1 3.4v0.9h-6.1q0.1 1.1 0.8 1.8 0.7 0.6 1.7 0.6 1.4 0 2.3-1.1l1.2 1.1q-0.6 0.8-1.5 1.2-1 0.5-2.2 0.5zm-0.2-7.9q-0.9 0-1.4 0.6-0.5 0.6-0.7 1.6h4v-0.1q-0.1-1.1-0.5-1.6-0.5-0.5-1.4-0.5z"/>
		<path id="Layer" fill-rule="evenodd" class="s1" d="m60.5 10.9q0-2.1 1-3.4 1-1.3 2.7-1.3 1.4 0 2.4 1v-4.7h2.1v13.2h-1.9l-0.1-1q-1 1.1-2.5 1.1-1.7 0-2.7-1.3-1-1.3-1-3.6zm2.1 0.2q0 1.4 0.5 2.2 0.6 0.8 1.6 0.8 1.3 0 1.9-1.1v-4q-0.6-1.1-1.9-1.1-1 0-1.6 0.8-0.5 0.8-0.5 2.4z"/>
		<path id="Layer" fill-rule="evenodd" class="s1" d="m83.4 11.1q0 2.2-1 3.5-1 1.2-2.7 1.2-1.6 0-2.5-1.1l-0.1 1h-1.9v-13.2h2.1v4.8q0.9-1.1 2.4-1.1 1.7 0 2.7 1.2 1 1.3 1 3.6zm-2.1-0.2q0-1.5-0.5-2.3-0.6-0.7-1.6-0.7-1.4 0-1.9 1.2v3.8q0.5 1.2 1.9 1.2 1 0 1.5-0.7 0.5-0.8 0.6-2.2v-0.3z"/>
		<path id="Layer" class="s1" d="m88.4 12.7l1.9-6.4h2.2l-3.7 10.7q-0.9 2.4-2.9 2.4-0.4 0-1-0.2v-1.6l0.4 0.1q0.8-0.1 1.2-0.3 0.4-0.3 0.6-1l0.3-0.8-3.3-9.3h2.3z"/>
	</g>
</svg>