<?xml version="1.0" standalone="no"?>
<!DOCTYPE svg PUBLIC "-//W3C//DTD SVG 20010904//EN"
 "http://www.w3.org/TR/2001/REC-SVG-20010904/DTD/svg10.dtd">
<svg version="1.0" xmlns="http://www.w3.org/2000/svg"
 width="1008.000000pt" height="320.000000pt" viewBox="0 0 1008.000000 320.000000"
 preserveAspectRatio="xMidYMid meet">
<metadata>
Created by potrace 1.16, written by Peter Selinger 2001-2019
</metadata>
<g transform="translate(0.000000,320.000000) scale(0.100000,-0.100000)"
fill="#FFFFFF" stroke="none">
<path d="M1195 2976 c-94 -21 -174 -44 -215 -64 -36 -18 -70 -32 -76 -32 -6 0
-29 -13 -51 -29 -22 -16 -59 -38 -82 -49 -43 -21 -55 -30 -179 -134 -136 -113
-311 -347 -357 -477 -7 -20 -24 -60 -38 -87 -13 -27 -39 -116 -56 -197 -27
-129 -31 -168 -31 -301 0 -130 5 -176 30 -302 18 -90 41 -175 59 -214 17 -36
39 -85 50 -110 21 -47 68 -126 135 -226 51 -76 216 -241 286 -286 30 -19 61
-42 69 -51 7 -10 19 -17 25 -17 6 0 35 -16 64 -36 30 -20 77 -44 106 -54 29
-10 67 -25 84 -34 18 -9 103 -32 189 -52 156 -35 161 -35 338 -31 152 3 198 8
295 31 139 33 307 98 374 143 26 18 54 33 61 33 6 0 25 12 40 26 15 14 45 36
66 50 57 36 229 210 275 278 60 90 111 176 134 226 12 25 34 74 51 110 18 39
41 124 59 214 25 126 30 173 30 301 0 130 -4 173 -30 296 -17 81 -43 173 -60
209 -16 36 -38 85 -49 110 -21 47 -68 126 -135 226 -75 112 -240 263 -380 348
-17 10 -53 33 -81 51 -27 18 -61 36 -75 40 -14 4 -52 20 -86 36 -38 18 -116
40 -212 59 -134 26 -172 30 -315 29 -143 -1 -180 -5 -312 -33z m103 -510 c76
-80 96 -166 71 -301 -21 -116 -66 -165 -151 -165 -47 0 -69 19 -119 102 -43
71 -44 75 -44 158 0 82 1 88 39 145 21 33 52 72 69 88 47 41 76 36 135 -27z
m570 38 c15 -9 47 -46 72 -82 l45 -66 0 -96 c0 -95 0 -95 -42 -160 -61 -94
-67 -100 -114 -100 -54 0 -106 26 -124 61 -28 53 -47 161 -41 226 7 83 28 129
84 186 50 51 76 58 120 31z m-964 -376 c75 -76 116 -152 116 -217 0 -48 -3
-54 -49 -102 l-50 -51 -65 4 c-89 5 -113 25 -153 124 -44 108 -43 140 7 212
68 101 116 108 194 30z m1354 46 c12 -4 44 -34 69 -68 63 -82 62 -115 -14
-283 -18 -38 -73 -63 -142 -63 -55 0 -82 17 -125 79 -24 35 -28 48 -24 89 6
62 79 178 139 222 43 31 57 34 97 24z m-650 -241 c37 -20 81 -46 97 -58 17
-12 45 -30 63 -39 83 -43 345 -249 369 -290 25 -43 12 -163 -46 -414 -17 -73
-40 -154 -53 -179 -28 -56 -115 -137 -165 -154 -21 -6 -50 -20 -65 -31 -15
-10 -52 -30 -84 -44 -31 -13 -72 -36 -92 -49 -91 -62 -154 -1 -155 150 0 62 4
77 37 138 21 37 42 67 47 67 4 0 23 13 41 29 18 16 56 40 84 53 140 68 254
224 215 297 -7 11 -31 31 -54 42 -53 27 -236 200 -260 245 -20 38 -44 54 -84
54 -15 1 -39 7 -53 15 -14 8 -34 14 -44 15 -28 0 -102 -50 -121 -83 -9 -16
-36 -50 -59 -76 -47 -53 -77 -134 -58 -153 6 -6 55 -15 109 -19 112 -8 143
-19 167 -60 9 -16 46 -49 81 -74 68 -49 76 -63 62 -110 -14 -42 -35 -63 -88
-90 -25 -13 -51 -31 -59 -40 -7 -9 -26 -23 -41 -30 -25 -13 -81 -112 -123
-218 -8 -20 -23 -40 -32 -44 -31 -12 -118 25 -179 77 -72 61 -89 91 -109 196
-8 43 -24 122 -35 174 -24 117 -36 238 -27 284 8 42 62 96 191 189 50 36 104
77 120 90 17 13 46 32 65 42 19 9 42 23 50 31 32 27 176 103 198 103 13 1 54
-15 90 -36z"/>
</g>
</svg>
