<svg width="33" height="33" viewBox="0 0 33 33" fill="none" xmlns="http://www.w3.org/2000/svg">
<path d="M16.4112 10.2031C11.9132 10.2031 8.07193 13.0009 6.51562 16.9501C8.07193 20.8993 11.9132 23.6971 16.4112 23.6971C20.9092 23.6971 24.7505 20.8993 26.3068 16.9501C24.7505 13.0009 20.9092 10.2031 16.4112 10.2031ZM16.4112 21.4481C13.9283 21.4481 11.9132 19.433 11.9132 16.9501C11.9132 14.4672 13.9283 12.4521 16.4112 12.4521C18.8941 12.4521 20.9092 14.4672 20.9092 16.9501C20.9092 19.433 18.8941 21.4481 16.4112 21.4481ZM16.4112 14.2513C14.9179 14.2513 13.7124 15.4568 13.7124 16.9501C13.7124 18.4434 14.9179 19.6489 16.4112 19.6489C17.9045 19.6489 19.11 18.4434 19.11 16.9501C19.11 15.4568 17.9045 14.2513 16.4112 14.2513Z" fill="#455160"/>
</svg>
