<svg width="33" height="33" viewBox="0 0 33 33" fill="none" xmlns="http://www.w3.org/2000/svg">
<path d="M16.4057 14.4435L19.2525 17.2878V17.1438C19.2525 16.4276 18.9687 15.7408 18.4634 15.2344C17.9582 14.728 17.2729 14.4435 16.5584 14.4435H16.4057ZM12.544 15.1636L13.936 16.5587C13.8911 16.7477 13.8642 16.9368 13.8642 17.1438C13.8642 17.8599 14.148 18.5468 14.6533 19.0532C15.1585 19.5596 15.8438 19.8441 16.5584 19.8441C16.7559 19.8441 16.9535 19.8171 17.1421 19.772L18.5341 21.1672C17.9324 21.4642 17.2678 21.6442 16.5584 21.6442C15.3674 21.6442 14.2253 21.1701 13.3832 20.3261C12.5411 19.4821 12.068 18.3374 12.068 17.1438C12.068 16.4327 12.2477 15.7666 12.544 15.1636ZM7.57775 10.1861L9.62533 12.2383L10.0295 12.6433C8.54765 13.8134 7.38017 15.3436 6.67969 17.1438C8.23333 21.0952 12.068 23.8945 16.5584 23.8945C17.9503 23.8945 19.2795 23.6244 20.4919 23.1384L20.878 23.5164L23.5004 26.1447L24.6409 25.0016L8.71828 9.04297M16.5584 12.6433C17.7493 12.6433 18.8914 13.1175 19.7335 13.9615C20.5756 14.8055 21.0487 15.9502 21.0487 17.1438C21.0487 17.7198 20.9319 18.2779 20.7253 18.7819L23.3567 21.4192C24.7038 20.2941 25.7814 18.818 26.437 17.1438C24.8834 13.1924 21.0487 10.3931 16.5584 10.3931C15.3011 10.3931 14.0977 10.6181 12.9661 11.0232L14.9149 12.9584C15.4268 12.7603 15.9746 12.6433 16.5584 12.6433Z" fill="#B1B3B6"/>
</svg>
