<svg width="16" height="18" viewBox="0 0 16 18" fill="none" xmlns="http://www.w3.org/2000/svg">
<path d="M7.97668 5.01928C7.28215 5.01928 6.61606 5.29518 6.12494 5.78629C5.63383 6.2774 5.35793 6.94349 5.35793 7.63803C5.35793 8.33257 5.63383 8.99866 6.12494 9.48977C6.61606 9.98088 7.28215 10.2568 7.97668 10.2568C8.67122 10.2568 9.33731 9.98088 9.82842 9.48977C10.3195 8.99866 10.5954 8.33257 10.5954 7.63803C10.5954 6.94349 10.3195 6.2774 9.82842 5.78629C9.33731 5.29518 8.67122 5.01928 7.97668 5.01928ZM6.44908 7.63803C6.44908 7.23288 6.61002 6.84433 6.8965 6.55785C7.18298 6.27137 7.57154 6.11042 7.97668 6.11042C8.38183 6.11042 8.77038 6.27137 9.05686 6.55785C9.34334 6.84433 9.50429 7.23288 9.50429 7.63803C9.50429 8.04318 9.34334 8.43173 9.05686 8.71821C8.77038 9.00469 8.38183 9.16564 7.97668 9.16564C7.57154 9.16564 7.18298 9.00469 6.8965 8.71821C6.61002 8.43173 6.44908 8.04318 6.44908 7.63803ZM13.6485 12.2208L9.24547 16.8953C9.08224 17.0686 8.88529 17.2068 8.66672 17.3012C8.44815 17.3956 8.21258 17.4443 7.9745 17.4443C7.73642 17.4443 7.50085 17.3956 7.28228 17.3012C7.06371 17.2068 6.86676 17.0686 6.70353 16.8953L2.30053 12.2208H2.31712L2.3097 12.2121L2.30053 12.2012C1.17041 10.8646 0.551695 9.17012 0.554698 7.4198C0.554698 3.32189 3.87659 0 7.9745 0C12.0724 0 15.3943 3.32189 15.3943 7.4198C15.3973 9.17012 14.7786 10.8646 13.6485 12.2012L13.6393 12.2121L13.6319 12.2208H13.6485ZM12.8004 11.5142C13.7729 10.3719 14.3058 8.92001 14.3032 7.4198C14.3032 3.92464 11.4697 1.09115 7.9745 1.09115C4.47934 1.09115 1.64585 3.92464 1.64585 7.4198C1.64312 8.92003 2.176 10.372 3.14857 11.5142L3.283 11.6727L7.49789 16.1468C7.5591 16.2118 7.63295 16.2636 7.71492 16.299C7.79688 16.3344 7.88522 16.3526 7.9745 16.3526C8.06378 16.3526 8.15212 16.3344 8.23408 16.299C8.31605 16.2636 8.3899 16.2118 8.45111 16.1468L12.666 11.6727L12.8004 11.5142Z" fill="#1B77B0"/>
</svg>
