<svg width="19" height="18" viewBox="0 0 19 18" fill="none" xmlns="http://www.w3.org/2000/svg">
<path d="M12.535 1.67969L12.1648 2.08501C11.3356 2.99657 10.6521 3.40415 10.0831 3.6708C9.51413 3.93688 9.03604 4.01637 8.56642 4.37547C8.06575 4.7588 7.33818 5.49391 7.03169 6.80629C6.37467 6.94948 5.89376 7.2009 5.51445 7.52843C5.13966 7.85201 4.85744 8.22013 4.50974 8.62095C4.50692 8.62546 4.51143 8.63391 4.50974 8.63842C4.01077 9.21118 3.57445 9.8279 2.72778 10.1537L2.375 10.2947V16.3193H13.1351C13.752 16.286 14.1798 15.8593 14.4401 15.4382C14.6997 15.0176 14.8436 14.5621 14.9164 14.1878C15.1038 13.234 15.4453 10.488 15.4453 10.488L15.4634 10.4356V10.3826C15.4453 10.0015 15.2884 9.67795 15.0926 9.37804L15.7276 7.49348L16.7334 5.97816L17.0156 5.57284L16.6448 5.23854L12.9409 2.03202L12.535 1.67969ZM12.5706 3.22996L15.5159 5.7848L14.7398 6.92918L14.6873 6.98274L14.6692 7.07068L14.1578 8.58543C13.8908 8.4755 13.616 8.39827 13.3112 8.40955H13.2756L9.71281 8.42702H9.14836V10.6115C9.06934 11.226 8.72729 11.4639 8.30169 11.6335C8.16058 11.6905 8.14308 11.6595 8.01947 11.686V8.41011C7.9269 6.32035 8.67197 5.71884 9.25448 5.27406C9.41535 5.1506 9.88666 5.00797 10.5595 4.69285C11.1217 4.42846 11.8205 3.95436 12.5706 3.22996ZM6.92614 8.07469C6.92388 8.20266 6.8838 8.29285 6.89058 8.42702V12.9369H7.45502C7.45502 12.9369 8.05898 12.9301 8.70753 12.6725C9.35552 12.4149 10.1384 11.8117 10.2773 10.7524V9.55449L13.3112 9.53702H13.3287C13.5764 9.52347 13.8195 9.60852 14.0046 9.77355C14.1898 9.93859 14.3019 10.1702 14.3164 10.4176C14.3142 10.4266 14.2882 10.6357 14.2814 10.682H11.9706V11.8094H14.1403C14.0805 12.2452 14.0258 12.5186 13.9637 12.9369H11.9706V14.0644H13.7876C13.7209 14.3371 13.6137 14.5984 13.4698 14.8395C13.3157 15.0904 13.183 15.1851 13.0645 15.1918H3.50389V10.9813C4.41886 10.4965 4.98783 9.79915 5.35584 9.37861C5.73741 8.94228 5.99931 8.61193 6.25557 8.39207C6.42321 8.24888 6.68568 8.16714 6.92614 8.07469Z" fill="#ECF2F5"/>
</svg>
