<svg width="16" height="16" viewBox="0 0 16 16" fill="none" xmlns="http://www.w3.org/2000/svg">
<path d="M7.99922 4.46886C7.30716 4.46886 6.63065 4.67408 6.05522 5.05857C5.4798 5.44305 5.03131 5.98954 4.76647 6.62892C4.50163 7.26829 4.43234 7.97185 4.56735 8.65061C4.70236 9.32936 5.03562 9.95284 5.52498 10.4422C6.01434 10.9316 6.63782 11.2648 7.31658 11.3998C7.99534 11.5348 8.69889 11.4656 9.33827 11.2007C9.97765 10.9359 10.5241 10.4874 10.9086 9.91196C11.2931 9.33654 11.4983 8.66002 11.4983 7.96796C11.4974 7.04024 11.1284 6.15079 10.4724 5.49479C9.81639 4.83879 8.92694 4.46983 7.99922 4.46886ZM7.99922 10.3007C7.53785 10.3007 7.08684 10.1639 6.70322 9.90756C6.31961 9.65124 6.02061 9.28691 5.84405 8.86066C5.66749 8.43441 5.6213 7.96538 5.71131 7.51287C5.80132 7.06036 6.02349 6.64471 6.34973 6.31847C6.67597 5.99223 7.09162 5.77006 7.54413 5.68005C7.99663 5.59004 8.46567 5.63624 8.89192 5.8128C9.31817 5.98936 9.6825 6.28835 9.93882 6.67197C10.1951 7.05558 10.332 7.50659 10.332 7.96796C10.332 8.58664 10.0862 9.17998 9.64871 9.61746C9.21124 10.0549 8.6179 10.3007 7.99922 10.3007ZM14.4142 8.12542C14.4172 8.02045 14.4172 7.91548 14.4142 7.8105L15.5019 6.45169C15.5589 6.38034 15.5984 6.2966 15.6171 6.20721C15.6359 6.11781 15.6333 6.02527 15.6098 5.93703C15.4315 5.2668 15.1648 4.6233 14.8166 4.02346C14.7711 3.94496 14.7078 3.87818 14.6319 3.82845C14.5559 3.77871 14.4694 3.74739 14.3793 3.73697L12.6501 3.54452C12.5782 3.4687 12.5053 3.3958 12.4314 3.32582L12.2273 1.59231C12.2168 1.50207 12.1854 1.41553 12.1355 1.33959C12.0856 1.26366 12.0187 1.20042 11.9401 1.15492C11.34 0.807451 10.6966 0.541 10.0265 0.362521C9.93822 0.339046 9.84564 0.336645 9.75624 0.355511C9.66685 0.374378 9.58313 0.413985 9.51185 0.471139L8.15668 1.55294H7.84176L6.48294 0.467494C6.4116 0.410465 6.32786 0.37099 6.23846 0.35225C6.14907 0.333511 6.05652 0.33603 5.96828 0.359605C5.29817 0.538225 4.6547 0.804926 4.05471 1.15273C3.97621 1.19831 3.90944 1.26159 3.8597 1.33752C3.80996 1.41346 3.77864 1.49995 3.76822 1.59012L3.57577 3.32218C3.49996 3.39459 3.42706 3.46749 3.35707 3.54087L1.62356 3.73988C1.53332 3.75038 1.44678 3.78182 1.37085 3.83168C1.29491 3.88155 1.23167 3.94847 1.18617 4.0271C0.838702 4.62717 0.57225 5.27062 0.393771 5.94067C0.370296 6.02897 0.367895 6.12155 0.386761 6.21094C0.405628 6.30034 0.445235 6.38405 0.502389 6.45533L1.5842 7.8105V8.12542L0.498744 9.48424C0.441715 9.55559 0.40224 9.63933 0.383501 9.72872C0.364761 9.81811 0.36728 9.91066 0.390855 9.9989C0.569156 10.6691 0.835875 11.3126 1.18399 11.9125C1.22957 11.991 1.29284 12.0577 1.36877 12.1075C1.44471 12.1572 1.5312 12.1885 1.62137 12.199L3.35051 12.3914C3.42293 12.4672 3.49582 12.5401 3.56921 12.6101L3.77114 14.3436C3.78163 14.4339 3.81307 14.5204 3.86294 14.5963C3.9128 14.6723 3.97972 14.7355 4.05835 14.781C4.65842 15.1285 5.30188 15.3949 5.97193 15.5734C6.06022 15.5969 6.1528 15.5993 6.2422 15.5804C6.33159 15.5616 6.41531 15.5219 6.48659 15.4648L7.84176 14.383C7.94673 14.3859 8.05171 14.3859 8.15668 14.383L9.5155 15.4706C9.58684 15.5276 9.67058 15.5671 9.75998 15.5859C9.84937 15.6046 9.94192 15.6021 10.0302 15.5785C10.7004 15.4002 11.3439 15.1335 11.9437 14.7854C12.0222 14.7398 12.089 14.6765 12.1387 14.6006C12.1885 14.5247 12.2198 14.4382 12.2302 14.348L12.4227 12.6189C12.4985 12.5469 12.5714 12.474 12.6414 12.4002L14.3749 12.196C14.4651 12.1855 14.5517 12.1541 14.6276 12.1042C14.7035 12.0544 14.7668 11.9875 14.8123 11.9088C15.1597 11.3088 15.4262 10.6653 15.6047 9.99526C15.6281 9.90696 15.6305 9.81438 15.6117 9.72499C15.5928 9.63559 15.5532 9.55188 15.4961 9.4806L14.4142 8.12542ZM13.2406 7.65159C13.253 7.86232 13.253 8.0736 13.2406 8.28434C13.2319 8.42862 13.2771 8.57098 13.3674 8.68382L14.4019 9.9763C14.2832 10.3535 14.1312 10.7195 13.9477 11.0698L12.3002 11.2564C12.1567 11.2723 12.0243 11.3409 11.9284 11.4488C11.7881 11.6067 11.6386 11.7561 11.4808 11.8964C11.3729 11.9923 11.3043 12.1247 11.2884 12.2682L11.1054 13.9143C10.7551 14.0978 10.3892 14.2498 10.0119 14.3684L8.71872 13.334C8.61524 13.2513 8.48669 13.2063 8.35423 13.2064H8.31924C8.10851 13.2188 7.89722 13.2188 7.68649 13.2064C7.54221 13.1977 7.39985 13.2429 7.28701 13.3333L5.99088 14.3684C5.61366 14.2497 5.24773 14.0977 4.89741 13.9143L4.71079 12.2689C4.69487 12.1255 4.62629 11.993 4.51834 11.8972C4.36052 11.7568 4.21107 11.6074 4.07075 11.4496C3.97491 11.3416 3.84244 11.273 3.69897 11.2571L2.05293 11.0734C1.86937 10.7231 1.71738 10.3572 1.59878 9.97995L2.6332 8.68674C2.72352 8.5739 2.76873 8.43153 2.76004 8.28726C2.74765 8.07652 2.74765 7.86524 2.76004 7.6545C2.76873 7.51022 2.72352 7.36786 2.6332 7.25502L1.59878 5.95963C1.71747 5.5824 1.86945 5.21647 2.05293 4.86616L3.69824 4.67954C3.84171 4.66361 3.97418 4.59504 4.07002 4.48709C4.21034 4.32927 4.35979 4.17982 4.51761 4.03949C4.62599 3.94359 4.69485 3.81082 4.71079 3.66699L4.89376 2.02168C5.24404 1.83812 5.60998 1.68613 5.98724 1.56752L7.28045 2.60195C7.39329 2.69227 7.53565 2.73747 7.67993 2.72879C7.89066 2.7164 8.10195 2.7164 8.31268 2.72879C8.45696 2.73747 8.59932 2.69227 8.71216 2.60195L10.0076 1.56752C10.3848 1.68622 10.7507 1.8382 11.101 2.02168L11.2876 3.66699C11.3036 3.81046 11.3721 3.94293 11.4801 4.03876C11.6379 4.17909 11.7874 4.32854 11.9277 4.48636C12.0235 4.59431 12.156 4.66288 12.2995 4.67881L13.9455 4.86178C14.1291 5.21206 14.2811 5.578 14.3997 5.95525L13.3652 7.24846C13.274 7.36225 13.2288 7.50608 13.2384 7.65159H13.2406Z" fill="#ECF2F5"/>
</svg>
