<svg width="14" height="14" viewBox="0 0 14 14" fill="none" xmlns="http://www.w3.org/2000/svg">
<path fill-rule="evenodd" clip-rule="evenodd" d="M1.74392 1.71267C1.74392 1.31439 1.90214 0.932416 2.18377 0.650786C2.4654 0.369156 2.84737 0.210938 3.24566 0.210938H10.7543C11.1526 0.210938 11.5346 0.369156 11.8162 0.650786C12.0979 0.932416 12.2561 1.31439 12.2561 1.71267V2.46354H13.0069C13.2061 2.46354 13.3971 2.54265 13.5379 2.68347C13.6787 2.82428 13.7578 3.01527 13.7578 3.21441C13.7578 3.41355 13.6787 3.60454 13.5379 3.74535C13.3971 3.88617 13.2061 3.96528 13.0069 3.96528V12.2248C13.2061 12.2248 13.3971 12.3039 13.5379 12.4448C13.6787 12.5856 13.7578 12.7766 13.7578 12.9757C13.7578 13.1748 13.6787 13.3658 13.5379 13.5066C13.3971 13.6475 13.2061 13.7266 13.0069 13.7266H0.993056C0.793913 13.7266 0.602927 13.6475 0.462112 13.5066C0.321297 13.3658 0.242188 13.1748 0.242188 12.9757C0.242188 12.7766 0.321297 12.5856 0.462112 12.4448C0.602927 12.3039 0.793913 12.2248 0.993056 12.2248V3.96528C0.793913 3.96528 0.602927 3.88617 0.462112 3.74535C0.321297 3.60454 0.242188 3.41355 0.242188 3.21441C0.242188 3.01527 0.321297 2.82428 0.462112 2.68347C0.602927 2.54265 0.793913 2.46354 0.993056 2.46354H1.74392V1.71267ZM10.7543 1.71267V2.46354H3.24566V1.71267H10.7543ZM11.5052 3.96528V12.2248H8.87717V10.3477C8.87717 9.8498 8.6794 9.37233 8.32736 9.0203C7.97532 8.66826 7.49786 8.47049 7 8.47049C6.50214 8.47049 6.02468 8.66826 5.67264 9.0203C5.3206 9.37233 5.12283 9.8498 5.12283 10.3477V12.2248H2.49479V3.96528H11.5052ZM7 9.97222C7.09957 9.97222 7.19507 10.0118 7.26547 10.0822C7.33588 10.1526 7.37543 10.2481 7.37543 10.3477V12.2248H6.62457V10.3477C6.62457 10.2481 6.66412 10.1526 6.73453 10.0822C6.80494 10.0118 6.90043 9.97222 7 9.97222ZM3.99653 7.71962C4.19567 7.71962 4.38666 7.79873 4.52747 7.93954C4.66829 8.08036 4.7474 8.27134 4.7474 8.47049V9.22135C4.7474 9.4205 4.66829 9.61148 4.52747 9.7523C4.38666 9.89311 4.19567 9.97222 3.99653 9.97222C3.79739 9.97222 3.6064 9.89311 3.46558 9.7523C3.32477 9.61148 3.24566 9.4205 3.24566 9.22135V8.47049C3.24566 8.27134 3.32477 8.08036 3.46558 7.93954C3.6064 7.79873 3.79739 7.71962 3.99653 7.71962ZM10.0035 7.71962C10.1874 7.71964 10.3649 7.78716 10.5023 7.90937C10.6398 8.03158 10.7276 8.19999 10.7491 8.38264L10.7543 8.47049V9.22135C10.7541 9.41273 10.6808 9.59681 10.5495 9.73598C10.4181 9.87514 10.2385 9.95888 10.0475 9.9701C9.85643 9.98132 9.6683 9.91916 9.52154 9.79632C9.37478 9.67349 9.28046 9.49925 9.25786 9.30921L9.2526 9.22135V8.47049C9.2526 8.27134 9.33171 8.08036 9.47253 7.93954C9.61334 7.79873 9.80433 7.71962 10.0035 7.71962ZM3.99653 4.71615C4.18044 4.71617 4.35795 4.78369 4.49538 4.9059C4.63282 5.02811 4.72062 5.19651 4.74214 5.37916L4.7474 5.46701V6.21788C4.74718 6.40926 4.6739 6.59334 4.54252 6.7325C4.41114 6.87167 4.23158 6.95541 4.04053 6.96663C3.84948 6.97784 3.66136 6.91568 3.5146 6.79285C3.36784 6.67001 3.27352 6.49577 3.25092 6.30573L3.24566 6.21788V5.46701C3.24566 5.26787 3.32477 5.07689 3.46558 4.93607C3.6064 4.79526 3.79739 4.71615 3.99653 4.71615ZM7 4.71615C7.18391 4.71617 7.36142 4.78369 7.49886 4.9059C7.63629 5.02811 7.72409 5.19651 7.74561 5.37916L7.75087 5.46701V6.21788C7.75066 6.40926 7.67737 6.59334 7.546 6.7325C7.41462 6.87167 7.23506 6.95541 7.044 6.96663C6.85295 6.97784 6.66483 6.91568 6.51807 6.79285C6.37131 6.67001 6.27699 6.49577 6.25439 6.30573L6.24913 6.21788V5.46701C6.24913 5.26787 6.32824 5.07689 6.46906 4.93607C6.60987 4.79526 6.80086 4.71615 7 4.71615ZM10.0035 4.71615C10.2026 4.71615 10.3936 4.79526 10.5344 4.93607C10.6752 5.07689 10.7543 5.26787 10.7543 5.46701V6.21788C10.7543 6.41702 10.6752 6.60801 10.5344 6.74883C10.3936 6.88964 10.2026 6.96875 10.0035 6.96875C9.80433 6.96875 9.61334 6.88964 9.47253 6.74883C9.33171 6.60801 9.2526 6.41702 9.2526 6.21788V5.46701C9.2526 5.26787 9.33171 5.07689 9.47253 4.93607C9.61334 4.79526 9.80433 4.71615 10.0035 4.71615Z" fill="#ECF2F5"/>
</svg>
