<svg width="18" height="18" viewBox="0 0 18 18" fill="none" xmlns="http://www.w3.org/2000/svg">
<g id="icon-importar">
<path id="Vector" d="M5 14C3.89697 14 2.95467 13.6368 2.17309 12.9104C1.39152 12.184 1.00048 11.2961 1 10.2469C1 9.34748 1.28485 8.54612 1.85455 7.84277C2.42424 7.13941 3.1697 6.68973 4.09091 6.49371C4.29697 5.66352 4.81212 4.87369 5.63636 4.12421C6.46061 3.37474 7.33939 3 8.27273 3C8.67273 3 9.01527 3.1356 9.30036 3.40679C9.58545 3.67799 9.72776 4.00361 9.72727 4.38365V8.56918L10.8909 7.49686L11.9091 8.46541L9 11.2327L6.09091 8.46541L7.10909 7.49686L8.27273 8.56918V4.38365C7.35152 4.54507 6.63636 4.96893 6.12727 5.65522C5.61818 6.34151 5.36364 7.04763 5.36364 7.77358H5C4.29697 7.77358 3.69697 8.00996 3.2 8.4827C2.70303 8.95545 2.45455 9.52621 2.45455 10.195C2.45455 10.8637 2.70303 11.4345 3.2 11.9072C3.69697 12.38 4.29697 12.6164 5 12.6164H13.7273C14.2364 12.6164 14.6667 12.4492 15.0182 12.1148C15.3697 11.7804 15.5455 11.3711 15.5455 10.8868C15.5455 10.4025 15.3697 9.99319 15.0182 9.6588C14.6667 9.32442 14.2364 9.15723 13.7273 9.15723H12.6364V7.77358C12.6364 7.22013 12.503 6.70403 12.2364 6.22528C11.9697 5.74654 11.6182 5.34021 11.1818 5.00629V3.3978C12.0788 3.80136 12.7879 4.39818 13.3091 5.18824C13.8303 5.9783 14.0909 6.84008 14.0909 7.77358C14.9273 7.86583 15.6213 8.20897 16.1731 8.80302C16.7248 9.39707 17.0005 10.0917 17 10.8868C17 11.7516 16.6819 12.4867 16.0458 13.0923C15.4097 13.6979 14.6368 14.0005 13.7273 14H5Z" fill="white"/>
</g>
</svg>
