<svg width="24" height="24" viewBox="0 0 24 24" fill="none" xmlns="http://www.w3.org/2000/svg">
<path d="M13.3539 18.0048C13.3539 18.2653 13.2766 18.5199 13.132 18.7364C12.9873 18.953 12.7816 19.1217 12.541 19.2214C12.3004 19.3211 12.0356 19.3471 11.7802 19.2963C11.5248 19.2455 11.2901 19.1201 11.106 18.9359C10.9218 18.7518 10.7964 18.5172 10.7456 18.2617C10.6948 18.0063 10.7209 17.7415 10.8205 17.5009C10.9202 17.2603 11.089 17.0547 11.3055 16.91C11.5221 16.7653 11.7767 16.6881 12.0371 16.6881C12.3863 16.6881 12.7212 16.8268 12.9682 17.0737C13.2151 17.3207 13.3539 17.6556 13.3539 18.0048ZM12.0371 6.15383C9.61641 6.15383 7.64783 7.926 7.64783 10.1042V10.5431C7.64783 10.7759 7.74031 10.9992 7.90494 11.1638C8.06957 11.3285 8.29286 11.4209 8.52568 11.4209C8.7585 11.4209 8.98178 11.3285 9.14641 11.1638C9.31104 10.9992 9.40353 10.7759 9.40353 10.5431V10.1042C9.40353 8.89712 10.5853 7.90954 12.0371 7.90954C13.4888 7.90954 14.6706 8.89712 14.6706 10.1042C14.6706 11.3112 13.4888 12.2988 12.0371 12.2988C11.8043 12.2988 11.581 12.3913 11.4164 12.5559C11.2517 12.7205 11.1592 12.9438 11.1592 13.1767V14.0545C11.1592 14.2873 11.2517 14.5106 11.4164 14.6752C11.581 14.8399 11.8043 14.9324 12.0371 14.9324C12.2699 14.9324 12.4932 14.8399 12.6578 14.6752C12.8225 14.5106 12.9149 14.2873 12.9149 14.0545V13.9755C14.9164 13.6079 16.4264 12.0113 16.4264 10.1042C16.4264 7.926 14.4578 6.15383 12.0371 6.15383ZM23.4492 12.2988C23.4492 14.5559 22.7799 16.7623 21.5259 18.639C20.2719 20.5157 18.4896 21.9784 16.4043 22.8422C14.319 23.7059 12.0244 23.9319 9.8107 23.4916C7.59697 23.0513 5.56354 21.9644 3.96753 20.3684C2.37152 18.7724 1.28462 16.7389 0.844285 14.5252C0.403947 12.3115 0.629945 10.0169 1.4937 7.93159C2.35745 5.8463 3.82017 4.06398 5.69687 2.81C7.57358 1.55603 9.77999 0.886719 12.0371 0.886719C15.0628 0.889914 17.9636 2.09328 20.1031 4.23277C22.2426 6.37226 23.446 9.27311 23.4492 12.2988ZM21.6935 12.2988C21.6935 10.389 21.1271 8.52199 20.0661 6.93401C19.005 5.34602 17.4969 4.10834 15.7324 3.37747C13.968 2.6466 12.0264 2.45538 10.1532 2.82797C8.28007 3.20056 6.55947 4.12024 5.209 5.47071C3.85853 6.82118 2.93885 8.54178 2.56625 10.4149C2.19366 12.2881 2.38489 14.2297 3.11576 15.9941C3.84663 17.7586 5.08431 19.2667 6.67229 20.3278C8.26028 21.3888 10.1272 21.9552 12.0371 21.9552C14.5972 21.9523 17.0517 20.934 18.862 19.1237C20.6723 17.3134 21.6906 14.8589 21.6935 12.2988Z" fill="#ECF2F5"/>
</svg>
