<svg width="14" height="16" viewBox="0 0 14 16" fill="none" xmlns="http://www.w3.org/2000/svg">
<path d="M12.7216 4.35521H10.2901V4.06617C10.2901 2.23075 8.8169 0.742188 7.0004 0.742188C5.18391 0.742188 3.71069 2.23075 3.71069 4.06617V4.35521H1.27916C0.962699 4.35521 0.707031 4.61354 0.707031 4.9333V14.6162C0.707031 14.936 0.962699 15.1943 1.27916 15.1943H12.7216C13.0381 15.1943 13.2938 14.936 13.2938 14.6162V4.9333C13.2938 4.61354 13.0381 4.35521 12.7216 4.35521ZM4.99797 4.06617C4.99797 2.94794 5.8937 2.04288 7.0004 2.04288C8.1071 2.04288 9.00284 2.94794 9.00284 4.06617V4.35521H4.99797V4.06617ZM12.0065 13.8936H1.99431V5.6559H3.71069V7.24563C3.71069 7.32512 3.77505 7.39015 3.85372 7.39015H4.85493C4.9336 7.39015 4.99797 7.32512 4.99797 7.24563V5.6559H9.00284V7.24563C9.00284 7.32512 9.0672 7.39015 9.14587 7.39015H10.1471C10.2258 7.39015 10.2901 7.32512 10.2901 7.24563V5.6559H12.0065V13.8936Z" fill="#ECF2F5"/>
</svg>
