<svg width="16" height="16" viewBox="0 0 16 16" fill="none" xmlns="http://www.w3.org/2000/svg">
<path fill-rule="evenodd" clip-rule="evenodd" d="M8.00163 0.257812C7.56757 0.257812 7.16795 0.36543 6.73103 0.546226C6.30845 0.721284 5.81772 0.978847 5.20717 1.29955L3.72349 2.07798C2.97375 2.47114 2.37468 2.7861 1.9105 3.09532C1.43124 3.41602 1.06104 3.75322 0.791994 4.21023C0.523668 4.66581 0.403137 5.15941 0.345023 5.747C0.289062 6.31737 0.289063 7.01832 0.289063 7.90078V8.03997C0.289063 8.92243 0.289062 9.62337 0.345023 10.1937C0.403137 10.782 0.524385 11.2749 0.791994 11.7305C1.06104 12.1875 1.43052 12.5247 1.91121 12.8454C2.37397 13.1546 2.97375 13.4696 3.72349 13.8628L5.20717 14.6412C5.81772 14.9619 6.30845 15.2195 6.73103 15.3945C7.16867 15.5753 7.56757 15.6829 8.00163 15.6829C8.43569 15.6829 8.8353 15.5753 9.27223 15.3945C9.69481 15.2195 10.1855 14.9619 10.7961 14.6412L12.2798 13.8635C13.0295 13.4696 13.6286 13.1546 14.092 12.8454C14.5727 12.5247 14.9422 12.1875 15.2113 11.7305C15.4796 11.2749 15.6001 10.7813 15.6582 10.1937C15.7142 9.62337 15.7142 8.92243 15.7142 8.04068V7.90006C15.7142 7.01832 15.7142 6.31737 15.6582 5.747C15.6001 5.1587 15.4789 4.66581 15.2113 4.21023C14.9422 3.75322 14.5727 3.41602 14.092 3.09532C13.6293 2.7861 13.0295 2.47114 12.2798 2.07798L10.7961 1.29955C10.1855 0.978847 9.69481 0.721284 9.27223 0.546226C8.83459 0.36543 8.43569 0.257812 8.00163 0.257812ZM5.68427 2.2638C6.3228 1.92875 6.77049 1.69486 7.14213 1.54133C7.50372 1.39138 7.75841 1.33398 8.00163 1.33398C8.24556 1.33398 8.49954 1.39138 8.86113 1.54133C9.23277 1.69486 9.67974 1.92875 10.3183 2.2638L11.7532 3.01712C12.5352 3.42678 13.084 3.71591 13.4951 3.98997C13.6974 4.12557 13.856 4.25113 13.9851 4.3774L11.5953 5.57195L5.49702 2.36209L5.68427 2.2638ZM4.37493 2.95111L4.25009 3.01712C3.46807 3.42678 2.91923 3.71591 2.50885 3.98997C2.33374 4.10349 2.16968 4.2332 2.01883 4.3774L8.00163 7.36915L10.4101 6.16384L4.52272 3.0659C4.46712 3.03658 4.4171 2.99772 4.37493 2.95111ZM1.50011 5.32084C1.46424 5.47437 1.43626 5.64871 1.41617 5.85175C1.36595 6.36401 1.36523 7.01186 1.36523 7.92804V8.01198C1.36523 8.92888 1.36523 9.57674 1.41617 10.0883C1.46568 10.5883 1.55966 10.9119 1.71965 11.1845C1.87893 11.455 2.10923 11.6839 2.50885 11.9508C2.91923 12.2248 3.46807 12.514 4.25009 12.9236L5.68499 13.677C6.32352 14.012 6.77049 14.2459 7.14213 14.3994C7.25979 14.4482 7.36525 14.4869 7.46354 14.5178V8.30255L1.50011 5.32084ZM8.53971 14.5171C8.63801 14.4869 8.74347 14.4482 8.86113 14.3994C9.23277 14.2459 9.67974 14.012 10.3183 13.677L11.7532 12.9236C12.5352 12.5132 13.084 12.2248 13.4951 11.9508C13.894 11.6839 14.1243 11.455 14.2843 11.1845C14.4443 10.9119 14.5376 10.5891 14.5871 10.0883C14.6373 9.57674 14.638 8.92888 14.638 8.0127V7.92876C14.638 7.01186 14.638 6.36401 14.5871 5.85247C14.5709 5.67383 14.5429 5.49647 14.5031 5.32156L12.127 6.50893V8.68782C12.127 8.83053 12.0703 8.96739 11.9694 9.0683C11.8684 9.16921 11.7316 9.22591 11.5889 9.22591C11.4462 9.22591 11.3093 9.16921 11.2084 9.0683C11.1075 8.96739 11.0508 8.83053 11.0508 8.68782V7.04774L8.53971 8.30327V14.5171Z" fill="#ECF2F5"/>
</svg>
