<svg width="24" height="23" viewBox="0 0 24 23" fill="none" xmlns="http://www.w3.org/2000/svg">
<path d="M11.7599 3.41745V1.26745C11.7599 1.07738 11.8354 0.895089 11.9698 0.760688C12.1042 0.626287 12.2865 0.550781 12.4766 0.550781C12.6666 0.550781 12.8489 0.626287 12.9833 0.760688C13.1177 0.895089 13.1932 1.07738 13.1932 1.26745V3.41745C13.1932 3.60752 13.1177 3.78981 12.9833 3.92421C12.8489 4.05861 12.6666 4.13411 12.4766 4.13411C12.2865 4.13411 12.1042 4.05861 11.9698 3.92421C11.8354 3.78981 11.7599 3.60752 11.7599 3.41745ZM18.2099 11.3008C18.2099 12.4347 17.8736 13.5432 17.2437 14.486C16.6137 15.4289 15.7182 16.1637 14.6706 16.5977C13.623 17.0316 12.4702 17.1452 11.358 16.924C10.2459 16.7027 9.2243 16.1567 8.42248 15.3549C7.62066 14.553 7.07462 13.5315 6.85339 12.4193C6.63217 11.3071 6.74571 10.1544 7.17965 9.10673C7.6136 8.0591 8.34845 7.16367 9.29129 6.53369C10.2341 5.9037 11.3426 5.56745 12.4766 5.56745C13.9966 5.56911 15.454 6.17369 16.5288 7.24854C17.6037 8.32338 18.2082 9.78072 18.2099 11.3008ZM16.7766 11.3008C16.7766 10.4503 16.5244 9.61896 16.0519 8.91183C15.5794 8.2047 14.9078 7.65356 14.1221 7.3281C13.3364 7.00264 12.4718 6.91749 11.6377 7.0834C10.8036 7.24932 10.0374 7.65886 9.436 8.26022C8.83464 8.86159 8.4251 9.62777 8.25919 10.4619C8.09327 11.296 8.17842 12.1606 8.50388 12.9463C8.82934 13.732 9.38048 14.4036 10.0876 14.8761C10.7947 15.3486 11.6261 15.6008 12.4766 15.6008C13.6166 15.5996 14.7097 15.1462 15.5158 14.34C16.322 13.5339 16.7754 12.4408 16.7766 11.3008ZM6.23619 6.07449C6.37066 6.20897 6.55305 6.28451 6.74323 6.28451C6.93341 6.28451 7.11579 6.20896 7.25027 6.07449C7.38475 5.94001 7.46029 5.75763 7.46029 5.56745C7.46029 5.37727 7.38475 5.19488 7.25027 5.06041L5.81694 3.62707C5.68246 3.4926 5.50007 3.41705 5.3099 3.41705C5.11972 3.41705 4.93733 3.4926 4.80285 3.62707C4.66838 3.76155 4.59283 3.94394 4.59283 4.13411C4.59283 4.32429 4.66838 4.50668 4.80285 4.64116L6.23619 6.07449ZM6.23619 16.5271L4.80285 17.9604C4.66838 18.0949 4.59283 18.2773 4.59283 18.4674C4.59283 18.6576 4.66838 18.84 4.80285 18.9745C4.93733 19.109 5.11972 19.1845 5.3099 19.1845C5.50007 19.1845 5.68246 19.109 5.81694 18.9745L7.25027 17.5412C7.31686 17.4746 7.36968 17.3955 7.40571 17.3085C7.44175 17.2215 7.46029 17.1283 7.46029 17.0341C7.46029 16.9399 7.44175 16.8467 7.40571 16.7597C7.36968 16.6727 7.31686 16.5937 7.25027 16.5271C7.18369 16.4605 7.10464 16.4077 7.01764 16.3716C6.93064 16.3356 6.8374 16.317 6.74323 16.317C6.64906 16.317 6.55582 16.3356 6.46882 16.3716C6.38182 16.4077 6.30277 16.4605 6.23619 16.5271ZM18.2099 6.28411C18.304 6.28419 18.3973 6.26571 18.4843 6.22975C18.5713 6.19378 18.6503 6.14102 18.7169 6.07449L20.1503 4.64116C20.2847 4.50668 20.3603 4.32429 20.3603 4.13411C20.3603 3.94394 20.2847 3.76155 20.1503 3.62707C20.0158 3.4926 19.8334 3.41705 19.6432 3.41705C19.4531 3.41705 19.2707 3.4926 19.1362 3.62707L17.7029 5.06041C17.6025 5.16064 17.5342 5.28838 17.5065 5.42748C17.4788 5.56657 17.493 5.71076 17.5472 5.84178C17.6015 5.9728 17.6935 6.08477 17.8114 6.16351C17.9294 6.24225 18.0681 6.28423 18.2099 6.28411ZM18.7169 16.5271C18.5825 16.3926 18.4001 16.317 18.2099 16.317C18.0197 16.317 17.8373 16.3926 17.7029 16.5271C17.5684 16.6615 17.4928 16.8439 17.4928 17.0341C17.4928 17.2243 17.5684 17.4067 17.7029 17.5412L19.1362 18.9745C19.2028 19.0411 19.2818 19.0939 19.3688 19.1299C19.4558 19.166 19.5491 19.1845 19.6432 19.1845C19.7374 19.1845 19.8306 19.166 19.9176 19.1299C20.0046 19.0939 20.0837 19.0411 20.1503 18.9745C20.2169 18.9079 20.2697 18.8289 20.3057 18.7419C20.3417 18.6549 20.3603 18.5616 20.3603 18.4674C20.3603 18.3733 20.3417 18.28 20.3057 18.193C20.2697 18.106 20.2169 18.027 20.1503 17.9604L18.7169 16.5271ZM5.3099 11.3008C5.3099 11.1107 5.23439 10.9284 5.09999 10.794C4.96559 10.6596 4.7833 10.5841 4.59323 10.5841H2.44323C2.25316 10.5841 2.07087 10.6596 1.93647 10.794C1.80207 10.9284 1.72656 11.1107 1.72656 11.3008C1.72656 11.4909 1.80207 11.6731 1.93647 11.8075C2.07087 11.9419 2.25316 12.0174 2.44323 12.0174H4.59323C4.7833 12.0174 4.96559 11.9419 5.09999 11.8075C5.23439 11.6731 5.3099 11.4909 5.3099 11.3008ZM12.4766 18.4674C12.2865 18.4674 12.1042 18.543 11.9698 18.6774C11.8354 18.8118 11.7599 18.994 11.7599 19.1841V21.3341C11.7599 21.5242 11.8354 21.7065 11.9698 21.8409C12.1042 21.9753 12.2865 22.0508 12.4766 22.0508C12.6666 22.0508 12.8489 21.9753 12.9833 21.8409C13.1177 21.7065 13.1932 21.5242 13.1932 21.3341V19.1841C13.1932 18.994 13.1177 18.8118 12.9833 18.6774C12.8489 18.543 12.6666 18.4674 12.4766 18.4674ZM22.5099 10.5841H20.3599C20.1698 10.5841 19.9875 10.6596 19.8531 10.794C19.7187 10.9284 19.6432 11.1107 19.6432 11.3008C19.6432 11.4909 19.7187 11.6731 19.8531 11.8075C19.9875 11.9419 20.1698 12.0174 20.3599 12.0174H22.5099C22.7 12.0174 22.8823 11.9419 23.0167 11.8075C23.1511 11.6731 23.2266 11.4909 23.2266 11.3008C23.2266 11.1107 23.1511 10.9284 23.0167 10.794C22.8823 10.6596 22.7 10.5841 22.5099 10.5841Z" fill="#ECF2F5"/>
</svg>
